<?xml version="1.0" encoding="utf-8" standalone="no"?>
<!DOCTYPE svg PUBLIC "-//W3C//DTD SVG 1.1//EN"
  "http://www.w3.org/Graphics/SVG/1.1/DTD/svg11.dtd">
<!-- Created with matplotlib (https://matplotlib.org/) -->
<svg height="779.76pt" version="1.1" viewBox="0 0 1382.4 779.76" width="1382.4pt" xmlns="http://www.w3.org/2000/svg" xmlns:xlink="http://www.w3.org/1999/xlink">
 <defs>
  <style type="text/css">
*{stroke-linecap:butt;stroke-linejoin:round;}
  </style>
 </defs>
 <g id="figure_1">
  <g id="patch_1">
   <path d="M 0 779.76 
L 1382.4 779.76 
L 1382.4 0 
L 0 0 
z
" style="fill:#ffffff;"/>
  </g>
  <g id="axes_1">
   <g id="patch_2">
    <path d="M 172.8 693.9864 
L 1244.16 693.9864 
L 1244.16 93.5712 
L 172.8 93.5712 
z
" style="fill:#ffffff;"/>
   </g>
   <g id="matplotlib.axis_1">
    <g id="xtick_1">
     <g id="line2d_1">
      <defs>
       <path d="M 0 0 
L 0 3.5 
" id="me246ba29bd" style="stroke:#000000;stroke-width:0.8;"/>
      </defs>
      <g>
       <use style="stroke:#000000;stroke-width:0.8;" x="221.498182" xlink:href="#me246ba29bd" y="693.9864"/>
      </g>
     </g>
     <g id="text_1">
      <!-- 0 -->
      <defs>
       <path d="M 31.78125 66.40625 
Q 24.171875 66.40625 20.328125 58.90625 
Q 16.5 51.421875 16.5 36.375 
Q 16.5 21.390625 20.328125 13.890625 
Q 24.171875 6.390625 31.78125 6.390625 
Q 39.453125 6.390625 43.28125 13.890625 
Q 47.125 21.390625 47.125 36.375 
Q 47.125 51.421875 43.28125 58.90625 
Q 39.453125 66.40625 31.78125 66.40625 
z
M 31.78125 74.21875 
Q 44.046875 74.21875 50.515625 64.515625 
Q 56.984375 54.828125 56.984375 36.375 
Q 56.984375 17.96875 50.515625 8.265625 
Q 44.046875 -1.421875 31.78125 -1.421875 
Q 19.53125 -1.421875 13.0625 8.265625 
Q 6.59375 17.96875 6.59375 36.375 
Q 6.59375 54.828125 13.0625 64.515625 
Q 19.53125 74.21875 31.78125 74.21875 
z
" id="DejaVuSans-48"/>
      </defs>
      <g transform="translate(218.316932 708.584838)scale(0.1 -0.1)">
       <use xlink:href="#DejaVuSans-48"/>
      </g>
     </g>
    </g>
    <g id="xtick_2">
     <g id="line2d_2">
      <g>
       <use style="stroke:#000000;stroke-width:0.8;" x="348.647482" xlink:href="#me246ba29bd" y="693.9864"/>
      </g>
     </g>
     <g id="text_2">
      <!-- 50 -->
      <defs>
       <path d="M 10.796875 72.90625 
L 49.515625 72.90625 
L 49.515625 64.59375 
L 19.828125 64.59375 
L 19.828125 46.734375 
Q 21.96875 47.46875 24.109375 47.828125 
Q 26.265625 48.1875 28.421875 48.1875 
Q 40.625 48.1875 47.75 41.5 
Q 54.890625 34.8125 54.890625 23.390625 
Q 54.890625 11.625 47.5625 5.09375 
Q 40.234375 -1.421875 26.90625 -1.421875 
Q 22.3125 -1.421875 17.546875 -0.640625 
Q 12.796875 0.140625 7.71875 1.703125 
L 7.71875 11.625 
Q 12.109375 9.234375 16.796875 8.0625 
Q 21.484375 6.890625 26.703125 6.890625 
Q 35.15625 6.890625 40.078125 11.328125 
Q 45.015625 15.765625 45.015625 23.390625 
Q 45.015625 31 40.078125 35.4375 
Q 35.15625 39.890625 26.703125 39.890625 
Q 22.75 39.890625 18.8125 39.015625 
Q 14.890625 38.140625 10.796875 36.28125 
z
" id="DejaVuSans-53"/>
      </defs>
      <g transform="translate(342.284982 708.584838)scale(0.1 -0.1)">
       <use xlink:href="#DejaVuSans-53"/>
       <use x="63.623047" xlink:href="#DejaVuSans-48"/>
      </g>
     </g>
    </g>
    <g id="xtick_3">
     <g id="line2d_3">
      <g>
       <use style="stroke:#000000;stroke-width:0.8;" x="475.796781" xlink:href="#me246ba29bd" y="693.9864"/>
      </g>
     </g>
     <g id="text_3">
      <!-- 100 -->
      <defs>
       <path d="M 12.40625 8.296875 
L 28.515625 8.296875 
L 28.515625 63.921875 
L 10.984375 60.40625 
L 10.984375 69.390625 
L 28.421875 72.90625 
L 38.28125 72.90625 
L 38.28125 8.296875 
L 54.390625 8.296875 
L 54.390625 0 
L 12.40625 0 
z
" id="DejaVuSans-49"/>
      </defs>
      <g transform="translate(466.253031 708.584838)scale(0.1 -0.1)">
       <use xlink:href="#DejaVuSans-49"/>
       <use x="63.623047" xlink:href="#DejaVuSans-48"/>
       <use x="127.246094" xlink:href="#DejaVuSans-48"/>
      </g>
     </g>
    </g>
    <g id="xtick_4">
     <g id="line2d_4">
      <g>
       <use style="stroke:#000000;stroke-width:0.8;" x="602.946081" xlink:href="#me246ba29bd" y="693.9864"/>
      </g>
     </g>
     <g id="text_4">
      <!-- 150 -->
      <g transform="translate(593.402331 708.584838)scale(0.1 -0.1)">
       <use xlink:href="#DejaVuSans-49"/>
       <use x="63.623047" xlink:href="#DejaVuSans-53"/>
       <use x="127.246094" xlink:href="#DejaVuSans-48"/>
      </g>
     </g>
    </g>
    <g id="xtick_5">
     <g id="line2d_5">
      <g>
       <use style="stroke:#000000;stroke-width:0.8;" x="730.095381" xlink:href="#me246ba29bd" y="693.9864"/>
      </g>
     </g>
     <g id="text_5">
      <!-- 200 -->
      <defs>
       <path d="M 19.1875 8.296875 
L 53.609375 8.296875 
L 53.609375 0 
L 7.328125 0 
L 7.328125 8.296875 
Q 12.9375 14.109375 22.625 23.890625 
Q 32.328125 33.6875 34.8125 36.53125 
Q 39.546875 41.84375 41.421875 45.53125 
Q 43.3125 49.21875 43.3125 52.78125 
Q 43.3125 58.59375 39.234375 62.25 
Q 35.15625 65.921875 28.609375 65.921875 
Q 23.96875 65.921875 18.8125 64.3125 
Q 13.671875 62.703125 7.8125 59.421875 
L 7.8125 69.390625 
Q 13.765625 71.78125 18.9375 73 
Q 24.125 74.21875 28.421875 74.21875 
Q 39.75 74.21875 46.484375 68.546875 
Q 53.21875 62.890625 53.21875 53.421875 
Q 53.21875 48.921875 51.53125 44.890625 
Q 49.859375 40.875 45.40625 35.40625 
Q 44.1875 33.984375 37.640625 27.21875 
Q 31.109375 20.453125 19.1875 8.296875 
z
" id="DejaVuSans-50"/>
      </defs>
      <g transform="translate(720.551631 708.584838)scale(0.1 -0.1)">
       <use xlink:href="#DejaVuSans-50"/>
       <use x="63.623047" xlink:href="#DejaVuSans-48"/>
       <use x="127.246094" xlink:href="#DejaVuSans-48"/>
      </g>
     </g>
    </g>
    <g id="xtick_6">
     <g id="line2d_6">
      <g>
       <use style="stroke:#000000;stroke-width:0.8;" x="857.244681" xlink:href="#me246ba29bd" y="693.9864"/>
      </g>
     </g>
     <g id="text_6">
      <!-- 250 -->
      <g transform="translate(847.700931 708.584838)scale(0.1 -0.1)">
       <use xlink:href="#DejaVuSans-50"/>
       <use x="63.623047" xlink:href="#DejaVuSans-53"/>
       <use x="127.246094" xlink:href="#DejaVuSans-48"/>
      </g>
     </g>
    </g>
    <g id="xtick_7">
     <g id="line2d_7">
      <g>
       <use style="stroke:#000000;stroke-width:0.8;" x="984.393981" xlink:href="#me246ba29bd" y="693.9864"/>
      </g>
     </g>
     <g id="text_7">
      <!-- 300 -->
      <defs>
       <path d="M 40.578125 39.3125 
Q 47.65625 37.796875 51.625 33 
Q 55.609375 28.21875 55.609375 21.1875 
Q 55.609375 10.40625 48.1875 4.484375 
Q 40.765625 -1.421875 27.09375 -1.421875 
Q 22.515625 -1.421875 17.65625 -0.515625 
Q 12.796875 0.390625 7.625 2.203125 
L 7.625 11.71875 
Q 11.71875 9.328125 16.59375 8.109375 
Q 21.484375 6.890625 26.8125 6.890625 
Q 36.078125 6.890625 40.9375 10.546875 
Q 45.796875 14.203125 45.796875 21.1875 
Q 45.796875 27.640625 41.28125 31.265625 
Q 36.765625 34.90625 28.71875 34.90625 
L 20.21875 34.90625 
L 20.21875 43.015625 
L 29.109375 43.015625 
Q 36.375 43.015625 40.234375 45.921875 
Q 44.09375 48.828125 44.09375 54.296875 
Q 44.09375 59.90625 40.109375 62.90625 
Q 36.140625 65.921875 28.71875 65.921875 
Q 24.65625 65.921875 20.015625 65.03125 
Q 15.375 64.15625 9.8125 62.3125 
L 9.8125 71.09375 
Q 15.4375 72.65625 20.34375 73.4375 
Q 25.25 74.21875 29.59375 74.21875 
Q 40.828125 74.21875 47.359375 69.109375 
Q 53.90625 64.015625 53.90625 55.328125 
Q 53.90625 49.265625 50.4375 45.09375 
Q 46.96875 40.921875 40.578125 39.3125 
z
" id="DejaVuSans-51"/>
      </defs>
      <g transform="translate(974.850231 708.584838)scale(0.1 -0.1)">
       <use xlink:href="#DejaVuSans-51"/>
       <use x="63.623047" xlink:href="#DejaVuSans-48"/>
       <use x="127.246094" xlink:href="#DejaVuSans-48"/>
      </g>
     </g>
    </g>
    <g id="xtick_8">
     <g id="line2d_8">
      <g>
       <use style="stroke:#000000;stroke-width:0.8;" x="1111.54328" xlink:href="#me246ba29bd" y="693.9864"/>
      </g>
     </g>
     <g id="text_8">
      <!-- 350 -->
      <g transform="translate(1101.99953 708.584838)scale(0.1 -0.1)">
       <use xlink:href="#DejaVuSans-51"/>
       <use x="63.623047" xlink:href="#DejaVuSans-53"/>
       <use x="127.246094" xlink:href="#DejaVuSans-48"/>
      </g>
     </g>
    </g>
    <g id="xtick_9">
     <g id="line2d_9">
      <g>
       <use style="stroke:#000000;stroke-width:0.8;" x="1238.69258" xlink:href="#me246ba29bd" y="693.9864"/>
      </g>
     </g>
     <g id="text_9">
      <!-- 400 -->
      <defs>
       <path d="M 37.796875 64.3125 
L 12.890625 25.390625 
L 37.796875 25.390625 
z
M 35.203125 72.90625 
L 47.609375 72.90625 
L 47.609375 25.390625 
L 58.015625 25.390625 
L 58.015625 17.1875 
L 47.609375 17.1875 
L 47.609375 0 
L 37.796875 0 
L 37.796875 17.1875 
L 4.890625 17.1875 
L 4.890625 26.703125 
z
" id="DejaVuSans-52"/>
      </defs>
      <g transform="translate(1229.14883 708.584838)scale(0.1 -0.1)">
       <use xlink:href="#DejaVuSans-52"/>
       <use x="63.623047" xlink:href="#DejaVuSans-48"/>
       <use x="127.246094" xlink:href="#DejaVuSans-48"/>
      </g>
     </g>
    </g>
   </g>
   <g id="matplotlib.axis_2">
    <g id="ytick_1">
     <g id="line2d_10">
      <defs>
       <path d="M 0 0 
L -3.5 0 
" id="ma2553d6499" style="stroke:#000000;stroke-width:0.8;"/>
      </defs>
      <g>
       <use style="stroke:#000000;stroke-width:0.8;" x="172.8" xlink:href="#ma2553d6499" y="666.6948"/>
      </g>
     </g>
     <g id="text_10">
      <!-- 0 -->
      <g transform="translate(159.4375 670.494019)scale(0.1 -0.1)">
       <use xlink:href="#DejaVuSans-48"/>
      </g>
     </g>
    </g>
    <g id="ytick_2">
     <g id="line2d_11">
      <g>
       <use style="stroke:#000000;stroke-width:0.8;" x="172.8" xlink:href="#ma2553d6499" y="583.236183"/>
      </g>
     </g>
     <g id="text_11">
      <!-- 20 -->
      <g transform="translate(153.075 587.035402)scale(0.1 -0.1)">
       <use xlink:href="#DejaVuSans-50"/>
       <use x="63.623047" xlink:href="#DejaVuSans-48"/>
      </g>
     </g>
    </g>
    <g id="ytick_3">
     <g id="line2d_12">
      <g>
       <use style="stroke:#000000;stroke-width:0.8;" x="172.8" xlink:href="#ma2553d6499" y="499.777566"/>
      </g>
     </g>
     <g id="text_12">
      <!-- 40 -->
      <g transform="translate(153.075 503.576785)scale(0.1 -0.1)">
       <use xlink:href="#DejaVuSans-52"/>
       <use x="63.623047" xlink:href="#DejaVuSans-48"/>
      </g>
     </g>
    </g>
    <g id="ytick_4">
     <g id="line2d_13">
      <g>
       <use style="stroke:#000000;stroke-width:0.8;" x="172.8" xlink:href="#ma2553d6499" y="416.318949"/>
      </g>
     </g>
     <g id="text_13">
      <!-- 60 -->
      <defs>
       <path d="M 33.015625 40.375 
Q 26.375 40.375 22.484375 35.828125 
Q 18.609375 31.296875 18.609375 23.390625 
Q 18.609375 15.53125 22.484375 10.953125 
Q 26.375 6.390625 33.015625 6.390625 
Q 39.65625 6.390625 43.53125 10.953125 
Q 47.40625 15.53125 47.40625 23.390625 
Q 47.40625 31.296875 43.53125 35.828125 
Q 39.65625 40.375 33.015625 40.375 
z
M 52.59375 71.296875 
L 52.59375 62.3125 
Q 48.875 64.0625 45.09375 64.984375 
Q 41.3125 65.921875 37.59375 65.921875 
Q 27.828125 65.921875 22.671875 59.328125 
Q 17.53125 52.734375 16.796875 39.40625 
Q 19.671875 43.65625 24.015625 45.921875 
Q 28.375 48.1875 33.59375 48.1875 
Q 44.578125 48.1875 50.953125 41.515625 
Q 57.328125 34.859375 57.328125 23.390625 
Q 57.328125 12.15625 50.6875 5.359375 
Q 44.046875 -1.421875 33.015625 -1.421875 
Q 20.359375 -1.421875 13.671875 8.265625 
Q 6.984375 17.96875 6.984375 36.375 
Q 6.984375 53.65625 15.1875 63.9375 
Q 23.390625 74.21875 37.203125 74.21875 
Q 40.921875 74.21875 44.703125 73.484375 
Q 48.484375 72.75 52.59375 71.296875 
z
" id="DejaVuSans-54"/>
      </defs>
      <g transform="translate(153.075 420.118167)scale(0.1 -0.1)">
       <use xlink:href="#DejaVuSans-54"/>
       <use x="63.623047" xlink:href="#DejaVuSans-48"/>
      </g>
     </g>
    </g>
    <g id="ytick_5">
     <g id="line2d_14">
      <g>
       <use style="stroke:#000000;stroke-width:0.8;" x="172.8" xlink:href="#ma2553d6499" y="332.860332"/>
      </g>
     </g>
     <g id="text_14">
      <!-- 80 -->
      <defs>
       <path d="M 31.78125 34.625 
Q 24.75 34.625 20.71875 30.859375 
Q 16.703125 27.09375 16.703125 20.515625 
Q 16.703125 13.921875 20.71875 10.15625 
Q 24.75 6.390625 31.78125 6.390625 
Q 38.8125 6.390625 42.859375 10.171875 
Q 46.921875 13.96875 46.921875 20.515625 
Q 46.921875 27.09375 42.890625 30.859375 
Q 38.875 34.625 31.78125 34.625 
z
M 21.921875 38.8125 
Q 15.578125 40.375 12.03125 44.71875 
Q 8.5 49.078125 8.5 55.328125 
Q 8.5 64.0625 14.71875 69.140625 
Q 20.953125 74.21875 31.78125 74.21875 
Q 42.671875 74.21875 48.875 69.140625 
Q 55.078125 64.0625 55.078125 55.328125 
Q 55.078125 49.078125 51.53125 44.71875 
Q 48 40.375 41.703125 38.8125 
Q 48.828125 37.15625 52.796875 32.3125 
Q 56.78125 27.484375 56.78125 20.515625 
Q 56.78125 9.90625 50.3125 4.234375 
Q 43.84375 -1.421875 31.78125 -1.421875 
Q 19.734375 -1.421875 13.25 4.234375 
Q 6.78125 9.90625 6.78125 20.515625 
Q 6.78125 27.484375 10.78125 32.3125 
Q 14.796875 37.15625 21.921875 38.8125 
z
M 18.3125 54.390625 
Q 18.3125 48.734375 21.84375 45.5625 
Q 25.390625 42.390625 31.78125 42.390625 
Q 38.140625 42.390625 41.71875 45.5625 
Q 45.3125 48.734375 45.3125 54.390625 
Q 45.3125 60.0625 41.71875 63.234375 
Q 38.140625 66.40625 31.78125 66.40625 
Q 25.390625 66.40625 21.84375 63.234375 
Q 18.3125 60.0625 18.3125 54.390625 
z
" id="DejaVuSans-56"/>
      </defs>
      <g transform="translate(153.075 336.65955)scale(0.1 -0.1)">
       <use xlink:href="#DejaVuSans-56"/>
       <use x="63.623047" xlink:href="#DejaVuSans-48"/>
      </g>
     </g>
    </g>
    <g id="ytick_6">
     <g id="line2d_15">
      <g>
       <use style="stroke:#000000;stroke-width:0.8;" x="172.8" xlink:href="#ma2553d6499" y="249.401714"/>
      </g>
     </g>
     <g id="text_15">
      <!-- 100 -->
      <g transform="translate(146.7125 253.200933)scale(0.1 -0.1)">
       <use xlink:href="#DejaVuSans-49"/>
       <use x="63.623047" xlink:href="#DejaVuSans-48"/>
       <use x="127.246094" xlink:href="#DejaVuSans-48"/>
      </g>
     </g>
    </g>
    <g id="ytick_7">
     <g id="line2d_16">
      <g>
       <use style="stroke:#000000;stroke-width:0.8;" x="172.8" xlink:href="#ma2553d6499" y="165.943097"/>
      </g>
     </g>
     <g id="text_16">
      <!-- 120 -->
      <g transform="translate(146.7125 169.742316)scale(0.1 -0.1)">
       <use xlink:href="#DejaVuSans-49"/>
       <use x="63.623047" xlink:href="#DejaVuSans-50"/>
       <use x="127.246094" xlink:href="#DejaVuSans-48"/>
      </g>
     </g>
    </g>
   </g>
   <g id="line2d_17">
    <path clip-path="url(#pade3815270)" d="M 221.498182 666.6948 
L 224.041168 658.106677 
L 226.584154 646.444399 
L 229.12714 618.296856 
L 231.670126 648.548163 
L 234.213112 648.722976 
L 236.756098 641.760172 
L 239.299084 650.816436 
L 241.84207 647.21426 
L 244.385056 612.016991 
L 246.928042 647.668922 
L 249.471028 656.263898 
L 252.014014 666.6948 
L 254.557 658.493873 
L 257.099986 641.135497 
L 259.642972 618.421793 
L 262.185958 641.657215 
L 264.728944 643.242582 
L 267.27193 630.507697 
L 269.814916 650.043344 
L 272.357902 637.088708 
L 274.900888 595.91641 
L 277.443874 644.214071 
L 279.98686 651.902766 
L 282.529846 666.6948 
L 285.072832 656.98894 
L 287.615818 627.998335 
L 290.158804 609.969809 
L 292.70179 621.793707 
L 295.244776 629.53616 
L 297.787762 598.804799 
L 300.330748 643.400828 
L 302.873734 608.246705 
L 305.41672 549.754729 
L 307.959706 628.38522 
L 310.502692 638.79255 
L 313.045678 666.6948 
L 315.588664 649.086599 
L 318.13165 581.329283 
L 320.674636 567.102651 
L 323.217622 540.483514 
L 325.760608 567.005006 
L 328.303594 438.242235 
L 330.84658 594.052328 
L 333.389566 405.141848 
L 335.932552 120.8628 
L 338.475538 396.913164 
L 341.018524 306.016258 
L 343.56151 666.6948 
L 346.104496 479.951373 
L 348.647482 233.670085 
L 351.190468 443.436253 
L 353.733454 387.437725 
L 356.27644 527.246805 
L 358.819426 414.637405 
L 361.362412 614.580043 
L 363.905398 522.781256 
L 366.448384 494.691458 
L 368.99137 609.772058 
L 371.534356 633.802294 
L 374.077342 666.6948 
L 376.620328 651.815245 
L 379.163314 603.523127 
L 381.7063 633.934182 
L 384.249286 590.576256 
L 386.792272 625.410867 
L 389.335258 575.272881 
L 391.878244 646.371982 
L 394.42123 604.175801 
L 396.964216 596.318878 
L 399.507202 638.880624 
L 402.050188 650.812881 
L 404.593174 666.6948 
L 407.13616 658.387535 
L 409.679146 631.807158 
L 412.222131 653.609832 
L 414.765117 619.758466 
L 417.308103 642.196633 
L 419.851089 607.583003 
L 422.394075 653.202561 
L 424.937061 624.639354 
L 427.480047 623.599571 
L 430.023033 647.239392 
L 432.566019 656.103983 
L 435.109005 666.6948 
L 437.651991 660.583326 
L 440.194977 642.127831 
L 442.737963 659.998 
L 445.280949 631.478179 
L 447.823935 649.070502 
L 450.366921 621.475368 
L 452.909907 656.07468 
L 455.452893 633.963138 
L 457.995879 636.084457 
L 460.538865 651.138511 
L 463.081851 658.655576 
L 465.624837 666.6948 
L 468.167823 661.649739 
L 470.710809 647.418464 
L 473.253795 662.077977 
L 475.796781 637.773868 
L 478.339767 652.767937 
L 480.882753 629.163622 
L 483.425739 657.613595 
L 485.968725 639.261943 
L 488.511711 643.159041 
L 491.054697 653.354887 
L 496.140669 666.6948 
L 498.683655 662.262351 
L 501.226641 650.594521 
L 503.769627 662.247323 
L 506.312613 641.657215 
L 508.855599 655.047126 
L 511.398585 633.981313 
L 513.941571 658.542693 
L 516.484557 642.630081 
L 519.027543 647.670934 
L 521.570529 654.747975 
L 524.113515 661.095954 
L 526.656501 666.6948 
L 529.199487 662.645174 
L 531.742473 652.677484 
L 534.285459 661.798462 
L 536.828445 644.238533 
L 539.371431 656.568134 
L 541.914417 637.211218 
L 544.457403 659.136011 
L 547.000389 644.905493 
L 549.543375 650.775579 
L 552.086361 655.667557 
L 554.629347 661.751844 
L 557.172333 666.6948 
L 559.715319 662.892055 
L 562.258305 654.116535 
L 564.801291 661.228259 
L 567.344277 646.021702 
L 569.887263 657.633432 
L 572.430249 639.450561 
L 574.973235 659.517668 
L 577.516221 646.487637 
L 580.059207 653.029623 
L 582.602193 656.280544 
L 585.145179 662.218629 
L 587.688165 666.6948 
L 590.231151 663.048152 
L 592.774137 655.138805 
L 595.317123 660.648509 
L 597.860109 647.266511 
L 600.403095 658.400275 
L 602.946081 641.012245 
L 605.489067 659.750168 
L 608.032053 647.588925 
L 610.575039 654.734181 
L 613.118025 656.674562 
L 615.661011 662.557008 
L 618.203997 666.6948 
L 620.746983 663.136924 
L 623.289969 655.870096 
L 625.832955 660.063588 
L 628.375941 648.117819 
L 630.918927 658.957595 
L 633.461913 642.072324 
L 636.004899 659.866473 
L 638.547885 648.329812 
L 641.090871 656.066713 
L 643.633857 656.897609 
L 646.176843 662.802358 
L 648.719829 666.6948 
L 651.262815 663.170675 
L 653.805801 656.384105 
L 656.348787 659.451852 
L 658.891773 648.659337 
L 661.434759 659.358427 
L 663.977745 642.732657 
L 666.520731 659.883268 
L 669.063717 648.779955 
L 671.606703 657.139292 
L 674.149689 656.975151 
L 676.692675 662.976105 
L 679.235661 666.6948 
L 681.778647 663.1551 
L 684.321633 656.724898 
L 686.864619 658.784341 
L 689.407605 648.938357 
L 691.950591 659.635096 
L 694.493577 643.05004 
L 697.036563 659.806779 
L 699.579549 648.977532 
L 702.122535 658.027221 
L 704.665521 656.91788 
L 707.208507 663.091239 
L 709.751493 666.6948 
L 712.294479 663.091239 
L 714.837465 656.91788 
L 717.380451 658.027221 
L 719.923437 648.977532 
L 722.466423 659.806779 
L 725.009409 643.05004 
L 727.552395 659.635096 
L 730.095381 648.938357 
L 732.638367 658.784341 
L 735.181353 656.724898 
L 737.724339 663.1551 
L 740.267325 666.6948 
L 742.810311 662.976105 
L 745.353297 656.975151 
L 747.896283 657.139292 
L 750.439269 648.779955 
L 752.982255 659.883268 
L 755.525241 642.732657 
L 758.068227 659.358427 
L 760.611213 648.659337 
L 763.154199 659.451852 
L 765.697185 656.384105 
L 768.240171 663.170675 
L 770.783157 666.6948 
L 773.326143 662.802358 
L 775.869129 656.897609 
L 778.412115 656.066713 
L 780.955101 648.329812 
L 783.498087 659.866473 
L 786.041073 642.072324 
L 788.584059 658.957595 
L 791.127045 648.117819 
L 793.670031 660.063588 
L 796.213017 655.870096 
L 798.756003 663.136924 
L 801.298989 666.6948 
L 803.841975 662.557008 
L 806.384961 656.674562 
L 808.927947 654.734181 
L 811.470933 647.588925 
L 814.013919 659.750168 
L 816.556905 641.012245 
L 819.099891 658.400275 
L 821.642877 647.266511 
L 824.185863 660.648509 
L 826.728849 655.138805 
L 829.271835 663.048152 
L 831.814821 666.6948 
L 834.357807 662.218629 
L 836.900793 656.280544 
L 839.443779 653.029623 
L 841.986765 646.487637 
L 844.529751 659.517668 
L 847.072737 639.450561 
L 849.615723 657.633432 
L 852.158709 646.021702 
L 854.701695 661.228259 
L 857.244681 654.116535 
L 859.787667 662.892055 
L 862.330653 666.6948 
L 864.873639 661.751844 
L 867.416625 655.667557 
L 869.959611 650.775579 
L 872.502597 644.905493 
L 875.045583 659.136011 
L 877.588569 637.211218 
L 880.131555 656.568134 
L 882.674541 644.238533 
L 885.217527 661.798462 
L 887.760513 652.677484 
L 890.303499 662.645174 
L 892.846485 666.6948 
L 895.389471 661.095954 
L 897.932457 654.747975 
L 900.475443 647.670934 
L 903.018429 642.630081 
L 905.561415 658.542693 
L 908.104401 633.981313 
L 910.647387 655.047126 
L 913.190373 641.657215 
L 915.733359 662.247323 
L 918.276345 650.594521 
L 920.819331 662.262351 
L 923.362317 666.6948 
L 928.448289 653.354887 
L 930.991275 643.159041 
L 933.534261 639.261943 
L 936.077247 657.613595 
L 938.620233 629.163622 
L 941.163219 652.767937 
L 943.706205 637.773868 
L 946.249191 662.077977 
L 948.792177 647.418464 
L 951.335163 661.649739 
L 953.878149 666.6948 
L 956.421135 658.655576 
L 958.964121 651.138511 
L 961.507107 636.084457 
L 964.050093 633.963138 
L 966.593079 656.07468 
L 969.136065 621.475368 
L 971.679051 649.070502 
L 974.222037 631.478179 
L 976.765023 659.998 
L 979.308009 642.127831 
L 981.850995 660.583326 
L 984.393981 666.6948 
L 986.936967 656.103983 
L 989.479953 647.239392 
L 992.022939 623.599571 
L 994.565925 624.639354 
L 997.108911 653.202561 
L 999.651897 607.583003 
L 1002.194883 642.196633 
L 1004.737869 619.758466 
L 1007.280854 653.609832 
L 1009.82384 631.807158 
L 1012.366826 658.387535 
L 1014.909812 666.6948 
L 1017.452798 650.812881 
L 1019.995784 638.880624 
L 1022.53877 596.318878 
L 1025.081756 604.175801 
L 1027.624742 646.371982 
L 1030.167728 575.272881 
L 1032.710714 625.410867 
L 1035.2537 590.576256 
L 1037.796686 633.934182 
L 1040.339672 603.523127 
L 1042.882658 651.815245 
L 1045.425644 666.6948 
L 1047.96863 633.802294 
L 1050.511616 609.772058 
L 1053.054602 494.691458 
L 1055.597588 522.781256 
L 1058.140574 614.580043 
L 1060.68356 414.637405 
L 1063.226546 527.246805 
L 1065.769532 387.437725 
L 1068.312518 443.436253 
L 1070.855504 233.670085 
L 1073.39849 479.951373 
L 1075.941476 666.6948 
L 1078.484462 306.016258 
L 1081.027448 396.913164 
L 1083.570434 120.8628 
L 1086.11342 405.141848 
L 1088.656406 594.052328 
L 1091.199392 438.242235 
L 1093.742378 567.005006 
L 1096.285364 540.483514 
L 1098.82835 567.102651 
L 1101.371336 581.329283 
L 1103.914322 649.086599 
L 1106.457308 666.6948 
L 1109.000294 638.79255 
L 1111.54328 628.38522 
L 1114.086266 549.754729 
L 1116.629252 608.246705 
L 1119.172238 643.400828 
L 1121.715224 598.804799 
L 1124.25821 629.53616 
L 1126.801196 621.793707 
L 1129.344182 609.969809 
L 1131.887168 627.998335 
L 1134.430154 656.98894 
L 1136.97314 666.6948 
L 1139.516126 651.902766 
L 1142.059112 644.214071 
L 1144.602098 595.91641 
L 1147.145084 637.088708 
L 1149.68807 650.043344 
L 1152.231056 630.507697 
L 1154.774042 643.242582 
L 1157.317028 641.657215 
L 1159.860014 618.421793 
L 1162.403 641.135497 
L 1164.945986 658.493873 
L 1167.488972 666.6948 
L 1170.031958 656.263898 
L 1172.574944 647.668922 
L 1175.11793 612.016991 
L 1177.660916 647.21426 
L 1180.203902 650.816436 
L 1182.746888 641.760172 
L 1185.289874 648.722976 
L 1187.83286 648.548163 
L 1190.375846 618.296856 
L 1192.918832 646.444399 
L 1195.461818 658.106677 
L 1195.461818 658.106677 
" style="fill:none;stroke:#1f77b4;stroke-linecap:square;stroke-width:1.5;"/>
   </g>
   <g id="patch_3">
    <path d="M 172.8 693.9864 
L 172.8 93.5712 
" style="fill:none;stroke:#000000;stroke-linecap:square;stroke-linejoin:miter;stroke-width:0.8;"/>
   </g>
   <g id="patch_4">
    <path d="M 1244.16 693.9864 
L 1244.16 93.5712 
" style="fill:none;stroke:#000000;stroke-linecap:square;stroke-linejoin:miter;stroke-width:0.8;"/>
   </g>
   <g id="patch_5">
    <path d="M 172.8 693.9864 
L 1244.16 693.9864 
" style="fill:none;stroke:#000000;stroke-linecap:square;stroke-linejoin:miter;stroke-width:0.8;"/>
   </g>
   <g id="patch_6">
    <path d="M 172.8 93.5712 
L 1244.16 93.5712 
" style="fill:none;stroke:#000000;stroke-linecap:square;stroke-linejoin:miter;stroke-width:0.8;"/>
   </g>
   <g id="text_17">
    <!-- Quadrature Phase Shift Keying - Frequency Spectrum -->
    <defs>
     <path d="M 39.40625 66.21875 
Q 28.65625 66.21875 22.328125 58.203125 
Q 16.015625 50.203125 16.015625 36.375 
Q 16.015625 22.609375 22.328125 14.59375 
Q 28.65625 6.59375 39.40625 6.59375 
Q 50.140625 6.59375 56.421875 14.59375 
Q 62.703125 22.609375 62.703125 36.375 
Q 62.703125 50.203125 56.421875 58.203125 
Q 50.140625 66.21875 39.40625 66.21875 
z
M 53.21875 1.3125 
L 66.21875 -12.890625 
L 54.296875 -12.890625 
L 43.5 -1.21875 
Q 41.890625 -1.3125 41.03125 -1.359375 
Q 40.1875 -1.421875 39.40625 -1.421875 
Q 24.03125 -1.421875 14.8125 8.859375 
Q 5.609375 19.140625 5.609375 36.375 
Q 5.609375 53.65625 14.8125 63.9375 
Q 24.03125 74.21875 39.40625 74.21875 
Q 54.734375 74.21875 63.90625 63.9375 
Q 73.09375 53.65625 73.09375 36.375 
Q 73.09375 23.6875 67.984375 14.640625 
Q 62.890625 5.609375 53.21875 1.3125 
z
" id="DejaVuSans-81"/>
     <path d="M 8.5 21.578125 
L 8.5 54.6875 
L 17.484375 54.6875 
L 17.484375 21.921875 
Q 17.484375 14.15625 20.5 10.265625 
Q 23.53125 6.390625 29.59375 6.390625 
Q 36.859375 6.390625 41.078125 11.03125 
Q 45.3125 15.671875 45.3125 23.6875 
L 45.3125 54.6875 
L 54.296875 54.6875 
L 54.296875 0 
L 45.3125 0 
L 45.3125 8.40625 
Q 42.046875 3.421875 37.71875 1 
Q 33.40625 -1.421875 27.6875 -1.421875 
Q 18.265625 -1.421875 13.375 4.4375 
Q 8.5 10.296875 8.5 21.578125 
z
M 31.109375 56 
z
" id="DejaVuSans-117"/>
     <path d="M 34.28125 27.484375 
Q 23.390625 27.484375 19.1875 25 
Q 14.984375 22.515625 14.984375 16.5 
Q 14.984375 11.71875 18.140625 8.90625 
Q 21.296875 6.109375 26.703125 6.109375 
Q 34.1875 6.109375 38.703125 11.40625 
Q 43.21875 16.703125 43.21875 25.484375 
L 43.21875 27.484375 
z
M 52.203125 31.203125 
L 52.203125 0 
L 43.21875 0 
L 43.21875 8.296875 
Q 40.140625 3.328125 35.546875 0.953125 
Q 30.953125 -1.421875 24.3125 -1.421875 
Q 15.921875 -1.421875 10.953125 3.296875 
Q 6 8.015625 6 15.921875 
Q 6 25.140625 12.171875 29.828125 
Q 18.359375 34.515625 30.609375 34.515625 
L 43.21875 34.515625 
L 43.21875 35.40625 
Q 43.21875 41.609375 39.140625 45 
Q 35.0625 48.390625 27.6875 48.390625 
Q 23 48.390625 18.546875 47.265625 
Q 14.109375 46.140625 10.015625 43.890625 
L 10.015625 52.203125 
Q 14.9375 54.109375 19.578125 55.046875 
Q 24.21875 56 28.609375 56 
Q 40.484375 56 46.34375 49.84375 
Q 52.203125 43.703125 52.203125 31.203125 
z
" id="DejaVuSans-97"/>
     <path d="M 45.40625 46.390625 
L 45.40625 75.984375 
L 54.390625 75.984375 
L 54.390625 0 
L 45.40625 0 
L 45.40625 8.203125 
Q 42.578125 3.328125 38.25 0.953125 
Q 33.9375 -1.421875 27.875 -1.421875 
Q 17.96875 -1.421875 11.734375 6.484375 
Q 5.515625 14.40625 5.515625 27.296875 
Q 5.515625 40.1875 11.734375 48.09375 
Q 17.96875 56 27.875 56 
Q 33.9375 56 38.25 53.625 
Q 42.578125 51.265625 45.40625 46.390625 
z
M 14.796875 27.296875 
Q 14.796875 17.390625 18.875 11.75 
Q 22.953125 6.109375 30.078125 6.109375 
Q 37.203125 6.109375 41.296875 11.75 
Q 45.40625 17.390625 45.40625 27.296875 
Q 45.40625 37.203125 41.296875 42.84375 
Q 37.203125 48.484375 30.078125 48.484375 
Q 22.953125 48.484375 18.875 42.84375 
Q 14.796875 37.203125 14.796875 27.296875 
z
" id="DejaVuSans-100"/>
     <path d="M 41.109375 46.296875 
Q 39.59375 47.171875 37.8125 47.578125 
Q 36.03125 48 33.890625 48 
Q 26.265625 48 22.1875 43.046875 
Q 18.109375 38.09375 18.109375 28.8125 
L 18.109375 0 
L 9.078125 0 
L 9.078125 54.6875 
L 18.109375 54.6875 
L 18.109375 46.1875 
Q 20.953125 51.171875 25.484375 53.578125 
Q 30.03125 56 36.53125 56 
Q 37.453125 56 38.578125 55.875 
Q 39.703125 55.765625 41.0625 55.515625 
z
" id="DejaVuSans-114"/>
     <path d="M 18.3125 70.21875 
L 18.3125 54.6875 
L 36.8125 54.6875 
L 36.8125 47.703125 
L 18.3125 47.703125 
L 18.3125 18.015625 
Q 18.3125 11.328125 20.140625 9.421875 
Q 21.96875 7.515625 27.59375 7.515625 
L 36.8125 7.515625 
L 36.8125 0 
L 27.59375 0 
Q 17.1875 0 13.234375 3.875 
Q 9.28125 7.765625 9.28125 18.015625 
L 9.28125 47.703125 
L 2.6875 47.703125 
L 2.6875 54.6875 
L 9.28125 54.6875 
L 9.28125 70.21875 
z
" id="DejaVuSans-116"/>
     <path d="M 56.203125 29.59375 
L 56.203125 25.203125 
L 14.890625 25.203125 
Q 15.484375 15.921875 20.484375 11.0625 
Q 25.484375 6.203125 34.421875 6.203125 
Q 39.59375 6.203125 44.453125 7.46875 
Q 49.3125 8.734375 54.109375 11.28125 
L 54.109375 2.78125 
Q 49.265625 0.734375 44.1875 -0.34375 
Q 39.109375 -1.421875 33.890625 -1.421875 
Q 20.796875 -1.421875 13.15625 6.1875 
Q 5.515625 13.8125 5.515625 26.8125 
Q 5.515625 40.234375 12.765625 48.109375 
Q 20.015625 56 32.328125 56 
Q 43.359375 56 49.78125 48.890625 
Q 56.203125 41.796875 56.203125 29.59375 
z
M 47.21875 32.234375 
Q 47.125 39.59375 43.09375 43.984375 
Q 39.0625 48.390625 32.421875 48.390625 
Q 24.90625 48.390625 20.390625 44.140625 
Q 15.875 39.890625 15.1875 32.171875 
z
" id="DejaVuSans-101"/>
     <path id="DejaVuSans-32"/>
     <path d="M 19.671875 64.796875 
L 19.671875 37.40625 
L 32.078125 37.40625 
Q 38.96875 37.40625 42.71875 40.96875 
Q 46.484375 44.53125 46.484375 51.125 
Q 46.484375 57.671875 42.71875 61.234375 
Q 38.96875 64.796875 32.078125 64.796875 
z
M 9.8125 72.90625 
L 32.078125 72.90625 
Q 44.34375 72.90625 50.609375 67.359375 
Q 56.890625 61.8125 56.890625 51.125 
Q 56.890625 40.328125 50.609375 34.8125 
Q 44.34375 29.296875 32.078125 29.296875 
L 19.671875 29.296875 
L 19.671875 0 
L 9.8125 0 
z
" id="DejaVuSans-80"/>
     <path d="M 54.890625 33.015625 
L 54.890625 0 
L 45.90625 0 
L 45.90625 32.71875 
Q 45.90625 40.484375 42.875 44.328125 
Q 39.84375 48.1875 33.796875 48.1875 
Q 26.515625 48.1875 22.3125 43.546875 
Q 18.109375 38.921875 18.109375 30.90625 
L 18.109375 0 
L 9.078125 0 
L 9.078125 75.984375 
L 18.109375 75.984375 
L 18.109375 46.1875 
Q 21.34375 51.125 25.703125 53.5625 
Q 30.078125 56 35.796875 56 
Q 45.21875 56 50.046875 50.171875 
Q 54.890625 44.34375 54.890625 33.015625 
z
" id="DejaVuSans-104"/>
     <path d="M 44.28125 53.078125 
L 44.28125 44.578125 
Q 40.484375 46.53125 36.375 47.5 
Q 32.28125 48.484375 27.875 48.484375 
Q 21.1875 48.484375 17.84375 46.4375 
Q 14.5 44.390625 14.5 40.28125 
Q 14.5 37.15625 16.890625 35.375 
Q 19.28125 33.59375 26.515625 31.984375 
L 29.59375 31.296875 
Q 39.15625 29.25 43.1875 25.515625 
Q 47.21875 21.78125 47.21875 15.09375 
Q 47.21875 7.46875 41.1875 3.015625 
Q 35.15625 -1.421875 24.609375 -1.421875 
Q 20.21875 -1.421875 15.453125 -0.5625 
Q 10.6875 0.296875 5.421875 2 
L 5.421875 11.28125 
Q 10.40625 8.6875 15.234375 7.390625 
Q 20.0625 6.109375 24.8125 6.109375 
Q 31.15625 6.109375 34.5625 8.28125 
Q 37.984375 10.453125 37.984375 14.40625 
Q 37.984375 18.0625 35.515625 20.015625 
Q 33.0625 21.96875 24.703125 23.78125 
L 21.578125 24.515625 
Q 13.234375 26.265625 9.515625 29.90625 
Q 5.8125 33.546875 5.8125 39.890625 
Q 5.8125 47.609375 11.28125 51.796875 
Q 16.75 56 26.8125 56 
Q 31.78125 56 36.171875 55.265625 
Q 40.578125 54.546875 44.28125 53.078125 
z
" id="DejaVuSans-115"/>
     <path d="M 53.515625 70.515625 
L 53.515625 60.890625 
Q 47.90625 63.578125 42.921875 64.890625 
Q 37.9375 66.21875 33.296875 66.21875 
Q 25.25 66.21875 20.875 63.09375 
Q 16.5 59.96875 16.5 54.203125 
Q 16.5 49.359375 19.40625 46.890625 
Q 22.3125 44.4375 30.421875 42.921875 
L 36.375 41.703125 
Q 47.40625 39.59375 52.65625 34.296875 
Q 57.90625 29 57.90625 20.125 
Q 57.90625 9.515625 50.796875 4.046875 
Q 43.703125 -1.421875 29.984375 -1.421875 
Q 24.8125 -1.421875 18.96875 -0.25 
Q 13.140625 0.921875 6.890625 3.21875 
L 6.890625 13.375 
Q 12.890625 10.015625 18.65625 8.296875 
Q 24.421875 6.59375 29.984375 6.59375 
Q 38.421875 6.59375 43.015625 9.90625 
Q 47.609375 13.234375 47.609375 19.390625 
Q 47.609375 24.75 44.3125 27.78125 
Q 41.015625 30.8125 33.5 32.328125 
L 27.484375 33.5 
Q 16.453125 35.6875 11.515625 40.375 
Q 6.59375 45.0625 6.59375 53.421875 
Q 6.59375 63.09375 13.40625 68.65625 
Q 20.21875 74.21875 32.171875 74.21875 
Q 37.3125 74.21875 42.625 73.28125 
Q 47.953125 72.359375 53.515625 70.515625 
z
" id="DejaVuSans-83"/>
     <path d="M 9.421875 54.6875 
L 18.40625 54.6875 
L 18.40625 0 
L 9.421875 0 
z
M 9.421875 75.984375 
L 18.40625 75.984375 
L 18.40625 64.59375 
L 9.421875 64.59375 
z
" id="DejaVuSans-105"/>
     <path d="M 37.109375 75.984375 
L 37.109375 68.5 
L 28.515625 68.5 
Q 23.6875 68.5 21.796875 66.546875 
Q 19.921875 64.59375 19.921875 59.515625 
L 19.921875 54.6875 
L 34.71875 54.6875 
L 34.71875 47.703125 
L 19.921875 47.703125 
L 19.921875 0 
L 10.890625 0 
L 10.890625 47.703125 
L 2.296875 47.703125 
L 2.296875 54.6875 
L 10.890625 54.6875 
L 10.890625 58.5 
Q 10.890625 67.625 15.140625 71.796875 
Q 19.390625 75.984375 28.609375 75.984375 
z
" id="DejaVuSans-102"/>
     <path d="M 9.8125 72.90625 
L 19.671875 72.90625 
L 19.671875 42.09375 
L 52.390625 72.90625 
L 65.09375 72.90625 
L 28.90625 38.921875 
L 67.671875 0 
L 54.6875 0 
L 19.671875 35.109375 
L 19.671875 0 
L 9.8125 0 
z
" id="DejaVuSans-75"/>
     <path d="M 32.171875 -5.078125 
Q 28.375 -14.84375 24.75 -17.8125 
Q 21.140625 -20.796875 15.09375 -20.796875 
L 7.90625 -20.796875 
L 7.90625 -13.28125 
L 13.1875 -13.28125 
Q 16.890625 -13.28125 18.9375 -11.515625 
Q 21 -9.765625 23.484375 -3.21875 
L 25.09375 0.875 
L 2.984375 54.6875 
L 12.5 54.6875 
L 29.59375 11.921875 
L 46.6875 54.6875 
L 56.203125 54.6875 
z
" id="DejaVuSans-121"/>
     <path d="M 54.890625 33.015625 
L 54.890625 0 
L 45.90625 0 
L 45.90625 32.71875 
Q 45.90625 40.484375 42.875 44.328125 
Q 39.84375 48.1875 33.796875 48.1875 
Q 26.515625 48.1875 22.3125 43.546875 
Q 18.109375 38.921875 18.109375 30.90625 
L 18.109375 0 
L 9.078125 0 
L 9.078125 54.6875 
L 18.109375 54.6875 
L 18.109375 46.1875 
Q 21.34375 51.125 25.703125 53.5625 
Q 30.078125 56 35.796875 56 
Q 45.21875 56 50.046875 50.171875 
Q 54.890625 44.34375 54.890625 33.015625 
z
" id="DejaVuSans-110"/>
     <path d="M 45.40625 27.984375 
Q 45.40625 37.75 41.375 43.109375 
Q 37.359375 48.484375 30.078125 48.484375 
Q 22.859375 48.484375 18.828125 43.109375 
Q 14.796875 37.75 14.796875 27.984375 
Q 14.796875 18.265625 18.828125 12.890625 
Q 22.859375 7.515625 30.078125 7.515625 
Q 37.359375 7.515625 41.375 12.890625 
Q 45.40625 18.265625 45.40625 27.984375 
z
M 54.390625 6.78125 
Q 54.390625 -7.171875 48.1875 -13.984375 
Q 42 -20.796875 29.203125 -20.796875 
Q 24.46875 -20.796875 20.265625 -20.09375 
Q 16.0625 -19.390625 12.109375 -17.921875 
L 12.109375 -9.1875 
Q 16.0625 -11.328125 19.921875 -12.34375 
Q 23.78125 -13.375 27.78125 -13.375 
Q 36.625 -13.375 41.015625 -8.765625 
Q 45.40625 -4.15625 45.40625 5.171875 
L 45.40625 9.625 
Q 42.625 4.78125 38.28125 2.390625 
Q 33.9375 0 27.875 0 
Q 17.828125 0 11.671875 7.65625 
Q 5.515625 15.328125 5.515625 27.984375 
Q 5.515625 40.671875 11.671875 48.328125 
Q 17.828125 56 27.875 56 
Q 33.9375 56 38.28125 53.609375 
Q 42.625 51.21875 45.40625 46.390625 
L 45.40625 54.6875 
L 54.390625 54.6875 
z
" id="DejaVuSans-103"/>
     <path d="M 4.890625 31.390625 
L 31.203125 31.390625 
L 31.203125 23.390625 
L 4.890625 23.390625 
z
" id="DejaVuSans-45"/>
     <path d="M 9.8125 72.90625 
L 51.703125 72.90625 
L 51.703125 64.59375 
L 19.671875 64.59375 
L 19.671875 43.109375 
L 48.578125 43.109375 
L 48.578125 34.8125 
L 19.671875 34.8125 
L 19.671875 0 
L 9.8125 0 
z
" id="DejaVuSans-70"/>
     <path d="M 14.796875 27.296875 
Q 14.796875 17.390625 18.875 11.75 
Q 22.953125 6.109375 30.078125 6.109375 
Q 37.203125 6.109375 41.296875 11.75 
Q 45.40625 17.390625 45.40625 27.296875 
Q 45.40625 37.203125 41.296875 42.84375 
Q 37.203125 48.484375 30.078125 48.484375 
Q 22.953125 48.484375 18.875 42.84375 
Q 14.796875 37.203125 14.796875 27.296875 
z
M 45.40625 8.203125 
Q 42.578125 3.328125 38.25 0.953125 
Q 33.9375 -1.421875 27.875 -1.421875 
Q 17.96875 -1.421875 11.734375 6.484375 
Q 5.515625 14.40625 5.515625 27.296875 
Q 5.515625 40.1875 11.734375 48.09375 
Q 17.96875 56 27.875 56 
Q 33.9375 56 38.25 53.625 
Q 42.578125 51.265625 45.40625 46.390625 
L 45.40625 54.6875 
L 54.390625 54.6875 
L 54.390625 -20.796875 
L 45.40625 -20.796875 
z
" id="DejaVuSans-113"/>
     <path d="M 48.78125 52.59375 
L 48.78125 44.1875 
Q 44.96875 46.296875 41.140625 47.34375 
Q 37.3125 48.390625 33.40625 48.390625 
Q 24.65625 48.390625 19.8125 42.84375 
Q 14.984375 37.3125 14.984375 27.296875 
Q 14.984375 17.28125 19.8125 11.734375 
Q 24.65625 6.203125 33.40625 6.203125 
Q 37.3125 6.203125 41.140625 7.25 
Q 44.96875 8.296875 48.78125 10.40625 
L 48.78125 2.09375 
Q 45.015625 0.34375 40.984375 -0.53125 
Q 36.96875 -1.421875 32.421875 -1.421875 
Q 20.0625 -1.421875 12.78125 6.34375 
Q 5.515625 14.109375 5.515625 27.296875 
Q 5.515625 40.671875 12.859375 48.328125 
Q 20.21875 56 33.015625 56 
Q 37.15625 56 41.109375 55.140625 
Q 45.0625 54.296875 48.78125 52.59375 
z
" id="DejaVuSans-99"/>
     <path d="M 18.109375 8.203125 
L 18.109375 -20.796875 
L 9.078125 -20.796875 
L 9.078125 54.6875 
L 18.109375 54.6875 
L 18.109375 46.390625 
Q 20.953125 51.265625 25.265625 53.625 
Q 29.59375 56 35.59375 56 
Q 45.5625 56 51.78125 48.09375 
Q 58.015625 40.1875 58.015625 27.296875 
Q 58.015625 14.40625 51.78125 6.484375 
Q 45.5625 -1.421875 35.59375 -1.421875 
Q 29.59375 -1.421875 25.265625 0.953125 
Q 20.953125 3.328125 18.109375 8.203125 
z
M 48.6875 27.296875 
Q 48.6875 37.203125 44.609375 42.84375 
Q 40.53125 48.484375 33.40625 48.484375 
Q 26.265625 48.484375 22.1875 42.84375 
Q 18.109375 37.203125 18.109375 27.296875 
Q 18.109375 17.390625 22.1875 11.75 
Q 26.265625 6.109375 33.40625 6.109375 
Q 40.53125 6.109375 44.609375 11.75 
Q 48.6875 17.390625 48.6875 27.296875 
z
" id="DejaVuSans-112"/>
     <path d="M 52 44.1875 
Q 55.375 50.25 60.0625 53.125 
Q 64.75 56 71.09375 56 
Q 79.640625 56 84.28125 50.015625 
Q 88.921875 44.046875 88.921875 33.015625 
L 88.921875 0 
L 79.890625 0 
L 79.890625 32.71875 
Q 79.890625 40.578125 77.09375 44.375 
Q 74.3125 48.1875 68.609375 48.1875 
Q 61.625 48.1875 57.5625 43.546875 
Q 53.515625 38.921875 53.515625 30.90625 
L 53.515625 0 
L 44.484375 0 
L 44.484375 32.71875 
Q 44.484375 40.625 41.703125 44.40625 
Q 38.921875 48.1875 33.109375 48.1875 
Q 26.21875 48.1875 22.15625 43.53125 
Q 18.109375 38.875 18.109375 30.90625 
L 18.109375 0 
L 9.078125 0 
L 9.078125 54.6875 
L 18.109375 54.6875 
L 18.109375 46.1875 
Q 21.1875 51.21875 25.484375 53.609375 
Q 29.78125 56 35.6875 56 
Q 41.65625 56 45.828125 52.96875 
Q 50 49.953125 52 44.1875 
z
" id="DejaVuSans-109"/>
    </defs>
    <g transform="translate(548.761875 87.5712)scale(0.12 -0.12)">
     <use xlink:href="#DejaVuSans-81"/>
     <use x="78.710938" xlink:href="#DejaVuSans-117"/>
     <use x="142.089844" xlink:href="#DejaVuSans-97"/>
     <use x="203.369141" xlink:href="#DejaVuSans-100"/>
     <use x="266.845703" xlink:href="#DejaVuSans-114"/>
     <use x="307.958984" xlink:href="#DejaVuSans-97"/>
     <use x="369.238281" xlink:href="#DejaVuSans-116"/>
     <use x="408.447266" xlink:href="#DejaVuSans-117"/>
     <use x="471.826172" xlink:href="#DejaVuSans-114"/>
     <use x="510.689453" xlink:href="#DejaVuSans-101"/>
     <use x="572.212891" xlink:href="#DejaVuSans-32"/>
     <use x="604" xlink:href="#DejaVuSans-80"/>
     <use x="664.302734" xlink:href="#DejaVuSans-104"/>
     <use x="727.681641" xlink:href="#DejaVuSans-97"/>
     <use x="788.960938" xlink:href="#DejaVuSans-115"/>
     <use x="841.060547" xlink:href="#DejaVuSans-101"/>
     <use x="902.583984" xlink:href="#DejaVuSans-32"/>
     <use x="934.371094" xlink:href="#DejaVuSans-83"/>
     <use x="997.847656" xlink:href="#DejaVuSans-104"/>
     <use x="1061.226562" xlink:href="#DejaVuSans-105"/>
     <use x="1089.009766" xlink:href="#DejaVuSans-102"/>
     <use x="1122.464844" xlink:href="#DejaVuSans-116"/>
     <use x="1161.673828" xlink:href="#DejaVuSans-32"/>
     <use x="1193.460938" xlink:href="#DejaVuSans-75"/>
     <use x="1254.037109" xlink:href="#DejaVuSans-101"/>
     <use x="1315.560547" xlink:href="#DejaVuSans-121"/>
     <use x="1374.740234" xlink:href="#DejaVuSans-105"/>
     <use x="1402.523438" xlink:href="#DejaVuSans-110"/>
     <use x="1465.902344" xlink:href="#DejaVuSans-103"/>
     <use x="1529.378906" xlink:href="#DejaVuSans-32"/>
     <use x="1561.166016" xlink:href="#DejaVuSans-45"/>
     <use x="1597.25" xlink:href="#DejaVuSans-32"/>
     <use x="1629.037109" xlink:href="#DejaVuSans-70"/>
     <use x="1679.306641" xlink:href="#DejaVuSans-114"/>
     <use x="1718.169922" xlink:href="#DejaVuSans-101"/>
     <use x="1779.693359" xlink:href="#DejaVuSans-113"/>
     <use x="1843.169922" xlink:href="#DejaVuSans-117"/>
     <use x="1906.548828" xlink:href="#DejaVuSans-101"/>
     <use x="1968.072266" xlink:href="#DejaVuSans-110"/>
     <use x="2031.451172" xlink:href="#DejaVuSans-99"/>
     <use x="2086.431641" xlink:href="#DejaVuSans-121"/>
     <use x="2145.611328" xlink:href="#DejaVuSans-32"/>
     <use x="2177.398438" xlink:href="#DejaVuSans-83"/>
     <use x="2240.875" xlink:href="#DejaVuSans-112"/>
     <use x="2304.351562" xlink:href="#DejaVuSans-101"/>
     <use x="2365.875" xlink:href="#DejaVuSans-99"/>
     <use x="2420.855469" xlink:href="#DejaVuSans-116"/>
     <use x="2460.064453" xlink:href="#DejaVuSans-114"/>
     <use x="2501.177734" xlink:href="#DejaVuSans-117"/>
     <use x="2564.556641" xlink:href="#DejaVuSans-109"/>
    </g>
   </g>
  </g>
 </g>
 <defs>
  <clipPath id="pade3815270">
   <rect height="600.4152" width="1071.36" x="172.8" y="93.5712"/>
  </clipPath>
 </defs>
</svg>
