<?xml version="1.0" encoding="utf-8" standalone="no"?>
<!DOCTYPE svg PUBLIC "-//W3C//DTD SVG 1.1//EN"
  "http://www.w3.org/Graphics/SVG/1.1/DTD/svg11.dtd">
<!-- Created with matplotlib (https://matplotlib.org/) -->
<svg height="779.76pt" version="1.1" viewBox="0 0 1382.4 779.76" width="1382.4pt" xmlns="http://www.w3.org/2000/svg" xmlns:xlink="http://www.w3.org/1999/xlink">
 <defs>
  <style type="text/css">
*{stroke-linecap:butt;stroke-linejoin:round;}
  </style>
 </defs>
 <g id="figure_1">
  <g id="patch_1">
   <path d="M 0 779.76 
L 1382.4 779.76 
L 1382.4 0 
L 0 0 
z
" style="fill:#ffffff;"/>
  </g>
  <g id="axes_1">
   <g id="patch_2">
    <path d="M 172.8 693.9864 
L 1244.16 693.9864 
L 1244.16 93.5712 
L 172.8 93.5712 
z
" style="fill:#ffffff;"/>
   </g>
   <g id="matplotlib.axis_1">
    <g id="xtick_1">
     <g id="line2d_1">
      <path clip-path="url(#p758f23312d)" d="M 221.498182 693.9864 
L 221.498182 93.5712 
" style="fill:none;stroke:#b0b0b0;stroke-linecap:square;stroke-width:0.8;"/>
     </g>
     <g id="line2d_2">
      <defs>
       <path d="M 0 0 
L 0 3.5 
" id="m5c2d569c28" style="stroke:#000000;stroke-width:0.8;"/>
      </defs>
      <g>
       <use style="stroke:#000000;stroke-width:0.8;" x="221.498182" xlink:href="#m5c2d569c28" y="693.9864"/>
      </g>
     </g>
     <g id="text_1">
      <!-- 0.0 -->
      <defs>
       <path d="M 31.78125 66.40625 
Q 24.171875 66.40625 20.328125 58.90625 
Q 16.5 51.421875 16.5 36.375 
Q 16.5 21.390625 20.328125 13.890625 
Q 24.171875 6.390625 31.78125 6.390625 
Q 39.453125 6.390625 43.28125 13.890625 
Q 47.125 21.390625 47.125 36.375 
Q 47.125 51.421875 43.28125 58.90625 
Q 39.453125 66.40625 31.78125 66.40625 
z
M 31.78125 74.21875 
Q 44.046875 74.21875 50.515625 64.515625 
Q 56.984375 54.828125 56.984375 36.375 
Q 56.984375 17.96875 50.515625 8.265625 
Q 44.046875 -1.421875 31.78125 -1.421875 
Q 19.53125 -1.421875 13.0625 8.265625 
Q 6.59375 17.96875 6.59375 36.375 
Q 6.59375 54.828125 13.0625 64.515625 
Q 19.53125 74.21875 31.78125 74.21875 
z
" id="DejaVuSans-48"/>
       <path d="M 10.6875 12.40625 
L 21 12.40625 
L 21 0 
L 10.6875 0 
z
" id="DejaVuSans-46"/>
      </defs>
      <g transform="translate(213.546619 708.584838)scale(0.1 -0.1)">
       <use xlink:href="#DejaVuSans-48"/>
       <use x="63.623047" xlink:href="#DejaVuSans-46"/>
       <use x="95.410156" xlink:href="#DejaVuSans-48"/>
      </g>
     </g>
    </g>
    <g id="xtick_2">
     <g id="line2d_3">
      <path clip-path="url(#p758f23312d)" d="M 416.672108 693.9864 
L 416.672108 93.5712 
" style="fill:none;stroke:#b0b0b0;stroke-linecap:square;stroke-width:0.8;"/>
     </g>
     <g id="line2d_4">
      <g>
       <use style="stroke:#000000;stroke-width:0.8;" x="416.672108" xlink:href="#m5c2d569c28" y="693.9864"/>
      </g>
     </g>
     <g id="text_2">
      <!-- 0.1 -->
      <defs>
       <path d="M 12.40625 8.296875 
L 28.515625 8.296875 
L 28.515625 63.921875 
L 10.984375 60.40625 
L 10.984375 69.390625 
L 28.421875 72.90625 
L 38.28125 72.90625 
L 38.28125 8.296875 
L 54.390625 8.296875 
L 54.390625 0 
L 12.40625 0 
z
" id="DejaVuSans-49"/>
      </defs>
      <g transform="translate(408.720546 708.584838)scale(0.1 -0.1)">
       <use xlink:href="#DejaVuSans-48"/>
       <use x="63.623047" xlink:href="#DejaVuSans-46"/>
       <use x="95.410156" xlink:href="#DejaVuSans-49"/>
      </g>
     </g>
    </g>
    <g id="xtick_3">
     <g id="line2d_5">
      <path clip-path="url(#p758f23312d)" d="M 611.846035 693.9864 
L 611.846035 93.5712 
" style="fill:none;stroke:#b0b0b0;stroke-linecap:square;stroke-width:0.8;"/>
     </g>
     <g id="line2d_6">
      <g>
       <use style="stroke:#000000;stroke-width:0.8;" x="611.846035" xlink:href="#m5c2d569c28" y="693.9864"/>
      </g>
     </g>
     <g id="text_3">
      <!-- 0.2 -->
      <defs>
       <path d="M 19.1875 8.296875 
L 53.609375 8.296875 
L 53.609375 0 
L 7.328125 0 
L 7.328125 8.296875 
Q 12.9375 14.109375 22.625 23.890625 
Q 32.328125 33.6875 34.8125 36.53125 
Q 39.546875 41.84375 41.421875 45.53125 
Q 43.3125 49.21875 43.3125 52.78125 
Q 43.3125 58.59375 39.234375 62.25 
Q 35.15625 65.921875 28.609375 65.921875 
Q 23.96875 65.921875 18.8125 64.3125 
Q 13.671875 62.703125 7.8125 59.421875 
L 7.8125 69.390625 
Q 13.765625 71.78125 18.9375 73 
Q 24.125 74.21875 28.421875 74.21875 
Q 39.75 74.21875 46.484375 68.546875 
Q 53.21875 62.890625 53.21875 53.421875 
Q 53.21875 48.921875 51.53125 44.890625 
Q 49.859375 40.875 45.40625 35.40625 
Q 44.1875 33.984375 37.640625 27.21875 
Q 31.109375 20.453125 19.1875 8.296875 
z
" id="DejaVuSans-50"/>
      </defs>
      <g transform="translate(603.894472 708.584838)scale(0.1 -0.1)">
       <use xlink:href="#DejaVuSans-48"/>
       <use x="63.623047" xlink:href="#DejaVuSans-46"/>
       <use x="95.410156" xlink:href="#DejaVuSans-50"/>
      </g>
     </g>
    </g>
    <g id="xtick_4">
     <g id="line2d_7">
      <path clip-path="url(#p758f23312d)" d="M 807.019961 693.9864 
L 807.019961 93.5712 
" style="fill:none;stroke:#b0b0b0;stroke-linecap:square;stroke-width:0.8;"/>
     </g>
     <g id="line2d_8">
      <g>
       <use style="stroke:#000000;stroke-width:0.8;" x="807.019961" xlink:href="#m5c2d569c28" y="693.9864"/>
      </g>
     </g>
     <g id="text_4">
      <!-- 0.3 -->
      <defs>
       <path d="M 40.578125 39.3125 
Q 47.65625 37.796875 51.625 33 
Q 55.609375 28.21875 55.609375 21.1875 
Q 55.609375 10.40625 48.1875 4.484375 
Q 40.765625 -1.421875 27.09375 -1.421875 
Q 22.515625 -1.421875 17.65625 -0.515625 
Q 12.796875 0.390625 7.625 2.203125 
L 7.625 11.71875 
Q 11.71875 9.328125 16.59375 8.109375 
Q 21.484375 6.890625 26.8125 6.890625 
Q 36.078125 6.890625 40.9375 10.546875 
Q 45.796875 14.203125 45.796875 21.1875 
Q 45.796875 27.640625 41.28125 31.265625 
Q 36.765625 34.90625 28.71875 34.90625 
L 20.21875 34.90625 
L 20.21875 43.015625 
L 29.109375 43.015625 
Q 36.375 43.015625 40.234375 45.921875 
Q 44.09375 48.828125 44.09375 54.296875 
Q 44.09375 59.90625 40.109375 62.90625 
Q 36.140625 65.921875 28.71875 65.921875 
Q 24.65625 65.921875 20.015625 65.03125 
Q 15.375 64.15625 9.8125 62.3125 
L 9.8125 71.09375 
Q 15.4375 72.65625 20.34375 73.4375 
Q 25.25 74.21875 29.59375 74.21875 
Q 40.828125 74.21875 47.359375 69.109375 
Q 53.90625 64.015625 53.90625 55.328125 
Q 53.90625 49.265625 50.4375 45.09375 
Q 46.96875 40.921875 40.578125 39.3125 
z
" id="DejaVuSans-51"/>
      </defs>
      <g transform="translate(799.068398 708.584838)scale(0.1 -0.1)">
       <use xlink:href="#DejaVuSans-48"/>
       <use x="63.623047" xlink:href="#DejaVuSans-46"/>
       <use x="95.410156" xlink:href="#DejaVuSans-51"/>
      </g>
     </g>
    </g>
    <g id="xtick_5">
     <g id="line2d_9">
      <path clip-path="url(#p758f23312d)" d="M 1002.193887 693.9864 
L 1002.193887 93.5712 
" style="fill:none;stroke:#b0b0b0;stroke-linecap:square;stroke-width:0.8;"/>
     </g>
     <g id="line2d_10">
      <g>
       <use style="stroke:#000000;stroke-width:0.8;" x="1002.193887" xlink:href="#m5c2d569c28" y="693.9864"/>
      </g>
     </g>
     <g id="text_5">
      <!-- 0.4 -->
      <defs>
       <path d="M 37.796875 64.3125 
L 12.890625 25.390625 
L 37.796875 25.390625 
z
M 35.203125 72.90625 
L 47.609375 72.90625 
L 47.609375 25.390625 
L 58.015625 25.390625 
L 58.015625 17.1875 
L 47.609375 17.1875 
L 47.609375 0 
L 37.796875 0 
L 37.796875 17.1875 
L 4.890625 17.1875 
L 4.890625 26.703125 
z
" id="DejaVuSans-52"/>
      </defs>
      <g transform="translate(994.242325 708.584838)scale(0.1 -0.1)">
       <use xlink:href="#DejaVuSans-48"/>
       <use x="63.623047" xlink:href="#DejaVuSans-46"/>
       <use x="95.410156" xlink:href="#DejaVuSans-52"/>
      </g>
     </g>
    </g>
    <g id="xtick_6">
     <g id="line2d_11">
      <path clip-path="url(#p758f23312d)" d="M 1197.367814 693.9864 
L 1197.367814 93.5712 
" style="fill:none;stroke:#b0b0b0;stroke-linecap:square;stroke-width:0.8;"/>
     </g>
     <g id="line2d_12">
      <g>
       <use style="stroke:#000000;stroke-width:0.8;" x="1197.367814" xlink:href="#m5c2d569c28" y="693.9864"/>
      </g>
     </g>
     <g id="text_6">
      <!-- 0.5 -->
      <defs>
       <path d="M 10.796875 72.90625 
L 49.515625 72.90625 
L 49.515625 64.59375 
L 19.828125 64.59375 
L 19.828125 46.734375 
Q 21.96875 47.46875 24.109375 47.828125 
Q 26.265625 48.1875 28.421875 48.1875 
Q 40.625 48.1875 47.75 41.5 
Q 54.890625 34.8125 54.890625 23.390625 
Q 54.890625 11.625 47.5625 5.09375 
Q 40.234375 -1.421875 26.90625 -1.421875 
Q 22.3125 -1.421875 17.546875 -0.640625 
Q 12.796875 0.140625 7.71875 1.703125 
L 7.71875 11.625 
Q 12.109375 9.234375 16.796875 8.0625 
Q 21.484375 6.890625 26.703125 6.890625 
Q 35.15625 6.890625 40.078125 11.328125 
Q 45.015625 15.765625 45.015625 23.390625 
Q 45.015625 31 40.078125 35.4375 
Q 35.15625 39.890625 26.703125 39.890625 
Q 22.75 39.890625 18.8125 39.015625 
Q 14.890625 38.140625 10.796875 36.28125 
z
" id="DejaVuSans-53"/>
      </defs>
      <g transform="translate(1189.416251 708.584838)scale(0.1 -0.1)">
       <use xlink:href="#DejaVuSans-48"/>
       <use x="63.623047" xlink:href="#DejaVuSans-46"/>
       <use x="95.410156" xlink:href="#DejaVuSans-53"/>
      </g>
     </g>
    </g>
    <g id="text_7">
     <!-- Frequency/Sample Rate -->
     <defs>
      <path d="M 9.8125 72.90625 
L 51.703125 72.90625 
L 51.703125 64.59375 
L 19.671875 64.59375 
L 19.671875 43.109375 
L 48.578125 43.109375 
L 48.578125 34.8125 
L 19.671875 34.8125 
L 19.671875 0 
L 9.8125 0 
z
" id="DejaVuSans-70"/>
      <path d="M 41.109375 46.296875 
Q 39.59375 47.171875 37.8125 47.578125 
Q 36.03125 48 33.890625 48 
Q 26.265625 48 22.1875 43.046875 
Q 18.109375 38.09375 18.109375 28.8125 
L 18.109375 0 
L 9.078125 0 
L 9.078125 54.6875 
L 18.109375 54.6875 
L 18.109375 46.1875 
Q 20.953125 51.171875 25.484375 53.578125 
Q 30.03125 56 36.53125 56 
Q 37.453125 56 38.578125 55.875 
Q 39.703125 55.765625 41.0625 55.515625 
z
" id="DejaVuSans-114"/>
      <path d="M 56.203125 29.59375 
L 56.203125 25.203125 
L 14.890625 25.203125 
Q 15.484375 15.921875 20.484375 11.0625 
Q 25.484375 6.203125 34.421875 6.203125 
Q 39.59375 6.203125 44.453125 7.46875 
Q 49.3125 8.734375 54.109375 11.28125 
L 54.109375 2.78125 
Q 49.265625 0.734375 44.1875 -0.34375 
Q 39.109375 -1.421875 33.890625 -1.421875 
Q 20.796875 -1.421875 13.15625 6.1875 
Q 5.515625 13.8125 5.515625 26.8125 
Q 5.515625 40.234375 12.765625 48.109375 
Q 20.015625 56 32.328125 56 
Q 43.359375 56 49.78125 48.890625 
Q 56.203125 41.796875 56.203125 29.59375 
z
M 47.21875 32.234375 
Q 47.125 39.59375 43.09375 43.984375 
Q 39.0625 48.390625 32.421875 48.390625 
Q 24.90625 48.390625 20.390625 44.140625 
Q 15.875 39.890625 15.1875 32.171875 
z
" id="DejaVuSans-101"/>
      <path d="M 14.796875 27.296875 
Q 14.796875 17.390625 18.875 11.75 
Q 22.953125 6.109375 30.078125 6.109375 
Q 37.203125 6.109375 41.296875 11.75 
Q 45.40625 17.390625 45.40625 27.296875 
Q 45.40625 37.203125 41.296875 42.84375 
Q 37.203125 48.484375 30.078125 48.484375 
Q 22.953125 48.484375 18.875 42.84375 
Q 14.796875 37.203125 14.796875 27.296875 
z
M 45.40625 8.203125 
Q 42.578125 3.328125 38.25 0.953125 
Q 33.9375 -1.421875 27.875 -1.421875 
Q 17.96875 -1.421875 11.734375 6.484375 
Q 5.515625 14.40625 5.515625 27.296875 
Q 5.515625 40.1875 11.734375 48.09375 
Q 17.96875 56 27.875 56 
Q 33.9375 56 38.25 53.625 
Q 42.578125 51.265625 45.40625 46.390625 
L 45.40625 54.6875 
L 54.390625 54.6875 
L 54.390625 -20.796875 
L 45.40625 -20.796875 
z
" id="DejaVuSans-113"/>
      <path d="M 8.5 21.578125 
L 8.5 54.6875 
L 17.484375 54.6875 
L 17.484375 21.921875 
Q 17.484375 14.15625 20.5 10.265625 
Q 23.53125 6.390625 29.59375 6.390625 
Q 36.859375 6.390625 41.078125 11.03125 
Q 45.3125 15.671875 45.3125 23.6875 
L 45.3125 54.6875 
L 54.296875 54.6875 
L 54.296875 0 
L 45.3125 0 
L 45.3125 8.40625 
Q 42.046875 3.421875 37.71875 1 
Q 33.40625 -1.421875 27.6875 -1.421875 
Q 18.265625 -1.421875 13.375 4.4375 
Q 8.5 10.296875 8.5 21.578125 
z
M 31.109375 56 
z
" id="DejaVuSans-117"/>
      <path d="M 54.890625 33.015625 
L 54.890625 0 
L 45.90625 0 
L 45.90625 32.71875 
Q 45.90625 40.484375 42.875 44.328125 
Q 39.84375 48.1875 33.796875 48.1875 
Q 26.515625 48.1875 22.3125 43.546875 
Q 18.109375 38.921875 18.109375 30.90625 
L 18.109375 0 
L 9.078125 0 
L 9.078125 54.6875 
L 18.109375 54.6875 
L 18.109375 46.1875 
Q 21.34375 51.125 25.703125 53.5625 
Q 30.078125 56 35.796875 56 
Q 45.21875 56 50.046875 50.171875 
Q 54.890625 44.34375 54.890625 33.015625 
z
" id="DejaVuSans-110"/>
      <path d="M 48.78125 52.59375 
L 48.78125 44.1875 
Q 44.96875 46.296875 41.140625 47.34375 
Q 37.3125 48.390625 33.40625 48.390625 
Q 24.65625 48.390625 19.8125 42.84375 
Q 14.984375 37.3125 14.984375 27.296875 
Q 14.984375 17.28125 19.8125 11.734375 
Q 24.65625 6.203125 33.40625 6.203125 
Q 37.3125 6.203125 41.140625 7.25 
Q 44.96875 8.296875 48.78125 10.40625 
L 48.78125 2.09375 
Q 45.015625 0.34375 40.984375 -0.53125 
Q 36.96875 -1.421875 32.421875 -1.421875 
Q 20.0625 -1.421875 12.78125 6.34375 
Q 5.515625 14.109375 5.515625 27.296875 
Q 5.515625 40.671875 12.859375 48.328125 
Q 20.21875 56 33.015625 56 
Q 37.15625 56 41.109375 55.140625 
Q 45.0625 54.296875 48.78125 52.59375 
z
" id="DejaVuSans-99"/>
      <path d="M 32.171875 -5.078125 
Q 28.375 -14.84375 24.75 -17.8125 
Q 21.140625 -20.796875 15.09375 -20.796875 
L 7.90625 -20.796875 
L 7.90625 -13.28125 
L 13.1875 -13.28125 
Q 16.890625 -13.28125 18.9375 -11.515625 
Q 21 -9.765625 23.484375 -3.21875 
L 25.09375 0.875 
L 2.984375 54.6875 
L 12.5 54.6875 
L 29.59375 11.921875 
L 46.6875 54.6875 
L 56.203125 54.6875 
z
" id="DejaVuSans-121"/>
      <path d="M 25.390625 72.90625 
L 33.6875 72.90625 
L 8.296875 -9.28125 
L 0 -9.28125 
z
" id="DejaVuSans-47"/>
      <path d="M 53.515625 70.515625 
L 53.515625 60.890625 
Q 47.90625 63.578125 42.921875 64.890625 
Q 37.9375 66.21875 33.296875 66.21875 
Q 25.25 66.21875 20.875 63.09375 
Q 16.5 59.96875 16.5 54.203125 
Q 16.5 49.359375 19.40625 46.890625 
Q 22.3125 44.4375 30.421875 42.921875 
L 36.375 41.703125 
Q 47.40625 39.59375 52.65625 34.296875 
Q 57.90625 29 57.90625 20.125 
Q 57.90625 9.515625 50.796875 4.046875 
Q 43.703125 -1.421875 29.984375 -1.421875 
Q 24.8125 -1.421875 18.96875 -0.25 
Q 13.140625 0.921875 6.890625 3.21875 
L 6.890625 13.375 
Q 12.890625 10.015625 18.65625 8.296875 
Q 24.421875 6.59375 29.984375 6.59375 
Q 38.421875 6.59375 43.015625 9.90625 
Q 47.609375 13.234375 47.609375 19.390625 
Q 47.609375 24.75 44.3125 27.78125 
Q 41.015625 30.8125 33.5 32.328125 
L 27.484375 33.5 
Q 16.453125 35.6875 11.515625 40.375 
Q 6.59375 45.0625 6.59375 53.421875 
Q 6.59375 63.09375 13.40625 68.65625 
Q 20.21875 74.21875 32.171875 74.21875 
Q 37.3125 74.21875 42.625 73.28125 
Q 47.953125 72.359375 53.515625 70.515625 
z
" id="DejaVuSans-83"/>
      <path d="M 34.28125 27.484375 
Q 23.390625 27.484375 19.1875 25 
Q 14.984375 22.515625 14.984375 16.5 
Q 14.984375 11.71875 18.140625 8.90625 
Q 21.296875 6.109375 26.703125 6.109375 
Q 34.1875 6.109375 38.703125 11.40625 
Q 43.21875 16.703125 43.21875 25.484375 
L 43.21875 27.484375 
z
M 52.203125 31.203125 
L 52.203125 0 
L 43.21875 0 
L 43.21875 8.296875 
Q 40.140625 3.328125 35.546875 0.953125 
Q 30.953125 -1.421875 24.3125 -1.421875 
Q 15.921875 -1.421875 10.953125 3.296875 
Q 6 8.015625 6 15.921875 
Q 6 25.140625 12.171875 29.828125 
Q 18.359375 34.515625 30.609375 34.515625 
L 43.21875 34.515625 
L 43.21875 35.40625 
Q 43.21875 41.609375 39.140625 45 
Q 35.0625 48.390625 27.6875 48.390625 
Q 23 48.390625 18.546875 47.265625 
Q 14.109375 46.140625 10.015625 43.890625 
L 10.015625 52.203125 
Q 14.9375 54.109375 19.578125 55.046875 
Q 24.21875 56 28.609375 56 
Q 40.484375 56 46.34375 49.84375 
Q 52.203125 43.703125 52.203125 31.203125 
z
" id="DejaVuSans-97"/>
      <path d="M 52 44.1875 
Q 55.375 50.25 60.0625 53.125 
Q 64.75 56 71.09375 56 
Q 79.640625 56 84.28125 50.015625 
Q 88.921875 44.046875 88.921875 33.015625 
L 88.921875 0 
L 79.890625 0 
L 79.890625 32.71875 
Q 79.890625 40.578125 77.09375 44.375 
Q 74.3125 48.1875 68.609375 48.1875 
Q 61.625 48.1875 57.5625 43.546875 
Q 53.515625 38.921875 53.515625 30.90625 
L 53.515625 0 
L 44.484375 0 
L 44.484375 32.71875 
Q 44.484375 40.625 41.703125 44.40625 
Q 38.921875 48.1875 33.109375 48.1875 
Q 26.21875 48.1875 22.15625 43.53125 
Q 18.109375 38.875 18.109375 30.90625 
L 18.109375 0 
L 9.078125 0 
L 9.078125 54.6875 
L 18.109375 54.6875 
L 18.109375 46.1875 
Q 21.1875 51.21875 25.484375 53.609375 
Q 29.78125 56 35.6875 56 
Q 41.65625 56 45.828125 52.96875 
Q 50 49.953125 52 44.1875 
z
" id="DejaVuSans-109"/>
      <path d="M 18.109375 8.203125 
L 18.109375 -20.796875 
L 9.078125 -20.796875 
L 9.078125 54.6875 
L 18.109375 54.6875 
L 18.109375 46.390625 
Q 20.953125 51.265625 25.265625 53.625 
Q 29.59375 56 35.59375 56 
Q 45.5625 56 51.78125 48.09375 
Q 58.015625 40.1875 58.015625 27.296875 
Q 58.015625 14.40625 51.78125 6.484375 
Q 45.5625 -1.421875 35.59375 -1.421875 
Q 29.59375 -1.421875 25.265625 0.953125 
Q 20.953125 3.328125 18.109375 8.203125 
z
M 48.6875 27.296875 
Q 48.6875 37.203125 44.609375 42.84375 
Q 40.53125 48.484375 33.40625 48.484375 
Q 26.265625 48.484375 22.1875 42.84375 
Q 18.109375 37.203125 18.109375 27.296875 
Q 18.109375 17.390625 22.1875 11.75 
Q 26.265625 6.109375 33.40625 6.109375 
Q 40.53125 6.109375 44.609375 11.75 
Q 48.6875 17.390625 48.6875 27.296875 
z
" id="DejaVuSans-112"/>
      <path d="M 9.421875 75.984375 
L 18.40625 75.984375 
L 18.40625 0 
L 9.421875 0 
z
" id="DejaVuSans-108"/>
      <path id="DejaVuSans-32"/>
      <path d="M 44.390625 34.1875 
Q 47.5625 33.109375 50.5625 29.59375 
Q 53.5625 26.078125 56.59375 19.921875 
L 66.609375 0 
L 56 0 
L 46.6875 18.703125 
Q 43.0625 26.03125 39.671875 28.421875 
Q 36.28125 30.8125 30.421875 30.8125 
L 19.671875 30.8125 
L 19.671875 0 
L 9.8125 0 
L 9.8125 72.90625 
L 32.078125 72.90625 
Q 44.578125 72.90625 50.734375 67.671875 
Q 56.890625 62.453125 56.890625 51.90625 
Q 56.890625 45.015625 53.6875 40.46875 
Q 50.484375 35.9375 44.390625 34.1875 
z
M 19.671875 64.796875 
L 19.671875 38.921875 
L 32.078125 38.921875 
Q 39.203125 38.921875 42.84375 42.21875 
Q 46.484375 45.515625 46.484375 51.90625 
Q 46.484375 58.296875 42.84375 61.546875 
Q 39.203125 64.796875 32.078125 64.796875 
z
" id="DejaVuSans-82"/>
      <path d="M 18.3125 70.21875 
L 18.3125 54.6875 
L 36.8125 54.6875 
L 36.8125 47.703125 
L 18.3125 47.703125 
L 18.3125 18.015625 
Q 18.3125 11.328125 20.140625 9.421875 
Q 21.96875 7.515625 27.59375 7.515625 
L 36.8125 7.515625 
L 36.8125 0 
L 27.59375 0 
Q 17.1875 0 13.234375 3.875 
Q 9.28125 7.765625 9.28125 18.015625 
L 9.28125 47.703125 
L 2.6875 47.703125 
L 2.6875 54.6875 
L 9.28125 54.6875 
L 9.28125 70.21875 
z
" id="DejaVuSans-116"/>
     </defs>
     <g transform="translate(649.165937 722.262962)scale(0.1 -0.1)">
      <use xlink:href="#DejaVuSans-70"/>
      <use x="50.269531" xlink:href="#DejaVuSans-114"/>
      <use x="89.132812" xlink:href="#DejaVuSans-101"/>
      <use x="150.65625" xlink:href="#DejaVuSans-113"/>
      <use x="214.132812" xlink:href="#DejaVuSans-117"/>
      <use x="277.511719" xlink:href="#DejaVuSans-101"/>
      <use x="339.035156" xlink:href="#DejaVuSans-110"/>
      <use x="402.414062" xlink:href="#DejaVuSans-99"/>
      <use x="457.394531" xlink:href="#DejaVuSans-121"/>
      <use x="516.574219" xlink:href="#DejaVuSans-47"/>
      <use x="550.265625" xlink:href="#DejaVuSans-83"/>
      <use x="613.742188" xlink:href="#DejaVuSans-97"/>
      <use x="675.021484" xlink:href="#DejaVuSans-109"/>
      <use x="772.433594" xlink:href="#DejaVuSans-112"/>
      <use x="835.910156" xlink:href="#DejaVuSans-108"/>
      <use x="863.693359" xlink:href="#DejaVuSans-101"/>
      <use x="925.216797" xlink:href="#DejaVuSans-32"/>
      <use x="957.003906" xlink:href="#DejaVuSans-82"/>
      <use x="1024.236328" xlink:href="#DejaVuSans-97"/>
      <use x="1085.515625" xlink:href="#DejaVuSans-116"/>
      <use x="1124.724609" xlink:href="#DejaVuSans-101"/>
     </g>
    </g>
   </g>
   <g id="matplotlib.axis_2">
    <g id="ytick_1">
     <g id="line2d_13">
      <path clip-path="url(#p758f23312d)" d="M 172.8 634.312289 
L 1244.16 634.312289 
" style="fill:none;stroke:#b0b0b0;stroke-linecap:square;stroke-width:0.8;"/>
     </g>
     <g id="line2d_14">
      <defs>
       <path d="M 0 0 
L -3.5 0 
" id="m5904ec3ffb" style="stroke:#000000;stroke-width:0.8;"/>
      </defs>
      <g>
       <use style="stroke:#000000;stroke-width:0.8;" x="172.8" xlink:href="#m5904ec3ffb" y="634.312289"/>
      </g>
     </g>
     <g id="text_8">
      <!-- −100 -->
      <defs>
       <path d="M 10.59375 35.5 
L 73.1875 35.5 
L 73.1875 27.203125 
L 10.59375 27.203125 
z
" id="DejaVuSans-8722"/>
      </defs>
      <g transform="translate(138.332812 638.111508)scale(0.1 -0.1)">
       <use xlink:href="#DejaVuSans-8722"/>
       <use x="83.789062" xlink:href="#DejaVuSans-49"/>
       <use x="147.412109" xlink:href="#DejaVuSans-48"/>
       <use x="211.035156" xlink:href="#DejaVuSans-48"/>
      </g>
     </g>
    </g>
    <g id="ytick_2">
     <g id="line2d_15">
      <path clip-path="url(#p758f23312d)" d="M 172.8 531.625487 
L 1244.16 531.625487 
" style="fill:none;stroke:#b0b0b0;stroke-linecap:square;stroke-width:0.8;"/>
     </g>
     <g id="line2d_16">
      <g>
       <use style="stroke:#000000;stroke-width:0.8;" x="172.8" xlink:href="#m5904ec3ffb" y="531.625487"/>
      </g>
     </g>
     <g id="text_9">
      <!-- −80 -->
      <defs>
       <path d="M 31.78125 34.625 
Q 24.75 34.625 20.71875 30.859375 
Q 16.703125 27.09375 16.703125 20.515625 
Q 16.703125 13.921875 20.71875 10.15625 
Q 24.75 6.390625 31.78125 6.390625 
Q 38.8125 6.390625 42.859375 10.171875 
Q 46.921875 13.96875 46.921875 20.515625 
Q 46.921875 27.09375 42.890625 30.859375 
Q 38.875 34.625 31.78125 34.625 
z
M 21.921875 38.8125 
Q 15.578125 40.375 12.03125 44.71875 
Q 8.5 49.078125 8.5 55.328125 
Q 8.5 64.0625 14.71875 69.140625 
Q 20.953125 74.21875 31.78125 74.21875 
Q 42.671875 74.21875 48.875 69.140625 
Q 55.078125 64.0625 55.078125 55.328125 
Q 55.078125 49.078125 51.53125 44.71875 
Q 48 40.375 41.703125 38.8125 
Q 48.828125 37.15625 52.796875 32.3125 
Q 56.78125 27.484375 56.78125 20.515625 
Q 56.78125 9.90625 50.3125 4.234375 
Q 43.84375 -1.421875 31.78125 -1.421875 
Q 19.734375 -1.421875 13.25 4.234375 
Q 6.78125 9.90625 6.78125 20.515625 
Q 6.78125 27.484375 10.78125 32.3125 
Q 14.796875 37.15625 21.921875 38.8125 
z
M 18.3125 54.390625 
Q 18.3125 48.734375 21.84375 45.5625 
Q 25.390625 42.390625 31.78125 42.390625 
Q 38.140625 42.390625 41.71875 45.5625 
Q 45.3125 48.734375 45.3125 54.390625 
Q 45.3125 60.0625 41.71875 63.234375 
Q 38.140625 66.40625 31.78125 66.40625 
Q 25.390625 66.40625 21.84375 63.234375 
Q 18.3125 60.0625 18.3125 54.390625 
z
" id="DejaVuSans-56"/>
      </defs>
      <g transform="translate(144.695312 535.424706)scale(0.1 -0.1)">
       <use xlink:href="#DejaVuSans-8722"/>
       <use x="83.789062" xlink:href="#DejaVuSans-56"/>
       <use x="147.412109" xlink:href="#DejaVuSans-48"/>
      </g>
     </g>
    </g>
    <g id="ytick_3">
     <g id="line2d_17">
      <path clip-path="url(#p758f23312d)" d="M 172.8 428.938686 
L 1244.16 428.938686 
" style="fill:none;stroke:#b0b0b0;stroke-linecap:square;stroke-width:0.8;"/>
     </g>
     <g id="line2d_18">
      <g>
       <use style="stroke:#000000;stroke-width:0.8;" x="172.8" xlink:href="#m5904ec3ffb" y="428.938686"/>
      </g>
     </g>
     <g id="text_10">
      <!-- −60 -->
      <defs>
       <path d="M 33.015625 40.375 
Q 26.375 40.375 22.484375 35.828125 
Q 18.609375 31.296875 18.609375 23.390625 
Q 18.609375 15.53125 22.484375 10.953125 
Q 26.375 6.390625 33.015625 6.390625 
Q 39.65625 6.390625 43.53125 10.953125 
Q 47.40625 15.53125 47.40625 23.390625 
Q 47.40625 31.296875 43.53125 35.828125 
Q 39.65625 40.375 33.015625 40.375 
z
M 52.59375 71.296875 
L 52.59375 62.3125 
Q 48.875 64.0625 45.09375 64.984375 
Q 41.3125 65.921875 37.59375 65.921875 
Q 27.828125 65.921875 22.671875 59.328125 
Q 17.53125 52.734375 16.796875 39.40625 
Q 19.671875 43.65625 24.015625 45.921875 
Q 28.375 48.1875 33.59375 48.1875 
Q 44.578125 48.1875 50.953125 41.515625 
Q 57.328125 34.859375 57.328125 23.390625 
Q 57.328125 12.15625 50.6875 5.359375 
Q 44.046875 -1.421875 33.015625 -1.421875 
Q 20.359375 -1.421875 13.671875 8.265625 
Q 6.984375 17.96875 6.984375 36.375 
Q 6.984375 53.65625 15.1875 63.9375 
Q 23.390625 74.21875 37.203125 74.21875 
Q 40.921875 74.21875 44.703125 73.484375 
Q 48.484375 72.75 52.59375 71.296875 
z
" id="DejaVuSans-54"/>
      </defs>
      <g transform="translate(144.695312 432.737904)scale(0.1 -0.1)">
       <use xlink:href="#DejaVuSans-8722"/>
       <use x="83.789062" xlink:href="#DejaVuSans-54"/>
       <use x="147.412109" xlink:href="#DejaVuSans-48"/>
      </g>
     </g>
    </g>
    <g id="ytick_4">
     <g id="line2d_19">
      <path clip-path="url(#p758f23312d)" d="M 172.8 326.251884 
L 1244.16 326.251884 
" style="fill:none;stroke:#b0b0b0;stroke-linecap:square;stroke-width:0.8;"/>
     </g>
     <g id="line2d_20">
      <g>
       <use style="stroke:#000000;stroke-width:0.8;" x="172.8" xlink:href="#m5904ec3ffb" y="326.251884"/>
      </g>
     </g>
     <g id="text_11">
      <!-- −40 -->
      <g transform="translate(144.695312 330.051103)scale(0.1 -0.1)">
       <use xlink:href="#DejaVuSans-8722"/>
       <use x="83.789062" xlink:href="#DejaVuSans-52"/>
       <use x="147.412109" xlink:href="#DejaVuSans-48"/>
      </g>
     </g>
    </g>
    <g id="ytick_5">
     <g id="line2d_21">
      <path clip-path="url(#p758f23312d)" d="M 172.8 223.565083 
L 1244.16 223.565083 
" style="fill:none;stroke:#b0b0b0;stroke-linecap:square;stroke-width:0.8;"/>
     </g>
     <g id="line2d_22">
      <g>
       <use style="stroke:#000000;stroke-width:0.8;" x="172.8" xlink:href="#m5904ec3ffb" y="223.565083"/>
      </g>
     </g>
     <g id="text_12">
      <!-- −20 -->
      <g transform="translate(144.695312 227.364301)scale(0.1 -0.1)">
       <use xlink:href="#DejaVuSans-8722"/>
       <use x="83.789062" xlink:href="#DejaVuSans-50"/>
       <use x="147.412109" xlink:href="#DejaVuSans-48"/>
      </g>
     </g>
    </g>
    <g id="ytick_6">
     <g id="line2d_23">
      <path clip-path="url(#p758f23312d)" d="M 172.8 120.878281 
L 1244.16 120.878281 
" style="fill:none;stroke:#b0b0b0;stroke-linecap:square;stroke-width:0.8;"/>
     </g>
     <g id="line2d_24">
      <g>
       <use style="stroke:#000000;stroke-width:0.8;" x="172.8" xlink:href="#m5904ec3ffb" y="120.878281"/>
      </g>
     </g>
     <g id="text_13">
      <!-- 0 -->
      <g transform="translate(159.4375 124.6775)scale(0.1 -0.1)">
       <use xlink:href="#DejaVuSans-48"/>
      </g>
     </g>
    </g>
    <g id="text_14">
     <!-- Amplitude Response/dB -->
     <defs>
      <path d="M 34.1875 63.1875 
L 20.796875 26.90625 
L 47.609375 26.90625 
z
M 28.609375 72.90625 
L 39.796875 72.90625 
L 67.578125 0 
L 57.328125 0 
L 50.6875 18.703125 
L 17.828125 18.703125 
L 11.1875 0 
L 0.78125 0 
z
" id="DejaVuSans-65"/>
      <path d="M 9.421875 54.6875 
L 18.40625 54.6875 
L 18.40625 0 
L 9.421875 0 
z
M 9.421875 75.984375 
L 18.40625 75.984375 
L 18.40625 64.59375 
L 9.421875 64.59375 
z
" id="DejaVuSans-105"/>
      <path d="M 45.40625 46.390625 
L 45.40625 75.984375 
L 54.390625 75.984375 
L 54.390625 0 
L 45.40625 0 
L 45.40625 8.203125 
Q 42.578125 3.328125 38.25 0.953125 
Q 33.9375 -1.421875 27.875 -1.421875 
Q 17.96875 -1.421875 11.734375 6.484375 
Q 5.515625 14.40625 5.515625 27.296875 
Q 5.515625 40.1875 11.734375 48.09375 
Q 17.96875 56 27.875 56 
Q 33.9375 56 38.25 53.625 
Q 42.578125 51.265625 45.40625 46.390625 
z
M 14.796875 27.296875 
Q 14.796875 17.390625 18.875 11.75 
Q 22.953125 6.109375 30.078125 6.109375 
Q 37.203125 6.109375 41.296875 11.75 
Q 45.40625 17.390625 45.40625 27.296875 
Q 45.40625 37.203125 41.296875 42.84375 
Q 37.203125 48.484375 30.078125 48.484375 
Q 22.953125 48.484375 18.875 42.84375 
Q 14.796875 37.203125 14.796875 27.296875 
z
" id="DejaVuSans-100"/>
      <path d="M 44.28125 53.078125 
L 44.28125 44.578125 
Q 40.484375 46.53125 36.375 47.5 
Q 32.28125 48.484375 27.875 48.484375 
Q 21.1875 48.484375 17.84375 46.4375 
Q 14.5 44.390625 14.5 40.28125 
Q 14.5 37.15625 16.890625 35.375 
Q 19.28125 33.59375 26.515625 31.984375 
L 29.59375 31.296875 
Q 39.15625 29.25 43.1875 25.515625 
Q 47.21875 21.78125 47.21875 15.09375 
Q 47.21875 7.46875 41.1875 3.015625 
Q 35.15625 -1.421875 24.609375 -1.421875 
Q 20.21875 -1.421875 15.453125 -0.5625 
Q 10.6875 0.296875 5.421875 2 
L 5.421875 11.28125 
Q 10.40625 8.6875 15.234375 7.390625 
Q 20.0625 6.109375 24.8125 6.109375 
Q 31.15625 6.109375 34.5625 8.28125 
Q 37.984375 10.453125 37.984375 14.40625 
Q 37.984375 18.0625 35.515625 20.015625 
Q 33.0625 21.96875 24.703125 23.78125 
L 21.578125 24.515625 
Q 13.234375 26.265625 9.515625 29.90625 
Q 5.8125 33.546875 5.8125 39.890625 
Q 5.8125 47.609375 11.28125 51.796875 
Q 16.75 56 26.8125 56 
Q 31.78125 56 36.171875 55.265625 
Q 40.578125 54.546875 44.28125 53.078125 
z
" id="DejaVuSans-115"/>
      <path d="M 30.609375 48.390625 
Q 23.390625 48.390625 19.1875 42.75 
Q 14.984375 37.109375 14.984375 27.296875 
Q 14.984375 17.484375 19.15625 11.84375 
Q 23.34375 6.203125 30.609375 6.203125 
Q 37.796875 6.203125 41.984375 11.859375 
Q 46.1875 17.53125 46.1875 27.296875 
Q 46.1875 37.015625 41.984375 42.703125 
Q 37.796875 48.390625 30.609375 48.390625 
z
M 30.609375 56 
Q 42.328125 56 49.015625 48.375 
Q 55.71875 40.765625 55.71875 27.296875 
Q 55.71875 13.875 49.015625 6.21875 
Q 42.328125 -1.421875 30.609375 -1.421875 
Q 18.84375 -1.421875 12.171875 6.21875 
Q 5.515625 13.875 5.515625 27.296875 
Q 5.515625 40.765625 12.171875 48.375 
Q 18.84375 56 30.609375 56 
z
" id="DejaVuSans-111"/>
      <path d="M 19.671875 34.8125 
L 19.671875 8.109375 
L 35.5 8.109375 
Q 43.453125 8.109375 47.28125 11.40625 
Q 51.125 14.703125 51.125 21.484375 
Q 51.125 28.328125 47.28125 31.5625 
Q 43.453125 34.8125 35.5 34.8125 
z
M 19.671875 64.796875 
L 19.671875 42.828125 
L 34.28125 42.828125 
Q 41.5 42.828125 45.03125 45.53125 
Q 48.578125 48.25 48.578125 53.8125 
Q 48.578125 59.328125 45.03125 62.0625 
Q 41.5 64.796875 34.28125 64.796875 
z
M 9.8125 72.90625 
L 35.015625 72.90625 
Q 46.296875 72.90625 52.390625 68.21875 
Q 58.5 63.53125 58.5 54.890625 
Q 58.5 48.1875 55.375 44.234375 
Q 52.25 40.28125 46.1875 39.3125 
Q 53.46875 37.75 57.5 32.78125 
Q 61.53125 27.828125 61.53125 20.40625 
Q 61.53125 10.640625 54.890625 5.3125 
Q 48.25 0 35.984375 0 
L 9.8125 0 
z
" id="DejaVuSans-66"/>
     </defs>
     <g transform="translate(132.253125 453.293644)rotate(-90)scale(0.1 -0.1)">
      <use xlink:href="#DejaVuSans-65"/>
      <use x="68.408203" xlink:href="#DejaVuSans-109"/>
      <use x="165.820312" xlink:href="#DejaVuSans-112"/>
      <use x="229.296875" xlink:href="#DejaVuSans-108"/>
      <use x="257.080078" xlink:href="#DejaVuSans-105"/>
      <use x="284.863281" xlink:href="#DejaVuSans-116"/>
      <use x="324.072266" xlink:href="#DejaVuSans-117"/>
      <use x="387.451172" xlink:href="#DejaVuSans-100"/>
      <use x="450.927734" xlink:href="#DejaVuSans-101"/>
      <use x="512.451172" xlink:href="#DejaVuSans-32"/>
      <use x="544.238281" xlink:href="#DejaVuSans-82"/>
      <use x="609.220703" xlink:href="#DejaVuSans-101"/>
      <use x="670.744141" xlink:href="#DejaVuSans-115"/>
      <use x="722.84375" xlink:href="#DejaVuSans-112"/>
      <use x="786.320312" xlink:href="#DejaVuSans-111"/>
      <use x="847.501953" xlink:href="#DejaVuSans-110"/>
      <use x="910.880859" xlink:href="#DejaVuSans-115"/>
      <use x="962.980469" xlink:href="#DejaVuSans-101"/>
      <use x="1024.503906" xlink:href="#DejaVuSans-47"/>
      <use x="1058.195312" xlink:href="#DejaVuSans-100"/>
      <use x="1121.671875" xlink:href="#DejaVuSans-66"/>
     </g>
    </g>
   </g>
   <g id="line2d_25">
    <path clip-path="url(#p758f23312d)" d="M 221.498182 120.878281 
L 267.242071 120.989662 
L 272.960057 121.345667 
L 276.772048 121.783574 
L 280.584038 122.434947 
L 284.396029 123.347281 
L 288.20802 124.568828 
L 292.020011 126.147939 
L 295.832001 128.132743 
L 299.643992 130.571144 
L 303.455983 133.511123 
L 307.267974 137.00132 
L 311.079964 141.091882 
L 314.891955 145.835589 
L 318.703946 151.289313 
L 322.515937 157.515876 
L 326.327927 164.586489 
L 330.139918 172.584026 
L 333.951909 181.607571 
L 337.7639 191.779032 
L 339.669895 197.341929 
L 341.57589 203.253171 
L 343.481886 209.539859 
L 345.387881 216.233715 
L 347.293877 223.372337 
L 349.199872 231.000938 
L 351.105867 239.174803 
L 353.011863 247.962866 
L 354.917858 257.453105 
L 356.823853 267.760991 
L 358.729849 279.043416 
L 360.635844 291.523037 
L 362.54184 305.534192 
L 364.447835 321.618662 
L 366.35383 340.755204 
L 368.259826 365.039286 
L 370.165821 400.617209 
L 372.071816 498.952755 
L 373.977812 431.343183 
L 375.883807 405.949238 
L 377.789803 396.694232 
L 379.695798 394.063881 
L 381.601793 395.40461 
L 383.507789 399.653795 
L 385.413784 406.334071 
L 387.319779 415.239718 
L 389.225775 426.296614 
L 391.13177 439.446592 
L 393.037766 454.447034 
L 394.943761 470.415069 
L 396.849756 484.962344 
L 398.755752 493.732644 
L 400.661747 493.206049 
L 402.567742 485.012888 
L 406.379733 462.643022 
L 408.285729 453.061485 
L 410.191724 445.390108 
L 412.097719 439.666839 
L 414.003715 435.843353 
L 415.90971 433.889534 
L 417.815705 433.842597 
L 419.721701 435.849502 
L 421.627696 440.237089 
L 423.533692 447.669058 
L 425.439687 459.57371 
L 427.345682 479.696731 
L 429.251678 524.823575 
L 431.157673 531.62403 
L 433.063668 479.796508 
L 434.969664 456.998208 
L 436.875659 442.931901 
L 438.781655 433.43918 
L 440.68765 426.95927 
L 442.593645 422.761411 
L 444.499641 420.476841 
L 446.405636 419.935888 
L 448.311631 421.108702 
L 450.217627 424.096811 
L 452.123622 429.169037 
L 454.029618 436.871401 
L 455.935613 448.327782 
L 457.841608 466.230263 
L 459.747604 500.006347 
L 461.653599 579.583603 
L 463.559594 487.42605 
L 465.46559 460.418315 
L 467.371585 444.951614 
L 469.277581 434.860256 
L 471.183576 428.097647 
L 473.089571 423.756638 
L 474.995567 421.387711 
L 476.901562 420.776369 
L 478.807557 421.861412 
L 480.713553 424.714525 
L 482.619548 429.564804 
L 484.525543 436.888081 
L 486.431539 447.650294 
L 488.337534 464.068231 
L 490.24353 493.098022 
L 492.149525 623.433813 
L 494.05552 498.529221 
L 495.961516 467.330445 
L 497.867511 450.431273 
L 499.773506 439.605296 
L 501.679502 432.38068 
L 503.585497 427.704969 
L 505.491493 425.063492 
L 507.397488 424.205512 
L 509.303483 425.044251 
L 511.209479 427.627156 
L 513.115474 432.151925 
L 515.021469 439.04111 
L 516.927465 449.146336 
L 518.83346 464.362803 
L 520.739456 490.202081 
L 522.645451 565.21953 
L 524.551446 511.072951 
L 526.457442 474.998103 
L 528.363437 456.584782 
L 530.269432 444.983524 
L 532.175428 437.260408 
L 534.081423 432.214816 
L 535.987419 429.268088 
L 537.893414 428.134955 
L 539.799409 428.705085 
L 541.705405 431.004533 
L 543.6114 435.204494 
L 545.517395 441.684294 
L 547.423391 451.20637 
L 549.329386 465.427738 
L 551.235382 488.896405 
L 553.141377 546.119068 
L 555.047372 524.656707 
L 556.953368 482.674107 
L 558.859363 462.671341 
L 560.765358 450.285848 
L 562.671354 442.065035 
L 564.577349 436.652383 
L 566.483345 433.404445 
L 568.38934 432.002112 
L 570.295335 432.312803 
L 572.201331 434.343251 
L 574.107326 438.241752 
L 576.013321 444.351664 
L 577.919317 453.363724 
L 579.825312 466.751588 
L 581.731308 488.379442 
L 583.637303 535.91827 
L 585.543298 539.50583 
L 587.449294 490.128494 
L 589.355289 468.465117 
L 591.261284 455.298673 
L 593.16728 446.593093 
L 595.073275 440.827578 
L 596.979271 437.292933 
L 598.885266 435.636734 
L 600.791261 435.705234 
L 602.697257 437.487516 
L 604.603252 441.111814 
L 606.509247 446.891061 
L 608.415243 455.457184 
L 610.321238 468.138933 
L 612.227234 488.294376 
L 614.133229 529.595633 
L 616.039224 556.361997 
L 617.94522 497.301934 
L 619.851215 473.90547 
L 621.75721 459.965872 
L 623.663206 450.792176 
L 625.569201 444.691038 
L 627.475197 440.886657 
L 629.381192 438.993806 
L 631.287187 438.838517 
L 633.193183 440.393623 
L 635.099178 443.769578 
L 637.005173 449.253212 
L 638.911169 457.427404 
L 640.817164 469.503881 
L 642.72316 488.453556 
L 644.629155 525.356758 
L 646.53515 576.89869 
L 648.441146 504.1987 
L 650.347141 478.990879 
L 652.253136 464.286915 
L 654.159132 454.662185 
L 656.065127 448.242663 
L 657.971123 444.1852 
L 659.877118 442.072258 
L 661.783113 441.710487 
L 663.689109 443.057648 
L 665.595104 446.20827 
L 667.501099 451.426507 
L 669.407095 459.253704 
L 671.31309 470.805281 
L 673.219086 488.747782 
L 675.125081 522.363159 
L 677.031076 605.659399 
L 678.937072 510.848337 
L 680.843067 483.741352 
L 682.749062 468.281047 
L 684.655058 458.221408 
L 686.561053 451.499581 
L 688.467049 447.204382 
L 690.373044 444.886417 
L 692.279039 444.333697 
L 694.185035 445.489905 
L 696.09103 448.435169 
L 697.997025 453.413707 
L 699.903021 460.93121 
L 701.809016 472.022499 
L 703.715012 489.109181 
L 705.621007 520.161669 
L 707.527002 666.6948 
L 709.432998 517.290856 
L 711.338993 488.183852 
L 713.244988 471.973542 
L 715.150984 461.493575 
L 717.056979 454.48395 
L 718.962975 449.964753 
L 720.86897 447.455143 
L 722.774965 446.72513 
L 724.680961 447.705166 
L 726.586956 450.462238 
L 728.492951 455.222844 
L 730.398947 462.461681 
L 732.304942 473.145093 
L 734.210938 489.493575 
L 736.116933 518.48355 
L 738.022928 650.306176 
L 739.928924 523.571071 
L 741.834919 492.346429 
L 743.740914 475.39023 
L 745.64691 464.502756 
L 747.552905 457.218173 
L 749.458901 452.48709 
L 751.364896 449.797556 
L 753.270891 448.902139 
L 755.176887 449.718775 
L 757.082882 452.302353 
L 758.988877 456.863463 
L 760.894873 463.849549 
L 762.800868 474.167982 
L 764.706864 489.871197 
L 766.612859 517.158711 
L 768.518854 610.680006 
L 770.42485 529.736875 
L 772.330845 496.2559 
L 774.23684 478.55538 
L 776.142836 467.271399 
L 778.048831 459.723072 
L 779.954827 454.79068 
L 781.860822 451.931421 
L 783.766817 450.880897 
L 785.672813 451.54513 
L 787.578808 453.967789 
L 789.484803 458.345048 
L 791.390799 465.100127 
L 793.296794 475.088985 
L 795.20279 490.221432 
L 797.108785 516.074115 
L 799.01478 592.443692 
L 800.920776 535.839451 
L 802.826771 499.937037 
L 804.732766 481.490985 
L 806.638762 469.819701 
L 808.544757 462.017309 
L 810.450753 456.892773 
L 812.356748 453.872622 
L 814.262743 452.675879 
L 816.168739 453.19717 
L 818.074734 455.469672 
L 819.980729 459.676381 
L 821.886725 466.218782 
L 823.79272 475.907509 
L 825.698716 490.529651 
L 827.604711 515.151698 
L 829.510706 581.008917 
L 833.322697 503.412427 
L 835.228692 484.216655 
L 837.134688 472.16552 
L 839.040683 464.117315 
L 840.946679 458.808524 
L 842.852674 455.635094 
L 844.758669 454.299788 
L 846.664665 454.686263 
L 848.57066 456.817824 
L 850.476655 460.865321 
L 852.382651 467.210555 
L 854.288646 476.623801 
L 856.194642 490.785243 
L 858.100637 514.33581 
L 860.006632 572.879195 
L 861.912628 548.085767 
L 863.818623 506.702611 
L 865.724618 486.749752 
L 867.630614 474.324526 
L 869.536609 466.037439 
L 871.442605 460.551127 
L 873.3486 457.230946 
L 875.254595 455.76365 
L 877.160591 456.022284 
L 879.066586 458.020795 
L 880.972581 461.918756 
L 882.878577 468.079998 
L 884.784572 477.238514 
L 886.690568 490.980325 
L 888.596563 513.585685 
L 890.502558 566.659881 
L 892.408554 554.366767 
L 894.314549 509.82634 
L 896.220544 489.105627 
L 898.12654 476.310421 
L 900.032535 467.790154 
L 901.938531 462.13201 
L 903.844526 458.670643 
L 905.750521 457.076977 
L 907.656517 457.213737 
L 909.562512 459.085951 
L 911.468507 462.842644 
L 913.374503 468.831107 
L 915.280498 477.752445 
L 917.186494 491.108893 
L 919.092489 512.87073 
L 920.998484 561.654967 
L 922.90448 560.868645 
L 924.810475 512.800875 
L 926.71647 491.29787 
L 928.622466 478.13518 
L 930.528461 469.386287 
L 932.434457 463.561046 
L 934.340452 459.963192 
L 936.246447 458.247933 
L 938.152443 458.26791 
L 940.058438 460.019591 
L 941.964433 463.642073 
L 943.870429 469.467316 
L 945.776424 478.166368 
L 947.682419 491.166228 
L 949.588415 512.167456 
L 951.49441 557.468321 
L 953.400406 567.708217 
L 955.306401 515.642292 
L 957.212396 493.338553 
L 959.118392 479.809276 
L 961.024387 470.835227 
L 962.930382 464.846748 
L 964.836378 461.116324 
L 966.742373 459.283496 
L 968.648369 459.191002 
L 970.554364 460.827055 
L 972.460359 464.321338 
L 974.366355 469.991508 
L 976.27235 478.480938 
L 978.178345 491.148493 
L 980.084341 511.45743 
L 981.990336 553.853819 
L 983.896332 575.04321 
L 985.802327 518.365785 
L 987.708322 495.238452 
L 989.614318 481.34188 
L 991.520313 472.14511 
L 993.426308 465.996437 
L 995.332304 462.136646 
L 997.238299 460.189598 
L 999.144295 459.988255 
L 1001.05029 461.51282 
L 1002.956285 464.884006 
L 1004.862281 470.40603 
L 1006.768276 478.696613 
L 1008.674271 491.052433 
L 1010.580267 510.725861 
L 1012.486262 550.648517 
L 1014.392258 583.098804 
L 1016.298253 520.985969 
L 1018.204248 497.00725 
L 1020.110244 482.741041 
L 1022.016239 473.322982 
L 1023.922234 467.016394 
L 1025.82823 463.029782 
L 1027.734225 460.971242 
L 1029.640221 460.664049 
L 1031.546216 462.08059 
L 1033.452211 465.332975 
L 1035.358207 470.712724 
L 1037.264202 478.813617 
L 1039.170197 490.87516 
L 1041.076193 509.960608 
L 1042.982188 547.739151 
L 1044.888184 592.218409 
L 1046.794179 523.517189 
L 1048.700174 498.653716 
L 1050.60617 484.013836 
L 1052.512165 474.374936 
L 1054.41816 467.91198 
L 1056.324156 463.800475 
L 1058.230151 461.632606 
L 1060.136147 461.221992 
L 1062.042142 462.533362 
L 1063.948137 465.670529 
L 1065.854133 470.912938 
L 1067.760128 478.831896 
L 1069.666123 490.613989 
L 1071.572119 509.151463 
L 1073.478114 545.043826 
L 1075.38411 602.971654 
L 1077.290105 525.973841 
L 1079.1961 500.185862 
L 1081.102096 485.166504 
L 1083.008091 475.306227 
L 1084.914086 468.687745 
L 1086.820082 464.452692 
L 1088.726077 462.177123 
L 1090.632073 461.664995 
L 1092.538068 462.873488 
L 1094.444063 465.89837 
L 1096.350059 471.007545 
L 1098.256054 478.751096 
L 1100.162049 490.266315 
L 1102.068045 508.289619 
L 1103.97404 542.501328 
L 1105.880036 616.420533 
L 1107.786031 528.370728 
L 1109.692026 501.611095 
L 1111.598022 486.20456 
L 1113.504017 476.121371 
L 1115.410012 469.347509 
L 1117.316008 464.98969 
L 1119.222003 462.607546 
L 1121.127999 461.99532 
L 1123.033994 463.102714 
L 1124.939989 466.017655 
L 1126.845985 470.996954 
L 1128.75198 478.570537 
L 1130.657975 489.829504 
L 1132.563971 507.367273 
L 1134.469966 540.064538 
L 1136.375962 634.942847 
L 1138.281957 530.723469 
L 1140.187952 502.936349 
L 1142.093948 487.132892 
L 1143.999943 476.824229 
L 1145.905938 469.894437 
L 1147.811934 465.414083 
L 1149.717929 462.926003 
L 1151.623925 462.214629 
L 1153.52992 463.222217 
L 1155.435915 466.029013 
L 1157.341911 470.881107 
L 1159.247906 478.289188 
L 1161.153901 489.300816 
L 1163.059897 506.37732 
L 1164.965892 537.696193 
L 1166.871888 666.11778 
L 1168.777883 533.048976 
L 1170.683878 504.168221 
L 1172.589874 487.955851 
L 1174.495869 477.418071 
L 1176.401864 470.331093 
L 1178.30786 465.727886 
L 1180.213855 463.134036 
L 1182.119851 462.324014 
L 1184.025846 463.232627 
L 1185.931841 465.932556 
L 1187.837837 470.659486 
L 1189.743832 477.905638 
L 1191.649827 488.677325 
L 1193.555823 505.313104 
L 1195.461818 535.366059 
L 1195.461818 535.366059 
" style="fill:none;stroke:#1f77b4;stroke-linecap:square;stroke-width:1.5;"/>
   </g>
   <g id="patch_3">
    <path d="M 172.8 693.9864 
L 172.8 93.5712 
" style="fill:none;stroke:#000000;stroke-linecap:square;stroke-linejoin:miter;stroke-width:0.8;"/>
   </g>
   <g id="patch_4">
    <path d="M 1244.16 693.9864 
L 1244.16 93.5712 
" style="fill:none;stroke:#000000;stroke-linecap:square;stroke-linejoin:miter;stroke-width:0.8;"/>
   </g>
   <g id="patch_5">
    <path d="M 172.8 693.9864 
L 1244.16 693.9864 
" style="fill:none;stroke:#000000;stroke-linecap:square;stroke-linejoin:miter;stroke-width:0.8;"/>
   </g>
   <g id="patch_6">
    <path d="M 172.8 93.5712 
L 1244.16 93.5712 
" style="fill:none;stroke:#000000;stroke-linecap:square;stroke-linejoin:miter;stroke-width:0.8;"/>
   </g>
   <g id="text_15">
    <!-- Digital filter frequency response -->
    <defs>
     <path d="M 19.671875 64.796875 
L 19.671875 8.109375 
L 31.59375 8.109375 
Q 46.6875 8.109375 53.6875 14.9375 
Q 60.6875 21.78125 60.6875 36.53125 
Q 60.6875 51.171875 53.6875 57.984375 
Q 46.6875 64.796875 31.59375 64.796875 
z
M 9.8125 72.90625 
L 30.078125 72.90625 
Q 51.265625 72.90625 61.171875 64.09375 
Q 71.09375 55.28125 71.09375 36.53125 
Q 71.09375 17.671875 61.125 8.828125 
Q 51.171875 0 30.078125 0 
L 9.8125 0 
z
" id="DejaVuSans-68"/>
     <path d="M 45.40625 27.984375 
Q 45.40625 37.75 41.375 43.109375 
Q 37.359375 48.484375 30.078125 48.484375 
Q 22.859375 48.484375 18.828125 43.109375 
Q 14.796875 37.75 14.796875 27.984375 
Q 14.796875 18.265625 18.828125 12.890625 
Q 22.859375 7.515625 30.078125 7.515625 
Q 37.359375 7.515625 41.375 12.890625 
Q 45.40625 18.265625 45.40625 27.984375 
z
M 54.390625 6.78125 
Q 54.390625 -7.171875 48.1875 -13.984375 
Q 42 -20.796875 29.203125 -20.796875 
Q 24.46875 -20.796875 20.265625 -20.09375 
Q 16.0625 -19.390625 12.109375 -17.921875 
L 12.109375 -9.1875 
Q 16.0625 -11.328125 19.921875 -12.34375 
Q 23.78125 -13.375 27.78125 -13.375 
Q 36.625 -13.375 41.015625 -8.765625 
Q 45.40625 -4.15625 45.40625 5.171875 
L 45.40625 9.625 
Q 42.625 4.78125 38.28125 2.390625 
Q 33.9375 0 27.875 0 
Q 17.828125 0 11.671875 7.65625 
Q 5.515625 15.328125 5.515625 27.984375 
Q 5.515625 40.671875 11.671875 48.328125 
Q 17.828125 56 27.875 56 
Q 33.9375 56 38.28125 53.609375 
Q 42.625 51.21875 45.40625 46.390625 
L 45.40625 54.6875 
L 54.390625 54.6875 
z
" id="DejaVuSans-103"/>
     <path d="M 37.109375 75.984375 
L 37.109375 68.5 
L 28.515625 68.5 
Q 23.6875 68.5 21.796875 66.546875 
Q 19.921875 64.59375 19.921875 59.515625 
L 19.921875 54.6875 
L 34.71875 54.6875 
L 34.71875 47.703125 
L 19.921875 47.703125 
L 19.921875 0 
L 10.890625 0 
L 10.890625 47.703125 
L 2.296875 47.703125 
L 2.296875 54.6875 
L 10.890625 54.6875 
L 10.890625 58.5 
Q 10.890625 67.625 15.140625 71.796875 
Q 19.390625 75.984375 28.609375 75.984375 
z
" id="DejaVuSans-102"/>
    </defs>
    <g transform="translate(612.002812 87.5712)scale(0.12 -0.12)">
     <use xlink:href="#DejaVuSans-68"/>
     <use x="77.001953" xlink:href="#DejaVuSans-105"/>
     <use x="104.785156" xlink:href="#DejaVuSans-103"/>
     <use x="168.261719" xlink:href="#DejaVuSans-105"/>
     <use x="196.044922" xlink:href="#DejaVuSans-116"/>
     <use x="235.253906" xlink:href="#DejaVuSans-97"/>
     <use x="296.533203" xlink:href="#DejaVuSans-108"/>
     <use x="324.316406" xlink:href="#DejaVuSans-32"/>
     <use x="356.103516" xlink:href="#DejaVuSans-102"/>
     <use x="391.308594" xlink:href="#DejaVuSans-105"/>
     <use x="419.091797" xlink:href="#DejaVuSans-108"/>
     <use x="446.875" xlink:href="#DejaVuSans-116"/>
     <use x="486.083984" xlink:href="#DejaVuSans-101"/>
     <use x="547.607422" xlink:href="#DejaVuSans-114"/>
     <use x="588.720703" xlink:href="#DejaVuSans-32"/>
     <use x="620.507812" xlink:href="#DejaVuSans-102"/>
     <use x="655.712891" xlink:href="#DejaVuSans-114"/>
     <use x="694.576172" xlink:href="#DejaVuSans-101"/>
     <use x="756.099609" xlink:href="#DejaVuSans-113"/>
     <use x="819.576172" xlink:href="#DejaVuSans-117"/>
     <use x="882.955078" xlink:href="#DejaVuSans-101"/>
     <use x="944.478516" xlink:href="#DejaVuSans-110"/>
     <use x="1007.857422" xlink:href="#DejaVuSans-99"/>
     <use x="1062.837891" xlink:href="#DejaVuSans-121"/>
     <use x="1122.017578" xlink:href="#DejaVuSans-32"/>
     <use x="1153.804688" xlink:href="#DejaVuSans-114"/>
     <use x="1192.667969" xlink:href="#DejaVuSans-101"/>
     <use x="1254.191406" xlink:href="#DejaVuSans-115"/>
     <use x="1306.291016" xlink:href="#DejaVuSans-112"/>
     <use x="1369.767578" xlink:href="#DejaVuSans-111"/>
     <use x="1430.949219" xlink:href="#DejaVuSans-110"/>
     <use x="1494.328125" xlink:href="#DejaVuSans-115"/>
     <use x="1546.427734" xlink:href="#DejaVuSans-101"/>
    </g>
   </g>
  </g>
 </g>
 <defs>
  <clipPath id="p758f23312d">
   <rect height="600.4152" width="1071.36" x="172.8" y="93.5712"/>
  </clipPath>
 </defs>
</svg>
