<?xml version="1.0" encoding="utf-8" standalone="no"?>
<!DOCTYPE svg PUBLIC "-//W3C//DTD SVG 1.1//EN"
  "http://www.w3.org/Graphics/SVG/1.1/DTD/svg11.dtd">
<!-- Created with matplotlib (https://matplotlib.org/) -->
<svg height="779.76pt" version="1.1" viewBox="0 0 1382.4 779.76" width="1382.4pt" xmlns="http://www.w3.org/2000/svg" xmlns:xlink="http://www.w3.org/1999/xlink">
 <defs>
  <style type="text/css">
*{stroke-linecap:butt;stroke-linejoin:round;}
  </style>
 </defs>
 <g id="figure_1">
  <g id="patch_1">
   <path d="M 0 779.76 
L 1382.4 779.76 
L 1382.4 0 
L 0 0 
z
" style="fill:#ffffff;"/>
  </g>
  <g id="axes_1">
   <g id="patch_2">
    <path d="M 172.8 693.9864 
L 1244.16 693.9864 
L 1244.16 93.5712 
L 172.8 93.5712 
z
" style="fill:#ffffff;"/>
   </g>
   <g id="matplotlib.axis_1">
    <g id="xtick_1">
     <g id="line2d_1">
      <defs>
       <path d="M 0 0 
L 0 3.5 
" id="mca00ba14c8" style="stroke:#000000;stroke-width:0.8;"/>
      </defs>
      <g>
       <use style="stroke:#000000;stroke-width:0.8;" x="221.498182" xlink:href="#mca00ba14c8" y="693.9864"/>
      </g>
     </g>
     <g id="text_1">
      <!-- 0 -->
      <defs>
       <path d="M 31.78125 66.40625 
Q 24.171875 66.40625 20.328125 58.90625 
Q 16.5 51.421875 16.5 36.375 
Q 16.5 21.390625 20.328125 13.890625 
Q 24.171875 6.390625 31.78125 6.390625 
Q 39.453125 6.390625 43.28125 13.890625 
Q 47.125 21.390625 47.125 36.375 
Q 47.125 51.421875 43.28125 58.90625 
Q 39.453125 66.40625 31.78125 66.40625 
z
M 31.78125 74.21875 
Q 44.046875 74.21875 50.515625 64.515625 
Q 56.984375 54.828125 56.984375 36.375 
Q 56.984375 17.96875 50.515625 8.265625 
Q 44.046875 -1.421875 31.78125 -1.421875 
Q 19.53125 -1.421875 13.0625 8.265625 
Q 6.59375 17.96875 6.59375 36.375 
Q 6.59375 54.828125 13.0625 64.515625 
Q 19.53125 74.21875 31.78125 74.21875 
z
" id="DejaVuSans-48"/>
      </defs>
      <g transform="translate(218.316932 708.584838)scale(0.1 -0.1)">
       <use xlink:href="#DejaVuSans-48"/>
      </g>
     </g>
    </g>
    <g id="xtick_2">
     <g id="line2d_2">
      <g>
       <use style="stroke:#000000;stroke-width:0.8;" x="348.647482" xlink:href="#mca00ba14c8" y="693.9864"/>
      </g>
     </g>
     <g id="text_2">
      <!-- 50 -->
      <defs>
       <path d="M 10.796875 72.90625 
L 49.515625 72.90625 
L 49.515625 64.59375 
L 19.828125 64.59375 
L 19.828125 46.734375 
Q 21.96875 47.46875 24.109375 47.828125 
Q 26.265625 48.1875 28.421875 48.1875 
Q 40.625 48.1875 47.75 41.5 
Q 54.890625 34.8125 54.890625 23.390625 
Q 54.890625 11.625 47.5625 5.09375 
Q 40.234375 -1.421875 26.90625 -1.421875 
Q 22.3125 -1.421875 17.546875 -0.640625 
Q 12.796875 0.140625 7.71875 1.703125 
L 7.71875 11.625 
Q 12.109375 9.234375 16.796875 8.0625 
Q 21.484375 6.890625 26.703125 6.890625 
Q 35.15625 6.890625 40.078125 11.328125 
Q 45.015625 15.765625 45.015625 23.390625 
Q 45.015625 31 40.078125 35.4375 
Q 35.15625 39.890625 26.703125 39.890625 
Q 22.75 39.890625 18.8125 39.015625 
Q 14.890625 38.140625 10.796875 36.28125 
z
" id="DejaVuSans-53"/>
      </defs>
      <g transform="translate(342.284982 708.584838)scale(0.1 -0.1)">
       <use xlink:href="#DejaVuSans-53"/>
       <use x="63.623047" xlink:href="#DejaVuSans-48"/>
      </g>
     </g>
    </g>
    <g id="xtick_3">
     <g id="line2d_3">
      <g>
       <use style="stroke:#000000;stroke-width:0.8;" x="475.796781" xlink:href="#mca00ba14c8" y="693.9864"/>
      </g>
     </g>
     <g id="text_3">
      <!-- 100 -->
      <defs>
       <path d="M 12.40625 8.296875 
L 28.515625 8.296875 
L 28.515625 63.921875 
L 10.984375 60.40625 
L 10.984375 69.390625 
L 28.421875 72.90625 
L 38.28125 72.90625 
L 38.28125 8.296875 
L 54.390625 8.296875 
L 54.390625 0 
L 12.40625 0 
z
" id="DejaVuSans-49"/>
      </defs>
      <g transform="translate(466.253031 708.584838)scale(0.1 -0.1)">
       <use xlink:href="#DejaVuSans-49"/>
       <use x="63.623047" xlink:href="#DejaVuSans-48"/>
       <use x="127.246094" xlink:href="#DejaVuSans-48"/>
      </g>
     </g>
    </g>
    <g id="xtick_4">
     <g id="line2d_4">
      <g>
       <use style="stroke:#000000;stroke-width:0.8;" x="602.946081" xlink:href="#mca00ba14c8" y="693.9864"/>
      </g>
     </g>
     <g id="text_4">
      <!-- 150 -->
      <g transform="translate(593.402331 708.584838)scale(0.1 -0.1)">
       <use xlink:href="#DejaVuSans-49"/>
       <use x="63.623047" xlink:href="#DejaVuSans-53"/>
       <use x="127.246094" xlink:href="#DejaVuSans-48"/>
      </g>
     </g>
    </g>
    <g id="xtick_5">
     <g id="line2d_5">
      <g>
       <use style="stroke:#000000;stroke-width:0.8;" x="730.095381" xlink:href="#mca00ba14c8" y="693.9864"/>
      </g>
     </g>
     <g id="text_5">
      <!-- 200 -->
      <defs>
       <path d="M 19.1875 8.296875 
L 53.609375 8.296875 
L 53.609375 0 
L 7.328125 0 
L 7.328125 8.296875 
Q 12.9375 14.109375 22.625 23.890625 
Q 32.328125 33.6875 34.8125 36.53125 
Q 39.546875 41.84375 41.421875 45.53125 
Q 43.3125 49.21875 43.3125 52.78125 
Q 43.3125 58.59375 39.234375 62.25 
Q 35.15625 65.921875 28.609375 65.921875 
Q 23.96875 65.921875 18.8125 64.3125 
Q 13.671875 62.703125 7.8125 59.421875 
L 7.8125 69.390625 
Q 13.765625 71.78125 18.9375 73 
Q 24.125 74.21875 28.421875 74.21875 
Q 39.75 74.21875 46.484375 68.546875 
Q 53.21875 62.890625 53.21875 53.421875 
Q 53.21875 48.921875 51.53125 44.890625 
Q 49.859375 40.875 45.40625 35.40625 
Q 44.1875 33.984375 37.640625 27.21875 
Q 31.109375 20.453125 19.1875 8.296875 
z
" id="DejaVuSans-50"/>
      </defs>
      <g transform="translate(720.551631 708.584838)scale(0.1 -0.1)">
       <use xlink:href="#DejaVuSans-50"/>
       <use x="63.623047" xlink:href="#DejaVuSans-48"/>
       <use x="127.246094" xlink:href="#DejaVuSans-48"/>
      </g>
     </g>
    </g>
    <g id="xtick_6">
     <g id="line2d_6">
      <g>
       <use style="stroke:#000000;stroke-width:0.8;" x="857.244681" xlink:href="#mca00ba14c8" y="693.9864"/>
      </g>
     </g>
     <g id="text_6">
      <!-- 250 -->
      <g transform="translate(847.700931 708.584838)scale(0.1 -0.1)">
       <use xlink:href="#DejaVuSans-50"/>
       <use x="63.623047" xlink:href="#DejaVuSans-53"/>
       <use x="127.246094" xlink:href="#DejaVuSans-48"/>
      </g>
     </g>
    </g>
    <g id="xtick_7">
     <g id="line2d_7">
      <g>
       <use style="stroke:#000000;stroke-width:0.8;" x="984.393981" xlink:href="#mca00ba14c8" y="693.9864"/>
      </g>
     </g>
     <g id="text_7">
      <!-- 300 -->
      <defs>
       <path d="M 40.578125 39.3125 
Q 47.65625 37.796875 51.625 33 
Q 55.609375 28.21875 55.609375 21.1875 
Q 55.609375 10.40625 48.1875 4.484375 
Q 40.765625 -1.421875 27.09375 -1.421875 
Q 22.515625 -1.421875 17.65625 -0.515625 
Q 12.796875 0.390625 7.625 2.203125 
L 7.625 11.71875 
Q 11.71875 9.328125 16.59375 8.109375 
Q 21.484375 6.890625 26.8125 6.890625 
Q 36.078125 6.890625 40.9375 10.546875 
Q 45.796875 14.203125 45.796875 21.1875 
Q 45.796875 27.640625 41.28125 31.265625 
Q 36.765625 34.90625 28.71875 34.90625 
L 20.21875 34.90625 
L 20.21875 43.015625 
L 29.109375 43.015625 
Q 36.375 43.015625 40.234375 45.921875 
Q 44.09375 48.828125 44.09375 54.296875 
Q 44.09375 59.90625 40.109375 62.90625 
Q 36.140625 65.921875 28.71875 65.921875 
Q 24.65625 65.921875 20.015625 65.03125 
Q 15.375 64.15625 9.8125 62.3125 
L 9.8125 71.09375 
Q 15.4375 72.65625 20.34375 73.4375 
Q 25.25 74.21875 29.59375 74.21875 
Q 40.828125 74.21875 47.359375 69.109375 
Q 53.90625 64.015625 53.90625 55.328125 
Q 53.90625 49.265625 50.4375 45.09375 
Q 46.96875 40.921875 40.578125 39.3125 
z
" id="DejaVuSans-51"/>
      </defs>
      <g transform="translate(974.850231 708.584838)scale(0.1 -0.1)">
       <use xlink:href="#DejaVuSans-51"/>
       <use x="63.623047" xlink:href="#DejaVuSans-48"/>
       <use x="127.246094" xlink:href="#DejaVuSans-48"/>
      </g>
     </g>
    </g>
    <g id="xtick_8">
     <g id="line2d_8">
      <g>
       <use style="stroke:#000000;stroke-width:0.8;" x="1111.54328" xlink:href="#mca00ba14c8" y="693.9864"/>
      </g>
     </g>
     <g id="text_8">
      <!-- 350 -->
      <g transform="translate(1101.99953 708.584838)scale(0.1 -0.1)">
       <use xlink:href="#DejaVuSans-51"/>
       <use x="63.623047" xlink:href="#DejaVuSans-53"/>
       <use x="127.246094" xlink:href="#DejaVuSans-48"/>
      </g>
     </g>
    </g>
    <g id="xtick_9">
     <g id="line2d_9">
      <g>
       <use style="stroke:#000000;stroke-width:0.8;" x="1238.69258" xlink:href="#mca00ba14c8" y="693.9864"/>
      </g>
     </g>
     <g id="text_9">
      <!-- 400 -->
      <defs>
       <path d="M 37.796875 64.3125 
L 12.890625 25.390625 
L 37.796875 25.390625 
z
M 35.203125 72.90625 
L 47.609375 72.90625 
L 47.609375 25.390625 
L 58.015625 25.390625 
L 58.015625 17.1875 
L 47.609375 17.1875 
L 47.609375 0 
L 37.796875 0 
L 37.796875 17.1875 
L 4.890625 17.1875 
L 4.890625 26.703125 
z
" id="DejaVuSans-52"/>
      </defs>
      <g transform="translate(1229.14883 708.584838)scale(0.1 -0.1)">
       <use xlink:href="#DejaVuSans-52"/>
       <use x="63.623047" xlink:href="#DejaVuSans-48"/>
       <use x="127.246094" xlink:href="#DejaVuSans-48"/>
      </g>
     </g>
    </g>
   </g>
   <g id="matplotlib.axis_2">
    <g id="ytick_1">
     <g id="line2d_10">
      <defs>
       <path d="M 0 0 
L -3.5 0 
" id="m64928cb9bc" style="stroke:#000000;stroke-width:0.8;"/>
      </defs>
      <g>
       <use style="stroke:#000000;stroke-width:0.8;" x="172.8" xlink:href="#m64928cb9bc" y="666.6948"/>
      </g>
     </g>
     <g id="text_10">
      <!-- 0 -->
      <g transform="translate(159.4375 670.494019)scale(0.1 -0.1)">
       <use xlink:href="#DejaVuSans-48"/>
      </g>
     </g>
    </g>
    <g id="ytick_2">
     <g id="line2d_11">
      <g>
       <use style="stroke:#000000;stroke-width:0.8;" x="172.8" xlink:href="#m64928cb9bc" y="573.223732"/>
      </g>
     </g>
     <g id="text_11">
      <!-- 10 -->
      <g transform="translate(153.075 577.02295)scale(0.1 -0.1)">
       <use xlink:href="#DejaVuSans-49"/>
       <use x="63.623047" xlink:href="#DejaVuSans-48"/>
      </g>
     </g>
    </g>
    <g id="ytick_3">
     <g id="line2d_12">
      <g>
       <use style="stroke:#000000;stroke-width:0.8;" x="172.8" xlink:href="#m64928cb9bc" y="479.752663"/>
      </g>
     </g>
     <g id="text_12">
      <!-- 20 -->
      <g transform="translate(153.075 483.551882)scale(0.1 -0.1)">
       <use xlink:href="#DejaVuSans-50"/>
       <use x="63.623047" xlink:href="#DejaVuSans-48"/>
      </g>
     </g>
    </g>
    <g id="ytick_4">
     <g id="line2d_13">
      <g>
       <use style="stroke:#000000;stroke-width:0.8;" x="172.8" xlink:href="#m64928cb9bc" y="386.281595"/>
      </g>
     </g>
     <g id="text_13">
      <!-- 30 -->
      <g transform="translate(153.075 390.080814)scale(0.1 -0.1)">
       <use xlink:href="#DejaVuSans-51"/>
       <use x="63.623047" xlink:href="#DejaVuSans-48"/>
      </g>
     </g>
    </g>
    <g id="ytick_5">
     <g id="line2d_14">
      <g>
       <use style="stroke:#000000;stroke-width:0.8;" x="172.8" xlink:href="#m64928cb9bc" y="292.810527"/>
      </g>
     </g>
     <g id="text_14">
      <!-- 40 -->
      <g transform="translate(153.075 296.609746)scale(0.1 -0.1)">
       <use xlink:href="#DejaVuSans-52"/>
       <use x="63.623047" xlink:href="#DejaVuSans-48"/>
      </g>
     </g>
    </g>
    <g id="ytick_6">
     <g id="line2d_15">
      <g>
       <use style="stroke:#000000;stroke-width:0.8;" x="172.8" xlink:href="#m64928cb9bc" y="199.339459"/>
      </g>
     </g>
     <g id="text_15">
      <!-- 50 -->
      <g transform="translate(153.075 203.138677)scale(0.1 -0.1)">
       <use xlink:href="#DejaVuSans-53"/>
       <use x="63.623047" xlink:href="#DejaVuSans-48"/>
      </g>
     </g>
    </g>
    <g id="ytick_7">
     <g id="line2d_16">
      <g>
       <use style="stroke:#000000;stroke-width:0.8;" x="172.8" xlink:href="#m64928cb9bc" y="105.86839"/>
      </g>
     </g>
     <g id="text_16">
      <!-- 60 -->
      <defs>
       <path d="M 33.015625 40.375 
Q 26.375 40.375 22.484375 35.828125 
Q 18.609375 31.296875 18.609375 23.390625 
Q 18.609375 15.53125 22.484375 10.953125 
Q 26.375 6.390625 33.015625 6.390625 
Q 39.65625 6.390625 43.53125 10.953125 
Q 47.40625 15.53125 47.40625 23.390625 
Q 47.40625 31.296875 43.53125 35.828125 
Q 39.65625 40.375 33.015625 40.375 
z
M 52.59375 71.296875 
L 52.59375 62.3125 
Q 48.875 64.0625 45.09375 64.984375 
Q 41.3125 65.921875 37.59375 65.921875 
Q 27.828125 65.921875 22.671875 59.328125 
Q 17.53125 52.734375 16.796875 39.40625 
Q 19.671875 43.65625 24.015625 45.921875 
Q 28.375 48.1875 33.59375 48.1875 
Q 44.578125 48.1875 50.953125 41.515625 
Q 57.328125 34.859375 57.328125 23.390625 
Q 57.328125 12.15625 50.6875 5.359375 
Q 44.046875 -1.421875 33.015625 -1.421875 
Q 20.359375 -1.421875 13.671875 8.265625 
Q 6.984375 17.96875 6.984375 36.375 
Q 6.984375 53.65625 15.1875 63.9375 
Q 23.390625 74.21875 37.203125 74.21875 
Q 40.921875 74.21875 44.703125 73.484375 
Q 48.484375 72.75 52.59375 71.296875 
z
" id="DejaVuSans-54"/>
      </defs>
      <g transform="translate(153.075 109.667609)scale(0.1 -0.1)">
       <use xlink:href="#DejaVuSans-54"/>
       <use x="63.623047" xlink:href="#DejaVuSans-48"/>
      </g>
     </g>
    </g>
   </g>
   <g id="line2d_17">
    <path clip-path="url(#p1fe6d0a9ad)" d="M 221.498182 666.6948 
L 224.041168 663.817657 
L 226.584154 649.008787 
L 229.12714 641.564543 
L 231.670126 650.100591 
L 234.213112 649.297632 
L 236.756098 627.201455 
L 239.299084 656.963338 
L 241.84207 613.252807 
L 244.385056 599.254796 
L 246.928042 631.699288 
L 249.471028 603.955705 
L 252.014014 666.6948 
L 254.557 599.858785 
L 257.099986 626.987882 
L 259.642972 585.229425 
L 262.185958 598.007873 
L 264.728944 653.397631 
L 267.27193 609.378936 
L 269.814916 639.908354 
L 272.357902 639.621483 
L 274.900888 623.308407 
L 277.443874 634.427854 
L 279.98686 661.155507 
L 282.529846 666.6948 
L 285.072832 660.550947 
L 287.615818 626.991869 
L 290.158804 607.445669 
L 292.70179 625.634955 
L 295.244776 621.537591 
L 297.787762 559.165496 
L 300.330748 638.892295 
L 302.873734 506.351061 
L 305.41672 453.901695 
L 307.959706 550.33105 
L 310.502692 446.228178 
L 313.045678 666.6948 
L 315.588664 401.095438 
L 318.13165 497.413401 
L 320.674636 291.036865 
L 323.217622 320.452727 
L 325.760608 592.387997 
L 328.303594 304.854397 
L 330.84658 470.526754 
L 333.389566 427.517468 
L 335.932552 174.33074 
L 338.475538 138.439078 
L 341.018524 492.570998 
L 343.56151 666.6948 
L 346.104496 489.698338 
L 348.647482 120.8628 
L 351.190468 149.548729 
L 353.733454 411.327916 
L 356.27644 453.783948 
L 358.819426 267.467287 
L 361.362412 583.350442 
L 363.905398 271.889191 
L 366.448384 231.218491 
L 368.99137 467.185519 
L 371.534356 348.438784 
L 374.077342 666.6948 
L 376.620328 393.592634 
L 379.163314 520.127984 
L 381.7063 394.159867 
L 384.249286 457.874786 
L 386.792272 629.876365 
L 389.335258 521.893869 
L 391.878244 604.860196 
L 394.42123 609.524245 
L 396.964216 582.812416 
L 399.507202 609.544442 
L 402.050188 657.703804 
L 404.593174 666.6948 
L 407.13616 658.319554 
L 409.679146 617.118522 
L 412.222131 598.971347 
L 414.765117 623.773827 
L 417.308103 623.579469 
L 419.851089 573.069077 
L 422.394075 644.662308 
L 424.937061 551.321878 
L 427.480047 528.0748 
L 430.023033 598.304975 
L 432.566019 550.280875 
L 435.109005 666.6948 
L 437.651991 555.309753 
L 440.194977 604.09119 
L 442.737963 545.314753 
L 445.280949 570.083189 
L 447.823935 649.056958 
L 450.366921 595.072854 
L 452.909907 635.193898 
L 455.452893 636.763302 
L 457.995879 621.649853 
L 460.538865 635.270974 
L 463.081851 661.640788 
L 465.624837 666.6948 
L 468.167823 661.794368 
L 470.710809 637.152759 
L 473.253795 625.638366 
L 475.796781 640.248028 
L 478.339767 639.716387 
L 480.882753 607.250089 
L 483.425739 652.510931 
L 485.968725 591.436799 
L 488.511711 575.131914 
L 491.054697 620.977859 
L 493.597683 587.981474 
L 496.140669 666.6948 
L 498.683655 589.75573 
L 501.226641 623.016353 
L 503.769627 581.190844 
L 506.312613 598.007873 
L 508.855599 654.043322 
L 511.398585 614.880712 
L 513.941571 643.717748 
L 516.484557 644.688796 
L 519.027543 633.323005 
L 521.570529 643.241735 
L 524.113515 662.895736 
L 526.656501 666.6948 
L 529.199487 662.960786 
L 531.742473 644.038224 
L 534.285459 635.009239 
L 536.828445 646.159647 
L 539.371431 645.622611 
L 541.914417 619.996479 
L 544.457403 655.4899 
L 547.000389 606.919045 
L 549.543375 593.582899 
L 552.086361 630.001895 
L 554.629347 603.200831 
L 557.172333 666.6948 
L 559.715319 604.029217 
L 562.258305 630.953291 
L 564.801291 596.408903 
L 567.344277 609.981201 
L 569.887263 656.203184 
L 572.430249 623.54332 
L 574.973235 647.479401 
L 577.516221 648.216341 
L 580.059207 638.560416 
L 582.602193 646.845002 
L 585.145179 663.46706 
L 587.688165 666.6948 
L 590.231151 663.498595 
L 592.774137 647.23104 
L 595.317123 639.377385 
L 597.860109 648.928584 
L 600.403095 648.401184 
L 602.946081 626.016833 
L 605.489067 656.901925 
L 608.032053 614.280646 
L 610.575039 602.380007 
L 613.118025 634.314339 
L 615.661011 610.487694 
L 618.203997 666.6948 
L 620.746983 610.880481 
L 623.289969 634.76539 
L 625.832955 603.719489 
L 628.375941 615.731588 
L 630.918927 657.239759 
L 633.461913 627.695865 
L 636.004899 649.279631 
L 638.547885 649.90092 
L 641.090871 641.054914 
L 643.633857 648.555731 
L 646.176843 663.737298 
L 648.719829 666.6948 
L 651.262815 663.750646 
L 653.805801 648.719112 
L 656.348787 641.400627 
L 658.891773 650.202255 
L 661.434759 649.669517 
L 663.977745 628.741751 
L 666.520731 657.5351 
L 669.063717 617.548062 
L 671.606703 606.240969 
L 674.149689 636.183903 
L 676.692675 613.604562 
L 679.235661 666.6948 
L 681.778647 613.72223 
L 684.321633 636.319019 
L 686.864619 606.642186 
L 689.407605 617.982613 
L 691.950591 657.636264 
L 694.493577 629.244445 
L 697.036563 649.932462 
L 699.579549 650.493229 
L 702.122535 641.902486 
L 704.665521 649.115285 
L 707.208507 663.822008 
L 709.751493 666.6948 
L 712.294479 663.822008 
L 714.837465 649.115285 
L 717.380451 641.902486 
L 719.923437 650.493229 
L 722.466423 649.932462 
L 725.009409 629.244445 
L 727.552395 657.636264 
L 730.095381 617.982613 
L 732.638367 606.642186 
L 735.181353 636.319019 
L 737.724339 613.72223 
L 740.267325 666.6948 
L 742.810311 613.604562 
L 745.353297 636.183903 
L 747.896283 606.240969 
L 750.439269 617.548062 
L 752.982255 657.5351 
L 755.525241 628.741751 
L 758.068227 649.669517 
L 760.611213 650.202255 
L 763.154199 641.400627 
L 765.697185 648.719112 
L 768.240171 663.750646 
L 770.783157 666.6948 
L 773.326143 663.737298 
L 775.869129 648.555731 
L 778.412115 641.054914 
L 780.955101 649.90092 
L 783.498087 649.279631 
L 786.041073 627.695865 
L 788.584059 657.239759 
L 791.127045 615.731588 
L 793.670031 603.719489 
L 796.213017 634.76539 
L 798.756003 610.880481 
L 801.298989 666.6948 
L 803.841975 610.487694 
L 806.384961 634.314339 
L 808.927947 602.380007 
L 811.470933 614.280646 
L 814.013919 656.901925 
L 816.556905 626.016833 
L 819.099891 648.401184 
L 821.642877 648.928584 
L 824.185863 639.377385 
L 826.728849 647.23104 
L 829.271835 663.498595 
L 831.814821 666.6948 
L 834.357807 663.46706 
L 836.900793 646.845002 
L 839.443779 638.560416 
L 841.986765 648.216341 
L 844.529751 647.479401 
L 847.072737 623.54332 
L 849.615723 656.203184 
L 852.158709 609.981201 
L 854.701695 596.408903 
L 857.244681 630.953291 
L 859.787667 604.029217 
L 862.330653 666.6948 
L 864.873639 603.200831 
L 867.416625 630.001895 
L 869.959611 593.582899 
L 872.502597 606.919045 
L 875.045583 655.4899 
L 877.588569 619.996479 
L 880.131555 645.622611 
L 882.674541 646.159647 
L 885.217527 635.009239 
L 887.760513 644.038224 
L 890.303499 662.960786 
L 892.846485 666.6948 
L 895.389471 662.895736 
L 897.932457 643.241735 
L 900.475443 633.323005 
L 903.018429 644.688796 
L 905.561415 643.717748 
L 908.104401 614.880712 
L 910.647387 654.043322 
L 913.190373 598.007873 
L 915.733359 581.190844 
L 918.276345 623.016353 
L 920.819331 589.75573 
L 923.362317 666.6948 
L 925.905303 587.981474 
L 928.448289 620.977859 
L 930.991275 575.131914 
L 933.534261 591.436799 
L 936.077247 652.510931 
L 938.620233 607.250089 
L 941.163219 639.716387 
L 943.706205 640.248028 
L 946.249191 625.638366 
L 948.792177 637.152759 
L 951.335163 661.794368 
L 953.878149 666.6948 
L 956.421135 661.640788 
L 958.964121 635.270974 
L 961.507107 621.649853 
L 964.050093 636.763302 
L 966.593079 635.193898 
L 969.136065 595.072854 
L 971.679051 649.056958 
L 974.222037 570.083189 
L 976.765023 545.314753 
L 979.308009 604.09119 
L 981.850995 555.309753 
L 984.393981 666.6948 
L 986.936967 550.280875 
L 989.479953 598.304975 
L 992.022939 528.0748 
L 994.565925 551.321878 
L 997.108911 644.662308 
L 999.651897 573.069077 
L 1002.194883 623.579469 
L 1004.737869 623.773827 
L 1007.280854 598.971347 
L 1009.82384 617.118522 
L 1012.366826 658.319554 
L 1014.909812 666.6948 
L 1017.452798 657.703804 
L 1019.995784 609.544442 
L 1022.53877 582.812416 
L 1025.081756 609.524245 
L 1027.624742 604.860196 
L 1030.167728 521.893869 
L 1032.710714 629.876365 
L 1035.2537 457.874786 
L 1037.796686 394.159867 
L 1040.339672 520.127984 
L 1042.882658 393.592634 
L 1045.425644 666.6948 
L 1047.96863 348.438784 
L 1050.511616 467.185519 
L 1053.054602 231.218491 
L 1055.597588 271.889191 
L 1058.140574 583.350442 
L 1060.68356 267.467287 
L 1063.226546 453.783948 
L 1065.769532 411.327916 
L 1068.312518 149.548729 
L 1070.855504 120.8628 
L 1073.39849 489.698338 
L 1075.941476 666.6948 
L 1078.484462 492.570998 
L 1081.027448 138.439078 
L 1083.570434 174.33074 
L 1086.11342 427.517468 
L 1088.656406 470.526754 
L 1091.199392 304.854397 
L 1093.742378 592.387997 
L 1096.285364 320.452727 
L 1098.82835 291.036865 
L 1101.371336 497.413401 
L 1103.914322 401.095438 
L 1106.457308 666.6948 
L 1109.000294 446.228178 
L 1111.54328 550.33105 
L 1114.086266 453.901695 
L 1116.629252 506.351061 
L 1119.172238 638.892295 
L 1121.715224 559.165496 
L 1124.25821 621.537591 
L 1126.801196 625.634955 
L 1129.344182 607.445669 
L 1131.887168 626.991869 
L 1134.430154 660.550947 
L 1136.97314 666.6948 
L 1139.516126 661.155507 
L 1142.059112 634.427854 
L 1144.602098 623.308407 
L 1147.145084 639.621483 
L 1149.68807 639.908354 
L 1152.231056 609.378936 
L 1154.774042 653.397631 
L 1157.317028 598.007873 
L 1159.860014 585.229425 
L 1162.403 626.987882 
L 1164.945986 599.858785 
L 1167.488972 666.6948 
L 1170.031958 603.955705 
L 1172.574944 631.699288 
L 1175.11793 599.254796 
L 1177.660916 613.252807 
L 1180.203902 656.963338 
L 1182.746888 627.201455 
L 1185.289874 649.297632 
L 1187.83286 650.100591 
L 1190.375846 641.564543 
L 1192.918832 649.008787 
L 1195.461818 663.817657 
L 1195.461818 663.817657 
" style="fill:none;stroke:#1f77b4;stroke-linecap:square;stroke-width:1.5;"/>
   </g>
   <g id="patch_3">
    <path d="M 172.8 693.9864 
L 172.8 93.5712 
" style="fill:none;stroke:#000000;stroke-linecap:square;stroke-linejoin:miter;stroke-width:0.8;"/>
   </g>
   <g id="patch_4">
    <path d="M 1244.16 693.9864 
L 1244.16 93.5712 
" style="fill:none;stroke:#000000;stroke-linecap:square;stroke-linejoin:miter;stroke-width:0.8;"/>
   </g>
   <g id="patch_5">
    <path d="M 172.8 693.9864 
L 1244.16 693.9864 
" style="fill:none;stroke:#000000;stroke-linecap:square;stroke-linejoin:miter;stroke-width:0.8;"/>
   </g>
   <g id="patch_6">
    <path d="M 172.8 93.5712 
L 1244.16 93.5712 
" style="fill:none;stroke:#000000;stroke-linecap:square;stroke-linejoin:miter;stroke-width:0.8;"/>
   </g>
   <g id="text_17">
    <!-- Binary Phase Shift Keying - Frequency Spectrum -->
    <defs>
     <path d="M 19.671875 34.8125 
L 19.671875 8.109375 
L 35.5 8.109375 
Q 43.453125 8.109375 47.28125 11.40625 
Q 51.125 14.703125 51.125 21.484375 
Q 51.125 28.328125 47.28125 31.5625 
Q 43.453125 34.8125 35.5 34.8125 
z
M 19.671875 64.796875 
L 19.671875 42.828125 
L 34.28125 42.828125 
Q 41.5 42.828125 45.03125 45.53125 
Q 48.578125 48.25 48.578125 53.8125 
Q 48.578125 59.328125 45.03125 62.0625 
Q 41.5 64.796875 34.28125 64.796875 
z
M 9.8125 72.90625 
L 35.015625 72.90625 
Q 46.296875 72.90625 52.390625 68.21875 
Q 58.5 63.53125 58.5 54.890625 
Q 58.5 48.1875 55.375 44.234375 
Q 52.25 40.28125 46.1875 39.3125 
Q 53.46875 37.75 57.5 32.78125 
Q 61.53125 27.828125 61.53125 20.40625 
Q 61.53125 10.640625 54.890625 5.3125 
Q 48.25 0 35.984375 0 
L 9.8125 0 
z
" id="DejaVuSans-66"/>
     <path d="M 9.421875 54.6875 
L 18.40625 54.6875 
L 18.40625 0 
L 9.421875 0 
z
M 9.421875 75.984375 
L 18.40625 75.984375 
L 18.40625 64.59375 
L 9.421875 64.59375 
z
" id="DejaVuSans-105"/>
     <path d="M 54.890625 33.015625 
L 54.890625 0 
L 45.90625 0 
L 45.90625 32.71875 
Q 45.90625 40.484375 42.875 44.328125 
Q 39.84375 48.1875 33.796875 48.1875 
Q 26.515625 48.1875 22.3125 43.546875 
Q 18.109375 38.921875 18.109375 30.90625 
L 18.109375 0 
L 9.078125 0 
L 9.078125 54.6875 
L 18.109375 54.6875 
L 18.109375 46.1875 
Q 21.34375 51.125 25.703125 53.5625 
Q 30.078125 56 35.796875 56 
Q 45.21875 56 50.046875 50.171875 
Q 54.890625 44.34375 54.890625 33.015625 
z
" id="DejaVuSans-110"/>
     <path d="M 34.28125 27.484375 
Q 23.390625 27.484375 19.1875 25 
Q 14.984375 22.515625 14.984375 16.5 
Q 14.984375 11.71875 18.140625 8.90625 
Q 21.296875 6.109375 26.703125 6.109375 
Q 34.1875 6.109375 38.703125 11.40625 
Q 43.21875 16.703125 43.21875 25.484375 
L 43.21875 27.484375 
z
M 52.203125 31.203125 
L 52.203125 0 
L 43.21875 0 
L 43.21875 8.296875 
Q 40.140625 3.328125 35.546875 0.953125 
Q 30.953125 -1.421875 24.3125 -1.421875 
Q 15.921875 -1.421875 10.953125 3.296875 
Q 6 8.015625 6 15.921875 
Q 6 25.140625 12.171875 29.828125 
Q 18.359375 34.515625 30.609375 34.515625 
L 43.21875 34.515625 
L 43.21875 35.40625 
Q 43.21875 41.609375 39.140625 45 
Q 35.0625 48.390625 27.6875 48.390625 
Q 23 48.390625 18.546875 47.265625 
Q 14.109375 46.140625 10.015625 43.890625 
L 10.015625 52.203125 
Q 14.9375 54.109375 19.578125 55.046875 
Q 24.21875 56 28.609375 56 
Q 40.484375 56 46.34375 49.84375 
Q 52.203125 43.703125 52.203125 31.203125 
z
" id="DejaVuSans-97"/>
     <path d="M 41.109375 46.296875 
Q 39.59375 47.171875 37.8125 47.578125 
Q 36.03125 48 33.890625 48 
Q 26.265625 48 22.1875 43.046875 
Q 18.109375 38.09375 18.109375 28.8125 
L 18.109375 0 
L 9.078125 0 
L 9.078125 54.6875 
L 18.109375 54.6875 
L 18.109375 46.1875 
Q 20.953125 51.171875 25.484375 53.578125 
Q 30.03125 56 36.53125 56 
Q 37.453125 56 38.578125 55.875 
Q 39.703125 55.765625 41.0625 55.515625 
z
" id="DejaVuSans-114"/>
     <path d="M 32.171875 -5.078125 
Q 28.375 -14.84375 24.75 -17.8125 
Q 21.140625 -20.796875 15.09375 -20.796875 
L 7.90625 -20.796875 
L 7.90625 -13.28125 
L 13.1875 -13.28125 
Q 16.890625 -13.28125 18.9375 -11.515625 
Q 21 -9.765625 23.484375 -3.21875 
L 25.09375 0.875 
L 2.984375 54.6875 
L 12.5 54.6875 
L 29.59375 11.921875 
L 46.6875 54.6875 
L 56.203125 54.6875 
z
" id="DejaVuSans-121"/>
     <path id="DejaVuSans-32"/>
     <path d="M 19.671875 64.796875 
L 19.671875 37.40625 
L 32.078125 37.40625 
Q 38.96875 37.40625 42.71875 40.96875 
Q 46.484375 44.53125 46.484375 51.125 
Q 46.484375 57.671875 42.71875 61.234375 
Q 38.96875 64.796875 32.078125 64.796875 
z
M 9.8125 72.90625 
L 32.078125 72.90625 
Q 44.34375 72.90625 50.609375 67.359375 
Q 56.890625 61.8125 56.890625 51.125 
Q 56.890625 40.328125 50.609375 34.8125 
Q 44.34375 29.296875 32.078125 29.296875 
L 19.671875 29.296875 
L 19.671875 0 
L 9.8125 0 
z
" id="DejaVuSans-80"/>
     <path d="M 54.890625 33.015625 
L 54.890625 0 
L 45.90625 0 
L 45.90625 32.71875 
Q 45.90625 40.484375 42.875 44.328125 
Q 39.84375 48.1875 33.796875 48.1875 
Q 26.515625 48.1875 22.3125 43.546875 
Q 18.109375 38.921875 18.109375 30.90625 
L 18.109375 0 
L 9.078125 0 
L 9.078125 75.984375 
L 18.109375 75.984375 
L 18.109375 46.1875 
Q 21.34375 51.125 25.703125 53.5625 
Q 30.078125 56 35.796875 56 
Q 45.21875 56 50.046875 50.171875 
Q 54.890625 44.34375 54.890625 33.015625 
z
" id="DejaVuSans-104"/>
     <path d="M 44.28125 53.078125 
L 44.28125 44.578125 
Q 40.484375 46.53125 36.375 47.5 
Q 32.28125 48.484375 27.875 48.484375 
Q 21.1875 48.484375 17.84375 46.4375 
Q 14.5 44.390625 14.5 40.28125 
Q 14.5 37.15625 16.890625 35.375 
Q 19.28125 33.59375 26.515625 31.984375 
L 29.59375 31.296875 
Q 39.15625 29.25 43.1875 25.515625 
Q 47.21875 21.78125 47.21875 15.09375 
Q 47.21875 7.46875 41.1875 3.015625 
Q 35.15625 -1.421875 24.609375 -1.421875 
Q 20.21875 -1.421875 15.453125 -0.5625 
Q 10.6875 0.296875 5.421875 2 
L 5.421875 11.28125 
Q 10.40625 8.6875 15.234375 7.390625 
Q 20.0625 6.109375 24.8125 6.109375 
Q 31.15625 6.109375 34.5625 8.28125 
Q 37.984375 10.453125 37.984375 14.40625 
Q 37.984375 18.0625 35.515625 20.015625 
Q 33.0625 21.96875 24.703125 23.78125 
L 21.578125 24.515625 
Q 13.234375 26.265625 9.515625 29.90625 
Q 5.8125 33.546875 5.8125 39.890625 
Q 5.8125 47.609375 11.28125 51.796875 
Q 16.75 56 26.8125 56 
Q 31.78125 56 36.171875 55.265625 
Q 40.578125 54.546875 44.28125 53.078125 
z
" id="DejaVuSans-115"/>
     <path d="M 56.203125 29.59375 
L 56.203125 25.203125 
L 14.890625 25.203125 
Q 15.484375 15.921875 20.484375 11.0625 
Q 25.484375 6.203125 34.421875 6.203125 
Q 39.59375 6.203125 44.453125 7.46875 
Q 49.3125 8.734375 54.109375 11.28125 
L 54.109375 2.78125 
Q 49.265625 0.734375 44.1875 -0.34375 
Q 39.109375 -1.421875 33.890625 -1.421875 
Q 20.796875 -1.421875 13.15625 6.1875 
Q 5.515625 13.8125 5.515625 26.8125 
Q 5.515625 40.234375 12.765625 48.109375 
Q 20.015625 56 32.328125 56 
Q 43.359375 56 49.78125 48.890625 
Q 56.203125 41.796875 56.203125 29.59375 
z
M 47.21875 32.234375 
Q 47.125 39.59375 43.09375 43.984375 
Q 39.0625 48.390625 32.421875 48.390625 
Q 24.90625 48.390625 20.390625 44.140625 
Q 15.875 39.890625 15.1875 32.171875 
z
" id="DejaVuSans-101"/>
     <path d="M 53.515625 70.515625 
L 53.515625 60.890625 
Q 47.90625 63.578125 42.921875 64.890625 
Q 37.9375 66.21875 33.296875 66.21875 
Q 25.25 66.21875 20.875 63.09375 
Q 16.5 59.96875 16.5 54.203125 
Q 16.5 49.359375 19.40625 46.890625 
Q 22.3125 44.4375 30.421875 42.921875 
L 36.375 41.703125 
Q 47.40625 39.59375 52.65625 34.296875 
Q 57.90625 29 57.90625 20.125 
Q 57.90625 9.515625 50.796875 4.046875 
Q 43.703125 -1.421875 29.984375 -1.421875 
Q 24.8125 -1.421875 18.96875 -0.25 
Q 13.140625 0.921875 6.890625 3.21875 
L 6.890625 13.375 
Q 12.890625 10.015625 18.65625 8.296875 
Q 24.421875 6.59375 29.984375 6.59375 
Q 38.421875 6.59375 43.015625 9.90625 
Q 47.609375 13.234375 47.609375 19.390625 
Q 47.609375 24.75 44.3125 27.78125 
Q 41.015625 30.8125 33.5 32.328125 
L 27.484375 33.5 
Q 16.453125 35.6875 11.515625 40.375 
Q 6.59375 45.0625 6.59375 53.421875 
Q 6.59375 63.09375 13.40625 68.65625 
Q 20.21875 74.21875 32.171875 74.21875 
Q 37.3125 74.21875 42.625 73.28125 
Q 47.953125 72.359375 53.515625 70.515625 
z
" id="DejaVuSans-83"/>
     <path d="M 37.109375 75.984375 
L 37.109375 68.5 
L 28.515625 68.5 
Q 23.6875 68.5 21.796875 66.546875 
Q 19.921875 64.59375 19.921875 59.515625 
L 19.921875 54.6875 
L 34.71875 54.6875 
L 34.71875 47.703125 
L 19.921875 47.703125 
L 19.921875 0 
L 10.890625 0 
L 10.890625 47.703125 
L 2.296875 47.703125 
L 2.296875 54.6875 
L 10.890625 54.6875 
L 10.890625 58.5 
Q 10.890625 67.625 15.140625 71.796875 
Q 19.390625 75.984375 28.609375 75.984375 
z
" id="DejaVuSans-102"/>
     <path d="M 18.3125 70.21875 
L 18.3125 54.6875 
L 36.8125 54.6875 
L 36.8125 47.703125 
L 18.3125 47.703125 
L 18.3125 18.015625 
Q 18.3125 11.328125 20.140625 9.421875 
Q 21.96875 7.515625 27.59375 7.515625 
L 36.8125 7.515625 
L 36.8125 0 
L 27.59375 0 
Q 17.1875 0 13.234375 3.875 
Q 9.28125 7.765625 9.28125 18.015625 
L 9.28125 47.703125 
L 2.6875 47.703125 
L 2.6875 54.6875 
L 9.28125 54.6875 
L 9.28125 70.21875 
z
" id="DejaVuSans-116"/>
     <path d="M 9.8125 72.90625 
L 19.671875 72.90625 
L 19.671875 42.09375 
L 52.390625 72.90625 
L 65.09375 72.90625 
L 28.90625 38.921875 
L 67.671875 0 
L 54.6875 0 
L 19.671875 35.109375 
L 19.671875 0 
L 9.8125 0 
z
" id="DejaVuSans-75"/>
     <path d="M 45.40625 27.984375 
Q 45.40625 37.75 41.375 43.109375 
Q 37.359375 48.484375 30.078125 48.484375 
Q 22.859375 48.484375 18.828125 43.109375 
Q 14.796875 37.75 14.796875 27.984375 
Q 14.796875 18.265625 18.828125 12.890625 
Q 22.859375 7.515625 30.078125 7.515625 
Q 37.359375 7.515625 41.375 12.890625 
Q 45.40625 18.265625 45.40625 27.984375 
z
M 54.390625 6.78125 
Q 54.390625 -7.171875 48.1875 -13.984375 
Q 42 -20.796875 29.203125 -20.796875 
Q 24.46875 -20.796875 20.265625 -20.09375 
Q 16.0625 -19.390625 12.109375 -17.921875 
L 12.109375 -9.1875 
Q 16.0625 -11.328125 19.921875 -12.34375 
Q 23.78125 -13.375 27.78125 -13.375 
Q 36.625 -13.375 41.015625 -8.765625 
Q 45.40625 -4.15625 45.40625 5.171875 
L 45.40625 9.625 
Q 42.625 4.78125 38.28125 2.390625 
Q 33.9375 0 27.875 0 
Q 17.828125 0 11.671875 7.65625 
Q 5.515625 15.328125 5.515625 27.984375 
Q 5.515625 40.671875 11.671875 48.328125 
Q 17.828125 56 27.875 56 
Q 33.9375 56 38.28125 53.609375 
Q 42.625 51.21875 45.40625 46.390625 
L 45.40625 54.6875 
L 54.390625 54.6875 
z
" id="DejaVuSans-103"/>
     <path d="M 4.890625 31.390625 
L 31.203125 31.390625 
L 31.203125 23.390625 
L 4.890625 23.390625 
z
" id="DejaVuSans-45"/>
     <path d="M 9.8125 72.90625 
L 51.703125 72.90625 
L 51.703125 64.59375 
L 19.671875 64.59375 
L 19.671875 43.109375 
L 48.578125 43.109375 
L 48.578125 34.8125 
L 19.671875 34.8125 
L 19.671875 0 
L 9.8125 0 
z
" id="DejaVuSans-70"/>
     <path d="M 14.796875 27.296875 
Q 14.796875 17.390625 18.875 11.75 
Q 22.953125 6.109375 30.078125 6.109375 
Q 37.203125 6.109375 41.296875 11.75 
Q 45.40625 17.390625 45.40625 27.296875 
Q 45.40625 37.203125 41.296875 42.84375 
Q 37.203125 48.484375 30.078125 48.484375 
Q 22.953125 48.484375 18.875 42.84375 
Q 14.796875 37.203125 14.796875 27.296875 
z
M 45.40625 8.203125 
Q 42.578125 3.328125 38.25 0.953125 
Q 33.9375 -1.421875 27.875 -1.421875 
Q 17.96875 -1.421875 11.734375 6.484375 
Q 5.515625 14.40625 5.515625 27.296875 
Q 5.515625 40.1875 11.734375 48.09375 
Q 17.96875 56 27.875 56 
Q 33.9375 56 38.25 53.625 
Q 42.578125 51.265625 45.40625 46.390625 
L 45.40625 54.6875 
L 54.390625 54.6875 
L 54.390625 -20.796875 
L 45.40625 -20.796875 
z
" id="DejaVuSans-113"/>
     <path d="M 8.5 21.578125 
L 8.5 54.6875 
L 17.484375 54.6875 
L 17.484375 21.921875 
Q 17.484375 14.15625 20.5 10.265625 
Q 23.53125 6.390625 29.59375 6.390625 
Q 36.859375 6.390625 41.078125 11.03125 
Q 45.3125 15.671875 45.3125 23.6875 
L 45.3125 54.6875 
L 54.296875 54.6875 
L 54.296875 0 
L 45.3125 0 
L 45.3125 8.40625 
Q 42.046875 3.421875 37.71875 1 
Q 33.40625 -1.421875 27.6875 -1.421875 
Q 18.265625 -1.421875 13.375 4.4375 
Q 8.5 10.296875 8.5 21.578125 
z
M 31.109375 56 
z
" id="DejaVuSans-117"/>
     <path d="M 48.78125 52.59375 
L 48.78125 44.1875 
Q 44.96875 46.296875 41.140625 47.34375 
Q 37.3125 48.390625 33.40625 48.390625 
Q 24.65625 48.390625 19.8125 42.84375 
Q 14.984375 37.3125 14.984375 27.296875 
Q 14.984375 17.28125 19.8125 11.734375 
Q 24.65625 6.203125 33.40625 6.203125 
Q 37.3125 6.203125 41.140625 7.25 
Q 44.96875 8.296875 48.78125 10.40625 
L 48.78125 2.09375 
Q 45.015625 0.34375 40.984375 -0.53125 
Q 36.96875 -1.421875 32.421875 -1.421875 
Q 20.0625 -1.421875 12.78125 6.34375 
Q 5.515625 14.109375 5.515625 27.296875 
Q 5.515625 40.671875 12.859375 48.328125 
Q 20.21875 56 33.015625 56 
Q 37.15625 56 41.109375 55.140625 
Q 45.0625 54.296875 48.78125 52.59375 
z
" id="DejaVuSans-99"/>
     <path d="M 18.109375 8.203125 
L 18.109375 -20.796875 
L 9.078125 -20.796875 
L 9.078125 54.6875 
L 18.109375 54.6875 
L 18.109375 46.390625 
Q 20.953125 51.265625 25.265625 53.625 
Q 29.59375 56 35.59375 56 
Q 45.5625 56 51.78125 48.09375 
Q 58.015625 40.1875 58.015625 27.296875 
Q 58.015625 14.40625 51.78125 6.484375 
Q 45.5625 -1.421875 35.59375 -1.421875 
Q 29.59375 -1.421875 25.265625 0.953125 
Q 20.953125 3.328125 18.109375 8.203125 
z
M 48.6875 27.296875 
Q 48.6875 37.203125 44.609375 42.84375 
Q 40.53125 48.484375 33.40625 48.484375 
Q 26.265625 48.484375 22.1875 42.84375 
Q 18.109375 37.203125 18.109375 27.296875 
Q 18.109375 17.390625 22.1875 11.75 
Q 26.265625 6.109375 33.40625 6.109375 
Q 40.53125 6.109375 44.609375 11.75 
Q 48.6875 17.390625 48.6875 27.296875 
z
" id="DejaVuSans-112"/>
     <path d="M 52 44.1875 
Q 55.375 50.25 60.0625 53.125 
Q 64.75 56 71.09375 56 
Q 79.640625 56 84.28125 50.015625 
Q 88.921875 44.046875 88.921875 33.015625 
L 88.921875 0 
L 79.890625 0 
L 79.890625 32.71875 
Q 79.890625 40.578125 77.09375 44.375 
Q 74.3125 48.1875 68.609375 48.1875 
Q 61.625 48.1875 57.5625 43.546875 
Q 53.515625 38.921875 53.515625 30.90625 
L 53.515625 0 
L 44.484375 0 
L 44.484375 32.71875 
Q 44.484375 40.625 41.703125 44.40625 
Q 38.921875 48.1875 33.109375 48.1875 
Q 26.21875 48.1875 22.15625 43.53125 
Q 18.109375 38.875 18.109375 30.90625 
L 18.109375 0 
L 9.078125 0 
L 9.078125 54.6875 
L 18.109375 54.6875 
L 18.109375 46.1875 
Q 21.1875 51.21875 25.484375 53.609375 
Q 29.78125 56 35.6875 56 
Q 41.65625 56 45.828125 52.96875 
Q 50 49.953125 52 44.1875 
z
" id="DejaVuSans-109"/>
    </defs>
    <g transform="translate(563.814375 87.5712)scale(0.12 -0.12)">
     <use xlink:href="#DejaVuSans-66"/>
     <use x="68.603516" xlink:href="#DejaVuSans-105"/>
     <use x="96.386719" xlink:href="#DejaVuSans-110"/>
     <use x="159.765625" xlink:href="#DejaVuSans-97"/>
     <use x="221.044922" xlink:href="#DejaVuSans-114"/>
     <use x="262.158203" xlink:href="#DejaVuSans-121"/>
     <use x="321.337891" xlink:href="#DejaVuSans-32"/>
     <use x="353.125" xlink:href="#DejaVuSans-80"/>
     <use x="413.427734" xlink:href="#DejaVuSans-104"/>
     <use x="476.806641" xlink:href="#DejaVuSans-97"/>
     <use x="538.085938" xlink:href="#DejaVuSans-115"/>
     <use x="590.185547" xlink:href="#DejaVuSans-101"/>
     <use x="651.708984" xlink:href="#DejaVuSans-32"/>
     <use x="683.496094" xlink:href="#DejaVuSans-83"/>
     <use x="746.972656" xlink:href="#DejaVuSans-104"/>
     <use x="810.351562" xlink:href="#DejaVuSans-105"/>
     <use x="838.134766" xlink:href="#DejaVuSans-102"/>
     <use x="871.589844" xlink:href="#DejaVuSans-116"/>
     <use x="910.798828" xlink:href="#DejaVuSans-32"/>
     <use x="942.585938" xlink:href="#DejaVuSans-75"/>
     <use x="1003.162109" xlink:href="#DejaVuSans-101"/>
     <use x="1064.685547" xlink:href="#DejaVuSans-121"/>
     <use x="1123.865234" xlink:href="#DejaVuSans-105"/>
     <use x="1151.648438" xlink:href="#DejaVuSans-110"/>
     <use x="1215.027344" xlink:href="#DejaVuSans-103"/>
     <use x="1278.503906" xlink:href="#DejaVuSans-32"/>
     <use x="1310.291016" xlink:href="#DejaVuSans-45"/>
     <use x="1346.375" xlink:href="#DejaVuSans-32"/>
     <use x="1378.162109" xlink:href="#DejaVuSans-70"/>
     <use x="1428.431641" xlink:href="#DejaVuSans-114"/>
     <use x="1467.294922" xlink:href="#DejaVuSans-101"/>
     <use x="1528.818359" xlink:href="#DejaVuSans-113"/>
     <use x="1592.294922" xlink:href="#DejaVuSans-117"/>
     <use x="1655.673828" xlink:href="#DejaVuSans-101"/>
     <use x="1717.197266" xlink:href="#DejaVuSans-110"/>
     <use x="1780.576172" xlink:href="#DejaVuSans-99"/>
     <use x="1835.556641" xlink:href="#DejaVuSans-121"/>
     <use x="1894.736328" xlink:href="#DejaVuSans-32"/>
     <use x="1926.523438" xlink:href="#DejaVuSans-83"/>
     <use x="1990" xlink:href="#DejaVuSans-112"/>
     <use x="2053.476562" xlink:href="#DejaVuSans-101"/>
     <use x="2115" xlink:href="#DejaVuSans-99"/>
     <use x="2169.980469" xlink:href="#DejaVuSans-116"/>
     <use x="2209.189453" xlink:href="#DejaVuSans-114"/>
     <use x="2250.302734" xlink:href="#DejaVuSans-117"/>
     <use x="2313.681641" xlink:href="#DejaVuSans-109"/>
    </g>
   </g>
  </g>
 </g>
 <defs>
  <clipPath id="p1fe6d0a9ad">
   <rect height="600.4152" width="1071.36" x="172.8" y="93.5712"/>
  </clipPath>
 </defs>
</svg>
