<?xml version="1.0" encoding="utf-8" standalone="no"?>
<!DOCTYPE svg PUBLIC "-//W3C//DTD SVG 1.1//EN"
  "http://www.w3.org/Graphics/SVG/1.1/DTD/svg11.dtd">
<!-- Created with matplotlib (https://matplotlib.org/) -->
<svg height="779.76pt" version="1.1" viewBox="0 0 1382.4 779.76" width="1382.4pt" xmlns="http://www.w3.org/2000/svg" xmlns:xlink="http://www.w3.org/1999/xlink">
 <defs>
  <style type="text/css">
*{stroke-linecap:butt;stroke-linejoin:round;}
  </style>
 </defs>
 <g id="figure_1">
  <g id="patch_1">
   <path d="M 0 779.76 
L 1382.4 779.76 
L 1382.4 0 
L 0 0 
z
" style="fill:#ffffff;"/>
  </g>
  <g id="axes_1">
   <g id="patch_2">
    <path d="M 172.8 693.9864 
L 1244.16 693.9864 
L 1244.16 93.5712 
L 172.8 93.5712 
z
" style="fill:#ffffff;"/>
   </g>
   <g id="matplotlib.axis_1">
    <g id="xtick_1">
     <g id="line2d_1">
      <defs>
       <path d="M 0 0 
L 0 3.5 
" id="m4d878dc76e" style="stroke:#000000;stroke-width:0.8;"/>
      </defs>
      <g>
       <use style="stroke:#000000;stroke-width:0.8;" x="178.601934" xlink:href="#m4d878dc76e" y="693.9864"/>
      </g>
     </g>
     <g id="text_1">
      <!-- 0 -->
      <defs>
       <path d="M 31.78125 66.40625 
Q 24.171875 66.40625 20.328125 58.90625 
Q 16.5 51.421875 16.5 36.375 
Q 16.5 21.390625 20.328125 13.890625 
Q 24.171875 6.390625 31.78125 6.390625 
Q 39.453125 6.390625 43.28125 13.890625 
Q 47.125 21.390625 47.125 36.375 
Q 47.125 51.421875 43.28125 58.90625 
Q 39.453125 66.40625 31.78125 66.40625 
z
M 31.78125 74.21875 
Q 44.046875 74.21875 50.515625 64.515625 
Q 56.984375 54.828125 56.984375 36.375 
Q 56.984375 17.96875 50.515625 8.265625 
Q 44.046875 -1.421875 31.78125 -1.421875 
Q 19.53125 -1.421875 13.0625 8.265625 
Q 6.59375 17.96875 6.59375 36.375 
Q 6.59375 54.828125 13.0625 64.515625 
Q 19.53125 74.21875 31.78125 74.21875 
z
" id="DejaVuSans-48"/>
      </defs>
      <g transform="translate(175.420684 708.584838)scale(0.1 -0.1)">
       <use xlink:href="#DejaVuSans-48"/>
      </g>
     </g>
    </g>
    <g id="xtick_2">
     <g id="line2d_2">
      <g>
       <use style="stroke:#000000;stroke-width:0.8;" x="299.619565" xlink:href="#m4d878dc76e" y="693.9864"/>
      </g>
     </g>
     <g id="text_2">
      <!-- 50 -->
      <defs>
       <path d="M 10.796875 72.90625 
L 49.515625 72.90625 
L 49.515625 64.59375 
L 19.828125 64.59375 
L 19.828125 46.734375 
Q 21.96875 47.46875 24.109375 47.828125 
Q 26.265625 48.1875 28.421875 48.1875 
Q 40.625 48.1875 47.75 41.5 
Q 54.890625 34.8125 54.890625 23.390625 
Q 54.890625 11.625 47.5625 5.09375 
Q 40.234375 -1.421875 26.90625 -1.421875 
Q 22.3125 -1.421875 17.546875 -0.640625 
Q 12.796875 0.140625 7.71875 1.703125 
L 7.71875 11.625 
Q 12.109375 9.234375 16.796875 8.0625 
Q 21.484375 6.890625 26.703125 6.890625 
Q 35.15625 6.890625 40.078125 11.328125 
Q 45.015625 15.765625 45.015625 23.390625 
Q 45.015625 31 40.078125 35.4375 
Q 35.15625 39.890625 26.703125 39.890625 
Q 22.75 39.890625 18.8125 39.015625 
Q 14.890625 38.140625 10.796875 36.28125 
z
" id="DejaVuSans-53"/>
      </defs>
      <g transform="translate(293.257065 708.584838)scale(0.1 -0.1)">
       <use xlink:href="#DejaVuSans-53"/>
       <use x="63.623047" xlink:href="#DejaVuSans-48"/>
      </g>
     </g>
    </g>
    <g id="xtick_3">
     <g id="line2d_3">
      <g>
       <use style="stroke:#000000;stroke-width:0.8;" x="420.637195" xlink:href="#m4d878dc76e" y="693.9864"/>
      </g>
     </g>
     <g id="text_3">
      <!-- 100 -->
      <defs>
       <path d="M 12.40625 8.296875 
L 28.515625 8.296875 
L 28.515625 63.921875 
L 10.984375 60.40625 
L 10.984375 69.390625 
L 28.421875 72.90625 
L 38.28125 72.90625 
L 38.28125 8.296875 
L 54.390625 8.296875 
L 54.390625 0 
L 12.40625 0 
z
" id="DejaVuSans-49"/>
      </defs>
      <g transform="translate(411.093445 708.584838)scale(0.1 -0.1)">
       <use xlink:href="#DejaVuSans-49"/>
       <use x="63.623047" xlink:href="#DejaVuSans-48"/>
       <use x="127.246094" xlink:href="#DejaVuSans-48"/>
      </g>
     </g>
    </g>
    <g id="xtick_4">
     <g id="line2d_4">
      <g>
       <use style="stroke:#000000;stroke-width:0.8;" x="541.654826" xlink:href="#m4d878dc76e" y="693.9864"/>
      </g>
     </g>
     <g id="text_4">
      <!-- 150 -->
      <g transform="translate(532.111076 708.584838)scale(0.1 -0.1)">
       <use xlink:href="#DejaVuSans-49"/>
       <use x="63.623047" xlink:href="#DejaVuSans-53"/>
       <use x="127.246094" xlink:href="#DejaVuSans-48"/>
      </g>
     </g>
    </g>
    <g id="xtick_5">
     <g id="line2d_5">
      <g>
       <use style="stroke:#000000;stroke-width:0.8;" x="662.672456" xlink:href="#m4d878dc76e" y="693.9864"/>
      </g>
     </g>
     <g id="text_5">
      <!-- 200 -->
      <defs>
       <path d="M 19.1875 8.296875 
L 53.609375 8.296875 
L 53.609375 0 
L 7.328125 0 
L 7.328125 8.296875 
Q 12.9375 14.109375 22.625 23.890625 
Q 32.328125 33.6875 34.8125 36.53125 
Q 39.546875 41.84375 41.421875 45.53125 
Q 43.3125 49.21875 43.3125 52.78125 
Q 43.3125 58.59375 39.234375 62.25 
Q 35.15625 65.921875 28.609375 65.921875 
Q 23.96875 65.921875 18.8125 64.3125 
Q 13.671875 62.703125 7.8125 59.421875 
L 7.8125 69.390625 
Q 13.765625 71.78125 18.9375 73 
Q 24.125 74.21875 28.421875 74.21875 
Q 39.75 74.21875 46.484375 68.546875 
Q 53.21875 62.890625 53.21875 53.421875 
Q 53.21875 48.921875 51.53125 44.890625 
Q 49.859375 40.875 45.40625 35.40625 
Q 44.1875 33.984375 37.640625 27.21875 
Q 31.109375 20.453125 19.1875 8.296875 
z
" id="DejaVuSans-50"/>
      </defs>
      <g transform="translate(653.128706 708.584838)scale(0.1 -0.1)">
       <use xlink:href="#DejaVuSans-50"/>
       <use x="63.623047" xlink:href="#DejaVuSans-48"/>
       <use x="127.246094" xlink:href="#DejaVuSans-48"/>
      </g>
     </g>
    </g>
    <g id="xtick_6">
     <g id="line2d_6">
      <g>
       <use style="stroke:#000000;stroke-width:0.8;" x="783.690087" xlink:href="#m4d878dc76e" y="693.9864"/>
      </g>
     </g>
     <g id="text_6">
      <!-- 250 -->
      <g transform="translate(774.146337 708.584838)scale(0.1 -0.1)">
       <use xlink:href="#DejaVuSans-50"/>
       <use x="63.623047" xlink:href="#DejaVuSans-53"/>
       <use x="127.246094" xlink:href="#DejaVuSans-48"/>
      </g>
     </g>
    </g>
    <g id="xtick_7">
     <g id="line2d_7">
      <g>
       <use style="stroke:#000000;stroke-width:0.8;" x="904.707717" xlink:href="#m4d878dc76e" y="693.9864"/>
      </g>
     </g>
     <g id="text_7">
      <!-- 300 -->
      <defs>
       <path d="M 40.578125 39.3125 
Q 47.65625 37.796875 51.625 33 
Q 55.609375 28.21875 55.609375 21.1875 
Q 55.609375 10.40625 48.1875 4.484375 
Q 40.765625 -1.421875 27.09375 -1.421875 
Q 22.515625 -1.421875 17.65625 -0.515625 
Q 12.796875 0.390625 7.625 2.203125 
L 7.625 11.71875 
Q 11.71875 9.328125 16.59375 8.109375 
Q 21.484375 6.890625 26.8125 6.890625 
Q 36.078125 6.890625 40.9375 10.546875 
Q 45.796875 14.203125 45.796875 21.1875 
Q 45.796875 27.640625 41.28125 31.265625 
Q 36.765625 34.90625 28.71875 34.90625 
L 20.21875 34.90625 
L 20.21875 43.015625 
L 29.109375 43.015625 
Q 36.375 43.015625 40.234375 45.921875 
Q 44.09375 48.828125 44.09375 54.296875 
Q 44.09375 59.90625 40.109375 62.90625 
Q 36.140625 65.921875 28.71875 65.921875 
Q 24.65625 65.921875 20.015625 65.03125 
Q 15.375 64.15625 9.8125 62.3125 
L 9.8125 71.09375 
Q 15.4375 72.65625 20.34375 73.4375 
Q 25.25 74.21875 29.59375 74.21875 
Q 40.828125 74.21875 47.359375 69.109375 
Q 53.90625 64.015625 53.90625 55.328125 
Q 53.90625 49.265625 50.4375 45.09375 
Q 46.96875 40.921875 40.578125 39.3125 
z
" id="DejaVuSans-51"/>
      </defs>
      <g transform="translate(895.163967 708.584838)scale(0.1 -0.1)">
       <use xlink:href="#DejaVuSans-51"/>
       <use x="63.623047" xlink:href="#DejaVuSans-48"/>
       <use x="127.246094" xlink:href="#DejaVuSans-48"/>
      </g>
     </g>
    </g>
    <g id="xtick_8">
     <g id="line2d_8">
      <g>
       <use style="stroke:#000000;stroke-width:0.8;" x="1025.725348" xlink:href="#m4d878dc76e" y="693.9864"/>
      </g>
     </g>
     <g id="text_8">
      <!-- 350 -->
      <g transform="translate(1016.181598 708.584838)scale(0.1 -0.1)">
       <use xlink:href="#DejaVuSans-51"/>
       <use x="63.623047" xlink:href="#DejaVuSans-53"/>
       <use x="127.246094" xlink:href="#DejaVuSans-48"/>
      </g>
     </g>
    </g>
    <g id="xtick_9">
     <g id="line2d_9">
      <g>
       <use style="stroke:#000000;stroke-width:0.8;" x="1146.742978" xlink:href="#m4d878dc76e" y="693.9864"/>
      </g>
     </g>
     <g id="text_9">
      <!-- 400 -->
      <defs>
       <path d="M 37.796875 64.3125 
L 12.890625 25.390625 
L 37.796875 25.390625 
z
M 35.203125 72.90625 
L 47.609375 72.90625 
L 47.609375 25.390625 
L 58.015625 25.390625 
L 58.015625 17.1875 
L 47.609375 17.1875 
L 47.609375 0 
L 37.796875 0 
L 37.796875 17.1875 
L 4.890625 17.1875 
L 4.890625 26.703125 
z
" id="DejaVuSans-52"/>
      </defs>
      <g transform="translate(1137.199228 708.584838)scale(0.1 -0.1)">
       <use xlink:href="#DejaVuSans-52"/>
       <use x="63.623047" xlink:href="#DejaVuSans-48"/>
       <use x="127.246094" xlink:href="#DejaVuSans-48"/>
      </g>
     </g>
    </g>
   </g>
   <g id="matplotlib.axis_2">
    <g id="ytick_1">
     <g id="line2d_10">
      <defs>
       <path d="M 0 0 
L -3.5 0 
" id="m1dd46a05ca" style="stroke:#000000;stroke-width:0.8;"/>
      </defs>
      <g>
       <use style="stroke:#000000;stroke-width:0.8;" x="172.8" xlink:href="#m1dd46a05ca" y="677.162382"/>
      </g>
     </g>
     <g id="text_10">
      <!-- −1.00 -->
      <defs>
       <path d="M 10.59375 35.5 
L 73.1875 35.5 
L 73.1875 27.203125 
L 10.59375 27.203125 
z
" id="DejaVuSans-8722"/>
       <path d="M 10.6875 12.40625 
L 21 12.40625 
L 21 0 
L 10.6875 0 
z
" id="DejaVuSans-46"/>
      </defs>
      <g transform="translate(135.154687 680.961601)scale(0.1 -0.1)">
       <use xlink:href="#DejaVuSans-8722"/>
       <use x="83.789062" xlink:href="#DejaVuSans-49"/>
       <use x="147.412109" xlink:href="#DejaVuSans-46"/>
       <use x="179.199219" xlink:href="#DejaVuSans-48"/>
       <use x="242.822266" xlink:href="#DejaVuSans-48"/>
      </g>
     </g>
    </g>
    <g id="ytick_2">
     <g id="line2d_11">
      <g>
       <use style="stroke:#000000;stroke-width:0.8;" x="172.8" xlink:href="#m1dd46a05ca" y="606.186722"/>
      </g>
     </g>
     <g id="text_11">
      <!-- −0.75 -->
      <defs>
       <path d="M 8.203125 72.90625 
L 55.078125 72.90625 
L 55.078125 68.703125 
L 28.609375 0 
L 18.3125 0 
L 43.21875 64.59375 
L 8.203125 64.59375 
z
" id="DejaVuSans-55"/>
      </defs>
      <g transform="translate(135.154687 609.985941)scale(0.1 -0.1)">
       <use xlink:href="#DejaVuSans-8722"/>
       <use x="83.789062" xlink:href="#DejaVuSans-48"/>
       <use x="147.412109" xlink:href="#DejaVuSans-46"/>
       <use x="179.199219" xlink:href="#DejaVuSans-55"/>
       <use x="242.822266" xlink:href="#DejaVuSans-53"/>
      </g>
     </g>
    </g>
    <g id="ytick_3">
     <g id="line2d_12">
      <g>
       <use style="stroke:#000000;stroke-width:0.8;" x="172.8" xlink:href="#m1dd46a05ca" y="535.211062"/>
      </g>
     </g>
     <g id="text_12">
      <!-- −0.50 -->
      <g transform="translate(135.154687 539.010281)scale(0.1 -0.1)">
       <use xlink:href="#DejaVuSans-8722"/>
       <use x="83.789062" xlink:href="#DejaVuSans-48"/>
       <use x="147.412109" xlink:href="#DejaVuSans-46"/>
       <use x="179.199219" xlink:href="#DejaVuSans-53"/>
       <use x="242.822266" xlink:href="#DejaVuSans-48"/>
      </g>
     </g>
    </g>
    <g id="ytick_4">
     <g id="line2d_13">
      <g>
       <use style="stroke:#000000;stroke-width:0.8;" x="172.8" xlink:href="#m1dd46a05ca" y="464.235402"/>
      </g>
     </g>
     <g id="text_13">
      <!-- −0.25 -->
      <g transform="translate(135.154687 468.03462)scale(0.1 -0.1)">
       <use xlink:href="#DejaVuSans-8722"/>
       <use x="83.789062" xlink:href="#DejaVuSans-48"/>
       <use x="147.412109" xlink:href="#DejaVuSans-46"/>
       <use x="179.199219" xlink:href="#DejaVuSans-50"/>
       <use x="242.822266" xlink:href="#DejaVuSans-53"/>
      </g>
     </g>
    </g>
    <g id="ytick_5">
     <g id="line2d_14">
      <g>
       <use style="stroke:#000000;stroke-width:0.8;" x="172.8" xlink:href="#m1dd46a05ca" y="393.259741"/>
      </g>
     </g>
     <g id="text_14">
      <!-- 0.00 -->
      <g transform="translate(143.534375 397.05896)scale(0.1 -0.1)">
       <use xlink:href="#DejaVuSans-48"/>
       <use x="63.623047" xlink:href="#DejaVuSans-46"/>
       <use x="95.410156" xlink:href="#DejaVuSans-48"/>
       <use x="159.033203" xlink:href="#DejaVuSans-48"/>
      </g>
     </g>
    </g>
    <g id="ytick_6">
     <g id="line2d_15">
      <g>
       <use style="stroke:#000000;stroke-width:0.8;" x="172.8" xlink:href="#m1dd46a05ca" y="322.284081"/>
      </g>
     </g>
     <g id="text_15">
      <!-- 0.25 -->
      <g transform="translate(143.534375 326.0833)scale(0.1 -0.1)">
       <use xlink:href="#DejaVuSans-48"/>
       <use x="63.623047" xlink:href="#DejaVuSans-46"/>
       <use x="95.410156" xlink:href="#DejaVuSans-50"/>
       <use x="159.033203" xlink:href="#DejaVuSans-53"/>
      </g>
     </g>
    </g>
    <g id="ytick_7">
     <g id="line2d_16">
      <g>
       <use style="stroke:#000000;stroke-width:0.8;" x="172.8" xlink:href="#m1dd46a05ca" y="251.308421"/>
      </g>
     </g>
     <g id="text_16">
      <!-- 0.50 -->
      <g transform="translate(143.534375 255.10764)scale(0.1 -0.1)">
       <use xlink:href="#DejaVuSans-48"/>
       <use x="63.623047" xlink:href="#DejaVuSans-46"/>
       <use x="95.410156" xlink:href="#DejaVuSans-53"/>
       <use x="159.033203" xlink:href="#DejaVuSans-48"/>
      </g>
     </g>
    </g>
    <g id="ytick_8">
     <g id="line2d_17">
      <g>
       <use style="stroke:#000000;stroke-width:0.8;" x="172.8" xlink:href="#m1dd46a05ca" y="180.332761"/>
      </g>
     </g>
     <g id="text_17">
      <!-- 0.75 -->
      <g transform="translate(143.534375 184.13198)scale(0.1 -0.1)">
       <use xlink:href="#DejaVuSans-48"/>
       <use x="63.623047" xlink:href="#DejaVuSans-46"/>
       <use x="95.410156" xlink:href="#DejaVuSans-55"/>
       <use x="159.033203" xlink:href="#DejaVuSans-53"/>
      </g>
     </g>
    </g>
    <g id="ytick_9">
     <g id="line2d_18">
      <g>
       <use style="stroke:#000000;stroke-width:0.8;" x="172.8" xlink:href="#m1dd46a05ca" y="109.357101"/>
      </g>
     </g>
     <g id="text_18">
      <!-- 1.00 -->
      <g transform="translate(143.534375 113.156319)scale(0.1 -0.1)">
       <use xlink:href="#DejaVuSans-49"/>
       <use x="63.623047" xlink:href="#DejaVuSans-46"/>
       <use x="95.410156" xlink:href="#DejaVuSans-48"/>
       <use x="159.033203" xlink:href="#DejaVuSans-48"/>
      </g>
     </g>
    </g>
   </g>
   <g id="line2d_19">
    <path clip-path="url(#pe2e6a9de69)" d="M 178.601934 114.81221 
L 181.022287 130.967907 
L 183.44264 157.203233 
L 185.862992 192.509619 
L 188.283345 235.529611 
L 190.703697 284.609155 
L 195.544403 393.239414 
L 200.385108 501.861767 
L 202.805461 550.934301 
L 205.225813 593.94921 
L 207.646166 629.255926 
L 210.066518 655.500113 
L 212.486871 671.675479 
L 214.907224 677.162317 
L 217.327576 671.751304 
L 219.747929 655.651602 
L 222.168281 629.482889 
L 224.588634 594.251542 
L 227.008987 551.311847 
L 229.429339 502.313705 
L 234.270044 393.828402 
L 239.11075 285.28531 
L 241.531102 236.211083 
L 243.951455 193.158602 
L 246.371808 157.773352 
L 248.79216 131.406115 
L 251.212513 115.061642 
L 253.632865 109.360542 
L 256.053218 114.515835 
L 258.473571 130.325079 
L 260.893923 156.178414 
L 263.314276 191.082277 
L 265.734628 233.69789 
L 268.154981 282.393046 
L 272.995686 390.412938 
L 277.836391 498.806315 
L 280.256744 547.966131 
L 282.677097 591.227101 
L 285.097449 626.949682 
L 287.517802 653.783109 
L 289.938155 670.716048 
L 292.358507 677.114322 
L 294.77886 672.744316 
L 297.199212 657.781184 
L 299.619565 632.801527 
L 302.039918 598.760793 
L 304.46027 556.956256 
L 306.880623 508.97702 
L 311.721328 401.935353 
L 316.562033 293.6743 
L 318.982386 244.198916 
L 321.402738 200.352569 
L 323.823091 163.777771 
L 326.243444 135.840833 
L 328.663796 117.5814 
L 331.084149 109.674308 
L 333.504501 112.405129 
L 335.924854 125.660298 
L 338.345207 148.932195 
L 340.765559 181.339016 
L 343.185912 221.658661 
L 345.606265 268.375368 
L 348.026617 319.737244 
L 355.287675 482.062792 
L 357.708028 532.188569 
L 360.12838 577.128584 
L 362.548733 615.218594 
L 364.969085 645.051406 
L 367.389438 665.528259 
L 369.809791 675.898748 
L 372.230143 675.787865 
L 374.650496 665.209189 
L 377.070848 644.563723 
L 379.491201 614.624395 
L 381.911554 576.506784 
L 384.331906 531.62717 
L 386.752259 481.649515 
L 396.433669 269.066234 
L 398.854022 222.584302 
L 401.274375 182.397371 
L 403.694727 149.97927 
L 406.11508 126.516957 
L 408.535432 112.867473 
L 410.955785 109.526925 
L 413.376138 116.612635 
L 415.79649 133.859129 
L 418.216843 160.628165 
L 420.637195 195.932465 
L 423.057548 238.472308 
L 425.477901 286.6836 
L 430.318606 392.896259 
L 435.159311 499.131596 
L 437.579664 547.376414 
L 440.000016 589.971935 
L 442.420369 625.360923 
L 444.840722 652.25022 
L 447.261074 669.65775 
L 449.681427 676.948283 
L 452.101779 673.856628 
L 454.522132 660.497375 
L 456.942485 637.360752 
L 459.362837 605.294705 
L 461.78319 565.473787 
L 464.203542 519.356022 
L 466.623895 468.62934 
L 473.884953 307.782695 
L 476.305305 257.819875 
L 478.725658 212.809658 
L 481.146011 174.396317 
L 483.566363 143.983101 
L 485.986716 122.681104 
L 488.407069 111.268683 
L 490.827421 110.162906 
L 493.247774 119.404183 
L 495.668126 138.654792 
L 498.088479 167.211207 
L 500.508832 204.029791 
L 502.929184 247.764909 
L 505.349537 296.818089 
L 510.190242 403.578165 
L 515.030947 508.843844 
L 517.4513 556.080157 
L 519.871652 597.36523 
L 522.292005 631.190019 
L 524.712358 656.318133 
L 527.13271 671.830997 
L 529.553063 677.161406 
L 531.973416 672.114255 
L 534.393768 656.87369 
L 536.814121 631.996429 
L 539.234473 598.391471 
L 541.654826 557.286939 
L 544.075179 510.185236 
L 546.495531 458.80816 
L 553.756589 298.174144 
L 556.176942 248.995674 
L 558.597294 205.091489 
L 561.017647 168.06706 
L 563.437999 139.27641 
L 565.858352 119.772636 
L 568.278705 110.269413 
L 570.699057 111.114884 
L 573.11941 122.278875 
L 575.539763 143.353918 
L 577.960115 173.570033 
L 580.380468 211.82278 
L 582.80082 256.71355 
L 585.221173 306.600658 
L 594.902583 518.301354 
L 597.322936 564.546262 
L 599.743289 604.524502 
L 602.163641 636.772688 
L 604.583994 660.110065 
L 607.004346 673.681716 
L 609.424699 676.989881 
L 611.845052 669.912262 
L 614.265404 652.706624 
L 616.685757 626.001528 
L 619.106109 590.773479 
L 621.526462 548.311336 
L 623.946815 500.169221 
L 628.78752 394.039092 
L 633.628225 287.788073 
L 636.048578 239.500251 
L 638.46893 196.844016 
L 640.889283 161.382925 
L 643.309636 134.417265 
L 645.729988 116.936393 
L 648.150341 109.582426 
L 650.570693 112.626595 
L 652.991046 125.959135 
L 655.411399 149.093099 
L 657.831751 181.181987 
L 660.252104 221.050586 
L 662.672456 267.237908 
L 665.092809 318.050676 
L 672.353867 479.169629 
L 674.77422 529.19255 
L 677.194572 574.229101 
L 679.614925 612.625429 
L 682.035277 642.970923 
L 684.45563 664.150027 
L 686.875983 675.383267 
L 689.296335 676.256011 
L 691.716688 666.733899 
L 694.13704 647.164354 
L 696.557393 618.264087 
L 698.977746 581.093019 
L 701.398098 537.015537 
L 703.818451 487.650491 
L 708.659156 380.441601 
L 713.499861 275.087158 
L 715.920214 227.978554 
L 718.340567 186.947303 
L 720.760919 153.504358 
L 723.181272 128.882078 
L 725.601624 113.988787 
L 728.021977 109.375187 
L 730.44233 115.213856 
L 732.862682 131.292609 
L 735.283035 157.022013 
L 737.703387 191.456791 
L 740.12374 233.330401 
L 742.544093 281.101509 
L 747.384798 387.145174 
L 752.225503 494.098735 
L 754.645856 542.972993 
L 757.066208 586.32846 
L 759.486561 622.564214 
L 761.906913 650.341288 
L 764.327266 668.632183 
L 766.747619 676.758965 
L 769.167971 674.418535 
L 771.588324 661.694126 
L 774.008677 639.052567 
L 776.429029 607.327373 
L 778.849382 567.68824 
L 781.269734 521.59805 
L 783.690087 470.75896 
L 790.951145 308.995799 
L 793.371497 258.648706 
L 795.79185 213.277949 
L 798.212203 174.564026 
L 800.632555 143.941898 
L 803.052908 122.54776 
L 805.47326 111.176789 
L 807.893613 110.25344 
L 810.313966 119.815403 
L 812.734318 139.511848 
L 815.154671 168.616068 
L 817.575024 206.052085 
L 819.995376 250.434279 
L 822.415729 300.118575 
L 832.097139 513.54413 
L 834.517492 560.633728 
L 836.937844 601.512606 
L 839.358197 634.660481 
L 841.77855 658.843379 
L 844.198902 673.159664 
L 846.619255 677.073809 
L 849.039607 670.43663 
L 851.45996 653.491202 
L 853.880313 626.864199 
L 856.300665 591.542931 
L 858.721018 548.838913 
L 861.14137 500.339277 
L 865.982076 393.318084 
L 870.822781 286.266426 
L 873.243134 237.733599 
L 875.663486 194.991915 
L 878.083839 159.636549 
L 880.504191 132.988241 
L 882.924544 116.04386 
L 885.344897 109.438965 
L 887.765249 113.423758 
L 890.185602 127.853383 
L 892.605954 152.19294 
L 895.026307 185.53709 
L 897.44666 226.643549 
L 899.867012 273.979239 
L 902.287365 325.777386 
L 909.548423 488.199036 
L 911.968775 537.925962 
L 914.389128 582.246693 
L 916.809481 619.501109 
L 919.229833 648.292541 
L 921.650186 667.540226 
L 924.070538 676.520026 
L 926.490891 674.89187 
L 928.911244 662.71286 
L 931.331596 640.435514 
L 933.751949 608.891182 
L 936.172301 569.259207 
L 938.592654 523.02298 
L 941.013007 471.914505 
L 948.274064 308.997398 
L 950.694417 258.296115 
L 953.11477 212.656896 
L 955.535122 173.795498 
L 957.955475 143.174088 
L 960.375828 121.946133 
L 962.79618 110.912804 
L 965.216533 110.492549 
L 967.636885 120.705004 
L 970.057238 141.169882 
L 972.477591 171.120905 
L 974.897943 209.434318 
L 977.318296 254.670892 
L 979.738648 305.129897 
L 989.420059 519.788689 
L 991.840411 566.511458 
L 994.260764 606.708432 
L 996.681117 638.86182 
L 999.101469 661.756274 
L 1001.521822 674.524969 
L 1003.942174 676.682601 
L 1006.362527 668.144042 
L 1008.78288 649.227908 
L 1011.203232 620.644882 
L 1013.623585 583.471201 
L 1016.043938 539.108279 
L 1018.46429 489.229982 
L 1023.304995 380.598482 
L 1025.725348 325.950291 
L 1028.145701 273.841648 
L 1030.566053 226.244263 
L 1032.986406 184.960233 
L 1035.406758 151.553752 
L 1037.827111 127.291745 
L 1040.247464 113.095689 
L 1042.667816 109.506442 
L 1045.088169 116.663448 
L 1047.508521 134.299118 
L 1049.928874 161.748636 
L 1052.349227 197.974848 
L 1054.769579 241.607301 
L 1057.189932 290.993984 
L 1062.030637 399.397384 
L 1066.871342 506.899209 
L 1069.291695 555.187127 
L 1071.712048 597.333113 
L 1074.1324 631.735098 
L 1076.552753 657.084258 
L 1078.973105 672.414942 
L 1081.393458 677.141612 
L 1083.813811 671.081385 
L 1086.234163 654.461291 
L 1088.654516 627.909947 
L 1091.074868 592.433946 
L 1093.495221 549.379832 
L 1095.915574 500.383102 
L 1100.756279 392.167548 
L 1105.596984 284.096957 
L 1108.017337 235.279913 
L 1110.437689 192.474364 
L 1112.858042 157.312436 
L 1115.278395 131.135847 
L 1117.698747 114.944581 
L 1120.1191 109.358545 
L 1122.539452 114.593675 
L 1124.959805 130.453427 
L 1127.380158 156.335995 
L 1129.80051 191.256997 
L 1132.220863 233.886787 
L 1134.641215 282.600978 
L 1139.481921 390.691112 
L 1144.322626 499.188068 
L 1146.742978 548.392802 
L 1149.163331 591.676692 
L 1151.583684 627.384694 
L 1154.004036 654.150505 
L 1156.424389 670.948958 
L 1158.844742 677.135419 
L 1161.265094 672.470666 
L 1163.685447 657.130281 
L 1166.105799 631.698181 
L 1168.526152 597.144524 
L 1170.946505 554.788815 
L 1173.366857 506.249625 
L 1178.207562 398.210662 
L 1183.048268 289.403995 
L 1185.46862 239.935909 
L 1187.888973 196.335715 
L 1190.309325 160.27487 
L 1192.729678 133.136647 
L 1195.150031 115.962964 
L 1197.570383 109.414263 
L 1199.990736 113.743986 
L 1202.411089 128.788648 
L 1204.831441 153.97389 
L 1207.251794 188.336297 
L 1209.672146 230.560137 
L 1212.092499 279.02765 
L 1216.933204 387.093145 
L 1221.773909 496.11155 
L 1224.194262 545.732983 
L 1226.614615 589.504483 
L 1229.034967 625.744092 
L 1231.45532 653.058519 
L 1233.875672 670.396809 
L 1236.296025 677.090891 
L 1238.716378 672.881421 
L 1241.13673 657.92793 
L 1243.557083 632.802877 
L 1245.977436 598.46983 
L 1245.977436 598.46983 
" style="fill:none;stroke:#0000ff;stroke-linecap:square;stroke-width:1.5;"/>
   </g>
   <g id="line2d_20">
    <path clip-path="url(#pe2e6a9de69)" d="M 178.601934 337.873084 
L 181.022287 284.614893 
L 183.44264 235.532019 
L 185.862992 192.510899 
L 188.283345 157.204842 
L 190.703697 130.970284 
L 193.12405 114.814538 
L 195.544403 109.357101 
L 197.964755 114.806019 
L 200.385108 130.950173 
L 202.805461 157.16772 
L 205.225813 192.450263 
L 207.646166 235.441776 
L 210.066518 284.490734 
L 214.907224 393.066462 
L 219.747929 501.662789 
L 222.168281 550.737784 
L 224.588634 593.766613 
L 227.008987 629.099181 
L 229.429339 655.381741 
L 231.849692 671.608856 
L 234.270044 677.161813 
L 236.690397 671.831975 
L 239.11075 655.828269 
L 241.531102 629.768575 
L 243.951455 594.65548 
L 246.371808 551.837388 
L 248.79216 502.956542 
L 253.632865 394.65756 
L 258.473571 286.179993 
L 260.893923 237.076664 
L 263.314276 193.948471 
L 265.734628 158.439118 
L 268.154981 131.899291 
L 270.575334 115.335339 
L 272.995686 109.371374 
L 275.416039 114.226201 
L 277.836391 129.705894 
L 280.256744 155.212178 
L 282.677097 189.766169 
L 285.097449 232.046463 
L 287.517802 280.440043 
L 292.358507 388.036088 
L 297.199212 496.357345 
L 299.619565 545.642294 
L 302.039918 589.142429 
L 304.46027 625.21698 
L 306.880623 652.509083 
L 309.300975 669.996569 
L 311.721328 677.029795 
L 314.141681 673.355135 
L 316.562033 659.123333 
L 318.982386 634.882546 
L 321.402738 601.556482 
L 323.823091 560.408582 
L 326.243444 512.993677 
L 328.663796 461.098975 
L 335.924854 298.437554 
L 338.345207 248.674958 
L 340.765559 204.340935 
L 343.185912 167.08773 
L 345.606265 138.299739 
L 348.026617 119.042397 
L 350.44697 110.023265 
L 352.867322 111.566714 
L 355.287675 123.603057 
L 357.708028 145.672403 
L 360.12838 176.942941 
L 362.548733 216.242858 
L 364.969085 262.104615 
L 367.389438 312.819928 
L 377.070848 525.346903 
L 379.491201 571.019128 
L 381.911554 610.103535 
L 384.331906 641.161263 
L 386.752259 663.052176 
L 389.172612 674.976312 
L 391.592964 676.502577 
L 394.013317 667.583692 
L 396.433669 648.556984 
L 398.854022 620.131079 
L 401.274375 583.35911 
L 403.694727 539.599488 
L 406.11508 490.465691 
L 410.955785 383.441473 
L 415.79649 277.881964 
L 418.216843 230.522964 
L 420.637195 189.145422 
L 423.057548 155.264868 
L 425.477901 130.120547 
L 427.898253 114.630293 
L 430.318606 109.357333 
L 432.738959 114.490199 
L 435.159311 129.836394 
L 437.579664 154.82996 
L 440.000016 188.552579 
L 442.420369 229.767384 
L 444.840722 276.964249 
L 447.261074 328.414923 
L 454.522132 489.096879 
L 456.942485 538.226655 
L 459.362837 582.050323 
L 461.78319 618.965372 
L 464.203542 647.622548 
L 466.623895 666.975165 
L 469.044248 676.317232 
L 471.4646 675.309005 
L 473.884953 663.989097 
L 476.305305 642.772772 
L 478.725658 612.436558 
L 481.146011 574.089802 
L 483.566363 529.13419 
L 485.986716 479.212698 
L 495.668126 267.653097 
L 498.088479 221.496038 
L 500.508832 181.616798 
L 502.929184 149.473025 
L 505.349537 126.239673 
L 507.769889 112.766034 
L 510.190242 109.544674 
L 512.610595 116.693409 
L 515.030947 133.950997 
L 517.4513 160.686696 
L 519.871652 195.92333 
L 522.292005 238.373032 
L 524.712358 286.484312 
L 529.553063 392.515285 
L 534.393768 498.656116 
L 536.814121 546.900568 
L 539.234473 589.529156 
L 541.654826 624.983258 
L 544.075179 651.966406 
L 546.495531 669.491735 
L 548.915884 676.918123 
L 551.336236 673.973676 
L 553.756589 660.765701 
L 556.176942 637.776793 
L 558.597294 605.847178 
L 561.017647 566.143996 
L 563.437999 520.118626 
L 565.858352 469.453656 
L 573.11941 308.583419 
L 575.539763 258.546013 
L 577.960115 213.434433 
L 580.380468 174.899172 
L 582.80082 144.350427 
L 585.221173 122.90643 
L 587.641526 111.352444 
L 590.061878 110.111939 
L 592.482231 119.231045 
L 594.902583 138.376818 
L 597.322936 166.849412 
L 599.743289 203.607664 
L 602.163641 247.307166 
L 604.583994 296.3494 
L 609.424699 403.15507 
L 614.265404 508.533435 
L 616.685757 555.838862 
L 619.106109 597.193635 
L 621.526462 631.082601 
L 623.946815 656.263682 
L 626.367167 671.813497 
L 628.78752 677.161313 
L 631.207873 672.110048 
L 633.628225 656.843574 
L 636.048578 631.92002 
L 638.46893 598.251381 
L 640.889283 557.070155 
L 643.309636 509.884275 
L 645.729988 458.421973 
L 652.991046 297.598385 
L 655.411399 248.403399 
L 657.831751 204.51723 
L 660.252104 167.550379 
L 662.672456 138.860042 
L 665.092809 119.500165 
L 667.513162 110.182606 
L 669.933514 111.250878 
L 672.353867 122.667427 
L 674.77422 144.01492 
L 677.194572 174.511484 
L 679.614925 213.039307 
L 682.035277 258.185557 
L 684.45563 308.294085 
L 694.13704 520.276107 
L 696.557393 566.38904 
L 698.977746 606.143205 
L 701.398098 638.075959 
L 703.818451 661.011671 
L 706.238803 674.105142 
L 708.659156 676.872867 
L 711.079509 669.210967 
L 713.499861 651.399142 
L 715.920214 624.090499 
L 718.340567 588.287656 
L 720.760919 545.306002 
L 723.181272 496.725486 
L 728.021977 390.05515 
L 732.862682 283.834282 
L 735.283035 235.803573 
L 737.703387 193.569284 
L 740.12374 158.68925 
L 742.544093 132.450922 
L 744.964445 115.823695 
L 747.384798 109.422955 
L 749.80515 113.487199 
L 752.225503 127.869073 
L 754.645856 152.040646 
L 757.066208 185.112728 
L 759.486561 225.867482 
L 761.906913 272.80316 
L 764.327266 324.189285 
L 771.588324 485.69183 
L 774.008677 535.339284 
L 776.429029 579.742337 
L 778.849382 617.258421 
L 781.269734 646.498735 
L 783.690087 666.379826 
L 786.11044 676.163884 
L 788.530792 675.486255 
L 790.951145 664.369124 
L 793.371497 643.220896 
L 795.79185 612.821268 
L 798.212203 574.292593 
L 800.632555 529.058572 
L 803.052908 478.791798 
L 812.734318 265.930577 
L 815.154671 219.66271 
L 817.575024 179.825904 
L 819.995376 147.899605 
L 822.415729 125.070568 
L 824.836081 112.188586 
L 827.256434 109.734705 
L 829.676787 117.803145 
L 832.097139 136.097584 
L 834.517492 163.941931 
L 836.937844 200.305203 
L 839.358197 243.839554 
L 841.77855 292.93008 
L 846.619255 400.350912 
L 851.45996 506.751135 
L 853.880313 554.596864 
L 856.300665 596.445583 
L 858.721018 630.737805 
L 861.14137 656.194491 
L 863.561723 671.864925 
L 865.982076 677.162376 
L 868.402428 671.886208 
L 870.822781 656.229588 
L 873.243134 630.772538 
L 875.663486 596.460574 
L 878.083839 554.569733 
L 880.504191 506.65928 
L 885.344897 400.077076 
L 890.185602 292.46205 
L 892.605954 243.301392 
L 895.026307 199.734525 
L 897.44666 163.390749 
L 899.867012 135.630412 
L 902.287365 117.493824 
L 904.707717 109.662103 
L 907.12807 112.431451 
L 909.548423 125.701823 
L 911.968775 148.980405 
L 914.389128 181.399784 
L 916.809481 221.750112 
L 919.229833 268.524099 
L 921.650186 319.973144 
L 928.911244 482.678566 
L 931.331596 532.919495 
L 933.751949 577.93186 
L 936.172301 616.026206 
L 938.592654 645.771546 
L 941.013007 666.04929 
L 943.433359 676.095471 
L 945.853712 675.529682 
L 948.274064 664.369621 
L 950.694417 643.030695 
L 953.11477 612.310699 
L 955.535122 573.360145 
L 957.955475 527.639335 
L 960.375828 476.86378 
L 970.057238 262.678686 
L 972.477591 216.468772 
L 974.897943 176.906043 
L 977.318296 145.481937 
L 979.738648 123.382288 
L 982.159001 111.442408 
L 984.579354 110.115368 
L 986.999706 119.454654 
L 989.420059 139.111881 
L 991.840411 168.349643 
L 994.260764 206.06902 
L 996.681117 250.850722 
L 999.101469 301.008336 
L 1008.78288 516.064494 
L 1011.203232 563.250057 
L 1013.623585 604.021005 
L 1016.043938 636.835014 
L 1018.46429 660.449604 
L 1020.884643 673.969334 
L 1023.304995 676.879913 
L 1025.725348 669.067913 
L 1028.145701 650.825322 
L 1030.566053 622.838789 
L 1032.986406 586.163925 
L 1035.406758 542.185643 
L 1037.827111 492.566007 
L 1042.667816 384.052432 
L 1047.508521 276.897785 
L 1049.928874 228.93288 
L 1052.349227 187.190531 
L 1054.769579 153.255061 
L 1057.189932 128.415591 
L 1059.610285 113.616922 
L 1062.030637 109.423453 
L 1064.45099 115.997507 
L 1066.871342 133.092909 
L 1069.291695 160.064048 
L 1071.712048 195.890118 
L 1074.1324 239.2136 
L 1076.552753 288.391568 
L 1081.393458 396.693854 
L 1086.234163 504.500293 
L 1088.654516 553.072103 
L 1091.074868 595.572237 
L 1093.495221 630.382551 
L 1095.915574 656.176639 
L 1098.335926 671.970514 
L 1100.756279 677.160281 
L 1103.176632 671.545372 
L 1105.596984 655.33644 
L 1108.017337 629.147603 
L 1110.437689 593.973322 
L 1112.858042 551.150776 
L 1115.278395 502.30915 
L 1120.1191 394.165371 
L 1124.959805 285.865372 
L 1127.380158 236.837723 
L 1129.80051 193.771394 
L 1132.220863 158.310873 
L 1134.641215 131.811185 
L 1137.061568 115.286 
L 1139.481921 109.368721 
L 1141.902273 114.288067 
L 1144.322626 129.859098 
L 1146.742978 155.490015 
L 1149.163331 190.204519 
L 1151.583684 232.678871 
L 1154.004036 281.292251 
L 1158.844742 389.347052 
L 1163.685447 498.012058 
L 1166.105799 547.363018 
L 1168.526152 590.824174 
L 1170.946505 626.731512 
L 1173.366857 653.709344 
L 1175.78721 670.723118 
L 1178.207562 677.11921 
L 1180.627915 672.650173 
L 1183.048268 657.484444 
L 1185.46862 632.200136 
L 1187.888973 597.763134 
L 1190.309325 555.490315 
L 1192.729678 506.999291 
L 1197.570383 398.956572 
L 1202.411089 290.033049 
L 1204.831441 240.47561 
L 1207.251794 196.772868 
L 1209.672146 160.602165 
L 1212.092499 133.352568 
L 1214.512852 116.071443 
L 1216.933204 109.42408 
L 1219.353557 113.667957 
L 1221.773909 128.642632 
L 1224.194262 153.775671 
L 1226.614615 188.104408 
L 1229.034967 230.312706 
L 1231.45532 278.781338 
L 1236.296025 386.888884 
L 1241.13673 495.980038 
L 1243.557083 545.640172 
L 1245.977436 589.447226 
L 1245.977436 589.447226 
" style="fill:none;stroke:#ff0000;stroke-linecap:square;stroke-width:1.5;"/>
   </g>
   <g id="patch_3">
    <path d="M 172.8 693.9864 
L 172.8 93.5712 
" style="fill:none;stroke:#000000;stroke-linecap:square;stroke-linejoin:miter;stroke-width:0.8;"/>
   </g>
   <g id="patch_4">
    <path d="M 1244.16 693.9864 
L 1244.16 93.5712 
" style="fill:none;stroke:#000000;stroke-linecap:square;stroke-linejoin:miter;stroke-width:0.8;"/>
   </g>
   <g id="patch_5">
    <path d="M 172.8 693.9864 
L 1244.16 693.9864 
" style="fill:none;stroke:#000000;stroke-linecap:square;stroke-linejoin:miter;stroke-width:0.8;"/>
   </g>
   <g id="patch_6">
    <path d="M 172.8 93.5712 
L 1244.16 93.5712 
" style="fill:none;stroke:#000000;stroke-linecap:square;stroke-linejoin:miter;stroke-width:0.8;"/>
   </g>
  </g>
 </g>
 <defs>
  <clipPath id="pe2e6a9de69">
   <rect height="600.4152" width="1071.36" x="172.8" y="93.5712"/>
  </clipPath>
 </defs>
</svg>
