<?xml version="1.0" encoding="utf-8" standalone="no"?>
<!DOCTYPE svg PUBLIC "-//W3C//DTD SVG 1.1//EN"
  "http://www.w3.org/Graphics/SVG/1.1/DTD/svg11.dtd">
<!-- Created with matplotlib (https://matplotlib.org/) -->
<svg height="779.76pt" version="1.1" viewBox="0 0 1382.4 779.76" width="1382.4pt" xmlns="http://www.w3.org/2000/svg" xmlns:xlink="http://www.w3.org/1999/xlink">
 <defs>
  <style type="text/css">
*{stroke-linecap:butt;stroke-linejoin:round;}
  </style>
 </defs>
 <g id="figure_1">
  <g id="patch_1">
   <path d="M 0 779.76 
L 1382.4 779.76 
L 1382.4 0 
L 0 0 
z
" style="fill:#ffffff;"/>
  </g>
  <g id="axes_1">
   <g id="patch_2">
    <path d="M 172.8 693.9864 
L 1244.16 693.9864 
L 1244.16 93.5712 
L 172.8 93.5712 
z
" style="fill:#ffffff;"/>
   </g>
   <g id="matplotlib.axis_1">
    <g id="xtick_1">
     <g id="line2d_1">
      <defs>
       <path d="M 0 0 
L 0 3.5 
" id="m08cded6586" style="stroke:#000000;stroke-width:0.8;"/>
      </defs>
      <g>
       <use style="stroke:#000000;stroke-width:0.8;" x="221.498182" xlink:href="#m08cded6586" y="693.9864"/>
      </g>
     </g>
     <g id="text_1">
      <!-- 0 -->
      <defs>
       <path d="M 31.78125 66.40625 
Q 24.171875 66.40625 20.328125 58.90625 
Q 16.5 51.421875 16.5 36.375 
Q 16.5 21.390625 20.328125 13.890625 
Q 24.171875 6.390625 31.78125 6.390625 
Q 39.453125 6.390625 43.28125 13.890625 
Q 47.125 21.390625 47.125 36.375 
Q 47.125 51.421875 43.28125 58.90625 
Q 39.453125 66.40625 31.78125 66.40625 
z
M 31.78125 74.21875 
Q 44.046875 74.21875 50.515625 64.515625 
Q 56.984375 54.828125 56.984375 36.375 
Q 56.984375 17.96875 50.515625 8.265625 
Q 44.046875 -1.421875 31.78125 -1.421875 
Q 19.53125 -1.421875 13.0625 8.265625 
Q 6.59375 17.96875 6.59375 36.375 
Q 6.59375 54.828125 13.0625 64.515625 
Q 19.53125 74.21875 31.78125 74.21875 
z
" id="DejaVuSans-48"/>
      </defs>
      <g transform="translate(218.316932 708.584838)scale(0.1 -0.1)">
       <use xlink:href="#DejaVuSans-48"/>
      </g>
     </g>
    </g>
    <g id="xtick_2">
     <g id="line2d_2">
      <g>
       <use style="stroke:#000000;stroke-width:0.8;" x="409.413219" xlink:href="#m08cded6586" y="693.9864"/>
      </g>
     </g>
     <g id="text_2">
      <!-- 1000 -->
      <defs>
       <path d="M 12.40625 8.296875 
L 28.515625 8.296875 
L 28.515625 63.921875 
L 10.984375 60.40625 
L 10.984375 69.390625 
L 28.421875 72.90625 
L 38.28125 72.90625 
L 38.28125 8.296875 
L 54.390625 8.296875 
L 54.390625 0 
L 12.40625 0 
z
" id="DejaVuSans-49"/>
      </defs>
      <g transform="translate(396.688219 708.584838)scale(0.1 -0.1)">
       <use xlink:href="#DejaVuSans-49"/>
       <use x="63.623047" xlink:href="#DejaVuSans-48"/>
       <use x="127.246094" xlink:href="#DejaVuSans-48"/>
       <use x="190.869141" xlink:href="#DejaVuSans-48"/>
      </g>
     </g>
    </g>
    <g id="xtick_3">
     <g id="line2d_3">
      <g>
       <use style="stroke:#000000;stroke-width:0.8;" x="597.328256" xlink:href="#m08cded6586" y="693.9864"/>
      </g>
     </g>
     <g id="text_3">
      <!-- 2000 -->
      <defs>
       <path d="M 19.1875 8.296875 
L 53.609375 8.296875 
L 53.609375 0 
L 7.328125 0 
L 7.328125 8.296875 
Q 12.9375 14.109375 22.625 23.890625 
Q 32.328125 33.6875 34.8125 36.53125 
Q 39.546875 41.84375 41.421875 45.53125 
Q 43.3125 49.21875 43.3125 52.78125 
Q 43.3125 58.59375 39.234375 62.25 
Q 35.15625 65.921875 28.609375 65.921875 
Q 23.96875 65.921875 18.8125 64.3125 
Q 13.671875 62.703125 7.8125 59.421875 
L 7.8125 69.390625 
Q 13.765625 71.78125 18.9375 73 
Q 24.125 74.21875 28.421875 74.21875 
Q 39.75 74.21875 46.484375 68.546875 
Q 53.21875 62.890625 53.21875 53.421875 
Q 53.21875 48.921875 51.53125 44.890625 
Q 49.859375 40.875 45.40625 35.40625 
Q 44.1875 33.984375 37.640625 27.21875 
Q 31.109375 20.453125 19.1875 8.296875 
z
" id="DejaVuSans-50"/>
      </defs>
      <g transform="translate(584.603256 708.584838)scale(0.1 -0.1)">
       <use xlink:href="#DejaVuSans-50"/>
       <use x="63.623047" xlink:href="#DejaVuSans-48"/>
       <use x="127.246094" xlink:href="#DejaVuSans-48"/>
       <use x="190.869141" xlink:href="#DejaVuSans-48"/>
      </g>
     </g>
    </g>
    <g id="xtick_4">
     <g id="line2d_4">
      <g>
       <use style="stroke:#000000;stroke-width:0.8;" x="785.243293" xlink:href="#m08cded6586" y="693.9864"/>
      </g>
     </g>
     <g id="text_4">
      <!-- 3000 -->
      <defs>
       <path d="M 40.578125 39.3125 
Q 47.65625 37.796875 51.625 33 
Q 55.609375 28.21875 55.609375 21.1875 
Q 55.609375 10.40625 48.1875 4.484375 
Q 40.765625 -1.421875 27.09375 -1.421875 
Q 22.515625 -1.421875 17.65625 -0.515625 
Q 12.796875 0.390625 7.625 2.203125 
L 7.625 11.71875 
Q 11.71875 9.328125 16.59375 8.109375 
Q 21.484375 6.890625 26.8125 6.890625 
Q 36.078125 6.890625 40.9375 10.546875 
Q 45.796875 14.203125 45.796875 21.1875 
Q 45.796875 27.640625 41.28125 31.265625 
Q 36.765625 34.90625 28.71875 34.90625 
L 20.21875 34.90625 
L 20.21875 43.015625 
L 29.109375 43.015625 
Q 36.375 43.015625 40.234375 45.921875 
Q 44.09375 48.828125 44.09375 54.296875 
Q 44.09375 59.90625 40.109375 62.90625 
Q 36.140625 65.921875 28.71875 65.921875 
Q 24.65625 65.921875 20.015625 65.03125 
Q 15.375 64.15625 9.8125 62.3125 
L 9.8125 71.09375 
Q 15.4375 72.65625 20.34375 73.4375 
Q 25.25 74.21875 29.59375 74.21875 
Q 40.828125 74.21875 47.359375 69.109375 
Q 53.90625 64.015625 53.90625 55.328125 
Q 53.90625 49.265625 50.4375 45.09375 
Q 46.96875 40.921875 40.578125 39.3125 
z
" id="DejaVuSans-51"/>
      </defs>
      <g transform="translate(772.518293 708.584838)scale(0.1 -0.1)">
       <use xlink:href="#DejaVuSans-51"/>
       <use x="63.623047" xlink:href="#DejaVuSans-48"/>
       <use x="127.246094" xlink:href="#DejaVuSans-48"/>
       <use x="190.869141" xlink:href="#DejaVuSans-48"/>
      </g>
     </g>
    </g>
    <g id="xtick_5">
     <g id="line2d_5">
      <g>
       <use style="stroke:#000000;stroke-width:0.8;" x="973.15833" xlink:href="#m08cded6586" y="693.9864"/>
      </g>
     </g>
     <g id="text_5">
      <!-- 4000 -->
      <defs>
       <path d="M 37.796875 64.3125 
L 12.890625 25.390625 
L 37.796875 25.390625 
z
M 35.203125 72.90625 
L 47.609375 72.90625 
L 47.609375 25.390625 
L 58.015625 25.390625 
L 58.015625 17.1875 
L 47.609375 17.1875 
L 47.609375 0 
L 37.796875 0 
L 37.796875 17.1875 
L 4.890625 17.1875 
L 4.890625 26.703125 
z
" id="DejaVuSans-52"/>
      </defs>
      <g transform="translate(960.43333 708.584838)scale(0.1 -0.1)">
       <use xlink:href="#DejaVuSans-52"/>
       <use x="63.623047" xlink:href="#DejaVuSans-48"/>
       <use x="127.246094" xlink:href="#DejaVuSans-48"/>
       <use x="190.869141" xlink:href="#DejaVuSans-48"/>
      </g>
     </g>
    </g>
    <g id="xtick_6">
     <g id="line2d_6">
      <g>
       <use style="stroke:#000000;stroke-width:0.8;" x="1161.073366" xlink:href="#m08cded6586" y="693.9864"/>
      </g>
     </g>
     <g id="text_6">
      <!-- 5000 -->
      <defs>
       <path d="M 10.796875 72.90625 
L 49.515625 72.90625 
L 49.515625 64.59375 
L 19.828125 64.59375 
L 19.828125 46.734375 
Q 21.96875 47.46875 24.109375 47.828125 
Q 26.265625 48.1875 28.421875 48.1875 
Q 40.625 48.1875 47.75 41.5 
Q 54.890625 34.8125 54.890625 23.390625 
Q 54.890625 11.625 47.5625 5.09375 
Q 40.234375 -1.421875 26.90625 -1.421875 
Q 22.3125 -1.421875 17.546875 -0.640625 
Q 12.796875 0.140625 7.71875 1.703125 
L 7.71875 11.625 
Q 12.109375 9.234375 16.796875 8.0625 
Q 21.484375 6.890625 26.703125 6.890625 
Q 35.15625 6.890625 40.078125 11.328125 
Q 45.015625 15.765625 45.015625 23.390625 
Q 45.015625 31 40.078125 35.4375 
Q 35.15625 39.890625 26.703125 39.890625 
Q 22.75 39.890625 18.8125 39.015625 
Q 14.890625 38.140625 10.796875 36.28125 
z
" id="DejaVuSans-53"/>
      </defs>
      <g transform="translate(1148.348366 708.584838)scale(0.1 -0.1)">
       <use xlink:href="#DejaVuSans-53"/>
       <use x="63.623047" xlink:href="#DejaVuSans-48"/>
       <use x="127.246094" xlink:href="#DejaVuSans-48"/>
       <use x="190.869141" xlink:href="#DejaVuSans-48"/>
      </g>
     </g>
    </g>
   </g>
   <g id="matplotlib.axis_2">
    <g id="ytick_1">
     <g id="line2d_7">
      <defs>
       <path d="M 0 0 
L -3.5 0 
" id="mfb70292745" style="stroke:#000000;stroke-width:0.8;"/>
      </defs>
      <g>
       <use style="stroke:#000000;stroke-width:0.8;" x="172.8" xlink:href="#mfb70292745" y="612.904062"/>
      </g>
     </g>
     <g id="text_7">
      <!-- −0.4 -->
      <defs>
       <path d="M 10.59375 35.5 
L 73.1875 35.5 
L 73.1875 27.203125 
L 10.59375 27.203125 
z
" id="DejaVuSans-8722"/>
       <path d="M 10.6875 12.40625 
L 21 12.40625 
L 21 0 
L 10.6875 0 
z
" id="DejaVuSans-46"/>
      </defs>
      <g transform="translate(141.517187 616.703281)scale(0.1 -0.1)">
       <use xlink:href="#DejaVuSans-8722"/>
       <use x="83.789062" xlink:href="#DejaVuSans-48"/>
       <use x="147.412109" xlink:href="#DejaVuSans-46"/>
       <use x="179.199219" xlink:href="#DejaVuSans-52"/>
      </g>
     </g>
    </g>
    <g id="ytick_2">
     <g id="line2d_8">
      <g>
       <use style="stroke:#000000;stroke-width:0.8;" x="172.8" xlink:href="#mfb70292745" y="503.58073"/>
      </g>
     </g>
     <g id="text_8">
      <!-- −0.2 -->
      <g transform="translate(141.517187 507.379949)scale(0.1 -0.1)">
       <use xlink:href="#DejaVuSans-8722"/>
       <use x="83.789062" xlink:href="#DejaVuSans-48"/>
       <use x="147.412109" xlink:href="#DejaVuSans-46"/>
       <use x="179.199219" xlink:href="#DejaVuSans-50"/>
      </g>
     </g>
    </g>
    <g id="ytick_3">
     <g id="line2d_9">
      <g>
       <use style="stroke:#000000;stroke-width:0.8;" x="172.8" xlink:href="#mfb70292745" y="394.257398"/>
      </g>
     </g>
     <g id="text_9">
      <!-- 0.0 -->
      <g transform="translate(149.896875 398.056617)scale(0.1 -0.1)">
       <use xlink:href="#DejaVuSans-48"/>
       <use x="63.623047" xlink:href="#DejaVuSans-46"/>
       <use x="95.410156" xlink:href="#DejaVuSans-48"/>
      </g>
     </g>
    </g>
    <g id="ytick_4">
     <g id="line2d_10">
      <g>
       <use style="stroke:#000000;stroke-width:0.8;" x="172.8" xlink:href="#mfb70292745" y="284.934066"/>
      </g>
     </g>
     <g id="text_10">
      <!-- 0.2 -->
      <g transform="translate(149.896875 288.733285)scale(0.1 -0.1)">
       <use xlink:href="#DejaVuSans-48"/>
       <use x="63.623047" xlink:href="#DejaVuSans-46"/>
       <use x="95.410156" xlink:href="#DejaVuSans-50"/>
      </g>
     </g>
    </g>
    <g id="ytick_5">
     <g id="line2d_11">
      <g>
       <use style="stroke:#000000;stroke-width:0.8;" x="172.8" xlink:href="#mfb70292745" y="175.610734"/>
      </g>
     </g>
     <g id="text_11">
      <!-- 0.4 -->
      <g transform="translate(149.896875 179.409953)scale(0.1 -0.1)">
       <use xlink:href="#DejaVuSans-48"/>
       <use x="63.623047" xlink:href="#DejaVuSans-46"/>
       <use x="95.410156" xlink:href="#DejaVuSans-52"/>
      </g>
     </g>
    </g>
   </g>
   <g id="line2d_12">
    <path clip-path="url(#p27eca570c4)" d="M 221.498182 393.845489 
L 222.625672 391.231683 
L 223.753162 389.707234 
L 224.128992 388.546438 
L 224.692737 385.791441 
L 226.947718 371.925318 
L 227.699378 364.440986 
L 230.142274 335.269718 
L 232.960999 292.386469 
L 235.59181 252.925058 
L 237.84679 225.763986 
L 238.59845 219.94729 
L 240.665516 206.117253 
L 241.229261 204.183817 
L 242.732581 200.494276 
L 243.484241 198.133521 
L 243.860071 197.393895 
L 244.235901 197.028833 
L 244.987561 196.568371 
L 245.551307 195.843922 
L 245.927137 195.545557 
L 246.490882 194.682378 
L 247.806287 192.309182 
L 248.745862 191.095421 
L 249.309607 189.82669 
L 251.000843 185.123393 
L 251.940418 183.066811 
L 252.504163 181.163099 
L 253.819568 176.38657 
L 255.134973 172.846459 
L 256.074549 168.896772 
L 256.826209 166.1488 
L 258.329529 161.932789 
L 260.020764 155.54976 
L 261.148255 152.923034 
L 261.899915 150.121562 
L 262.651575 147.400845 
L 263.21532 146.144605 
L 264.154895 144.41663 
L 264.71864 142.698707 
L 265.658215 139.649701 
L 266.221961 138.624974 
L 267.161536 137.402472 
L 267.725281 136.037884 
L 268.664856 133.471996 
L 269.040686 132.86901 
L 269.604431 132.417814 
L 270.168176 131.927448 
L 270.731921 130.905821 
L 271.671497 128.819399 
L 272.047327 128.359355 
L 272.611072 128.120274 
L 273.174817 127.891553 
L 273.550647 127.474831 
L 275.053967 125.195067 
L 275.429797 125.110459 
L 276.181458 125.099992 
L 276.557288 124.850319 
L 277.121033 124.112007 
L 277.684778 123.375381 
L 278.060608 123.136681 
L 278.436438 123.130402 
L 279.188098 123.301565 
L 279.563928 123.178069 
L 280.127673 122.647799 
L 280.691418 122.079561 
L 281.067249 121.912047 
L 281.443079 121.953114 
L 282.382654 122.234966 
L 282.758484 122.102774 
L 284.073889 121.25915 
L 284.637634 121.401847 
L 285.389294 121.670826 
L 285.765124 121.603076 
L 287.268445 120.976674 
L 288.771765 121.362507 
L 290.275085 120.878662 
L 291.966321 121.222742 
L 293.093811 120.873357 
L 293.657556 120.992811 
L 294.597131 121.272548 
L 295.160876 121.180163 
L 296.100451 120.949915 
L 296.664197 121.058594 
L 297.603772 121.329783 
L 298.167517 121.267689 
L 299.107092 121.079253 
L 299.670837 121.182765 
L 300.798327 121.459939 
L 302.677478 121.36179 
L 303.804968 121.651177 
L 304.744543 121.510938 
L 305.308288 121.499297 
L 306.247863 121.786049 
L 306.999524 121.889832 
L 308.502844 121.792166 
L 310.006164 122.164648 
L 311.509485 122.058028 
L 313.012805 122.442091 
L 314.70404 122.360196 
L 315.83153 122.698475 
L 316.583191 122.585134 
L 317.334851 122.490165 
L 317.710681 122.637617 
L 317.898596 122.9134 
L 318.274426 124.090235 
L 318.838171 127.27864 
L 319.777746 132.992222 
L 320.717321 138.038733 
L 321.093151 141.451066 
L 321.656896 149.027527 
L 322.972302 172.133375 
L 323.911877 191.159589 
L 324.663537 212.137471 
L 326.542687 275.345352 
L 327.482263 311.863001 
L 332.180139 510.92277 
L 334.247204 580.159242 
L 334.998864 600.116115 
L 335.938439 618.388762 
L 337.44176 643.641989 
L 338.005505 649.499548 
L 338.56925 652.845934 
L 339.508825 657.601912 
L 340.4484 663.207929 
L 340.82423 664.44781 
L 341.20006 664.867911 
L 341.763805 664.782049 
L 341.95172 664.605964 
L 342.327551 663.695677 
L 342.703381 661.933211 
L 345.146276 646.940722 
L 345.710021 640.021338 
L 346.649596 623.978257 
L 347.965002 598.953418 
L 348.716662 579.083534 
L 350.219982 529.358901 
L 351.347472 488.969229 
L 353.790368 385.236649 
L 357.172838 250.68273 
L 358.864074 197.181941 
L 359.615734 180.580346 
L 361.306969 150.872613 
L 361.870714 143.393775 
L 362.43446 138.808176 
L 364.877355 125.975986 
L 365.253185 125.289035 
L 365.629015 125.220413 
L 366.004845 125.332105 
L 366.19276 125.546185 
L 366.56859 126.559185 
L 366.94442 128.411071 
L 368.447741 137.282742 
L 369.011486 140.344054 
L 369.387316 143.461133 
L 369.951061 150.568535 
L 371.078551 169.999158 
L 372.206041 191.723141 
L 372.957702 211.820163 
L 374.648937 267.727969 
L 375.776427 309.573082 
L 380.850133 520.243325 
L 382.917199 587.147042 
L 383.668859 604.744431 
L 385.172179 631.756225 
L 385.923839 643.064203 
L 386.487584 648.3771 
L 387.051329 651.425558 
L 387.802989 655.134413 
L 388.93048 661.655248 
L 389.30631 662.678959 
L 389.68214 662.943238 
L 390.245885 662.822886 
L 391.56129 662.296579 
L 392.31295 662.428765 
L 392.876695 662.478533 
L 393.440441 662.296901 
L 394.380016 661.900297 
L 394.943761 661.945638 
L 395.883336 662.169612 
L 396.447081 662.04852 
L 397.386656 661.734856 
L 397.950401 661.838078 
L 399.077892 662.210361 
L 399.641637 662.093422 
L 400.393297 661.926338 
L 400.957042 662.094569 
L 402.084532 662.631852 
L 402.648277 662.562869 
L 403.399938 662.430989 
L 403.963683 662.644732 
L 405.091173 663.302565 
L 405.654918 663.253495 
L 406.406578 663.119226 
L 406.782408 663.234292 
L 408.285729 664.079041 
L 409.037389 663.901256 
L 409.601134 663.888629 
L 410.164879 664.205537 
L 410.916539 664.727712 
L 411.292369 664.804339 
L 411.856114 664.673144 
L 412.419859 664.548609 
L 412.795689 664.631276 
L 413.54735 665.13819 
L 413.735265 665.262489 
L 414.111095 665.195933 
L 414.486925 665.14609 
L 414.67484 664.938771 
L 415.05067 663.917222 
L 415.614415 660.919416 
L 416.741905 654.324754 
L 417.493565 650.277386 
L 417.869395 646.998625 
L 418.433141 639.620031 
L 419.560631 619.863451 
L 420.688121 597.512237 
L 421.439781 576.757884 
L 423.318931 513.284541 
L 424.258507 476.970478 
L 429.144298 270.568802 
L 431.211363 202.403348 
L 431.963023 183.554763 
L 433.090513 162.731041 
L 434.218004 144.143322 
L 434.781749 138.01756 
L 435.345494 134.532684 
L 436.285069 129.998796 
L 437.412559 123.535333 
L 437.788389 122.556177 
L 438.164219 122.927286 
L 438.727964 123.163611 
L 439.103795 123.969552 
L 439.479625 125.652364 
L 440.4192 131.974168 
L 441.92252 141.471183 
L 442.486265 148.389954 
L 443.237925 161.364171 
L 444.929161 195.089837 
L 445.680821 216.464407 
L 447.747886 287.435857 
L 448.875376 333.738626 
L 450.942442 421.485726 
L 453.573252 527.665915 
L 455.640318 592.887702 
L 456.391978 609.418024 
L 457.895298 635.251582 
L 458.646958 645.712339 
L 459.210704 650.338828 
L 459.774449 652.969475 
L 460.338194 655.518381 
L 461.841514 663.223489 
L 462.217344 662.616959 
L 462.969004 662.163659 
L 463.344834 661.169474 
L 463.720664 659.283957 
L 465.975645 644.272135 
L 466.53939 637.842052 
L 467.29105 625.130447 
L 468.982285 591.463312 
L 469.733946 570.879851 
L 471.425181 513.397981 
L 472.552671 471.201052 
L 477.438462 268.169312 
L 479.505528 202.403528 
L 480.257188 183.945337 
L 481.196763 167.269552 
L 482.700083 144.145658 
L 483.263828 139.043024 
L 483.827573 136.272939 
L 484.579234 133.08192 
L 485.894639 126.118104 
L 486.646299 126.014634 
L 487.210044 126.189513 
L 488.149619 126.616475 
L 488.713364 126.60408 
L 489.840855 126.428093 
L 490.592515 126.718622 
L 491.15626 126.911794 
L 491.720005 126.856142 
L 492.847495 126.538453 
L 493.41124 126.670728 
L 494.1629 126.883413 
L 494.726646 126.763839 
L 495.854136 126.273866 
L 496.417881 126.343345 
L 497.169541 126.501726 
L 497.733286 126.326608 
L 498.860776 125.688001 
L 499.424521 125.719902 
L 500.176182 125.861654 
L 500.552012 125.76331 
L 501.303672 125.233111 
L 501.867417 124.929845 
L 502.431162 124.948634 
L 503.182822 125.104409 
L 503.558652 125.010264 
L 504.310312 124.466935 
L 504.874057 124.149245 
L 505.437803 124.168276 
L 506.189463 124.351534 
L 506.565293 124.275252 
L 507.129038 123.904103 
L 507.880698 123.442785 
L 508.444443 123.466935 
L 509.384018 123.67345 
L 509.947763 123.426666 
L 510.323594 124.623218 
L 510.699424 125.119134 
L 511.263169 125.488298 
L 511.638999 126.354132 
L 512.014829 128.161554 
L 512.578574 132.38723 
L 514.645639 150.257946 
L 515.209385 159.198204 
L 516.336875 182.783906 
L 517.464365 208.861189 
L 518.216025 231.708363 
L 520.283091 306.992784 
L 521.410581 354.009577 
L 523.289731 434.515109 
L 526.108457 544.532289 
L 528.175522 604.664314 
L 528.927182 619.812339 
L 530.242587 639.193734 
L 531.182163 651.307718 
L 531.745908 655.496573 
L 532.309653 657.562371 
L 532.873398 659.380522 
L 533.437143 662.193336 
L 534.000888 665.347564 
L 535.316293 665.40774 
L 537.195444 664.925375 
L 538.322934 665.014243 
L 539.262509 664.669016 
L 539.826254 664.557132 
L 540.577915 664.693217 
L 541.329575 664.769687 
L 542.081235 664.530851 
L 542.832895 664.370347 
L 543.584555 664.564639 
L 544.336215 664.705004 
L 545.087875 664.491802 
L 545.651621 664.347238 
L 546.215366 664.438466 
L 547.342856 664.796262 
L 547.906601 664.67079 
L 548.658261 664.458252 
L 549.222006 664.568507 
L 550.349496 664.99314 
L 550.913242 664.879717 
L 551.664902 664.664352 
L 552.228647 664.780734 
L 553.356137 665.246724 
L 553.919882 665.142986 
L 554.671542 664.920932 
L 555.235287 665.033046 
L 556.362778 665.519396 
L 556.926523 665.423153 
L 557.678183 665.191784 
L 558.054013 665.226012 
L 558.617758 662.6872 
L 558.993588 661.794467 
L 559.745248 660.589052 
L 560.121078 659.119558 
L 560.496908 656.591515 
L 561.248569 649.225541 
L 562.939804 630.814064 
L 563.503549 620.910891 
L 564.443124 598.993537 
L 565.946444 559.926405 
L 566.88602 527.50705 
L 569.704745 415.361311 
L 571.583896 335.046474 
L 574.214706 235.460174 
L 575.718026 194.077173 
L 576.657602 171.303334 
L 577.409262 158.892182 
L 579.100497 138.633047 
L 579.664242 133.221574 
L 580.040072 130.972145 
L 580.415902 129.73053 
L 581.355478 127.545007 
L 581.919223 124.854379 
L 582.107138 123.792418 
L 582.858798 123.7404 
L 583.610458 123.701876 
L 584.362118 123.97183 
L 585.113778 124.219838 
L 585.677523 124.177834 
L 586.617099 124.041127 
L 587.368759 124.266204 
L 588.120419 124.480826 
L 588.684164 124.398953 
L 589.623739 124.170631 
L 590.187484 124.280416 
L 591.127059 124.535353 
L 591.690805 124.410802 
L 592.63038 124.088992 
L 593.194125 124.169972 
L 594.1337 124.408228 
L 594.697445 124.251625 
L 595.63702 123.855241 
L 596.200765 123.917561 
L 597.140341 124.1565 
L 597.704086 123.985135 
L 598.643661 123.542555 
L 599.207406 123.592171 
L 600.146981 123.840062 
L 600.710726 123.669864 
L 601.650302 123.206662 
L 602.214047 123.247011 
L 603.153622 123.507541 
L 603.717367 123.349113 
L 604.656942 122.88297 
L 605.220687 122.916996 
L 606.160262 123.192321 
L 606.724008 123.051964 
L 607.851498 122.571049 
L 608.415243 122.689247 
L 609.166903 122.915376 
L 609.730648 122.796491 
L 610.858138 122.331982 
L 611.421883 122.447617 
L 612.173544 122.68734 
L 612.737289 122.591297 
L 613.864779 122.148488 
L 614.428524 122.260915 
L 615.368099 122.519089 
L 615.931844 122.359136 
L 616.87142 122.018751 
L 617.435165 122.127178 
L 618.37474 122.399597 
L 618.938485 122.261693 
L 619.87806 121.937168 
L 620.441805 122.040921 
L 621.38138 122.324485 
L 621.945125 122.206716 
L 622.884701 121.89658 
L 623.448446 121.995153 
L 624.388021 122.287374 
L 624.951766 122.187515 
L 625.891341 121.889487 
L 626.455086 121.982493 
L 627.394662 122.281523 
L 627.958407 122.197301 
L 628.897982 121.908588 
L 629.461727 121.995676 
L 630.589217 122.303455 
L 631.340877 122.09258 
L 631.904622 121.946982 
L 632.468368 122.027762 
L 633.595858 122.34392 
L 634.159603 122.215147 
L 634.911263 121.998234 
L 635.475008 122.072232 
L 636.602498 122.395589 
L 637.166243 122.27547 
L 637.917904 122.056454 
L 638.481649 122.123098 
L 639.609139 122.452672 
L 640.172884 122.339581 
L 641.112459 122.108779 
L 641.676204 122.240085 
L 642.61578 122.51 
L 643.179525 122.402694 
L 644.1191 122.16292 
L 644.682845 122.287107 
L 645.62242 122.563254 
L 646.186165 122.460895 
L 647.12574 122.2107 
L 647.689486 122.327289 
L 648.629061 122.609151 
L 649.192806 122.511304 
L 650.132381 122.249826 
L 650.696126 122.358376 
L 651.635701 122.645542 
L 652.199446 122.552141 
L 653.139022 122.279125 
L 653.702767 122.379265 
L 654.266512 122.595195 
L 655.018172 126.868159 
L 655.581917 129.702074 
L 656.709407 134.292012 
L 657.085237 137.301942 
L 657.648983 144.078573 
L 659.340218 169.916255 
L 660.091878 185.0664 
L 660.843538 205.706974 
L 662.910604 271.562615 
L 664.038094 317.575528 
L 668.172225 491.467317 
L 670.61512 576.501511 
L 671.554695 599.311479 
L 673.245931 633.400507 
L 673.809676 641.303372 
L 674.373421 646.371752 
L 676.628401 661.98022 
L 677.004231 662.907847 
L 677.380061 663.162792 
L 677.755891 663.324665 
L 678.131722 663.979423 
L 678.319637 664.59892 
L 678.883382 661.596021 
L 679.822957 656.28046 
L 680.762532 652.216953 
L 681.138362 649.423735 
L 681.702107 642.883188 
L 682.829597 625.19442 
L 683.769173 609.17876 
L 684.520833 591.603722 
L 685.648323 557.118979 
L 687.339558 500.071404 
L 689.970369 390.482655 
L 692.977009 268.269882 
L 694.85616 205.836194 
L 695.60782 188.273763 
L 697.299055 155.452583 
L 697.8628 147.379137 
L 698.426546 142.244827 
L 700.681526 127.626394 
L 701.057356 126.49906 
L 701.433186 126.156173 
L 701.996931 125.987387 
L 702.184846 125.720349 
L 702.372761 125.258403 
L 703.124421 125.540084 
L 703.688167 125.497 
L 704.627742 125.370383 
L 705.191487 125.554894 
L 706.131062 125.900759 
L 706.694807 125.824326 
L 707.634382 125.60431 
L 708.198127 125.733456 
L 709.137703 126.008053 
L 709.701448 125.876026 
L 710.641023 125.532075 
L 711.204768 125.602303 
L 712.144343 125.813294 
L 712.708088 125.626067 
L 713.647664 125.164563 
L 714.211409 125.193086 
L 715.150984 125.37687 
L 715.714729 125.153996 
L 716.654304 124.609998 
L 717.218049 124.617884 
L 718.157624 124.80874 
L 718.72137 124.577408 
L 719.660945 123.996051 
L 720.22469 123.996646 
L 721.164265 124.211465 
L 721.72801 123.994577 
L 722.667585 123.413317 
L 723.23133 123.412633 
L 724.170906 123.655491 
L 724.734651 123.4662 
L 725.674226 122.90779 
L 726.237971 122.90866 
L 726.425886 122.969048 
L 726.801716 124.096153 
L 727.365461 127.135661 
L 728.305036 132.429101 
L 729.056697 135.872801 
L 729.432527 138.532301 
L 729.996272 144.888138 
L 730.935847 160.162224 
L 732.251252 184.200456 
L 733.002912 203.345829 
L 734.318318 246.059004 
L 735.633723 292.214673 
L 736.949128 348.961439 
L 740.519514 500.431378 
L 742.398664 565.535725 
L 743.338239 593.627102 
L 744.089899 610.015504 
L 745.781135 640.441315 
L 746.34488 647.622745 
L 746.908625 651.942101 
L 748.411945 660.513374 
L 748.97569 663.86116 
L 749.351521 665.187004 
L 749.727351 665.671311 
L 750.666926 665.747294 
L 751.606501 665.421308 
L 752.358161 665.478095 
L 753.109821 665.495203 
L 753.861481 665.215169 
L 754.613142 664.972625 
L 755.364802 665.038488 
L 756.116462 665.084493 
L 756.868122 664.829938 
L 757.619782 664.605008 
L 758.371442 664.707605 
L 759.123102 664.807318 
L 759.874763 664.588968 
L 760.626423 664.388886 
L 761.190168 664.481023 
L 762.129743 664.709045 
L 762.693488 664.59359 
L 763.633063 664.341095 
L 764.196808 664.468647 
L 765.136384 664.775249 
L 765.700129 664.680806 
L 766.639704 664.436387 
L 767.203449 664.58885 
L 768.143024 664.956531 
L 768.706769 664.877521 
L 769.646345 664.631132 
L 770.21009 664.794407 
L 771.149665 665.201078 
L 771.71341 665.134342 
L 772.652985 664.880824 
L 773.21673 665.042895 
L 774.156305 665.469814 
L 774.532135 665.461605 
L 774.720051 665.307005 
L 775.095881 664.431854 
L 775.471711 662.71836 
L 777.162946 653.323401 
L 777.726691 649.935361 
L 778.102521 646.32607 
L 778.666266 638.497508 
L 780.169587 612.037719 
L 780.921247 596.114018 
L 781.672907 574.6955 
L 783.739972 504.516984 
L 784.867463 457.786979 
L 787.874103 328.388945 
L 789.001593 282.104933 
L 790.880744 218.011596 
L 791.820319 190.958331 
L 792.571979 175.337461 
L 794.263214 145.981827 
L 794.826959 139.402705 
L 795.390705 135.575811 
L 796.518195 129.768999 
L 797.45777 124.241066 
L 797.8336 123.127739 
L 798.20943 122.802085 
L 798.773175 122.921558 
L 798.96109 123.145517 
L 799.33692 124.187984 
L 799.71275 126.072828 
L 801.216071 135.011926 
L 801.779816 138.144249 
L 802.155646 141.341396 
L 802.719391 148.589913 
L 803.846881 168.236495 
L 804.974371 190.250804 
L 805.726032 210.645278 
L 807.417267 267.039609 
L 808.544757 309.335561 
L 813.618463 521.103907 
L 815.685529 588.165888 
L 816.437189 605.679832 
L 817.940509 632.717585 
L 818.692169 643.940439 
L 819.255914 649.147357 
L 819.819659 652.143221 
L 820.57132 655.887942 
L 821.69881 662.359771 
L 822.07464 663.321819 
L 822.45047 663.542061 
L 823.014215 663.350819 
L 823.20213 663.076256 
L 823.57796 661.910695 
L 824.141705 658.725742 
L 825.08128 652.925628 
L 826.020856 647.894925 
L 826.396686 644.556841 
L 826.960431 637.106982 
L 828.275836 614.131692 
L 829.215411 595.382096 
L 829.967071 574.761698 
L 831.846222 512.155941 
L 832.785797 476.199484 
L 837.671588 272.354937 
L 839.926568 199.506803 
L 840.678228 182.391753 
L 842.181549 155.556518 
L 842.933209 144.60382 
L 843.496954 139.632181 
L 844.060699 136.734895 
L 844.812359 132.927204 
L 845.93985 126.558894 
L 846.31568 125.689907 
L 846.69151 125.523642 
L 847.06734 125.596976 
L 847.255255 125.743763 
L 847.631085 126.56875 
L 848.006915 128.24195 
L 850.44981 142.937985 
L 851.013556 149.604 
L 851.953131 165.406481 
L 853.268536 190.082413 
L 854.020196 209.51517 
L 855.335601 252.569159 
L 856.838922 306.266703 
L 862.476373 536.262984 
L 864.167608 589.901895 
L 864.919268 606.750933 
L 866.610504 636.52903 
L 867.174249 644.20752 
L 867.737994 649.002465 
L 868.489654 652.675842 
L 869.053399 655.683809 
L 869.992974 661.235011 
L 870.368804 662.457819 
L 870.744634 662.868979 
L 871.308379 662.789067 
L 872.8117 662.232295 
L 874.31502 662.355772 
L 875.81834 661.842637 
L 877.509576 662.043287 
L 878.637066 661.702012 
L 879.200811 661.853363 
L 880.140386 662.1907 
L 880.704131 662.107425 
L 881.455791 661.91564 
L 882.019537 662.044014 
L 883.334942 662.641009 
L 884.086602 662.486722 
L 884.650347 662.452801 
L 885.214092 662.722187 
L 886.153667 663.299862 
L 886.717413 663.293285 
L 887.656988 663.152959 
L 888.220733 663.43851 
L 889.160308 664.063328 
L 889.724053 664.062358 
L 890.663628 663.892662 
L 891.227373 664.164356 
L 892.166949 664.790003 
L 892.542779 664.823419 
L 893.858184 664.622449 
L 894.421929 664.955761 
L 894.797759 665.232159 
L 895.173589 665.070247 
L 895.549419 665.062494 
L 895.737334 664.921722 
L 896.113164 664.075166 
L 896.488994 662.37116 
L 898.93189 647.303279 
L 899.495635 640.248042 
L 900.43521 623.918614 
L 901.750615 598.284744 
L 902.502276 578.01549 
L 904.005596 527.45179 
L 905.321001 478.697152 
L 910.582622 259.129795 
L 912.649688 193.38245 
L 913.401348 176.87244 
L 915.092583 147.677207 
L 915.656328 140.252213 
L 916.220073 135.703565 
L 916.971733 132.226444 
L 917.535479 129.269412 
L 918.475054 123.808992 
L 918.850884 122.6351 
L 919.226714 123.154509 
L 919.790459 123.375817 
L 919.978374 123.609657 
L 920.354204 124.679774 
L 920.730034 126.635424 
L 923.17293 143.445624 
L 923.736675 151.077317 
L 924.67625 168.237918 
L 925.991655 194.919166 
L 926.743315 215.886691 
L 928.622466 280.260043 
L 929.749956 324.505136 
L 933.696172 493.028525 
L 934.823662 533.19885 
L 936.890727 596.903486 
L 937.642388 612.47273 
L 939.333623 640.3967 
L 939.897368 647.246007 
L 940.461113 651.271173 
L 942.152348 659.613159 
L 942.716094 662.513382 
L 942.904009 663.124954 
L 943.279839 662.341517 
L 943.655669 662.113318 
L 944.031499 661.866802 
L 944.407329 661.016182 
L 944.783159 659.266526 
L 945.534819 653.905045 
L 946.474394 647.703932 
L 947.038139 643.787179 
L 947.601884 637.579189 
L 948.16563 628.462933 
L 949.856865 595.089168 
L 950.608525 576.224456 
L 951.5481 545.494207 
L 953.803081 463.072803 
L 958.125127 281.340687 
L 959.252617 243.653606 
L 960.943852 192.591952 
L 961.695512 176.687211 
L 963.198833 152.341786 
L 963.950493 142.315818 
L 964.514238 137.887753 
L 965.077983 135.494444 
L 965.641728 133.234902 
L 967.145048 126.173977 
L 967.896708 126.108839 
L 968.460454 126.320562 
L 969.400029 126.709409 
L 969.963774 126.65316 
L 970.903349 126.480543 
L 971.467094 126.645923 
L 972.406669 126.97078 
L 972.970414 126.863755 
L 973.90999 126.565341 
L 974.473735 126.658996 
L 975.41331 126.892822 
L 975.977055 126.716802 
L 976.91663 126.271396 
L 977.480375 126.299315 
L 978.419951 126.466869 
L 978.983696 126.232331 
L 979.923271 125.663594 
L 980.487016 125.651042 
L 981.426591 125.800013 
L 981.990336 125.536391 
L 982.929911 124.895268 
L 983.493657 124.866821 
L 984.433232 125.034415 
L 984.996977 124.774181 
L 985.936552 124.114098 
L 986.312382 124.056847 
L 987.815702 124.167681 
L 989.319023 123.357687 
L 990.822343 123.533229 
L 992.325663 122.781751 
L 993.077323 123.011339 
L 993.641069 123.072374 
L 994.204814 122.818619 
L 994.956474 122.382659 
L 995.520219 122.371169 
L 996.647709 122.668924 
L 997.211454 122.456974 
L 997.963114 122.059413 
L 998.526859 122.053628 
L 999.65435 122.379711 
L 1000.218095 122.206475 
L 1001.15767 121.811013 
L 1001.721415 121.903541 
L 1002.66099 122.188401 
L 1003.224735 122.049264 
L 1004.164311 121.690193 
L 1004.728056 121.780408 
L 1005.667631 122.07729 
L 1006.231376 121.967204 
L 1007.170951 121.639469 
L 1007.734696 121.726059 
L 1008.674271 122.030283 
L 1009.238017 121.944448 
L 1010.177592 121.642509 
L 1010.741337 121.724808 
L 1011.868827 122.038781 
L 1012.432572 121.903584 
L 1013.184232 121.686013 
L 1013.747977 121.763651 
L 1014.875468 122.085991 
L 1015.063383 122.068333 
L 1015.627128 124.525746 
L 1016.002958 125.336245 
L 1016.566703 126.096816 
L 1016.942533 127.179094 
L 1017.318363 129.248593 
L 1017.882108 134.124195 
L 1019.949174 155.841394 
L 1020.512919 165.757216 
L 1021.452494 187.379282 
L 1022.955814 225.890172 
L 1023.895389 258.30452 
L 1026.714115 370.09285 
L 1028.40535 442.875125 
L 1031.224076 550.486031 
L 1032.915311 597.7337 
L 1033.666971 615.622982 
L 1034.418632 628.053894 
L 1036.109867 649.090008 
L 1036.673612 654.456059 
L 1037.049442 656.617785 
L 1037.425272 657.818353 
L 1038.176932 659.581264 
L 1038.552762 661.10705 
L 1039.116507 664.172763 
L 1039.868168 664.22398 
L 1040.619828 664.221542 
L 1041.371488 663.923772 
L 1042.123148 663.696871 
L 1042.874808 663.802908 
L 1043.626468 663.871716 
L 1044.378128 663.623724 
L 1045.129789 663.440196 
L 1045.693534 663.556283 
L 1046.633109 663.780958 
L 1047.196854 663.653567 
L 1047.948514 663.43857 
L 1048.512259 663.531099 
L 1049.63975 663.942937 
L 1050.203495 663.846249 
L 1050.955155 663.648121 
L 1051.5189 663.772807 
L 1052.64639 664.282779 
L 1053.210135 664.203923 
L 1053.961795 664.004988 
L 1054.52554 664.141814 
L 1055.653031 664.708532 
L 1056.216776 664.639679 
L 1056.968436 664.430647 
L 1057.532181 664.56207 
L 1058.659671 665.148752 
L 1059.223416 665.085799 
L 1060.162992 664.864777 
L 1060.726737 665.079008 
L 1061.666312 665.558854 
L 1062.230057 665.499002 
L 1063.169632 665.255459 
L 1063.733377 665.446924 
L 1064.672952 665.912492 
L 1065.236698 665.85405 
L 1066.176273 665.588198 
L 1066.740018 665.753204 
L 1067.679593 666.196541 
L 1068.243338 666.13911 
L 1069.182913 665.854036 
L 1069.746658 665.991519 
L 1070.686234 666.408491 
L 1071.249979 666.352589 
L 1072.189554 666.052751 
L 1072.753299 666.163772 
L 1073.880789 666.567237 
L 1074.444534 666.431562 
L 1075.196195 666.189795 
L 1075.75994 666.276642 
L 1076.88743 666.654375 
L 1077.451175 666.523152 
L 1078.202835 666.273223 
L 1078.76658 666.338685 
L 1079.89407 666.693679 
L 1080.457816 666.567591 
L 1081.397391 666.298363 
L 1081.961136 666.423299 
L 1082.900711 666.6948 
L 1083.464456 666.574241 
L 1084.404031 666.296034 
L 1084.967776 666.404213 
L 1085.907352 666.666625 
L 1086.471097 666.551858 
L 1087.410672 666.266238 
L 1087.974417 666.36038 
L 1088.913992 666.617279 
L 1089.477737 666.508581 
L 1090.417313 666.216632 
L 1090.981058 666.299196 
L 1091.920633 666.554215 
L 1092.484378 666.45197 
L 1093.423953 666.154507 
L 1093.987698 666.227627 
L 1094.927273 666.484244 
L 1095.491019 666.388972 
L 1096.430594 666.086683 
L 1096.994339 666.152108 
L 1098.121829 666.410162 
L 1098.873489 666.180218 
L 1099.625149 666.012729 
L 1100.376809 666.207121 
L 1101.12847 666.3468 
L 1101.692215 666.198935 
L 1102.443875 665.957376 
L 1103.00762 666.010944 
L 1104.13511 666.29191 
L 1104.698855 666.150843 
L 1105.450515 665.904867 
L 1106.014261 665.953397 
L 1107.141751 666.248061 
L 1107.705496 666.114274 
L 1108.645071 665.85099 
L 1109.208816 665.968669 
L 1110.148391 666.216466 
L 1110.712137 666.090373 
L 1111.651712 665.821061 
L 1112.215457 665.935587 
L 1113.155032 666.197092 
L 1113.718777 666.079013 
L 1114.658352 665.803802 
L 1115.222097 665.914528 
L 1116.161673 666.188884 
L 1116.725418 666.079042 
L 1117.664993 665.798015 
L 1118.228738 665.90411 
L 1119.168313 666.190053 
L 1119.732058 666.088583 
L 1120.671633 665.801834 
L 1121.235379 665.902382 
L 1122.174954 666.198393 
L 1122.738699 666.105354 
L 1123.678274 665.813028 
L 1124.242019 665.90712 
L 1125.181594 666.21156 
L 1125.745339 666.126962 
L 1126.684915 665.829278 
L 1127.24866 665.916084 
L 1128.37615 666.229966 
L 1128.939895 666.08183 
L 1129.691555 665.848402 
L 1130.2553 665.92721 
L 1131.382791 666.249497 
L 1131.946536 666.107881 
L 1132.698196 665.868499 
L 1133.261941 665.938746 
L 1134.389431 666.267958 
L 1134.953176 666.13303 
L 1135.329006 665.984287 
L 1135.892751 662.966062 
L 1136.644412 658.76378 
L 1137.959817 652.764483 
L 1138.335647 649.270014 
L 1138.899392 641.831827 
L 1140.590627 614.730914 
L 1141.342288 598.364446 
L 1142.281863 570.75795 
L 1144.161013 508.859619 
L 1145.476418 453.605262 
L 1149.610549 281.66291 
L 1151.86553 205.399484 
L 1152.805105 183.853635 
L 1154.49634 151.332995 
L 1155.060085 144.310643 
L 1155.62383 139.910029 
L 1156.751321 132.268549 
L 1157.502981 127.053101 
L 1157.878811 125.524699 
L 1158.254641 124.891172 
L 1159.006301 124.564038 
L 1159.570046 123.810742 
L 1160.133791 123.968844 
L 1160.885451 123.895064 
L 1161.637112 123.862884 
L 1162.388772 124.14348 
L 1163.140432 124.372465 
L 1163.892092 124.260851 
L 1164.643752 124.171799 
L 1165.395412 124.409517 
L 1166.147072 124.605306 
L 1166.710818 124.500093 
L 1167.650393 124.271175 
L 1168.214138 124.393549 
L 1169.153713 124.629428 
L 1169.717458 124.480456 
L 1170.657033 124.159691 
L 1171.220778 124.254161 
L 1172.160354 124.471477 
L 1172.724099 124.289598 
L 1173.663674 123.896318 
L 1174.227419 123.973574 
L 1175.166994 124.191465 
L 1175.730739 123.99439 
L 1176.670314 123.556481 
L 1177.23406 123.622972 
L 1178.173635 123.851946 
L 1178.73738 123.656371 
L 1179.676955 123.199143 
L 1180.2407 123.258148 
L 1181.180275 123.502694 
L 1181.74402 123.31992 
L 1182.683596 122.861072 
L 1183.247341 122.914977 
L 1184.186916 123.176985 
L 1184.750661 123.013566 
L 1185.690236 122.564797 
L 1186.253981 122.615336 
L 1187.193557 122.894837 
L 1187.757302 122.754086 
L 1188.696877 122.322846 
L 1189.260622 122.370795 
L 1190.200197 122.665567 
L 1190.763942 122.548715 
L 1191.891432 122.122135 
L 1192.455178 122.251778 
L 1193.206838 122.491261 
L 1193.770583 122.397718 
L 1194.898073 121.994138 
L 1195.461818 122.119838 
L 1195.461818 122.119838 
" style="fill:none;stroke:#0000ff;stroke-linecap:square;stroke-width:1.5;"/>
   </g>
   <g id="patch_3">
    <path d="M 172.8 693.9864 
L 172.8 93.5712 
" style="fill:none;stroke:#000000;stroke-linecap:square;stroke-linejoin:miter;stroke-width:0.8;"/>
   </g>
   <g id="patch_4">
    <path d="M 1244.16 693.9864 
L 1244.16 93.5712 
" style="fill:none;stroke:#000000;stroke-linecap:square;stroke-linejoin:miter;stroke-width:0.8;"/>
   </g>
   <g id="patch_5">
    <path d="M 172.8 693.9864 
L 1244.16 693.9864 
" style="fill:none;stroke:#000000;stroke-linecap:square;stroke-linejoin:miter;stroke-width:0.8;"/>
   </g>
   <g id="patch_6">
    <path d="M 172.8 93.5712 
L 1244.16 93.5712 
" style="fill:none;stroke:#000000;stroke-linecap:square;stroke-linejoin:miter;stroke-width:0.8;"/>
   </g>
  </g>
 </g>
 <defs>
  <clipPath id="p27eca570c4">
   <rect height="600.4152" width="1071.36" x="172.8" y="93.5712"/>
  </clipPath>
 </defs>
</svg>
