<?xml version="1.0" encoding="utf-8" standalone="no"?>
<!DOCTYPE svg PUBLIC "-//W3C//DTD SVG 1.1//EN"
  "http://www.w3.org/Graphics/SVG/1.1/DTD/svg11.dtd">
<!-- Created with matplotlib (https://matplotlib.org/) -->
<svg height="779.76pt" version="1.1" viewBox="0 0 1382.4 779.76" width="1382.4pt" xmlns="http://www.w3.org/2000/svg" xmlns:xlink="http://www.w3.org/1999/xlink">
 <defs>
  <style type="text/css">
*{stroke-linecap:butt;stroke-linejoin:round;}
  </style>
 </defs>
 <g id="figure_1">
  <g id="patch_1">
   <path d="M 0 779.76 
L 1382.4 779.76 
L 1382.4 0 
L 0 0 
z
" style="fill:#ffffff;"/>
  </g>
  <g id="axes_1">
   <g id="patch_2">
    <path d="M 172.8 693.9864 
L 1244.16 693.9864 
L 1244.16 93.5712 
L 172.8 93.5712 
z
" style="fill:#ffffff;"/>
   </g>
   <g id="matplotlib.axis_1">
    <g id="xtick_1">
     <g id="line2d_1">
      <defs>
       <path d="M 0 0 
L 0 3.5 
" id="mefd4a4d8e9" style="stroke:#000000;stroke-width:0.8;"/>
      </defs>
      <g>
       <use style="stroke:#000000;stroke-width:0.8;" x="236.686305" xlink:href="#mefd4a4d8e9" y="693.9864"/>
      </g>
     </g>
     <g id="text_1">
      <!-- 2150 -->
      <defs>
       <path d="M 19.1875 8.296875 
L 53.609375 8.296875 
L 53.609375 0 
L 7.328125 0 
L 7.328125 8.296875 
Q 12.9375 14.109375 22.625 23.890625 
Q 32.328125 33.6875 34.8125 36.53125 
Q 39.546875 41.84375 41.421875 45.53125 
Q 43.3125 49.21875 43.3125 52.78125 
Q 43.3125 58.59375 39.234375 62.25 
Q 35.15625 65.921875 28.609375 65.921875 
Q 23.96875 65.921875 18.8125 64.3125 
Q 13.671875 62.703125 7.8125 59.421875 
L 7.8125 69.390625 
Q 13.765625 71.78125 18.9375 73 
Q 24.125 74.21875 28.421875 74.21875 
Q 39.75 74.21875 46.484375 68.546875 
Q 53.21875 62.890625 53.21875 53.421875 
Q 53.21875 48.921875 51.53125 44.890625 
Q 49.859375 40.875 45.40625 35.40625 
Q 44.1875 33.984375 37.640625 27.21875 
Q 31.109375 20.453125 19.1875 8.296875 
z
" id="DejaVuSans-50"/>
       <path d="M 12.40625 8.296875 
L 28.515625 8.296875 
L 28.515625 63.921875 
L 10.984375 60.40625 
L 10.984375 69.390625 
L 28.421875 72.90625 
L 38.28125 72.90625 
L 38.28125 8.296875 
L 54.390625 8.296875 
L 54.390625 0 
L 12.40625 0 
z
" id="DejaVuSans-49"/>
       <path d="M 10.796875 72.90625 
L 49.515625 72.90625 
L 49.515625 64.59375 
L 19.828125 64.59375 
L 19.828125 46.734375 
Q 21.96875 47.46875 24.109375 47.828125 
Q 26.265625 48.1875 28.421875 48.1875 
Q 40.625 48.1875 47.75 41.5 
Q 54.890625 34.8125 54.890625 23.390625 
Q 54.890625 11.625 47.5625 5.09375 
Q 40.234375 -1.421875 26.90625 -1.421875 
Q 22.3125 -1.421875 17.546875 -0.640625 
Q 12.796875 0.140625 7.71875 1.703125 
L 7.71875 11.625 
Q 12.109375 9.234375 16.796875 8.0625 
Q 21.484375 6.890625 26.703125 6.890625 
Q 35.15625 6.890625 40.078125 11.328125 
Q 45.015625 15.765625 45.015625 23.390625 
Q 45.015625 31 40.078125 35.4375 
Q 35.15625 39.890625 26.703125 39.890625 
Q 22.75 39.890625 18.8125 39.015625 
Q 14.890625 38.140625 10.796875 36.28125 
z
" id="DejaVuSans-53"/>
       <path d="M 31.78125 66.40625 
Q 24.171875 66.40625 20.328125 58.90625 
Q 16.5 51.421875 16.5 36.375 
Q 16.5 21.390625 20.328125 13.890625 
Q 24.171875 6.390625 31.78125 6.390625 
Q 39.453125 6.390625 43.28125 13.890625 
Q 47.125 21.390625 47.125 36.375 
Q 47.125 51.421875 43.28125 58.90625 
Q 39.453125 66.40625 31.78125 66.40625 
z
M 31.78125 74.21875 
Q 44.046875 74.21875 50.515625 64.515625 
Q 56.984375 54.828125 56.984375 36.375 
Q 56.984375 17.96875 50.515625 8.265625 
Q 44.046875 -1.421875 31.78125 -1.421875 
Q 19.53125 -1.421875 13.0625 8.265625 
Q 6.59375 17.96875 6.59375 36.375 
Q 6.59375 54.828125 13.0625 64.515625 
Q 19.53125 74.21875 31.78125 74.21875 
z
" id="DejaVuSans-48"/>
      </defs>
      <g transform="translate(223.961305 708.584838)scale(0.1 -0.1)">
       <use xlink:href="#DejaVuSans-50"/>
       <use x="63.623047" xlink:href="#DejaVuSans-49"/>
       <use x="127.246094" xlink:href="#DejaVuSans-53"/>
       <use x="190.869141" xlink:href="#DejaVuSans-48"/>
      </g>
     </g>
    </g>
    <g id="xtick_2">
     <g id="line2d_2">
      <g>
       <use style="stroke:#000000;stroke-width:0.8;" x="393.304589" xlink:href="#mefd4a4d8e9" y="693.9864"/>
      </g>
     </g>
     <g id="text_2">
      <!-- 2200 -->
      <g transform="translate(380.579589 708.584838)scale(0.1 -0.1)">
       <use xlink:href="#DejaVuSans-50"/>
       <use x="63.623047" xlink:href="#DejaVuSans-50"/>
       <use x="127.246094" xlink:href="#DejaVuSans-48"/>
       <use x="190.869141" xlink:href="#DejaVuSans-48"/>
      </g>
     </g>
    </g>
    <g id="xtick_3">
     <g id="line2d_3">
      <g>
       <use style="stroke:#000000;stroke-width:0.8;" x="549.922872" xlink:href="#mefd4a4d8e9" y="693.9864"/>
      </g>
     </g>
     <g id="text_3">
      <!-- 2250 -->
      <g transform="translate(537.197872 708.584838)scale(0.1 -0.1)">
       <use xlink:href="#DejaVuSans-50"/>
       <use x="63.623047" xlink:href="#DejaVuSans-50"/>
       <use x="127.246094" xlink:href="#DejaVuSans-53"/>
       <use x="190.869141" xlink:href="#DejaVuSans-48"/>
      </g>
     </g>
    </g>
    <g id="xtick_4">
     <g id="line2d_4">
      <g>
       <use style="stroke:#000000;stroke-width:0.8;" x="706.541156" xlink:href="#mefd4a4d8e9" y="693.9864"/>
      </g>
     </g>
     <g id="text_4">
      <!-- 2300 -->
      <defs>
       <path d="M 40.578125 39.3125 
Q 47.65625 37.796875 51.625 33 
Q 55.609375 28.21875 55.609375 21.1875 
Q 55.609375 10.40625 48.1875 4.484375 
Q 40.765625 -1.421875 27.09375 -1.421875 
Q 22.515625 -1.421875 17.65625 -0.515625 
Q 12.796875 0.390625 7.625 2.203125 
L 7.625 11.71875 
Q 11.71875 9.328125 16.59375 8.109375 
Q 21.484375 6.890625 26.8125 6.890625 
Q 36.078125 6.890625 40.9375 10.546875 
Q 45.796875 14.203125 45.796875 21.1875 
Q 45.796875 27.640625 41.28125 31.265625 
Q 36.765625 34.90625 28.71875 34.90625 
L 20.21875 34.90625 
L 20.21875 43.015625 
L 29.109375 43.015625 
Q 36.375 43.015625 40.234375 45.921875 
Q 44.09375 48.828125 44.09375 54.296875 
Q 44.09375 59.90625 40.109375 62.90625 
Q 36.140625 65.921875 28.71875 65.921875 
Q 24.65625 65.921875 20.015625 65.03125 
Q 15.375 64.15625 9.8125 62.3125 
L 9.8125 71.09375 
Q 15.4375 72.65625 20.34375 73.4375 
Q 25.25 74.21875 29.59375 74.21875 
Q 40.828125 74.21875 47.359375 69.109375 
Q 53.90625 64.015625 53.90625 55.328125 
Q 53.90625 49.265625 50.4375 45.09375 
Q 46.96875 40.921875 40.578125 39.3125 
z
" id="DejaVuSans-51"/>
      </defs>
      <g transform="translate(693.816156 708.584838)scale(0.1 -0.1)">
       <use xlink:href="#DejaVuSans-50"/>
       <use x="63.623047" xlink:href="#DejaVuSans-51"/>
       <use x="127.246094" xlink:href="#DejaVuSans-48"/>
       <use x="190.869141" xlink:href="#DejaVuSans-48"/>
      </g>
     </g>
    </g>
    <g id="xtick_5">
     <g id="line2d_5">
      <g>
       <use style="stroke:#000000;stroke-width:0.8;" x="863.15944" xlink:href="#mefd4a4d8e9" y="693.9864"/>
      </g>
     </g>
     <g id="text_5">
      <!-- 2350 -->
      <g transform="translate(850.43444 708.584838)scale(0.1 -0.1)">
       <use xlink:href="#DejaVuSans-50"/>
       <use x="63.623047" xlink:href="#DejaVuSans-51"/>
       <use x="127.246094" xlink:href="#DejaVuSans-53"/>
       <use x="190.869141" xlink:href="#DejaVuSans-48"/>
      </g>
     </g>
    </g>
    <g id="xtick_6">
     <g id="line2d_6">
      <g>
       <use style="stroke:#000000;stroke-width:0.8;" x="1019.777723" xlink:href="#mefd4a4d8e9" y="693.9864"/>
      </g>
     </g>
     <g id="text_6">
      <!-- 2400 -->
      <defs>
       <path d="M 37.796875 64.3125 
L 12.890625 25.390625 
L 37.796875 25.390625 
z
M 35.203125 72.90625 
L 47.609375 72.90625 
L 47.609375 25.390625 
L 58.015625 25.390625 
L 58.015625 17.1875 
L 47.609375 17.1875 
L 47.609375 0 
L 37.796875 0 
L 37.796875 17.1875 
L 4.890625 17.1875 
L 4.890625 26.703125 
z
" id="DejaVuSans-52"/>
      </defs>
      <g transform="translate(1007.052723 708.584838)scale(0.1 -0.1)">
       <use xlink:href="#DejaVuSans-50"/>
       <use x="63.623047" xlink:href="#DejaVuSans-52"/>
       <use x="127.246094" xlink:href="#DejaVuSans-48"/>
       <use x="190.869141" xlink:href="#DejaVuSans-48"/>
      </g>
     </g>
    </g>
    <g id="xtick_7">
     <g id="line2d_7">
      <g>
       <use style="stroke:#000000;stroke-width:0.8;" x="1176.396007" xlink:href="#mefd4a4d8e9" y="693.9864"/>
      </g>
     </g>
     <g id="text_7">
      <!-- 2450 -->
      <g transform="translate(1163.671007 708.584838)scale(0.1 -0.1)">
       <use xlink:href="#DejaVuSans-50"/>
       <use x="63.623047" xlink:href="#DejaVuSans-52"/>
       <use x="127.246094" xlink:href="#DejaVuSans-53"/>
       <use x="190.869141" xlink:href="#DejaVuSans-48"/>
      </g>
     </g>
    </g>
   </g>
   <g id="matplotlib.axis_2">
    <g id="ytick_1">
     <g id="line2d_8">
      <defs>
       <path d="M 0 0 
L -3.5 0 
" id="m647cafdf7d" style="stroke:#000000;stroke-width:0.8;"/>
      </defs>
      <g>
       <use style="stroke:#000000;stroke-width:0.8;" x="172.8" xlink:href="#m647cafdf7d" y="689.363026"/>
      </g>
     </g>
     <g id="text_8">
      <!-- −1.00 -->
      <defs>
       <path d="M 10.59375 35.5 
L 73.1875 35.5 
L 73.1875 27.203125 
L 10.59375 27.203125 
z
" id="DejaVuSans-8722"/>
       <path d="M 10.6875 12.40625 
L 21 12.40625 
L 21 0 
L 10.6875 0 
z
" id="DejaVuSans-46"/>
      </defs>
      <g transform="translate(135.154687 693.162245)scale(0.1 -0.1)">
       <use xlink:href="#DejaVuSans-8722"/>
       <use x="83.789062" xlink:href="#DejaVuSans-49"/>
       <use x="147.412109" xlink:href="#DejaVuSans-46"/>
       <use x="179.199219" xlink:href="#DejaVuSans-48"/>
       <use x="242.822266" xlink:href="#DejaVuSans-48"/>
      </g>
     </g>
    </g>
    <g id="ytick_2">
     <g id="line2d_9">
      <g>
       <use style="stroke:#000000;stroke-width:0.8;" x="172.8" xlink:href="#m647cafdf7d" y="615.397682"/>
      </g>
     </g>
     <g id="text_9">
      <!-- −0.75 -->
      <defs>
       <path d="M 8.203125 72.90625 
L 55.078125 72.90625 
L 55.078125 68.703125 
L 28.609375 0 
L 18.3125 0 
L 43.21875 64.59375 
L 8.203125 64.59375 
z
" id="DejaVuSans-55"/>
      </defs>
      <g transform="translate(135.154687 619.196901)scale(0.1 -0.1)">
       <use xlink:href="#DejaVuSans-8722"/>
       <use x="83.789062" xlink:href="#DejaVuSans-48"/>
       <use x="147.412109" xlink:href="#DejaVuSans-46"/>
       <use x="179.199219" xlink:href="#DejaVuSans-55"/>
       <use x="242.822266" xlink:href="#DejaVuSans-53"/>
      </g>
     </g>
    </g>
    <g id="ytick_3">
     <g id="line2d_10">
      <g>
       <use style="stroke:#000000;stroke-width:0.8;" x="172.8" xlink:href="#m647cafdf7d" y="541.432338"/>
      </g>
     </g>
     <g id="text_10">
      <!-- −0.50 -->
      <g transform="translate(135.154687 545.231557)scale(0.1 -0.1)">
       <use xlink:href="#DejaVuSans-8722"/>
       <use x="83.789062" xlink:href="#DejaVuSans-48"/>
       <use x="147.412109" xlink:href="#DejaVuSans-46"/>
       <use x="179.199219" xlink:href="#DejaVuSans-53"/>
       <use x="242.822266" xlink:href="#DejaVuSans-48"/>
      </g>
     </g>
    </g>
    <g id="ytick_4">
     <g id="line2d_11">
      <g>
       <use style="stroke:#000000;stroke-width:0.8;" x="172.8" xlink:href="#m647cafdf7d" y="467.466994"/>
      </g>
     </g>
     <g id="text_11">
      <!-- −0.25 -->
      <g transform="translate(135.154687 471.266212)scale(0.1 -0.1)">
       <use xlink:href="#DejaVuSans-8722"/>
       <use x="83.789062" xlink:href="#DejaVuSans-48"/>
       <use x="147.412109" xlink:href="#DejaVuSans-46"/>
       <use x="179.199219" xlink:href="#DejaVuSans-50"/>
       <use x="242.822266" xlink:href="#DejaVuSans-53"/>
      </g>
     </g>
    </g>
    <g id="ytick_5">
     <g id="line2d_12">
      <g>
       <use style="stroke:#000000;stroke-width:0.8;" x="172.8" xlink:href="#m647cafdf7d" y="393.50165"/>
      </g>
     </g>
     <g id="text_12">
      <!-- 0.00 -->
      <g transform="translate(143.534375 397.300868)scale(0.1 -0.1)">
       <use xlink:href="#DejaVuSans-48"/>
       <use x="63.623047" xlink:href="#DejaVuSans-46"/>
       <use x="95.410156" xlink:href="#DejaVuSans-48"/>
       <use x="159.033203" xlink:href="#DejaVuSans-48"/>
      </g>
     </g>
    </g>
    <g id="ytick_6">
     <g id="line2d_13">
      <g>
       <use style="stroke:#000000;stroke-width:0.8;" x="172.8" xlink:href="#m647cafdf7d" y="319.536305"/>
      </g>
     </g>
     <g id="text_13">
      <!-- 0.25 -->
      <g transform="translate(143.534375 323.335524)scale(0.1 -0.1)">
       <use xlink:href="#DejaVuSans-48"/>
       <use x="63.623047" xlink:href="#DejaVuSans-46"/>
       <use x="95.410156" xlink:href="#DejaVuSans-50"/>
       <use x="159.033203" xlink:href="#DejaVuSans-53"/>
      </g>
     </g>
    </g>
    <g id="ytick_7">
     <g id="line2d_14">
      <g>
       <use style="stroke:#000000;stroke-width:0.8;" x="172.8" xlink:href="#m647cafdf7d" y="245.570961"/>
      </g>
     </g>
     <g id="text_14">
      <!-- 0.50 -->
      <g transform="translate(143.534375 249.37018)scale(0.1 -0.1)">
       <use xlink:href="#DejaVuSans-48"/>
       <use x="63.623047" xlink:href="#DejaVuSans-46"/>
       <use x="95.410156" xlink:href="#DejaVuSans-53"/>
       <use x="159.033203" xlink:href="#DejaVuSans-48"/>
      </g>
     </g>
    </g>
    <g id="ytick_8">
     <g id="line2d_15">
      <g>
       <use style="stroke:#000000;stroke-width:0.8;" x="172.8" xlink:href="#m647cafdf7d" y="171.605617"/>
      </g>
     </g>
     <g id="text_15">
      <!-- 0.75 -->
      <g transform="translate(143.534375 175.404836)scale(0.1 -0.1)">
       <use xlink:href="#DejaVuSans-48"/>
       <use x="63.623047" xlink:href="#DejaVuSans-46"/>
       <use x="95.410156" xlink:href="#DejaVuSans-55"/>
       <use x="159.033203" xlink:href="#DejaVuSans-53"/>
      </g>
     </g>
    </g>
    <g id="ytick_9">
     <g id="line2d_16">
      <g>
       <use style="stroke:#000000;stroke-width:0.8;" x="172.8" xlink:href="#m647cafdf7d" y="97.640273"/>
      </g>
     </g>
     <g id="text_16">
      <!-- 1.00 -->
      <g transform="translate(143.534375 101.439492)scale(0.1 -0.1)">
       <use xlink:href="#DejaVuSans-49"/>
       <use x="63.623047" xlink:href="#DejaVuSans-46"/>
       <use x="95.410156" xlink:href="#DejaVuSans-48"/>
       <use x="159.033203" xlink:href="#DejaVuSans-48"/>
      </g>
     </g>
    </g>
   </g>
   <g id="line2d_17">
    <path clip-path="url(#p1652291711)" d="M 170.906626 97.683856 
L 174.038992 104.2884 
L 177.171357 121.881409 
L 180.303723 149.794963 
L 183.436089 186.968665 
L 186.568454 231.989935 
L 189.70082 283.147805 
L 192.833186 338.4981 
L 199.097917 453.283589 
L 202.230283 508.357765 
L 205.362648 559.067968 
L 208.495014 603.48798 
L 211.62738 639.930431 
L 214.759745 667.01077 
L 217.892111 683.69982 
L 221.024477 689.362946 
L 224.156842 683.784322 
L 227.289208 667.175336 
L 230.421574 640.166728 
L 233.553939 603.784732 
L 236.686305 559.41207 
L 239.818671 508.735294 
L 242.951036 453.68052 
L 252.348133 283.521167 
L 255.480499 232.32878 
L 258.612865 187.260136 
L 261.74523 150.027197 
L 264.877596 122.04444 
L 268.009962 104.375183 
L 271.142327 97.691141 
L 274.274693 102.246772 
L 277.407059 117.869431 
L 280.539424 143.96576 
L 283.67179 179.544138 
L 286.804156 223.252365 
L 289.936522 273.429151 
L 293.068887 328.167422 
L 302.465984 498.561968 
L 305.59835 550.218153 
L 308.730716 595.920228 
L 311.863081 633.932396 
L 314.995447 662.810824 
L 318.127813 681.458405 
L 321.260178 689.166462 
L 324.392544 685.641779 
L 327.52491 671.017913 
L 330.657275 645.850272 
L 333.789641 611.095115 
L 336.922007 568.073217 
L 340.054372 518.419589 
L 343.186738 464.021178 
L 352.583835 293.451901 
L 355.716201 241.345636 
L 358.848566 195.019355 
L 361.980932 156.232199 
L 365.113298 126.457094 
L 368.245663 106.824906 
L 371.378029 98.08148 
L 374.510395 100.559219 
L 377.64276 114.164299 
L 380.775126 138.38008 
L 383.907492 172.286634 
L 387.039857 214.595679 
L 390.172223 263.699619 
L 393.304589 317.732769 
L 402.701686 488.417949 
L 405.834051 540.963399 
L 408.966417 587.908377 
L 412.098783 627.470695 
L 415.231148 658.148392 
L 418.363514 678.776663 
L 421.49588 688.572077 
L 424.628245 687.162413 
L 427.760611 674.600942 
L 430.892977 651.364556 
L 434.025343 618.335758 
L 437.157708 576.769166 
L 440.290074 528.243777 
L 443.42244 474.602841 
L 452.819537 303.860825 
L 455.951902 250.885897 
L 459.084268 203.326064 
L 462.216634 162.986374 
L 465.348999 131.397876 
L 468.481365 109.75961 
L 471.613731 98.893112 
L 474.746096 99.211149 
L 477.878462 110.701905 
L 481.010828 132.929281 
L 484.143193 165.049338 
L 487.275559 205.842317 
L 490.407925 253.759024 
L 493.54029 306.979804 
L 506.069753 531.112606 
L 509.202119 579.283407 
L 512.334484 620.402702 
L 515.46685 652.910268 
L 518.599216 675.57251 
L 521.731581 687.529253 
L 524.863947 688.326455 
L 527.996313 677.933576 
L 531.128678 656.744898 
L 534.261044 625.564674 
L 537.39341 585.57664 
L 540.525775 538.299015 
L 543.658141 485.526729 
L 556.187604 261.05192 
L 559.319969 212.275398 
L 562.452335 170.37581 
L 565.584701 136.94261 
L 568.717066 113.244218 
L 571.849432 100.179926 
L 574.981798 98.245715 
L 578.114163 107.5153 
L 581.246529 127.637168 
L 584.378895 157.84779 
L 587.511261 197.000551 
L 590.643626 243.609307 
L 593.775992 295.904928 
L 600.040723 409.47736 
L 603.173089 466.444718 
L 606.305455 520.64364 
L 609.43782 570.01838 
L 612.570186 612.696305 
L 615.702552 647.058755 
L 618.834917 671.802315 
L 621.967283 685.988207 
L 625.099649 689.077971 
L 628.232014 680.95402 
L 631.36438 661.924271 
L 634.496746 632.710604 
L 637.629111 594.421531 
L 640.761477 548.510101 
L 643.893843 496.718639 
L 650.158574 383.505152 
L 653.29094 326.378253 
L 656.423305 271.798523 
L 659.555671 221.835829 
L 662.688037 178.38481 
L 665.820402 143.093192 
L 668.952768 117.299433 
L 672.085134 101.982012 
L 675.217499 97.722259 
L 678.349865 104.682174 
L 681.482231 122.598106 
L 684.614596 150.790608 
L 687.746962 188.190133 
L 690.879328 233.377635 
L 694.011693 284.638521 
L 697.144059 340.027869 
L 703.40879 454.710211 
L 706.541156 509.65357 
L 709.673522 560.19103 
L 712.805887 604.406368 
L 715.938253 640.623055 
L 719.070619 667.467697 
L 722.202984 683.921376 
L 725.33535 689.361735 
L 728.467716 683.582163 
L 731.600081 666.799537 
L 734.732447 639.646618 
L 737.864813 603.149185 
L 740.997179 558.688409 
L 744.129544 507.949511 
L 747.26191 452.858323 
L 756.659007 282.754882 
L 759.791373 231.638823 
L 762.923738 186.672969 
L 766.056104 149.564821 
L 769.18847 121.72304 
L 772.320835 104.204939 
L 775.453201 97.677255 
L 778.585567 102.39132 
L 781.717932 118.173318 
L 784.850298 144.430014 
L 787.982664 180.169931 
L 791.115029 224.039544 
L 794.247395 274.373508 
L 797.379761 329.257313 
L 806.776858 499.902697 
L 809.909223 551.537207 
L 813.041589 597.14653 
L 816.173955 634.988451 
L 819.30632 663.616613 
L 822.438686 681.935201 
L 825.571052 689.240365 
L 828.703417 685.247092 
L 831.835783 670.100628 
L 834.968149 644.371981 
L 838.100514 609.037428 
L 841.23288 565.442513 
L 844.365246 515.251585 
L 847.497611 460.384607 
L 856.894708 289.167562 
L 860.027074 237.200436 
L 863.15944 191.226318 
L 866.291805 153.011586 
L 869.424171 124.025142 
L 872.556537 105.382149 
L 875.688902 97.801254 
L 878.821268 101.576814 
L 881.953634 116.567157 
L 885.085999 142.199449 
L 888.218365 177.491127 
L 891.350731 221.087276 
L 894.483097 271.312594 
L 897.615462 326.235971 
L 907.012559 497.659601 
L 910.144925 549.685134 
L 913.277291 595.705649 
L 916.409656 633.953518 
L 919.542022 662.96056 
L 922.674388 681.614388 
L 925.806753 689.201118 
L 928.939119 685.432781 
L 932.071485 670.45829 
L 935.20385 644.857435 
L 938.336216 609.618088 
L 941.468582 566.097496 
L 944.600947 515.969324 
L 947.733313 461.158642 
L 957.13041 290.050325 
L 960.262776 238.073645 
L 963.395141 192.050021 
L 966.527507 153.73612 
L 969.659873 124.592824 
L 972.792238 105.729411 
L 975.924604 97.861103 
L 979.05697 101.281775 
L 982.189335 115.853056 
L 985.321701 141.010351 
L 988.454067 175.785525 
L 991.586432 218.845206 
L 994.718798 268.542929 
L 997.851164 322.982807 
L 1007.248261 493.617824 
L 1010.380626 545.724682 
L 1013.512992 592.043494 
L 1016.645358 630.81744 
L 1019.777723 660.576217 
L 1022.910089 680.192186 
L 1026.042455 688.923691 
L 1029.17482 686.443583 
L 1032.307186 672.851604 
L 1035.439552 648.670011 
L 1038.571917 614.822659 
L 1041.704283 572.598586 
L 1044.836649 523.601867 
L 1047.969015 469.690017 
L 1057.366112 299.320057 
L 1060.498477 246.814261 
L 1063.630843 199.856064 
L 1066.763209 160.221145 
L 1069.895574 129.409254 
L 1073.02794 108.586769 
L 1076.160306 98.541626 
L 1079.292671 99.65272 
L 1082.425037 111.875242 
L 1085.557403 134.742711 
L 1088.689768 167.385557 
L 1091.822134 208.565302 
L 1094.9545 256.722638 
L 1098.086865 310.037184 
L 1107.483962 480.294415 
L 1110.616328 533.343136 
L 1113.748694 581.116213 
L 1116.881059 621.810304 
L 1120.013425 653.88809 
L 1123.145791 676.135071 
L 1126.278156 687.715068 
L 1129.410522 688.19304 
L 1132.542888 677.550868 
L 1135.675253 656.188134 
L 1138.807619 624.907794 
L 1141.939985 584.887043 
L 1145.07235 537.634057 
L 1148.204716 484.931896 
L 1160.734179 260.943728 
L 1163.866544 212.278419 
L 1166.99891 170.461268 
L 1170.131276 137.07087 
L 1173.263641 113.367538 
L 1176.396007 100.246782 
L 1179.528373 98.206323 
L 1182.660738 107.327565 
L 1185.793104 127.272039 
L 1188.92547 157.293066 
L 1192.057835 196.262454 
L 1195.190201 242.711645 
L 1198.322567 294.886115 
L 1204.587298 408.367095 
L 1207.719664 465.369516 
L 1210.85203 519.653569 
L 1213.984395 569.156441 
L 1217.116761 611.996067 
L 1220.249127 646.542507 
L 1223.381492 671.479476 
L 1226.513858 685.853935 
L 1229.646224 689.112191 
L 1232.778589 681.121337 
L 1235.910955 662.175296 
L 1239.043321 632.985069 
L 1242.175686 594.653291 
L 1245.308052 548.633686 
L 1245.308052 548.633686 
" style="fill:none;stroke:#0000ff;stroke-linecap:square;stroke-width:1.5;"/>
   </g>
   <g id="line2d_18">
    <path clip-path="url(#p1652291711)" d="M 170.906626 678.535273 
L 174.038992 688.502455 
L 177.171357 687.277788 
L 180.303723 674.907735 
L 183.436089 651.861594 
L 186.568454 619.013699 
L 189.70082 577.610245 
L 192.833186 529.222011 
L 195.965551 475.684769 
L 205.362648 305.000039 
L 208.495014 251.951676 
L 211.62738 204.273488 
L 214.759745 163.774307 
L 217.892111 131.990607 
L 221.024477 110.128208 
L 224.156842 99.016535 
L 227.289208 99.077146 
L 230.421574 110.307742 
L 233.553939 132.282252 
L 236.686305 164.167 
L 239.818671 204.752329 
L 242.951036 252.4985 
L 246.083402 305.594099 
L 258.612865 529.774727 
L 261.74523 578.097019 
L 264.877596 619.416064 
L 268.009962 652.164286 
L 271.142327 675.099269 
L 274.274693 687.350899 
L 277.407059 688.454368 
L 280.539424 678.367813 
L 283.67179 657.473901 
L 286.804156 626.565313 
L 289.936522 586.81467 
L 293.068887 539.730047 
L 296.201253 487.097757 
L 302.465984 373.312025 
L 305.59835 316.475428 
L 308.730716 262.561079 
L 311.863081 213.614402 
L 314.995447 171.492354 
L 318.127813 137.792975 
L 321.260178 113.794766 
L 324.392544 100.408179 
L 327.52491 98.14108 
L 330.657275 107.079478 
L 333.789641 126.884266 
L 336.922007 156.804082 
L 340.054372 195.703816 
L 343.186738 242.107678 
L 346.319104 294.25518 
L 352.583835 407.724691 
L 355.716201 464.741853 
L 358.848566 519.056278 
L 361.980932 568.607366 
L 365.113298 611.515229 
L 368.245663 646.152012 
L 371.378029 671.203654 
L 374.510395 685.719735 
L 377.64276 689.149539 
L 380.775126 681.362945 
L 383.907492 662.655364 
L 387.039857 633.73653 
L 390.172223 595.703578 
L 393.304589 549.999414 
L 396.436954 498.357981 
L 402.701686 385.250995 
L 405.834051 328.076536 
L 408.966417 273.384198 
L 412.098783 223.248921 
L 415.231148 179.572754 
L 418.363514 144.0127 
L 421.49588 117.917849 
L 424.628245 102.278198 
L 427.760611 97.687088 
L 430.892977 104.3187 
L 434.025343 121.921441 
L 437.157708 149.827491 
L 440.290074 186.978141 
L 443.42244 231.963955 
L 446.554805 283.078246 
L 449.687171 338.38182 
L 455.951902 453.084975 
L 459.084268 508.132905 
L 462.216634 558.831913 
L 465.348999 603.258561 
L 468.481365 639.727374 
L 471.613731 666.854785 
L 474.746096 683.611625 
L 477.878462 689.362166 
L 481.010828 683.888242 
L 484.143193 667.397526 
L 487.275559 640.515647 
L 490.407925 604.26246 
L 493.54029 560.013353 
L 496.672656 509.447064 
L 499.805022 454.481995 
L 509.202119 284.403368 
L 512.334484 233.161319 
L 515.46685 188.00232 
L 518.599216 150.63963 
L 521.731581 122.490729 
L 524.863947 104.623539 
L 527.996313 97.715913 
L 531.128678 102.029915 
L 534.261044 117.401878 
L 537.39341 143.248615 
L 540.525775 178.589544 
L 543.658141 222.083887 
L 546.790507 272.08154 
L 549.922872 326.685674 
L 559.319969 497.022436 
L 562.452335 548.786615 
L 565.584701 594.659537 
L 568.717066 632.900856 
L 571.849432 662.059761 
L 574.981798 681.03001 
L 578.114163 689.091902 
L 581.246529 685.939583 
L 584.378895 671.692646 
L 587.511261 646.891597 
L 590.643626 612.477348 
L 593.775992 569.755518 
L 596.908358 520.346905 
L 600.040723 466.125989 
L 609.43782 295.600603 
L 612.570186 243.335417 
L 615.702552 196.767293 
L 618.834917 157.66295 
L 621.967283 127.505941 
L 625.099649 107.440375 
L 628.232014 98.227506 
L 631.36438 100.216856 
L 634.496746 113.332953 
L 637.629111 137.078192 
L 640.761477 170.551718 
L 643.893843 212.4836 
L 647.026208 261.283012 
L 650.158574 315.098582 
L 659.555671 485.743005 
L 662.688037 538.487868 
L 665.820402 585.732191 
L 668.952768 625.683602 
L 672.085134 656.826408 
L 675.217499 677.979103 
L 678.349865 688.339188 
L 681.482231 687.513619 
L 684.614596 675.533715 
L 687.746962 652.853976 
L 690.879328 620.334833 
L 694.011693 579.21001 
L 697.144059 531.039714 
L 700.276425 477.651449 
L 709.673522 306.957628 
L 712.805887 253.754611 
L 715.938253 205.853368 
L 719.070619 165.071195 
L 722.202984 132.955299 
L 725.33535 110.724107 
L 728.467716 99.221033 
L 731.600081 98.882485 
L 734.732447 109.721307 
L 737.864813 131.326291 
L 740.997179 162.877781 
L 744.129544 203.178763 
L 747.26191 250.700285 
L 750.394276 303.639457 
L 762.923738 527.95248 
L 766.056104 576.491095 
L 769.18847 618.087389 
L 772.320835 651.163267 
L 775.453201 674.463884 
L 778.585567 687.105253 
L 781.717932 688.607781 
L 784.850298 678.914464 
L 787.982664 658.393051 
L 791.115029 627.822091 
L 794.247395 588.361396 
L 797.379761 541.50804 
L 800.512126 489.039564 
L 806.776858 375.357032 
L 809.909223 318.455906 
L 813.041589 264.401893 
L 816.173955 215.245714 
L 819.30632 172.852274 
L 822.438686 138.829911 
L 825.571052 114.469377 
L 828.703417 100.694873 
L 831.835783 98.028979 
L 834.968149 106.572835 
L 838.100514 126.002302 
L 841.23288 155.580258 
L 844.365246 194.184562 
L 847.497611 240.350632 
L 850.629977 292.327 
L 856.894708 405.677419 
L 860.027074 462.75114 
L 863.15944 517.197648 
L 866.291805 566.951332 
L 869.424171 610.124618 
L 872.556537 645.079583 
L 875.688902 670.490091 
L 878.821268 685.392111 
L 881.953634 689.220283 
L 885.085999 681.829374 
L 888.218365 663.499781 
L 891.350731 634.9269 
L 894.483097 597.19474 
L 897.615462 551.734797 
L 900.747828 500.271746 
L 907.012559 387.299696 
L 910.144925 330.076671 
L 913.277291 275.259887 
L 916.409656 224.929002 
L 919.542022 180.993488 
L 922.674388 145.120186 
L 925.806753 118.670072 
L 928.939119 102.646618 
L 932.071485 97.65773 
L 935.20385 103.892677 
L 938.336216 121.114915 
L 941.468582 148.67106 
L 944.600947 185.515679 
L 947.733313 230.250945 
L 950.865679 281.179677 
L 953.998044 336.369721 
L 960.262776 451.076233 
L 963.395141 506.240924 
L 966.527507 557.128471 
L 969.659873 601.808284 
L 972.792238 638.585283 
L 975.924604 666.06421 
L 979.05697 683.202558 
L 982.189335 689.350127 
L 985.321701 684.273687 
L 988.454067 668.165832 
L 991.586432 641.637666 
L 994.718798 605.695625 
L 997.851164 561.703291 
L 1000.983529 511.329662 
L 1004.115895 456.48583 
L 1013.512992 286.31087 
L 1016.645358 234.887427 
L 1019.777723 189.481548 
L 1022.910089 151.815859 
L 1026.042455 123.319335 
L 1029.17482 105.073086 
L 1032.307186 97.769345 
L 1035.439552 101.685205 
L 1038.571917 116.672105 
L 1041.704283 142.161465 
L 1044.836649 177.186261 
L 1047.969015 220.41771 
L 1051.10138 270.215681 
L 1054.233746 324.69092 
L 1063.630843 495.100192 
L 1066.763209 547.038546 
L 1069.895574 593.151961 
L 1073.02794 631.690969 
L 1076.160306 661.193463 
L 1079.292671 680.540167 
L 1082.425037 688.997099 
L 1085.557403 686.243415 
L 1088.689768 672.383588 
L 1091.822134 647.943435 
L 1094.9545 613.850177 
L 1098.086865 571.397255 
L 1101.219231 522.195264 
L 1104.351597 468.110848 
L 1113.748694 297.536805 
L 1116.881059 245.104735 
L 1120.013425 198.302602 
L 1123.145791 158.906002 
L 1126.278156 128.409578 
L 1129.410522 107.970313 
L 1132.542888 98.363642 
L 1135.675253 99.954024 
L 1138.807619 112.681124 
L 1141.939985 136.062096 
L 1145.07235 169.209904 
L 1148.204716 210.866975 
L 1151.337082 259.452906 
L 1154.469447 313.124429 
L 1163.866544 483.793635 
L 1166.99891 536.698024 
L 1170.131276 584.169777 
L 1173.263641 624.407892 
L 1176.396007 655.885801 
L 1179.528373 677.409284 
L 1182.660738 688.161776 
L 1185.793104 687.735343 
L 1188.92547 676.146165 
L 1192.057835 653.833915 
L 1195.190201 621.645084 
L 1198.322567 580.800865 
L 1201.454933 532.850818 
L 1204.587298 479.614092 
L 1217.116761 255.56425 
L 1220.249127 207.442251 
L 1223.381492 166.379041 
L 1226.513858 133.932492 
L 1229.646224 111.333573 
L 1232.778589 99.43965 
L 1235.910955 98.701959 
L 1239.043321 109.148487 
L 1242.175686 130.382909 
L 1245.308052 161.599626 
L 1245.308052 161.599626 
" style="fill:none;stroke:#ff0000;stroke-linecap:square;stroke-width:1.5;"/>
   </g>
   <g id="patch_3">
    <path d="M 172.8 693.9864 
L 172.8 93.5712 
" style="fill:none;stroke:#000000;stroke-linecap:square;stroke-linejoin:miter;stroke-width:0.8;"/>
   </g>
   <g id="patch_4">
    <path d="M 1244.16 693.9864 
L 1244.16 93.5712 
" style="fill:none;stroke:#000000;stroke-linecap:square;stroke-linejoin:miter;stroke-width:0.8;"/>
   </g>
   <g id="patch_5">
    <path d="M 172.8 693.9864 
L 1244.16 693.9864 
" style="fill:none;stroke:#000000;stroke-linecap:square;stroke-linejoin:miter;stroke-width:0.8;"/>
   </g>
   <g id="patch_6">
    <path d="M 172.8 93.5712 
L 1244.16 93.5712 
" style="fill:none;stroke:#000000;stroke-linecap:square;stroke-linejoin:miter;stroke-width:0.8;"/>
   </g>
  </g>
 </g>
 <defs>
  <clipPath id="p1652291711">
   <rect height="600.4152" width="1071.36" x="172.8" y="93.5712"/>
  </clipPath>
 </defs>
</svg>
