<?xml version="1.0" encoding="utf-8" standalone="no"?>
<!DOCTYPE svg PUBLIC "-//W3C//DTD SVG 1.1//EN"
  "http://www.w3.org/Graphics/SVG/1.1/DTD/svg11.dtd">
<!-- Created with matplotlib (https://matplotlib.org/) -->
<svg height="779.76pt" version="1.1" viewBox="0 0 1382.4 779.76" width="1382.4pt" xmlns="http://www.w3.org/2000/svg" xmlns:xlink="http://www.w3.org/1999/xlink">
 <defs>
  <style type="text/css">
*{stroke-linecap:butt;stroke-linejoin:round;}
  </style>
 </defs>
 <g id="figure_1">
  <g id="patch_1">
   <path d="M 0 779.76 
L 1382.4 779.76 
L 1382.4 0 
L 0 0 
z
" style="fill:#ffffff;"/>
  </g>
  <g id="axes_1">
   <g id="patch_2">
    <path d="M 172.8 693.9864 
L 1244.16 693.9864 
L 1244.16 93.5712 
L 172.8 93.5712 
z
" style="fill:#ffffff;"/>
   </g>
   <g id="matplotlib.axis_1">
    <g id="xtick_1">
     <g id="line2d_1">
      <defs>
       <path d="M 0 0 
L 0 3.5 
" id="mdaf96208b1" style="stroke:#000000;stroke-width:0.8;"/>
      </defs>
      <g>
       <use style="stroke:#000000;stroke-width:0.8;" x="221.498182" xlink:href="#mdaf96208b1" y="693.9864"/>
      </g>
     </g>
     <g id="text_1">
      <!-- 0 -->
      <defs>
       <path d="M 31.78125 66.40625 
Q 24.171875 66.40625 20.328125 58.90625 
Q 16.5 51.421875 16.5 36.375 
Q 16.5 21.390625 20.328125 13.890625 
Q 24.171875 6.390625 31.78125 6.390625 
Q 39.453125 6.390625 43.28125 13.890625 
Q 47.125 21.390625 47.125 36.375 
Q 47.125 51.421875 43.28125 58.90625 
Q 39.453125 66.40625 31.78125 66.40625 
z
M 31.78125 74.21875 
Q 44.046875 74.21875 50.515625 64.515625 
Q 56.984375 54.828125 56.984375 36.375 
Q 56.984375 17.96875 50.515625 8.265625 
Q 44.046875 -1.421875 31.78125 -1.421875 
Q 19.53125 -1.421875 13.0625 8.265625 
Q 6.59375 17.96875 6.59375 36.375 
Q 6.59375 54.828125 13.0625 64.515625 
Q 19.53125 74.21875 31.78125 74.21875 
z
" id="DejaVuSans-48"/>
      </defs>
      <g transform="translate(218.316932 708.584838)scale(0.1 -0.1)">
       <use xlink:href="#DejaVuSans-48"/>
      </g>
     </g>
    </g>
    <g id="xtick_2">
     <g id="line2d_2">
      <g>
       <use style="stroke:#000000;stroke-width:0.8;" x="409.37697" xlink:href="#mdaf96208b1" y="693.9864"/>
      </g>
     </g>
     <g id="text_2">
      <!-- 1000 -->
      <defs>
       <path d="M 12.40625 8.296875 
L 28.515625 8.296875 
L 28.515625 63.921875 
L 10.984375 60.40625 
L 10.984375 69.390625 
L 28.421875 72.90625 
L 38.28125 72.90625 
L 38.28125 8.296875 
L 54.390625 8.296875 
L 54.390625 0 
L 12.40625 0 
z
" id="DejaVuSans-49"/>
      </defs>
      <g transform="translate(396.65197 708.584838)scale(0.1 -0.1)">
       <use xlink:href="#DejaVuSans-49"/>
       <use x="63.623047" xlink:href="#DejaVuSans-48"/>
       <use x="127.246094" xlink:href="#DejaVuSans-48"/>
       <use x="190.869141" xlink:href="#DejaVuSans-48"/>
      </g>
     </g>
    </g>
    <g id="xtick_3">
     <g id="line2d_3">
      <g>
       <use style="stroke:#000000;stroke-width:0.8;" x="597.255758" xlink:href="#mdaf96208b1" y="693.9864"/>
      </g>
     </g>
     <g id="text_3">
      <!-- 2000 -->
      <defs>
       <path d="M 19.1875 8.296875 
L 53.609375 8.296875 
L 53.609375 0 
L 7.328125 0 
L 7.328125 8.296875 
Q 12.9375 14.109375 22.625 23.890625 
Q 32.328125 33.6875 34.8125 36.53125 
Q 39.546875 41.84375 41.421875 45.53125 
Q 43.3125 49.21875 43.3125 52.78125 
Q 43.3125 58.59375 39.234375 62.25 
Q 35.15625 65.921875 28.609375 65.921875 
Q 23.96875 65.921875 18.8125 64.3125 
Q 13.671875 62.703125 7.8125 59.421875 
L 7.8125 69.390625 
Q 13.765625 71.78125 18.9375 73 
Q 24.125 74.21875 28.421875 74.21875 
Q 39.75 74.21875 46.484375 68.546875 
Q 53.21875 62.890625 53.21875 53.421875 
Q 53.21875 48.921875 51.53125 44.890625 
Q 49.859375 40.875 45.40625 35.40625 
Q 44.1875 33.984375 37.640625 27.21875 
Q 31.109375 20.453125 19.1875 8.296875 
z
" id="DejaVuSans-50"/>
      </defs>
      <g transform="translate(584.530758 708.584838)scale(0.1 -0.1)">
       <use xlink:href="#DejaVuSans-50"/>
       <use x="63.623047" xlink:href="#DejaVuSans-48"/>
       <use x="127.246094" xlink:href="#DejaVuSans-48"/>
       <use x="190.869141" xlink:href="#DejaVuSans-48"/>
      </g>
     </g>
    </g>
    <g id="xtick_4">
     <g id="line2d_4">
      <g>
       <use style="stroke:#000000;stroke-width:0.8;" x="785.134545" xlink:href="#mdaf96208b1" y="693.9864"/>
      </g>
     </g>
     <g id="text_4">
      <!-- 3000 -->
      <defs>
       <path d="M 40.578125 39.3125 
Q 47.65625 37.796875 51.625 33 
Q 55.609375 28.21875 55.609375 21.1875 
Q 55.609375 10.40625 48.1875 4.484375 
Q 40.765625 -1.421875 27.09375 -1.421875 
Q 22.515625 -1.421875 17.65625 -0.515625 
Q 12.796875 0.390625 7.625 2.203125 
L 7.625 11.71875 
Q 11.71875 9.328125 16.59375 8.109375 
Q 21.484375 6.890625 26.8125 6.890625 
Q 36.078125 6.890625 40.9375 10.546875 
Q 45.796875 14.203125 45.796875 21.1875 
Q 45.796875 27.640625 41.28125 31.265625 
Q 36.765625 34.90625 28.71875 34.90625 
L 20.21875 34.90625 
L 20.21875 43.015625 
L 29.109375 43.015625 
Q 36.375 43.015625 40.234375 45.921875 
Q 44.09375 48.828125 44.09375 54.296875 
Q 44.09375 59.90625 40.109375 62.90625 
Q 36.140625 65.921875 28.71875 65.921875 
Q 24.65625 65.921875 20.015625 65.03125 
Q 15.375 64.15625 9.8125 62.3125 
L 9.8125 71.09375 
Q 15.4375 72.65625 20.34375 73.4375 
Q 25.25 74.21875 29.59375 74.21875 
Q 40.828125 74.21875 47.359375 69.109375 
Q 53.90625 64.015625 53.90625 55.328125 
Q 53.90625 49.265625 50.4375 45.09375 
Q 46.96875 40.921875 40.578125 39.3125 
z
" id="DejaVuSans-51"/>
      </defs>
      <g transform="translate(772.409545 708.584838)scale(0.1 -0.1)">
       <use xlink:href="#DejaVuSans-51"/>
       <use x="63.623047" xlink:href="#DejaVuSans-48"/>
       <use x="127.246094" xlink:href="#DejaVuSans-48"/>
       <use x="190.869141" xlink:href="#DejaVuSans-48"/>
      </g>
     </g>
    </g>
    <g id="xtick_5">
     <g id="line2d_5">
      <g>
       <use style="stroke:#000000;stroke-width:0.8;" x="973.013333" xlink:href="#mdaf96208b1" y="693.9864"/>
      </g>
     </g>
     <g id="text_5">
      <!-- 4000 -->
      <defs>
       <path d="M 37.796875 64.3125 
L 12.890625 25.390625 
L 37.796875 25.390625 
z
M 35.203125 72.90625 
L 47.609375 72.90625 
L 47.609375 25.390625 
L 58.015625 25.390625 
L 58.015625 17.1875 
L 47.609375 17.1875 
L 47.609375 0 
L 37.796875 0 
L 37.796875 17.1875 
L 4.890625 17.1875 
L 4.890625 26.703125 
z
" id="DejaVuSans-52"/>
      </defs>
      <g transform="translate(960.288333 708.584838)scale(0.1 -0.1)">
       <use xlink:href="#DejaVuSans-52"/>
       <use x="63.623047" xlink:href="#DejaVuSans-48"/>
       <use x="127.246094" xlink:href="#DejaVuSans-48"/>
       <use x="190.869141" xlink:href="#DejaVuSans-48"/>
      </g>
     </g>
    </g>
    <g id="xtick_6">
     <g id="line2d_6">
      <g>
       <use style="stroke:#000000;stroke-width:0.8;" x="1160.892121" xlink:href="#mdaf96208b1" y="693.9864"/>
      </g>
     </g>
     <g id="text_6">
      <!-- 5000 -->
      <defs>
       <path d="M 10.796875 72.90625 
L 49.515625 72.90625 
L 49.515625 64.59375 
L 19.828125 64.59375 
L 19.828125 46.734375 
Q 21.96875 47.46875 24.109375 47.828125 
Q 26.265625 48.1875 28.421875 48.1875 
Q 40.625 48.1875 47.75 41.5 
Q 54.890625 34.8125 54.890625 23.390625 
Q 54.890625 11.625 47.5625 5.09375 
Q 40.234375 -1.421875 26.90625 -1.421875 
Q 22.3125 -1.421875 17.546875 -0.640625 
Q 12.796875 0.140625 7.71875 1.703125 
L 7.71875 11.625 
Q 12.109375 9.234375 16.796875 8.0625 
Q 21.484375 6.890625 26.703125 6.890625 
Q 35.15625 6.890625 40.078125 11.328125 
Q 45.015625 15.765625 45.015625 23.390625 
Q 45.015625 31 40.078125 35.4375 
Q 35.15625 39.890625 26.703125 39.890625 
Q 22.75 39.890625 18.8125 39.015625 
Q 14.890625 38.140625 10.796875 36.28125 
z
" id="DejaVuSans-53"/>
      </defs>
      <g transform="translate(1148.167121 708.584838)scale(0.1 -0.1)">
       <use xlink:href="#DejaVuSans-53"/>
       <use x="63.623047" xlink:href="#DejaVuSans-48"/>
       <use x="127.246094" xlink:href="#DejaVuSans-48"/>
       <use x="190.869141" xlink:href="#DejaVuSans-48"/>
      </g>
     </g>
    </g>
   </g>
   <g id="matplotlib.axis_2">
    <g id="ytick_1">
     <g id="line2d_7">
      <defs>
       <path d="M 0 0 
L -3.5 0 
" id="mc059299c92" style="stroke:#000000;stroke-width:0.8;"/>
      </defs>
      <g>
       <use style="stroke:#000000;stroke-width:0.8;" x="172.8" xlink:href="#mc059299c92" y="646.654092"/>
      </g>
     </g>
     <g id="text_7">
      <!-- −0.12 -->
      <defs>
       <path d="M 10.59375 35.5 
L 73.1875 35.5 
L 73.1875 27.203125 
L 10.59375 27.203125 
z
" id="DejaVuSans-8722"/>
       <path d="M 10.6875 12.40625 
L 21 12.40625 
L 21 0 
L 10.6875 0 
z
" id="DejaVuSans-46"/>
      </defs>
      <g transform="translate(135.154687 650.45331)scale(0.1 -0.1)">
       <use xlink:href="#DejaVuSans-8722"/>
       <use x="83.789062" xlink:href="#DejaVuSans-48"/>
       <use x="147.412109" xlink:href="#DejaVuSans-46"/>
       <use x="179.199219" xlink:href="#DejaVuSans-49"/>
       <use x="242.822266" xlink:href="#DejaVuSans-50"/>
      </g>
     </g>
    </g>
    <g id="ytick_2">
     <g id="line2d_8">
      <g>
       <use style="stroke:#000000;stroke-width:0.8;" x="172.8" xlink:href="#mc059299c92" y="561.887341"/>
      </g>
     </g>
     <g id="text_8">
      <!-- −0.10 -->
      <g transform="translate(135.154687 565.686559)scale(0.1 -0.1)">
       <use xlink:href="#DejaVuSans-8722"/>
       <use x="83.789062" xlink:href="#DejaVuSans-48"/>
       <use x="147.412109" xlink:href="#DejaVuSans-46"/>
       <use x="179.199219" xlink:href="#DejaVuSans-49"/>
       <use x="242.822266" xlink:href="#DejaVuSans-48"/>
      </g>
     </g>
    </g>
    <g id="ytick_3">
     <g id="line2d_9">
      <g>
       <use style="stroke:#000000;stroke-width:0.8;" x="172.8" xlink:href="#mc059299c92" y="477.12059"/>
      </g>
     </g>
     <g id="text_9">
      <!-- −0.08 -->
      <defs>
       <path d="M 31.78125 34.625 
Q 24.75 34.625 20.71875 30.859375 
Q 16.703125 27.09375 16.703125 20.515625 
Q 16.703125 13.921875 20.71875 10.15625 
Q 24.75 6.390625 31.78125 6.390625 
Q 38.8125 6.390625 42.859375 10.171875 
Q 46.921875 13.96875 46.921875 20.515625 
Q 46.921875 27.09375 42.890625 30.859375 
Q 38.875 34.625 31.78125 34.625 
z
M 21.921875 38.8125 
Q 15.578125 40.375 12.03125 44.71875 
Q 8.5 49.078125 8.5 55.328125 
Q 8.5 64.0625 14.71875 69.140625 
Q 20.953125 74.21875 31.78125 74.21875 
Q 42.671875 74.21875 48.875 69.140625 
Q 55.078125 64.0625 55.078125 55.328125 
Q 55.078125 49.078125 51.53125 44.71875 
Q 48 40.375 41.703125 38.8125 
Q 48.828125 37.15625 52.796875 32.3125 
Q 56.78125 27.484375 56.78125 20.515625 
Q 56.78125 9.90625 50.3125 4.234375 
Q 43.84375 -1.421875 31.78125 -1.421875 
Q 19.734375 -1.421875 13.25 4.234375 
Q 6.78125 9.90625 6.78125 20.515625 
Q 6.78125 27.484375 10.78125 32.3125 
Q 14.796875 37.15625 21.921875 38.8125 
z
M 18.3125 54.390625 
Q 18.3125 48.734375 21.84375 45.5625 
Q 25.390625 42.390625 31.78125 42.390625 
Q 38.140625 42.390625 41.71875 45.5625 
Q 45.3125 48.734375 45.3125 54.390625 
Q 45.3125 60.0625 41.71875 63.234375 
Q 38.140625 66.40625 31.78125 66.40625 
Q 25.390625 66.40625 21.84375 63.234375 
Q 18.3125 60.0625 18.3125 54.390625 
z
" id="DejaVuSans-56"/>
      </defs>
      <g transform="translate(135.154687 480.919808)scale(0.1 -0.1)">
       <use xlink:href="#DejaVuSans-8722"/>
       <use x="83.789062" xlink:href="#DejaVuSans-48"/>
       <use x="147.412109" xlink:href="#DejaVuSans-46"/>
       <use x="179.199219" xlink:href="#DejaVuSans-48"/>
       <use x="242.822266" xlink:href="#DejaVuSans-56"/>
      </g>
     </g>
    </g>
    <g id="ytick_4">
     <g id="line2d_10">
      <g>
       <use style="stroke:#000000;stroke-width:0.8;" x="172.8" xlink:href="#mc059299c92" y="392.353839"/>
      </g>
     </g>
     <g id="text_10">
      <!-- −0.06 -->
      <defs>
       <path d="M 33.015625 40.375 
Q 26.375 40.375 22.484375 35.828125 
Q 18.609375 31.296875 18.609375 23.390625 
Q 18.609375 15.53125 22.484375 10.953125 
Q 26.375 6.390625 33.015625 6.390625 
Q 39.65625 6.390625 43.53125 10.953125 
Q 47.40625 15.53125 47.40625 23.390625 
Q 47.40625 31.296875 43.53125 35.828125 
Q 39.65625 40.375 33.015625 40.375 
z
M 52.59375 71.296875 
L 52.59375 62.3125 
Q 48.875 64.0625 45.09375 64.984375 
Q 41.3125 65.921875 37.59375 65.921875 
Q 27.828125 65.921875 22.671875 59.328125 
Q 17.53125 52.734375 16.796875 39.40625 
Q 19.671875 43.65625 24.015625 45.921875 
Q 28.375 48.1875 33.59375 48.1875 
Q 44.578125 48.1875 50.953125 41.515625 
Q 57.328125 34.859375 57.328125 23.390625 
Q 57.328125 12.15625 50.6875 5.359375 
Q 44.046875 -1.421875 33.015625 -1.421875 
Q 20.359375 -1.421875 13.671875 8.265625 
Q 6.984375 17.96875 6.984375 36.375 
Q 6.984375 53.65625 15.1875 63.9375 
Q 23.390625 74.21875 37.203125 74.21875 
Q 40.921875 74.21875 44.703125 73.484375 
Q 48.484375 72.75 52.59375 71.296875 
z
" id="DejaVuSans-54"/>
      </defs>
      <g transform="translate(135.154687 396.153057)scale(0.1 -0.1)">
       <use xlink:href="#DejaVuSans-8722"/>
       <use x="83.789062" xlink:href="#DejaVuSans-48"/>
       <use x="147.412109" xlink:href="#DejaVuSans-46"/>
       <use x="179.199219" xlink:href="#DejaVuSans-48"/>
       <use x="242.822266" xlink:href="#DejaVuSans-54"/>
      </g>
     </g>
    </g>
    <g id="ytick_5">
     <g id="line2d_11">
      <g>
       <use style="stroke:#000000;stroke-width:0.8;" x="172.8" xlink:href="#mc059299c92" y="307.587088"/>
      </g>
     </g>
     <g id="text_11">
      <!-- −0.04 -->
      <g transform="translate(135.154687 311.386306)scale(0.1 -0.1)">
       <use xlink:href="#DejaVuSans-8722"/>
       <use x="83.789062" xlink:href="#DejaVuSans-48"/>
       <use x="147.412109" xlink:href="#DejaVuSans-46"/>
       <use x="179.199219" xlink:href="#DejaVuSans-48"/>
       <use x="242.822266" xlink:href="#DejaVuSans-52"/>
      </g>
     </g>
    </g>
    <g id="ytick_6">
     <g id="line2d_12">
      <g>
       <use style="stroke:#000000;stroke-width:0.8;" x="172.8" xlink:href="#mc059299c92" y="222.820337"/>
      </g>
     </g>
     <g id="text_12">
      <!-- −0.02 -->
      <g transform="translate(135.154687 226.619555)scale(0.1 -0.1)">
       <use xlink:href="#DejaVuSans-8722"/>
       <use x="83.789062" xlink:href="#DejaVuSans-48"/>
       <use x="147.412109" xlink:href="#DejaVuSans-46"/>
       <use x="179.199219" xlink:href="#DejaVuSans-48"/>
       <use x="242.822266" xlink:href="#DejaVuSans-50"/>
      </g>
     </g>
    </g>
    <g id="ytick_7">
     <g id="line2d_13">
      <g>
       <use style="stroke:#000000;stroke-width:0.8;" x="172.8" xlink:href="#mc059299c92" y="138.053586"/>
      </g>
     </g>
     <g id="text_13">
      <!-- 0.00 -->
      <g transform="translate(143.534375 141.852805)scale(0.1 -0.1)">
       <use xlink:href="#DejaVuSans-48"/>
       <use x="63.623047" xlink:href="#DejaVuSans-46"/>
       <use x="95.410156" xlink:href="#DejaVuSans-48"/>
       <use x="159.033203" xlink:href="#DejaVuSans-48"/>
      </g>
     </g>
    </g>
   </g>
   <g id="line2d_14">
    <path clip-path="url(#p9d043db1ef)" d="M 221.498182 138.053586 
L 222.813333 138.138521 
L 224.316364 138.445318 
L 224.88 138.801858 
L 225.443636 139.544745 
L 226.007273 140.720393 
L 226.758788 142.836237 
L 227.322424 145.125998 
L 227.886061 148.668342 
L 228.449697 153.942769 
L 229.201212 163.4313 
L 229.952727 175.187164 
L 230.704242 190.807121 
L 231.455758 212.311884 
L 232.770909 259.146604 
L 233.710303 298.400814 
L 234.837576 356.452058 
L 237.655758 501.202046 
L 238.595152 544.163781 
L 239.722424 582.878721 
L 241.037576 624.065976 
L 241.601212 635.29269 
L 242.164848 641.978982 
L 243.104242 651.807184 
L 244.043636 663.05863 
L 244.419394 665.574647 
L 244.795152 666.474244 
L 245.170909 666.462474 
L 245.358788 666.474285 
L 245.546667 666.6948 
L 246.298182 664.629878 
L 246.673939 664.260391 
L 246.861818 664.322185 
L 247.425455 665.047634 
L 247.801212 665.309235 
L 247.989091 665.182419 
L 248.364848 664.28637 
L 249.116364 660.90945 
L 249.492121 659.514377 
L 249.867879 658.838062 
L 250.243636 658.75273 
L 250.619394 658.72568 
L 250.807273 658.524595 
L 251.18303 657.430283 
L 251.558788 655.323649 
L 252.686061 647.566315 
L 253.061818 646.17466 
L 253.813333 644.09864 
L 254.189091 642.036093 
L 254.752727 636.808468 
L 255.88 625.191413 
L 257.38303 614.065118 
L 258.134545 603.200862 
L 258.886061 592.655845 
L 260.57697 573.574463 
L 262.455758 542.183455 
L 263.207273 532.436797 
L 263.770909 522.43284 
L 265.273939 492.597521 
L 266.589091 471.98315 
L 269.031515 424.403758 
L 269.78303 410.955713 
L 271.661818 372.677077 
L 272.789091 354.46414 
L 274.667879 318.330308 
L 275.98303 298.88353 
L 277.486061 272.578498 
L 279.740606 242.443029 
L 280.492121 232.348041 
L 281.243636 225.482465 
L 281.995152 218.38939 
L 283.686061 200.306795 
L 285.564848 187.801864 
L 286.316364 182.001441 
L 286.88 179.438335 
L 288.195152 175.362415 
L 289.322424 170.107521 
L 289.698182 169.26718 
L 290.073939 169.026222 
L 290.825455 169.000673 
L 291.201212 168.575392 
L 292.328485 166.550861 
L 292.516364 166.510178 
L 292.704242 166.615742 
L 293.08 167.200789 
L 294.019394 169.080229 
L 294.395152 169.368181 
L 295.146667 169.622915 
L 295.522424 170.163743 
L 295.898182 171.183375 
L 297.401212 176.226211 
L 298.340606 178.253044 
L 298.904242 180.336335 
L 300.407273 187.05835 
L 301.534545 190.809673 
L 302.286061 194.606102 
L 303.225455 199.419256 
L 305.104242 207.312835 
L 306.231515 213.310992 
L 308.298182 222.113518 
L 309.237576 226.819242 
L 309.989091 229.362468 
L 310.740606 232.056534 
L 312.619394 240.131898 
L 313.746667 243.237985 
L 315.625455 250.043969 
L 316.752727 252.2226 
L 317.504242 254.82475 
L 317.692121 255.498221 
L 318.067879 258.733261 
L 318.631515 264.348932 
L 318.819394 265.34554 
L 319.007273 265.632827 
L 319.195152 265.205483 
L 319.570909 262.71431 
L 320.134545 258.438631 
L 320.322424 257.83511 
L 320.510303 257.878667 
L 320.698182 258.562537 
L 321.261818 262.870152 
L 321.637576 265.01911 
L 321.825455 265.133468 
L 322.013333 264.441097 
L 322.389091 260.770388 
L 323.516364 245.164622 
L 324.08 241.353216 
L 324.455758 238.657242 
L 324.831515 233.959714 
L 325.395152 222.181205 
L 326.710303 191.252247 
L 328.025455 165.819237 
L 328.964848 146.394332 
L 329.528485 138.418545 
L 330.467879 129.085325 
L 331.031515 125.484488 
L 331.219394 125.078739 
L 331.407273 125.21146 
L 331.595152 125.905501 
L 331.970909 128.777831 
L 333.849697 148.810363 
L 334.225455 155.54685 
L 334.789091 170.084323 
L 335.728485 194.916254 
L 336.292121 204.140711 
L 336.855758 212.493662 
L 337.419394 224.920245 
L 338.546667 253.621904 
L 338.922424 258.299117 
L 339.298182 260.377237 
L 339.673939 261.761284 
L 340.049697 264.486035 
L 340.425455 269.55982 
L 341.552727 287.347304 
L 341.928485 289.487553 
L 342.492121 295.668416 
L 342.867879 299.289394 
L 343.055758 300.210959 
L 343.243636 300.39958 
L 343.431515 299.889694 
L 343.807273 297.407328 
L 344.370909 293.702601 
L 344.558788 293.366775 
L 344.746667 293.652994 
L 345.122424 295.781396 
L 345.686061 299.510632 
L 345.873939 299.808789 
L 346.061818 299.297155 
L 346.437576 295.703625 
L 347.001212 285.870605 
L 347.752727 273.395839 
L 348.88 258.749978 
L 349.443636 244.708456 
L 351.134545 195.953167 
L 352.449697 163.157466 
L 353.201212 146.089394 
L 353.764848 137.636813 
L 354.516364 130.222518 
L 354.892121 127.722228 
L 355.08 126.97487 
L 355.267879 126.702689 
L 355.455758 126.998154 
L 355.643636 127.915952 
L 356.019394 131.559746 
L 356.770909 143.01223 
L 358.086061 164.529977 
L 358.649697 179.614838 
L 360.152727 225.72468 
L 361.467879 253.467041 
L 362.78303 289.590928 
L 363.158788 294.272556 
L 363.534545 296.515008 
L 363.910303 298.350463 
L 364.286061 301.70895 
L 364.849697 310.768178 
L 365.601212 322.990348 
L 365.789091 324.513733 
L 365.97697 324.858214 
L 366.352727 327.56691 
L 366.916364 332.926203 
L 367.104242 333.938758 
L 367.292121 334.24524 
L 367.48 333.804597 
L 367.855758 331.061145 
L 368.607273 324.364008 
L 368.795152 323.714982 
L 368.98303 323.656593 
L 369.170909 324.101397 
L 369.734545 326.283543 
L 369.922424 326.37254 
L 370.110303 325.732756 
L 370.486061 321.840466 
L 371.049697 310.561808 
L 371.989091 290.73498 
L 372.928485 274.888315 
L 373.492121 259.712888 
L 375.558788 193.846938 
L 377.625455 142.16652 
L 378.189091 134.977718 
L 378.752727 130.120242 
L 379.128485 128.101677 
L 379.316364 127.674585 
L 379.504242 127.771854 
L 379.692121 128.475372 
L 380.067879 131.800966 
L 380.631515 140.510632 
L 382.322424 171.320674 
L 382.886061 187.732495 
L 384.201212 230.666862 
L 386.08 275.018633 
L 386.831515 295.663294 
L 387.207273 301.530292 
L 387.58303 304.394041 
L 388.146667 307.020352 
L 388.522424 310.500879 
L 389.086061 319.651166 
L 389.649697 329.198361 
L 389.837576 331.30342 
L 390.77697 334.821502 
L 391.340606 335.881179 
L 391.904242 336.721274 
L 392.28 337.643093 
L 392.843636 339.743932 
L 393.595152 342.599866 
L 393.970909 343.418562 
L 394.346667 343.786898 
L 395.098182 344.246935 
L 395.473939 344.870904 
L 396.601212 347.43281 
L 396.789091 347.57466 
L 396.97697 347.573317 
L 397.352727 347.198923 
L 398.292121 345.82265 
L 398.667879 345.744429 
L 399.419394 345.894213 
L 399.607273 345.750964 
L 399.98303 345.030928 
L 400.546667 342.989018 
L 401.298182 340.077951 
L 401.861818 338.806818 
L 402.425455 337.790251 
L 402.801212 336.6504 
L 403.364848 333.839585 
L 404.492121 327.512442 
L 405.243636 325.094633 
L 405.807273 322.927548 
L 406.370909 319.462602 
L 407.498182 311.893692 
L 408.061818 309.623692 
L 408.625455 307.496238 
L 409.189091 304.253144 
L 410.692121 293.953068 
L 412.007273 288.423779 
L 412.758788 283.017898 
L 413.510303 278.001694 
L 413.886061 276.36387 
L 414.261818 272.221246 
L 414.449697 271.299079 
L 414.637576 271.055593 
L 414.825455 271.301912 
L 415.201212 272.197969 
L 415.389091 272.281225 
L 415.57697 271.808365 
L 415.764848 270.647598 
L 416.140606 266.271119 
L 417.267879 250.210289 
L 417.643636 248.744636 
L 417.831515 248.701015 
L 418.207273 248.808937 
L 418.395152 248.423124 
L 418.58303 247.448859 
L 418.958788 243.351179 
L 419.522424 232.962954 
L 420.273939 219.702722 
L 420.837576 214.359024 
L 421.401212 209.695462 
L 421.77697 204.553749 
L 422.528485 189.107268 
L 423.28 174.518378 
L 424.031515 164.990284 
L 424.78303 155.371442 
L 425.722424 142.81087 
L 426.286061 138.230375 
L 427.037576 134.487579 
L 427.601212 132.374991 
L 427.789091 132.045823 
L 427.97697 132.058913 
L 428.164848 132.488038 
L 428.540606 134.66975 
L 430.231515 148.990174 
L 430.607273 151.719491 
L 430.98303 156.150217 
L 431.546667 166.91151 
L 432.486061 186.228007 
L 432.861818 190.608068 
L 433.801212 198.542103 
L 434.17697 204.565129 
L 435.492121 230.324571 
L 435.867879 232.715365 
L 436.055758 233.065537 
L 436.431515 233.305715 
L 436.619394 233.744245 
L 436.807273 234.69941 
L 437.18303 238.575431 
L 437.934545 251.334338 
L 438.310303 249.42376 
L 438.498182 249.52623 
L 438.686061 250.378958 
L 439.061818 253.818441 
L 439.625455 259.470367 
L 439.813333 260.394915 
L 440.001212 260.553324 
L 440.189091 259.92903 
L 440.564848 256.7991 
L 441.316364 249.55281 
L 441.504242 248.803992 
L 441.692121 248.640285 
L 441.88 248.963009 
L 442.443636 250.644679 
L 442.631515 250.551354 
L 442.819394 249.756208 
L 443.195152 245.744306 
L 443.758788 235.080814 
L 444.510303 221.030047 
L 445.073939 214.541284 
L 445.637576 208.110343 
L 446.201212 197.596156 
L 447.516364 167.896684 
L 448.267879 157.699331 
L 449.770909 140.666406 
L 450.146667 138.624175 
L 450.334545 138.158492 
L 450.522424 138.006938 
L 450.710303 138.108819 
L 451.086061 138.856737 
L 451.461818 140.192586 
L 451.837576 142.384824 
L 452.213333 146.041683 
L 452.77697 155.042312 
L 454.655758 190.473694 
L 455.219394 202.923177 
L 457.098182 251.924239 
L 458.037576 265.359109 
L 458.601212 278.243441 
L 459.352727 296.302619 
L 459.728485 301.643061 
L 460.104242 303.927605 
L 460.667879 305.042642 
L 460.855758 305.864756 
L 461.231515 309.316507 
L 461.795152 318.635303 
L 461.98303 322.089662 
L 462.358788 318.741043 
L 462.546667 317.979848 
L 462.734545 317.939119 
L 462.922424 318.567953 
L 463.861818 324.067785 
L 464.049697 323.792907 
L 464.237576 322.678301 
L 464.613333 318.17447 
L 465.740606 301.689738 
L 466.116364 299.301027 
L 466.492121 297.374413 
L 466.867879 293.853015 
L 467.243636 287.263711 
L 467.807273 271.990818 
L 468.746667 245.329756 
L 470.437576 205.893251 
L 471.564848 172.800546 
L 472.128485 161.772611 
L 473.067879 148.313613 
L 473.631515 141.725404 
L 474.007273 138.98934 
L 474.195152 138.288196 
L 474.38303 138.030068 
L 474.570909 138.1744 
L 474.946667 139.430386 
L 475.510303 142.999568 
L 476.073939 148.737568 
L 476.637576 158.239337 
L 477.57697 181.292323 
L 478.516364 202.079707 
L 479.267879 219.197353 
L 480.207273 248.944761 
L 480.770909 264.832557 
L 481.334545 274.822082 
L 482.273939 288.082216 
L 483.025455 305.453897 
L 483.589091 317.393803 
L 483.964848 321.737085 
L 484.340606 323.185872 
L 484.716364 323.384817 
L 484.904242 323.704227 
L 485.092121 324.494918 
L 485.467879 328.006573 
L 486.219394 337.907569 
L 487.722424 343.359093 
L 488.098182 343.907481 
L 488.849697 344.737429 
L 489.225455 345.56375 
L 490.540606 349.334547 
L 490.916364 349.58804 
L 491.292121 349.425803 
L 491.855758 349.076426 
L 492.231515 349.176516 
L 492.795152 349.862299 
L 493.170909 350.286226 
L 493.358788 350.358321 
L 493.546667 350.294754 
L 493.922424 349.727394 
L 494.486061 348.093697 
L 495.049697 346.513455 
L 495.425455 345.89628 
L 496.364848 344.847955 
L 496.740606 343.766112 
L 497.304242 341.110819 
L 498.243636 336.504654 
L 498.807273 334.871975 
L 499.370909 333.274651 
L 499.746667 331.615776 
L 500.498182 326.725588 
L 501.249697 322.035116 
L 501.813333 319.778935 
L 502.37697 317.714443 
L 502.940606 314.564564 
L 504.443636 304.084788 
L 505.946667 297.134052 
L 507.637576 285.654502 
L 508.764848 281.01512 
L 509.516364 275.76512 
L 510.08 271.749432 
L 510.831515 258.682084 
L 511.207273 254.927963 
L 511.58303 253.49251 
L 511.958788 252.874662 
L 512.146667 252.191539 
L 512.522424 248.927797 
L 512.898182 242.594674 
L 514.401212 211.886005 
L 515.528485 199.078832 
L 516.092121 186.494329 
L 517.031515 163.960456 
L 517.595152 156.247622 
L 518.722424 145.154422 
L 519.849697 131.320391 
L 520.225455 129.457411 
L 520.413333 129.206527 
L 520.601212 129.322433 
L 520.97697 130.281186 
L 521.728485 133.311984 
L 522.292121 136.810296 
L 522.855758 142.298291 
L 524.546667 162.902413 
L 525.110303 172.318793 
L 526.425455 196.529732 
L 526.989091 202.056733 
L 527.552727 207.214254 
L 528.116364 215.734576 
L 529.055758 232.796115 
L 529.431515 236.343652 
L 529.619394 237.132202 
L 529.807273 237.431206 
L 530.18303 237.459511 
L 530.370909 237.694135 
L 530.558788 238.376533 
L 530.934545 241.578073 
L 531.498182 250.235605 
L 532.061818 258.371754 
L 532.437576 260.729719 
L 532.625455 260.895554 
L 532.813333 260.585703 
L 533.189091 259.559832 
L 533.37697 259.404041 
L 533.564848 259.813093 
L 533.752727 260.943028 
L 534.316364 266.249235 
L 535.067879 270.124199 
L 536.007273 275.124033 
L 536.570909 277.130732 
L 537.510303 280.011974 
L 538.449697 284.126937 
L 539.013333 286.251419 
L 539.57697 287.453878 
L 540.516364 288.823897 
L 541.08 290.310348 
L 541.831515 292.366 
L 542.207273 292.864926 
L 542.58303 292.922294 
L 543.334545 292.603443 
L 543.710303 292.760838 
L 544.273939 293.535422 
L 544.837576 294.225036 
L 545.025455 294.2666 
L 545.401212 293.976738 
L 545.964848 292.899438 
L 546.528485 291.970894 
L 546.904242 291.812901 
L 547.843636 292.065973 
L 548.219394 291.630633 
L 548.595152 290.703172 
L 549.534545 287.96745 
L 549.910303 287.46302 
L 550.473939 287.278356 
L 550.849697 287.047559 
L 551.225455 286.367205 
L 551.789091 284.456856 
L 552.540606 281.77141 
L 552.916364 281.037828 
L 553.48 280.588361 
L 553.855758 280.222146 
L 554.231515 279.417861 
L 554.795152 277.307335 
L 555.546667 274.324059 
L 555.922424 273.459539 
L 556.486061 272.877812 
L 556.861818 272.467234 
L 557.237576 271.6385 
L 557.801212 269.489119 
L 558.17697 267.821486 
L 558.740606 259.639356 
L 559.304242 251.389832 
L 559.68 248.463028 
L 560.055758 247.520704 
L 560.243636 247.302699 
L 560.431515 246.886337 
L 560.619394 246.00264 
L 560.995152 242.071466 
L 561.370909 234.960674 
L 562.686061 205.151636 
L 564.001212 186.781831 
L 564.752727 167.861997 
L 565.504242 150.459501 
L 566.067879 143.115586 
L 568.134545 124.95695 
L 568.322424 124.359144 
L 568.510303 124.235946 
L 568.698182 124.569736 
L 569.073939 126.391891 
L 569.637576 130.972006 
L 570.389091 139.339225 
L 571.140606 151.265513 
L 573.58303 197.26786 
L 574.522424 219.271934 
L 575.086061 227.457509 
L 576.213333 239.32213 
L 577.716364 263.286219 
L 577.904242 264.093869 
L 578.092121 264.287976 
L 578.28 264.060811 
L 578.655758 263.34929 
L 578.843636 263.379211 
L 579.031515 263.942559 
L 579.407273 267.006474 
L 580.722424 282.699282 
L 580.910303 282.974759 
L 581.098182 282.683894 
L 581.661818 280.782028 
L 581.849697 280.723902 
L 582.037576 281.340793 
L 582.413333 283.349124 
L 582.97697 285.489762 
L 584.667879 293.045006 
L 585.231515 294.240434 
L 585.795152 295.393301 
L 586.358788 297.11775 
L 587.298182 300.142073 
L 587.673939 300.715946 
L 588.049697 300.869768 
L 588.801212 300.908799 
L 589.17697 301.275864 
L 590.304242 302.944245 
L 590.492121 302.958234 
L 590.867879 302.614887 
L 591.995152 300.746424 
L 592.370909 300.659397 
L 593.122424 300.843724 
L 593.498182 300.484737 
L 593.873939 299.608392 
L 595.001212 296.160068 
L 595.37697 295.650618 
L 596.316364 294.88471 
L 596.692121 293.942081 
L 597.443636 290.863823 
L 598.007273 288.822542 
L 598.38303 288.051037 
L 599.322424 286.825798 
L 599.698182 285.726405 
L 600.449697 282.300698 
L 601.013333 279.995959 
L 601.389091 279.080017 
L 602.516364 277.165372 
L 603.08 274.891926 
L 604.019394 270.619121 
L 604.395152 269.653877 
L 605.522424 267.794493 
L 606.086061 265.620001 
L 607.025455 261.451696 
L 607.401212 260.52043 
L 607.964848 259.841949 
L 608.340606 259.33984 
L 608.716364 258.407986 
L 609.28 256.149753 
L 610.031515 253.116479 
L 610.407273 252.285328 
L 610.78303 251.906554 
L 611.346667 251.451806 
L 611.722424 250.71303 
L 612.286061 248.758013 
L 613.037576 246.065254 
L 613.413333 245.378167 
L 613.789091 245.149901 
L 614.352727 244.97151 
L 614.728485 244.454274 
L 615.104242 243.467966 
L 616.043636 240.554765 
L 616.419394 240.033889 
L 616.795152 239.971672 
L 617.358788 240.08345 
L 617.734545 239.794322 
L 618.110303 239.049163 
L 619.049697 236.668393 
L 619.425455 236.317188 
L 619.801212 236.419855 
L 620.364848 236.811508 
L 620.740606 236.739953 
L 621.116364 236.224628 
L 622.055758 234.349931 
L 622.431515 234.15688 
L 622.807273 234.410166 
L 623.558788 235.16648 
L 623.746667 235.1764 
L 624.122424 234.866377 
L 625.061818 233.438342 
L 625.437576 233.38078 
L 625.813333 233.760911 
L 626.564848 234.807853 
L 626.940606 234.884855 
L 627.316364 234.560669 
L 628.067879 233.7014 
L 628.255758 233.667232 
L 628.631515 233.942945 
L 629.758788 235.659091 
L 630.134545 235.656407 
L 630.698182 235.129721 
L 631.073939 234.867758 
L 631.261818 234.871503 
L 631.637576 235.213822 
L 632.952727 237.269141 
L 633.328485 237.171849 
L 634.08 236.655857 
L 634.455758 236.814459 
L 634.831515 237.389898 
L 635.770909 239.15484 
L 636.146667 239.312082 
L 636.522424 239.124717 
L 637.086061 238.797726 
L 637.461818 238.963606 
L 637.837576 239.543202 
L 638.77697 241.362793 
L 639.152727 241.552233 
L 639.528485 241.386277 
L 640.092121 241.056597 
L 640.467879 241.202893 
L 640.843636 241.761924 
L 641.78303 243.577533 
L 642.158788 243.77493 
L 642.534545 243.60587 
L 643.098182 243.238232 
L 643.473939 243.343566 
L 643.849697 243.862538 
L 644.789091 245.62968 
L 645.164848 245.817346 
L 645.540606 245.627479 
L 646.104242 245.196467 
L 646.48 245.24543 
L 646.855758 245.710397 
L 647.795152 247.398817 
L 648.170909 247.565515 
L 648.546667 247.343866 
L 649.110303 246.833843 
L 649.486061 246.816914 
L 649.861818 247.219308 
L 650.801212 248.811959 
L 651.17697 248.952327 
L 651.552727 248.694058 
L 652.304242 248.004241 
L 652.68 248.128493 
L 653.055758 248.644703 
L 653.807273 249.838729 
L 654.18303 249.952369 
L 654.370909 249.846489 
L 654.558788 250.69534 
L 654.746667 250.812618 
L 654.934545 250.135223 
L 655.310303 246.695724 
L 656.061818 237.592679 
L 656.437576 235.474085 
L 656.625455 235.284388 
L 656.813333 235.506993 
L 657.189091 236.218692 
L 657.37697 236.1551 
L 657.564848 235.486537 
L 657.940606 231.824359 
L 658.504242 221.275434 
L 659.255758 206.394562 
L 659.819394 199.841509 
L 660.38303 194.675637 
L 660.758788 189.449767 
L 661.322424 177.912372 
L 662.261818 158.38333 
L 662.825455 151.712029 
L 664.704242 136.681912 
L 665.08 135.570527 
L 665.267879 135.559538 
L 665.455758 135.87092 
L 665.831515 137.246063 
L 666.395152 140.553766 
L 666.958788 145.537085 
L 667.522424 153.378258 
L 670.340606 203.090216 
L 671.467879 229.700866 
L 672.031515 236.538522 
L 672.78303 243.292782 
L 673.158788 248.925206 
L 674.473939 271.6534 
L 674.661818 272.714231 
L 674.849697 273.083201 
L 675.037576 272.944624 
L 675.413333 272.169763 
L 675.601212 272.078186 
L 675.789091 272.490599 
L 675.97697 273.543518 
L 676.352727 277.596694 
L 677.292121 290.38002 
L 677.48 291.518242 
L 677.667879 291.931005 
L 677.855758 291.716835 
L 678.419394 289.551852 
L 678.795152 292.428647 
L 678.98303 292.775875 
L 679.170909 292.322653 
L 679.546667 289.447978 
L 680.298182 282.289537 
L 680.486061 281.492673 
L 680.673939 281.266282 
L 680.861818 281.517873 
L 681.425455 282.949829 
L 681.613333 282.744192 
L 681.801212 281.803801 
L 682.17697 277.34855 
L 682.740606 265.511944 
L 683.492121 249.11769 
L 684.243636 238.186557 
L 684.807273 228.621678 
L 685.370909 214.104558 
L 686.498182 182.460574 
L 687.249697 168.627083 
L 688.940606 142.501374 
L 689.316364 139.546217 
L 689.692121 138.223794 
L 689.88 138.045776 
L 690.067879 138.115459 
L 690.255758 138.396808 
L 690.631515 139.593186 
L 691.007273 141.921643 
L 691.38303 145.898539 
L 691.946667 155.247499 
L 694.389091 205.835343 
L 695.704242 244.015649 
L 696.267879 253.478966 
L 697.019394 264.441461 
L 697.58303 276.815235 
L 698.334545 294.304097 
L 698.710303 299.479159 
L 699.086061 301.519192 
L 699.273939 301.73273 
L 699.649697 301.838804 
L 699.837576 302.26613 
L 700.025455 303.22033 
L 700.401212 307.010589 
L 701.528485 322.713444 
L 701.716364 323.650378 
L 701.904242 323.86715 
L 702.092121 323.50072 
L 702.467879 321.965945 
L 703.031515 323.109843 
L 703.595152 324.057347 
L 703.970909 325.030324 
L 704.722424 327.859845 
L 705.286061 329.732106 
L 705.661818 330.404659 
L 706.037576 330.648615 
L 706.601212 330.802686 
L 706.97697 331.179765 
L 707.540606 332.314757 
L 708.104242 333.432903 
L 708.48 333.665735 
L 708.667879 333.575376 
L 709.043636 333.052355 
L 709.795152 331.704691 
L 710.170909 331.42872 
L 710.734545 331.496998 
L 711.110303 331.429869 
L 711.486061 330.90231 
L 711.861818 329.810156 
L 713.17697 325.101314 
L 714.492121 322.417163 
L 715.055758 319.704589 
L 715.995152 314.701949 
L 716.558788 312.919335 
L 717.310303 310.831301 
L 717.873939 308.027542 
L 719.189091 300.19487 
L 719.752727 298.376389 
L 720.316364 296.571426 
L 720.88 293.635451 
L 722.195152 285.457504 
L 722.758788 283.582271 
L 723.322424 281.831844 
L 723.886061 279.017222 
L 725.201212 271.053426 
L 725.764848 269.291318 
L 726.328485 267.756082 
L 726.516364 267.057679 
L 726.892121 268.563159 
L 727.08 268.846091 
L 727.267879 268.528865 
L 727.455758 267.509934 
L 727.831515 263.505144 
L 728.770909 251.360893 
L 728.958788 250.29984 
L 729.146667 249.887748 
L 729.334545 250.010222 
L 729.898182 251.295169 
L 730.086061 251.139347 
L 730.273939 250.330464 
L 730.649697 246.486571 
L 731.401212 233.210291 
L 731.964848 224.912543 
L 732.528485 220.498757 
L 732.904242 217.845544 
L 733.28 213.570282 
L 733.843636 203.040297 
L 734.970909 179.665989 
L 735.910303 167.105925 
L 736.849697 152.486503 
L 737.601212 142.354726 
L 738.164848 137.71897 
L 739.104242 132.346479 
L 739.48 131.138179 
L 739.667879 131.042871 
L 739.855758 131.383562 
L 740.231515 133.404292 
L 742.486061 152.350825 
L 742.861818 158.445751 
L 744.364848 188.36809 
L 744.928485 193.347611 
L 745.304242 196.847082 
L 745.68 202.305846 
L 746.431515 218.788292 
L 746.995152 229.395811 
L 747.370909 232.811947 
L 747.558788 233.487933 
L 747.934545 233.808983 
L 748.122424 234.000247 
L 748.310303 234.55882 
L 748.686061 237.442934 
L 749.249697 246.013901 
L 749.813333 254.785803 
L 750.189091 257.605848 
L 750.37697 257.877086 
L 750.564848 257.537819 
L 751.316364 260.871324 
L 752.255758 264.461232 
L 753.007273 268.483384 
L 753.946667 273.394922 
L 754.698182 275.907707 
L 755.449697 278.490384 
L 757.140606 285.47115 
L 757.704242 286.47998 
L 758.267879 287.46295 
L 758.831515 289.022652 
L 759.770909 291.774516 
L 760.146667 292.25117 
L 760.522424 292.32369 
L 761.086061 292.212929 
L 761.461818 292.390028 
L 761.837576 292.889139 
L 762.589091 294.106481 
L 762.964848 294.255639 
L 763.340606 293.92329 
L 764.467879 292.221185 
L 764.843636 292.222868 
L 765.595152 292.585324 
L 765.78303 292.514191 
L 766.158788 291.990252 
L 766.722424 290.433223 
L 767.286061 288.870905 
L 767.661818 288.303027 
L 768.037576 288.12856 
L 768.601212 287.975548 
L 768.97697 287.44432 
L 769.352727 286.394398 
L 770.48 282.519081 
L 770.855758 281.936802 
L 771.795152 281.120468 
L 772.170909 280.187702 
L 772.922424 277.155262 
L 773.486061 275.170816 
L 773.861818 274.45304 
L 774.613333 273.74599 
L 774.989091 275.513978 
L 775.364848 277.565439 
L 775.552727 278.012596 
L 775.740606 277.822252 
L 775.928485 276.929919 
L 776.304242 273.326733 
L 777.055758 264.845511 
L 777.243636 263.80727 
L 777.431515 263.441605 
L 777.619394 263.696045 
L 778.370909 266.844861 
L 778.558788 266.854362 
L 778.746667 266.141628 
L 779.122424 262.435484 
L 780.625455 241.197496 
L 781.37697 235.634716 
L 781.752727 230.458947 
L 782.316364 218.30669 
L 783.443636 192.213349 
L 785.134545 160.142396 
L 785.886061 145.516737 
L 786.637576 135.619777 
L 787.57697 126.197208 
L 787.952727 123.718859 
L 788.140606 123.121868 
L 788.328485 123.045089 
L 788.516364 123.495458 
L 788.892121 125.717218 
L 790.019394 134.327505 
L 790.58303 138.273436 
L 790.958788 142.838075 
L 791.522424 154.27902 
L 792.649697 180.266377 
L 793.213333 187.477978 
L 793.77697 194.480786 
L 794.340606 205.980152 
L 795.467879 232.104465 
L 795.843636 235.868335 
L 796.219394 237.31174 
L 796.595152 238.417257 
L 796.970909 241.140967 
L 797.346667 246.292897 
L 798.286061 261.686596 
L 799.225455 269.894227 
L 799.789091 275.98689 
L 799.97697 276.903986 
L 800.164848 277.095469 
L 800.352727 276.625041 
L 801.292121 271.711119 
L 801.48 271.815964 
L 801.667879 272.556479 
L 802.043636 275.526222 
L 802.607273 280.118743 
L 802.795152 280.612185 
L 802.98303 280.285244 
L 803.170909 279.104307 
L 803.546667 274.566712 
L 804.673939 258.435596 
L 805.613333 249.715529 
L 805.989091 243.161533 
L 806.552727 228.690092 
L 807.68 198.358092 
L 810.498182 139.232282 
L 811.249697 131.631492 
L 811.813333 127.835298 
L 812.001212 127.200398 
L 812.189091 127.051771 
L 812.37697 127.472904 
L 812.752727 130.126215 
L 813.316364 137.567291 
L 815.007273 163.783119 
L 815.570909 178.844774 
L 816.886061 218.978723 
L 818.57697 255.869056 
L 819.516364 282.078553 
L 819.892121 287.850395 
L 820.267879 290.707278 
L 820.831515 293.56002 
L 821.207273 297.309599 
L 821.770909 306.831965 
L 822.334545 316.492418 
L 822.710303 319.850075 
L 822.898182 320.527701 
L 823.273939 323.722983 
L 823.837576 329.121889 
L 824.025455 329.998147 
L 824.213333 330.144131 
L 824.401212 329.557091 
L 824.77697 326.69599 
L 825.340606 321.697215 
L 825.528485 320.779268 
L 825.716364 320.455247 
L 825.904242 320.708757 
L 826.28 322.365061 
L 826.655758 323.870396 
L 826.843636 323.871501 
L 827.031515 323.087881 
L 827.407273 318.883034 
L 827.970909 307.545673 
L 828.722424 291.950963 
L 830.037576 268.8059 
L 830.601212 251.390276 
L 831.916364 207.719486 
L 834.358788 144.368025 
L 834.922424 136.20472 
L 835.486061 130.626905 
L 835.861818 127.999982 
L 836.237576 126.800889 
L 836.425455 126.987904 
L 836.613333 127.803144 
L 836.989091 131.345191 
L 837.552727 140.112087 
L 839.243636 170.79765 
L 839.807273 187.733342 
L 840.934545 225.35245 
L 841.686061 241.37504 
L 842.249697 253.272609 
L 843.001212 275.216811 
L 843.752727 295.259613 
L 844.128485 300.60584 
L 844.504242 303.174156 
L 845.067879 306.051755 
L 845.443636 309.997221 
L 846.007273 319.59985 
L 846.570909 328.767173 
L 846.758788 330.600655 
L 846.946667 330.507377 
L 847.134545 331.196391 
L 847.510303 334.231325 
L 848.073939 338.81047 
L 848.261818 339.298833 
L 848.449697 339.038566 
L 848.637576 338.053075 
L 849.201212 332.398202 
L 849.57697 328.815955 
L 849.952727 327.222155 
L 850.140606 327.265606 
L 850.892121 328.970883 
L 851.08 328.451745 
L 851.267879 327.115655 
L 851.643636 321.807076 
L 852.395152 304.495454 
L 853.146667 288.932577 
L 854.086061 271.55725 
L 854.649697 254.916714 
L 856.340606 199.166249 
L 858.595152 143.151263 
L 859.158788 136.023395 
L 859.722424 131.472155 
L 860.098182 129.60215 
L 860.286061 129.187333 
L 860.473939 129.251021 
L 860.661818 129.884603 
L 861.037576 133.04143 
L 861.601212 141.754879 
L 863.48 177.680455 
L 864.043636 195.154301 
L 865.170909 232.329198 
L 865.922424 247.756924 
L 866.486061 259.54229 
L 867.237576 281.213516 
L 867.801212 296.561319 
L 868.17697 303.055984 
L 868.552727 306.331515 
L 869.304242 309.897782 
L 869.68 313.906662 
L 870.431515 326.896666 
L 870.807273 332.348275 
L 871.746667 335.931163 
L 872.310303 337.057663 
L 873.061818 338.155302 
L 873.437576 339.154753 
L 874.940606 344.312866 
L 875.316364 344.721677 
L 876.255758 345.243018 
L 876.631515 345.913181 
L 877.570909 348.014948 
L 877.946667 348.234031 
L 878.322424 347.908268 
L 879.449697 346.189038 
L 879.825455 346.141125 
L 880.389091 346.218557 
L 880.57697 346.108488 
L 880.952727 345.476445 
L 881.328485 344.265717 
L 882.643636 339.329894 
L 883.770909 336.851499 
L 884.334545 334.171448 
L 885.649697 326.811787 
L 886.964848 322.004091 
L 887.528485 318.289965 
L 888.467879 311.833581 
L 889.031515 309.39121 
L 889.78303 306.451612 
L 890.346667 302.942452 
L 891.661818 293.715282 
L 892.413333 290.804973 
L 892.97697 288.259167 
L 893.540606 284.455788 
L 894.48 277.774308 
L 894.855758 275.998339 
L 895.231515 271.162433 
L 895.607273 269.269365 
L 895.795152 269.256891 
L 896.358788 270.155679 
L 896.546667 269.852141 
L 896.734545 268.897395 
L 897.110303 264.841769 
L 898.425455 245.568575 
L 898.801212 244.198893 
L 899.17697 243.876402 
L 899.364848 243.460274 
L 899.552727 242.54821 
L 899.928485 238.680452 
L 900.492121 228.256287 
L 901.243636 213.700333 
L 901.807273 207.410362 
L 902.558788 200.715786 
L 903.122424 191.536226 
L 904.437576 166.566016 
L 905.189091 158.519562 
L 905.940606 150.187189 
L 906.692121 141.902593 
L 907.255758 138.325841 
L 907.819394 136.592271 
L 908.38303 135.423178 
L 908.570909 135.195644 
L 908.758788 135.167105 
L 908.946667 135.431019 
L 909.134545 136.068613 
L 909.510303 138.606888 
L 910.261818 146.977428 
L 910.825455 152.43033 
L 911.764848 159.50539 
L 912.140606 164.628234 
L 912.704242 176.069732 
L 913.455758 191.394889 
L 913.831515 196.013846 
L 914.958788 205.226258 
L 915.522424 215.513685 
L 916.273939 230.901257 
L 916.649697 235.211624 
L 917.025455 236.677457 
L 917.589091 236.947959 
L 917.77697 237.578911 
L 918.152727 240.750215 
L 918.716364 249.777401 
L 918.904242 253.135616 
L 919.28 250.675062 
L 919.467879 250.391044 
L 919.655758 250.848243 
L 920.031515 253.664863 
L 920.595152 259.196842 
L 920.78303 260.268488 
L 920.970909 260.603208 
L 921.158788 260.132847 
L 921.534545 257.057692 
L 922.473939 247.068062 
L 922.661818 246.323428 
L 922.849697 246.11291 
L 923.037576 246.287264 
L 923.413333 246.833486 
L 923.601212 246.661597 
L 923.789091 245.874417 
L 924.164848 241.962267 
L 924.728485 231.031515 
L 925.48 215.419422 
L 926.043636 207.865518 
L 926.795152 198.601213 
L 927.358788 187.358195 
L 928.486061 162.518475 
L 929.049697 154.936298 
L 930.364848 142.067351 
L 930.740606 139.373862 
L 931.116364 138.065085 
L 931.304242 137.966825 
L 931.492121 138.195049 
L 931.867879 139.401213 
L 932.431515 142.43027 
L 932.807273 145.335129 
L 933.18303 149.535843 
L 933.746667 159.171726 
L 935.437576 193.371252 
L 936.001212 204.14967 
L 936.564848 218.943014 
L 937.692121 250.885623 
L 938.255758 259.828392 
L 939.007273 269.454405 
L 939.570909 281.074168 
L 940.510303 302.147259 
L 940.886061 306.26243 
L 941.261818 307.636699 
L 941.637576 308.035785 
L 941.825455 308.557177 
L 942.013333 309.597594 
L 942.389091 313.646443 
L 942.952727 323.42786 
L 943.328485 319.64473 
L 943.516364 318.521996 
L 943.704242 318.08359 
L 943.892121 318.329935 
L 944.267879 320.34319 
L 944.643636 322.712851 
L 944.831515 323.307764 
L 945.019394 323.194559 
L 945.207273 322.246725 
L 945.58303 317.893727 
L 946.898182 297.162435 
L 947.837576 289.336636 
L 948.213333 282.827783 
L 948.77697 267.437419 
L 949.904242 234.415345 
L 951.407273 199.497826 
L 952.722424 163.12422 
L 953.286061 153.829159 
L 954.225455 143.091424 
L 954.789091 138.733644 
L 955.164848 137.709995 
L 955.352727 137.85862 
L 955.540606 138.414555 
L 955.916364 140.522601 
L 956.48 145.388475 
L 957.043636 152.217388 
L 957.607273 162.474593 
L 958.358788 181.719865 
L 959.298182 204.858155 
L 960.425455 230.512929 
L 962.116364 277.782709 
L 962.68 284.880188 
L 963.243636 292.176257 
L 963.807273 303.603612 
L 964.558788 320.05648 
L 964.934545 324.786522 
L 965.310303 326.47986 
L 965.498182 326.576022 
L 965.686061 326.51843 
L 965.873939 326.592432 
L 966.061818 327.05584 
L 966.249697 328.102581 
L 966.625455 332.24636 
L 967.001212 338.563296 
L 967.564848 340.495004 
L 968.504242 344.151402 
L 968.88 344.975715 
L 969.443636 345.557114 
L 969.819394 345.933461 
L 970.195152 346.617817 
L 970.758788 348.262962 
L 971.322424 349.897462 
L 971.698182 350.468776 
L 971.886061 350.548726 
L 972.261818 350.375667 
L 973.013333 349.776486 
L 973.389091 349.880168 
L 974.328485 350.727453 
L 974.516364 350.682197 
L 974.892121 350.151347 
L 975.455758 348.463221 
L 976.207273 346.203379 
L 976.770909 345.386721 
L 977.334545 344.652997 
L 977.710303 343.627715 
L 978.273939 341.00356 
L 979.213333 336.058682 
L 979.77697 334.216788 
L 980.340606 332.62041 
L 980.716364 331.047762 
L 981.28 327.571506 
L 982.219394 321.252948 
L 982.78303 318.796075 
L 983.534545 315.913027 
L 984.098182 312.472005 
L 985.413333 303.037365 
L 986.164848 299.955925 
L 986.728485 297.353731 
L 987.292121 293.467179 
L 988.419394 285.372937 
L 988.98303 283.024446 
L 989.546667 280.877526 
L 990.110303 277.666588 
L 991.425455 268.656418 
L 991.989091 266.52653 
L 992.740606 263.921621 
L 993.304242 260.738211 
L 994.431515 253.860385 
L 994.995152 252.090245 
L 995.746667 250.107706 
L 996.310303 247.495128 
L 997.437576 241.659339 
L 997.813333 240.664667 
L 998.940606 238.531021 
L 999.504242 236.229522 
L 1000.255758 232.970481 
L 1000.631515 232.018766 
L 1001.007273 231.591543 
L 1001.570909 231.264254 
L 1001.946667 230.714863 
L 1002.322424 229.701587 
L 1003.449697 226.212143 
L 1003.825455 225.867249 
L 1004.201212 225.92373 
L 1004.57697 226.038585 
L 1004.952727 225.864918 
L 1005.328485 225.251418 
L 1006.455758 222.855534 
L 1006.643636 222.76745 
L 1007.019394 222.942602 
L 1007.770909 223.684959 
L 1008.146667 223.632678 
L 1008.522424 223.180358 
L 1009.273939 222.07844 
L 1009.461818 221.99358 
L 1009.649697 222.03177 
L 1010.025455 222.444561 
L 1010.964848 223.845184 
L 1011.340606 223.861445 
L 1011.904242 223.371458 
L 1012.28 223.13685 
L 1012.467879 223.156634 
L 1012.843636 223.540797 
L 1014.158788 225.924301 
L 1014.534545 225.965634 
L 1015.098182 225.731564 
L 1015.473939 221.968518 
L 1016.225455 213.907809 
L 1016.413333 213.057326 
L 1016.601212 212.822337 
L 1016.789091 213.095436 
L 1017.352727 214.670146 
L 1017.540606 214.532139 
L 1017.728485 213.681475 
L 1018.104242 209.5282 
L 1018.667879 198.671927 
L 1019.419394 185.069115 
L 1019.795152 181.310118 
L 1020.546667 175.586715 
L 1020.922424 170.351855 
L 1021.486061 158.534962 
L 1022.237576 142.633031 
L 1022.613333 137.626942 
L 1022.989091 134.674504 
L 1023.928485 129.05225 
L 1024.867879 121.812879 
L 1025.055758 121.112386 
L 1025.243636 120.8628 
L 1025.431515 121.079369 
L 1025.807273 122.785368 
L 1026.370909 127.516993 
L 1027.122424 135.944882 
L 1027.873939 147.535271 
L 1030.128485 190.244279 
L 1031.819394 228.668372 
L 1033.322424 249.217559 
L 1034.261818 267.771379 
L 1034.637576 271.718977 
L 1034.825455 272.624298 
L 1035.013333 272.977317 
L 1035.57697 273.050967 
L 1035.764848 273.583118 
L 1036.140606 276.441419 
L 1036.704242 284.717344 
L 1037.267879 292.80638 
L 1037.643636 295.224203 
L 1037.831515 295.403979 
L 1038.019394 295.081672 
L 1038.58303 293.675702 
L 1038.770909 293.967912 
L 1038.958788 294.983451 
L 1039.146667 296.795696 
L 1039.898182 299.767031 
L 1041.401212 306.696498 
L 1041.964848 307.974138 
L 1042.716364 309.443008 
L 1043.28 311.15568 
L 1044.031515 313.492141 
L 1044.407273 314.108477 
L 1044.78303 314.251982 
L 1045.722424 314.014227 
L 1046.098182 314.30804 
L 1047.037576 315.431025 
L 1047.225455 315.434384 
L 1047.601212 315.044442 
L 1048.164848 313.736586 
L 1048.728485 312.484682 
L 1049.104242 312.084183 
L 1050.043636 311.725813 
L 1050.419394 311.025328 
L 1050.98303 309.037683 
L 1051.734545 306.126676 
L 1052.110303 305.231236 
L 1053.237576 303.456298 
L 1053.613333 302.119373 
L 1055.116364 295.463864 
L 1056.431515 292.408922 
L 1056.995152 289.601722 
L 1057.934545 284.843164 
L 1058.498182 283.361663 
L 1059.061818 282.201586 
L 1059.437576 280.967112 
L 1060.001212 278.135561 
L 1060.940606 273.282531 
L 1061.504242 271.779052 
L 1062.067879 270.687806 
L 1062.443636 269.544342 
L 1063.007273 266.867933 
L 1063.946667 262.205163 
L 1064.322424 261.164161 
L 1065.449697 258.950317 
L 1066.013333 256.565412 
L 1066.952727 252.312371 
L 1067.328485 251.413996 
L 1068.455758 249.790461 
L 1069.019394 247.789028 
L 1069.958788 244.094135 
L 1070.334545 243.384467 
L 1070.710303 243.107029 
L 1071.086061 242.919142 
L 1071.461818 242.447081 
L 1071.837576 241.502368 
L 1072.964848 237.811394 
L 1073.340606 237.311206 
L 1073.716364 237.24449 
L 1074.28 237.236915 
L 1074.655758 236.813161 
L 1075.219394 235.399791 
L 1075.78303 233.861734 
L 1076.158788 233.311553 
L 1076.534545 233.260626 
L 1077.473939 233.679067 
L 1077.849697 233.291599 
L 1079.164848 231.008772 
L 1079.540606 231.14225 
L 1080.48 232.069237 
L 1080.855758 231.918746 
L 1081.419394 231.077122 
L 1081.795152 230.532929 
L 1082.170909 230.356263 
L 1082.546667 230.643565 
L 1083.486061 231.990093 
L 1083.861818 232.034907 
L 1084.237576 231.707191 
L 1084.801212 231.092602 
L 1085.17697 231.048769 
L 1085.552727 231.452478 
L 1086.68 233.269114 
L 1087.055758 233.258106 
L 1087.995152 232.668692 
L 1088.370909 232.932674 
L 1088.934545 234.01087 
L 1089.498182 235.106802 
L 1089.873939 235.405827 
L 1090.249697 235.323569 
L 1090.813333 235.003675 
L 1091.189091 235.098646 
L 1091.564848 235.615983 
L 1092.692121 237.853829 
L 1093.067879 238.008104 
L 1094.195152 237.791159 
L 1094.570909 238.31043 
L 1095.698182 240.59955 
L 1096.073939 240.779399 
L 1096.637576 240.536661 
L 1097.013333 240.457279 
L 1097.389091 240.739968 
L 1097.764848 241.417098 
L 1098.704242 243.295525 
L 1099.08 243.472756 
L 1099.455758 243.318526 
L 1100.019394 243.077477 
L 1100.395152 243.309155 
L 1100.770909 243.938639 
L 1101.710303 245.748497 
L 1102.086061 245.903125 
L 1102.461818 245.712912 
L 1103.025455 245.386299 
L 1103.401212 245.549992 
L 1103.77697 246.116676 
L 1104.716364 247.825516 
L 1105.092121 247.945485 
L 1105.467879 247.707502 
L 1106.031515 247.278649 
L 1106.407273 247.364399 
L 1106.78303 247.85954 
L 1107.722424 249.45086 
L 1108.098182 249.531209 
L 1108.473939 249.241014 
L 1109.037576 248.703825 
L 1109.413333 248.707954 
L 1109.789091 249.128456 
L 1110.728485 250.599241 
L 1111.104242 250.640905 
L 1111.48 250.300182 
L 1112.043636 249.657416 
L 1112.419394 249.58149 
L 1112.795152 249.928887 
L 1113.734545 251.286678 
L 1114.110303 251.295099 
L 1114.486061 250.91023 
L 1115.049697 250.171494 
L 1115.425455 250.021112 
L 1115.801212 250.30044 
L 1116.740606 251.560268 
L 1116.928485 251.609665 
L 1117.304242 251.373616 
L 1118.243636 250.143366 
L 1118.619394 250.14525 
L 1118.995152 250.546124 
L 1119.746667 251.487876 
L 1119.934545 251.530352 
L 1120.310303 251.276973 
L 1121.437576 249.857295 
L 1121.813333 250.023958 
L 1122.940606 251.189321 
L 1123.316364 250.930147 
L 1124.443636 249.411439 
L 1124.819394 249.535172 
L 1125.946667 250.668281 
L 1126.322424 250.414435 
L 1127.449697 248.83053 
L 1127.825455 248.920002 
L 1128.389091 249.613706 
L 1128.764848 249.992806 
L 1128.952727 250.044706 
L 1129.328485 249.806163 
L 1130.455758 248.187751 
L 1130.643636 248.162996 
L 1131.019394 248.431545 
L 1131.770909 249.323555 
L 1132.146667 249.335913 
L 1132.522424 248.914048 
L 1133.273939 247.694854 
L 1133.649697 247.509765 
L 1134.025455 247.762312 
L 1134.77697 248.673454 
L 1135.152727 248.715551 
L 1135.340606 248.566353 
L 1135.528485 249.62497 
L 1135.716364 250.0314 
L 1135.904242 249.672046 
L 1136.28 246.755932 
L 1137.219394 235.926976 
L 1137.407273 234.939212 
L 1137.595152 234.561096 
L 1137.78303 234.686821 
L 1138.346667 235.835597 
L 1138.534545 235.581477 
L 1138.722424 234.639246 
L 1139.098182 230.398654 
L 1139.661818 219.653541 
L 1140.413333 206.21107 
L 1140.97697 200.769644 
L 1141.540606 195.702879 
L 1141.916364 190.158612 
L 1142.667879 174.182254 
L 1143.419394 160.163426 
L 1143.98303 154.098616 
L 1145.110303 144.075877 
L 1145.673939 139.251657 
L 1146.049697 137.456566 
L 1146.237576 137.086077 
L 1146.425455 137.035862 
L 1146.613333 137.255337 
L 1146.989091 138.278546 
L 1147.552727 140.821368 
L 1147.928485 143.443343 
L 1148.304242 147.345072 
L 1148.867879 155.782787 
L 1149.995152 173.649488 
L 1150.934545 187.204963 
L 1151.498182 199.631802 
L 1152.437576 221.822923 
L 1153.001212 229.309364 
L 1153.940606 238.091962 
L 1154.504242 248.127569 
L 1155.255758 262.691503 
L 1155.631515 266.535517 
L 1155.819394 267.308882 
L 1156.007273 267.472607 
L 1156.570909 266.726541 
L 1156.758788 266.952071 
L 1156.946667 267.763646 
L 1157.322424 271.375842 
L 1158.449697 286.388381 
L 1158.637576 287.180035 
L 1158.825455 287.275635 
L 1159.013333 286.826238 
L 1159.389091 285.273936 
L 1160.140606 287.571083 
L 1160.704242 289.350385 
L 1161.455758 292.700468 
L 1162.207273 295.950764 
L 1162.770909 297.366045 
L 1163.898182 299.411486 
L 1165.401212 303.543002 
L 1165.77697 303.729822 
L 1166.716364 303.551606 
L 1167.092121 303.869299 
L 1168.031515 305.191275 
L 1168.219394 305.260916 
L 1168.407273 305.202329 
L 1168.78303 304.715792 
L 1169.910303 302.617166 
L 1170.286061 302.493983 
L 1170.849697 302.579501 
L 1171.225455 302.328617 
L 1171.601212 301.565837 
L 1172.352727 298.961864 
L 1172.916364 297.342825 
L 1173.292121 296.80431 
L 1174.043636 296.150113 
L 1174.419394 295.340636 
L 1174.98303 293.171941 
L 1175.922424 289.355644 
L 1176.298182 288.565342 
L 1177.237576 287.13986 
L 1177.613333 285.908723 
L 1179.304242 279.041082 
L 1180.243636 277.465667 
L 1180.619394 276.215972 
L 1182.310303 269.186923 
L 1183.437576 267.16678 
L 1184.001212 264.857241 
L 1184.940606 260.66115 
L 1185.316364 259.758806 
L 1186.443636 258.06877 
L 1187.007273 256.002384 
L 1187.946667 252.140903 
L 1188.322424 251.352182 
L 1188.886061 250.870289 
L 1189.261818 250.489107 
L 1189.637576 249.684707 
L 1190.201212 247.659533 
L 1190.952727 245.014808 
L 1191.328485 244.381363 
L 1191.704242 244.184984 
L 1192.267879 243.979038 
L 1192.643636 243.409867 
L 1193.207273 241.750711 
L 1193.958788 239.522122 
L 1194.334545 239.063543 
L 1194.710303 239.043376 
L 1195.273939 239.145 
L 1195.461818 239.037868 
L 1195.461818 239.037868 
" style="fill:none;stroke:#0000ff;stroke-linecap:square;stroke-width:1.5;"/>
   </g>
   <g id="patch_3">
    <path d="M 172.8 693.9864 
L 172.8 93.5712 
" style="fill:none;stroke:#000000;stroke-linecap:square;stroke-linejoin:miter;stroke-width:0.8;"/>
   </g>
   <g id="patch_4">
    <path d="M 1244.16 693.9864 
L 1244.16 93.5712 
" style="fill:none;stroke:#000000;stroke-linecap:square;stroke-linejoin:miter;stroke-width:0.8;"/>
   </g>
   <g id="patch_5">
    <path d="M 172.8 693.9864 
L 1244.16 693.9864 
" style="fill:none;stroke:#000000;stroke-linecap:square;stroke-linejoin:miter;stroke-width:0.8;"/>
   </g>
   <g id="patch_6">
    <path d="M 172.8 93.5712 
L 1244.16 93.5712 
" style="fill:none;stroke:#000000;stroke-linecap:square;stroke-linejoin:miter;stroke-width:0.8;"/>
   </g>
  </g>
 </g>
 <defs>
  <clipPath id="p9d043db1ef">
   <rect height="600.4152" width="1071.36" x="172.8" y="93.5712"/>
  </clipPath>
 </defs>
</svg>
