<?xml version="1.0" encoding="utf-8" standalone="no"?>
<!DOCTYPE svg PUBLIC "-//W3C//DTD SVG 1.1//EN"
  "http://www.w3.org/Graphics/SVG/1.1/DTD/svg11.dtd">
<!-- Created with matplotlib (https://matplotlib.org/) -->
<svg height="779.76pt" version="1.1" viewBox="0 0 1382.4 779.76" width="1382.4pt" xmlns="http://www.w3.org/2000/svg" xmlns:xlink="http://www.w3.org/1999/xlink">
 <defs>
  <style type="text/css">
*{stroke-linecap:butt;stroke-linejoin:round;}
  </style>
 </defs>
 <g id="figure_1">
  <g id="patch_1">
   <path d="M 0 779.76 
L 1382.4 779.76 
L 1382.4 0 
L 0 0 
z
" style="fill:#ffffff;"/>
  </g>
  <g id="axes_1">
   <g id="patch_2">
    <path d="M 172.8 693.9864 
L 1244.16 693.9864 
L 1244.16 93.5712 
L 172.8 93.5712 
z
" style="fill:#ffffff;"/>
   </g>
   <g id="matplotlib.axis_1">
    <g id="xtick_1">
     <g id="line2d_1">
      <defs>
       <path d="M 0 0 
L 0 3.5 
" id="m8d62405613" style="stroke:#000000;stroke-width:0.8;"/>
      </defs>
      <g>
       <use style="stroke:#000000;stroke-width:0.8;" x="221.498182" xlink:href="#m8d62405613" y="693.9864"/>
      </g>
     </g>
     <g id="text_1">
      <!-- 0 -->
      <defs>
       <path d="M 31.78125 66.40625 
Q 24.171875 66.40625 20.328125 58.90625 
Q 16.5 51.421875 16.5 36.375 
Q 16.5 21.390625 20.328125 13.890625 
Q 24.171875 6.390625 31.78125 6.390625 
Q 39.453125 6.390625 43.28125 13.890625 
Q 47.125 21.390625 47.125 36.375 
Q 47.125 51.421875 43.28125 58.90625 
Q 39.453125 66.40625 31.78125 66.40625 
z
M 31.78125 74.21875 
Q 44.046875 74.21875 50.515625 64.515625 
Q 56.984375 54.828125 56.984375 36.375 
Q 56.984375 17.96875 50.515625 8.265625 
Q 44.046875 -1.421875 31.78125 -1.421875 
Q 19.53125 -1.421875 13.0625 8.265625 
Q 6.59375 17.96875 6.59375 36.375 
Q 6.59375 54.828125 13.0625 64.515625 
Q 19.53125 74.21875 31.78125 74.21875 
z
" id="DejaVuSans-48"/>
      </defs>
      <g transform="translate(218.316932 708.584838)scale(0.1 -0.1)">
       <use xlink:href="#DejaVuSans-48"/>
      </g>
     </g>
    </g>
    <g id="xtick_2">
     <g id="line2d_2">
      <g>
       <use style="stroke:#000000;stroke-width:0.8;" x="404.884293" xlink:href="#m8d62405613" y="693.9864"/>
      </g>
     </g>
     <g id="text_2">
      <!-- 1000 -->
      <defs>
       <path d="M 12.40625 8.296875 
L 28.515625 8.296875 
L 28.515625 63.921875 
L 10.984375 60.40625 
L 10.984375 69.390625 
L 28.421875 72.90625 
L 38.28125 72.90625 
L 38.28125 8.296875 
L 54.390625 8.296875 
L 54.390625 0 
L 12.40625 0 
z
" id="DejaVuSans-49"/>
      </defs>
      <g transform="translate(392.159293 708.584838)scale(0.1 -0.1)">
       <use xlink:href="#DejaVuSans-49"/>
       <use x="63.623047" xlink:href="#DejaVuSans-48"/>
       <use x="127.246094" xlink:href="#DejaVuSans-48"/>
       <use x="190.869141" xlink:href="#DejaVuSans-48"/>
      </g>
     </g>
    </g>
    <g id="xtick_3">
     <g id="line2d_3">
      <g>
       <use style="stroke:#000000;stroke-width:0.8;" x="588.270404" xlink:href="#m8d62405613" y="693.9864"/>
      </g>
     </g>
     <g id="text_3">
      <!-- 2000 -->
      <defs>
       <path d="M 19.1875 8.296875 
L 53.609375 8.296875 
L 53.609375 0 
L 7.328125 0 
L 7.328125 8.296875 
Q 12.9375 14.109375 22.625 23.890625 
Q 32.328125 33.6875 34.8125 36.53125 
Q 39.546875 41.84375 41.421875 45.53125 
Q 43.3125 49.21875 43.3125 52.78125 
Q 43.3125 58.59375 39.234375 62.25 
Q 35.15625 65.921875 28.609375 65.921875 
Q 23.96875 65.921875 18.8125 64.3125 
Q 13.671875 62.703125 7.8125 59.421875 
L 7.8125 69.390625 
Q 13.765625 71.78125 18.9375 73 
Q 24.125 74.21875 28.421875 74.21875 
Q 39.75 74.21875 46.484375 68.546875 
Q 53.21875 62.890625 53.21875 53.421875 
Q 53.21875 48.921875 51.53125 44.890625 
Q 49.859375 40.875 45.40625 35.40625 
Q 44.1875 33.984375 37.640625 27.21875 
Q 31.109375 20.453125 19.1875 8.296875 
z
" id="DejaVuSans-50"/>
      </defs>
      <g transform="translate(575.545404 708.584838)scale(0.1 -0.1)">
       <use xlink:href="#DejaVuSans-50"/>
       <use x="63.623047" xlink:href="#DejaVuSans-48"/>
       <use x="127.246094" xlink:href="#DejaVuSans-48"/>
       <use x="190.869141" xlink:href="#DejaVuSans-48"/>
      </g>
     </g>
    </g>
    <g id="xtick_4">
     <g id="line2d_4">
      <g>
       <use style="stroke:#000000;stroke-width:0.8;" x="771.656515" xlink:href="#m8d62405613" y="693.9864"/>
      </g>
     </g>
     <g id="text_4">
      <!-- 3000 -->
      <defs>
       <path d="M 40.578125 39.3125 
Q 47.65625 37.796875 51.625 33 
Q 55.609375 28.21875 55.609375 21.1875 
Q 55.609375 10.40625 48.1875 4.484375 
Q 40.765625 -1.421875 27.09375 -1.421875 
Q 22.515625 -1.421875 17.65625 -0.515625 
Q 12.796875 0.390625 7.625 2.203125 
L 7.625 11.71875 
Q 11.71875 9.328125 16.59375 8.109375 
Q 21.484375 6.890625 26.8125 6.890625 
Q 36.078125 6.890625 40.9375 10.546875 
Q 45.796875 14.203125 45.796875 21.1875 
Q 45.796875 27.640625 41.28125 31.265625 
Q 36.765625 34.90625 28.71875 34.90625 
L 20.21875 34.90625 
L 20.21875 43.015625 
L 29.109375 43.015625 
Q 36.375 43.015625 40.234375 45.921875 
Q 44.09375 48.828125 44.09375 54.296875 
Q 44.09375 59.90625 40.109375 62.90625 
Q 36.140625 65.921875 28.71875 65.921875 
Q 24.65625 65.921875 20.015625 65.03125 
Q 15.375 64.15625 9.8125 62.3125 
L 9.8125 71.09375 
Q 15.4375 72.65625 20.34375 73.4375 
Q 25.25 74.21875 29.59375 74.21875 
Q 40.828125 74.21875 47.359375 69.109375 
Q 53.90625 64.015625 53.90625 55.328125 
Q 53.90625 49.265625 50.4375 45.09375 
Q 46.96875 40.921875 40.578125 39.3125 
z
" id="DejaVuSans-51"/>
      </defs>
      <g transform="translate(758.931515 708.584838)scale(0.1 -0.1)">
       <use xlink:href="#DejaVuSans-51"/>
       <use x="63.623047" xlink:href="#DejaVuSans-48"/>
       <use x="127.246094" xlink:href="#DejaVuSans-48"/>
       <use x="190.869141" xlink:href="#DejaVuSans-48"/>
      </g>
     </g>
    </g>
    <g id="xtick_5">
     <g id="line2d_5">
      <g>
       <use style="stroke:#000000;stroke-width:0.8;" x="955.042626" xlink:href="#m8d62405613" y="693.9864"/>
      </g>
     </g>
     <g id="text_5">
      <!-- 4000 -->
      <defs>
       <path d="M 37.796875 64.3125 
L 12.890625 25.390625 
L 37.796875 25.390625 
z
M 35.203125 72.90625 
L 47.609375 72.90625 
L 47.609375 25.390625 
L 58.015625 25.390625 
L 58.015625 17.1875 
L 47.609375 17.1875 
L 47.609375 0 
L 37.796875 0 
L 37.796875 17.1875 
L 4.890625 17.1875 
L 4.890625 26.703125 
z
" id="DejaVuSans-52"/>
      </defs>
      <g transform="translate(942.317626 708.584838)scale(0.1 -0.1)">
       <use xlink:href="#DejaVuSans-52"/>
       <use x="63.623047" xlink:href="#DejaVuSans-48"/>
       <use x="127.246094" xlink:href="#DejaVuSans-48"/>
       <use x="190.869141" xlink:href="#DejaVuSans-48"/>
      </g>
     </g>
    </g>
    <g id="xtick_6">
     <g id="line2d_6">
      <g>
       <use style="stroke:#000000;stroke-width:0.8;" x="1138.428738" xlink:href="#m8d62405613" y="693.9864"/>
      </g>
     </g>
     <g id="text_6">
      <!-- 5000 -->
      <defs>
       <path d="M 10.796875 72.90625 
L 49.515625 72.90625 
L 49.515625 64.59375 
L 19.828125 64.59375 
L 19.828125 46.734375 
Q 21.96875 47.46875 24.109375 47.828125 
Q 26.265625 48.1875 28.421875 48.1875 
Q 40.625 48.1875 47.75 41.5 
Q 54.890625 34.8125 54.890625 23.390625 
Q 54.890625 11.625 47.5625 5.09375 
Q 40.234375 -1.421875 26.90625 -1.421875 
Q 22.3125 -1.421875 17.546875 -0.640625 
Q 12.796875 0.140625 7.71875 1.703125 
L 7.71875 11.625 
Q 12.109375 9.234375 16.796875 8.0625 
Q 21.484375 6.890625 26.703125 6.890625 
Q 35.15625 6.890625 40.078125 11.328125 
Q 45.015625 15.765625 45.015625 23.390625 
Q 45.015625 31 40.078125 35.4375 
Q 35.15625 39.890625 26.703125 39.890625 
Q 22.75 39.890625 18.8125 39.015625 
Q 14.890625 38.140625 10.796875 36.28125 
z
" id="DejaVuSans-53"/>
      </defs>
      <g transform="translate(1125.703738 708.584838)scale(0.1 -0.1)">
       <use xlink:href="#DejaVuSans-53"/>
       <use x="63.623047" xlink:href="#DejaVuSans-48"/>
       <use x="127.246094" xlink:href="#DejaVuSans-48"/>
       <use x="190.869141" xlink:href="#DejaVuSans-48"/>
      </g>
     </g>
    </g>
   </g>
   <g id="matplotlib.axis_2">
    <g id="ytick_1">
     <g id="line2d_7">
      <defs>
       <path d="M 0 0 
L -3.5 0 
" id="mc03520eff5" style="stroke:#000000;stroke-width:0.8;"/>
      </defs>
      <g>
       <use style="stroke:#000000;stroke-width:0.8;" x="172.8" xlink:href="#mc03520eff5" y="612.098369"/>
      </g>
     </g>
     <g id="text_7">
      <!-- −0.4 -->
      <defs>
       <path d="M 10.59375 35.5 
L 73.1875 35.5 
L 73.1875 27.203125 
L 10.59375 27.203125 
z
" id="DejaVuSans-8722"/>
       <path d="M 10.6875 12.40625 
L 21 12.40625 
L 21 0 
L 10.6875 0 
z
" id="DejaVuSans-46"/>
      </defs>
      <g transform="translate(141.517187 615.897588)scale(0.1 -0.1)">
       <use xlink:href="#DejaVuSans-8722"/>
       <use x="83.789062" xlink:href="#DejaVuSans-48"/>
       <use x="147.412109" xlink:href="#DejaVuSans-46"/>
       <use x="179.199219" xlink:href="#DejaVuSans-52"/>
      </g>
     </g>
    </g>
    <g id="ytick_2">
     <g id="line2d_8">
      <g>
       <use style="stroke:#000000;stroke-width:0.8;" x="172.8" xlink:href="#mc03520eff5" y="502.938344"/>
      </g>
     </g>
     <g id="text_8">
      <!-- −0.2 -->
      <g transform="translate(141.517187 506.737563)scale(0.1 -0.1)">
       <use xlink:href="#DejaVuSans-8722"/>
       <use x="83.789062" xlink:href="#DejaVuSans-48"/>
       <use x="147.412109" xlink:href="#DejaVuSans-46"/>
       <use x="179.199219" xlink:href="#DejaVuSans-50"/>
      </g>
     </g>
    </g>
    <g id="ytick_3">
     <g id="line2d_9">
      <g>
       <use style="stroke:#000000;stroke-width:0.8;" x="172.8" xlink:href="#mc03520eff5" y="393.77832"/>
      </g>
     </g>
     <g id="text_9">
      <!-- 0.0 -->
      <g transform="translate(149.896875 397.577538)scale(0.1 -0.1)">
       <use xlink:href="#DejaVuSans-48"/>
       <use x="63.623047" xlink:href="#DejaVuSans-46"/>
       <use x="95.410156" xlink:href="#DejaVuSans-48"/>
      </g>
     </g>
    </g>
    <g id="ytick_4">
     <g id="line2d_10">
      <g>
       <use style="stroke:#000000;stroke-width:0.8;" x="172.8" xlink:href="#mc03520eff5" y="284.618295"/>
      </g>
     </g>
     <g id="text_10">
      <!-- 0.2 -->
      <g transform="translate(149.896875 288.417514)scale(0.1 -0.1)">
       <use xlink:href="#DejaVuSans-48"/>
       <use x="63.623047" xlink:href="#DejaVuSans-46"/>
       <use x="95.410156" xlink:href="#DejaVuSans-50"/>
      </g>
     </g>
    </g>
    <g id="ytick_5">
     <g id="line2d_11">
      <g>
       <use style="stroke:#000000;stroke-width:0.8;" x="172.8" xlink:href="#mc03520eff5" y="175.45827"/>
      </g>
     </g>
     <g id="text_11">
      <!-- 0.4 -->
      <g transform="translate(149.896875 179.257489)scale(0.1 -0.1)">
       <use xlink:href="#DejaVuSans-48"/>
       <use x="63.623047" xlink:href="#DejaVuSans-46"/>
       <use x="95.410156" xlink:href="#DejaVuSans-52"/>
      </g>
     </g>
    </g>
   </g>
   <g id="line2d_12">
    <path clip-path="url(#pcd500b4e92)" d="M 221.498182 394.328391 
L 222.04834 395.778591 
L 222.598498 396.610609 
L 223.148657 397.273808 
L 223.515429 398.120272 
L 223.882201 399.529439 
L 224.615746 403.73475 
L 226.266221 414.585589 
L 226.816379 420.044937 
L 227.73331 432.047065 
L 229.383785 456.306428 
L 230.300715 474.033153 
L 233.785051 549.0434 
L 235.25214 578.718339 
L 237.086001 613.335415 
L 238.186318 628.320968 
L 239.653407 645.941569 
L 240.203565 650.315378 
L 241.120496 655.41819 
L 242.587585 662.857616 
L 242.954357 663.792021 
L 243.321129 664.265226 
L 244.054673 664.947922 
L 244.421446 665.663083 
L 244.788218 666.668357 
L 268.26164 666.691555 
L 268.995185 662.677554 
L 269.545343 660.995701 
L 270.095501 659.67067 
L 270.462273 657.990011 
L 270.829046 655.18584 
L 271.56259 646.782774 
L 273.213065 625.065656 
L 273.763223 614.164355 
L 274.680154 590.164625 
L 276.330629 541.642666 
L 277.24756 506.199684 
L 280.731896 356.17757 
L 282.198985 296.825779 
L 284.032846 227.591796 
L 285.133162 197.614555 
L 286.600251 162.366602 
L 287.15041 153.626297 
L 288.06734 143.412985 
L 289.534429 128.52746 
L 289.901201 126.663749 
L 290.267974 125.719784 
L 290.818132 124.815127 
L 291.184904 123.714796 
L 291.735062 120.896403 
L 292.468607 124.908113 
L 293.018765 126.586073 
L 293.568924 127.914543 
L 293.935696 129.601881 
L 294.302468 132.413688 
L 295.036012 140.825333 
L 296.686487 162.55186 
L 297.236646 173.466201 
L 298.153576 197.476682 
L 299.804051 246.010567 
L 300.720982 281.470634 
L 304.205318 431.493519 
L 305.672407 490.833287 
L 307.506268 560.051567 
L 308.606585 590.01652 
L 310.073674 625.249347 
L 310.623832 633.986698 
L 311.540762 644.189017 
L 313.007851 659.063207 
L 313.374624 660.929598 
L 313.741396 661.8748 
L 314.291554 662.775096 
L 314.658326 663.869534 
L 315.208485 666.681777 
L 315.942029 662.663284 
L 316.492187 660.975046 
L 317.042346 659.642699 
L 317.409118 657.957071 
L 317.77589 655.147382 
L 318.509435 646.728505 
L 320.15991 624.962385 
L 320.710068 614.046833 
L 321.626999 590.018029 
L 323.277474 541.446181 
L 324.194404 505.981629 
L 327.67874 355.929736 
L 329.145829 296.595672 
L 330.97969 227.398223 
L 332.080007 197.454426 
L 333.547096 162.250428 
L 334.097254 153.51449 
L 335.014185 143.330363 
L 336.481274 128.476175 
L 336.848046 126.608272 
L 337.214818 125.66308 
L 337.764976 124.767897 
L 338.131749 123.678651 
L 338.865293 120.871612 
L 352.069093 120.902393 
L 362.155329 120.868603 
L 362.888874 124.8824 
L 363.439032 126.56411 
L 363.98919 127.890208 
L 364.355962 129.572205 
L 364.722735 132.377896 
L 365.456279 140.783725 
L 367.106754 162.507826 
L 367.656912 173.411862 
L 368.573843 197.416544 
L 370.224318 245.94707 
L 371.141249 281.393054 
L 374.625585 431.421896 
L 376.092674 490.771755 
L 377.926535 560.000003 
L 379.026851 589.971399 
L 380.49394 625.21142 
L 381.044099 633.951288 
L 381.961029 644.159393 
L 383.428118 659.039256 
L 383.79489 660.903573 
L 384.161662 661.84764 
L 384.711821 662.75068 
L 385.078593 663.84925 
L 385.812137 666.665539 
L 398.099007 666.664579 
L 407.635085 666.660943 
L 409.102174 666.681712 
L 409.835718 662.668717 
L 410.385876 660.987734 
L 410.936035 659.659886 
L 411.302807 657.975472 
L 411.669579 655.167066 
L 412.403124 646.75673 
L 414.053599 625.021962 
L 414.603757 614.113315 
L 415.520687 590.100859 
L 417.171162 541.557205 
L 418.088093 506.106343 
L 421.572429 356.067859 
L 423.039518 296.721422 
L 424.873379 227.502481 
L 425.973696 197.540337 
L 427.440785 162.312801 
L 427.990943 153.573661 
L 428.907874 143.373694 
L 430.374962 128.50266 
L 430.741735 126.637364 
L 431.108507 125.693106 
L 431.658665 124.792584 
L 432.025437 123.696786 
L 432.575596 120.88277 
L 433.30914 124.898449 
L 433.859299 126.58187 
L 434.409457 127.911677 
L 434.776229 129.597451 
L 435.143001 132.407477 
L 435.876546 140.821264 
L 437.527021 162.562821 
L 438.077179 173.476932 
L 438.99411 197.493723 
L 440.644585 246.041041 
L 441.561515 281.502734 
L 445.045851 431.536472 
L 446.51294 490.874754 
L 448.346801 560.086594 
L 449.447118 590.044697 
L 450.914207 625.268142 
L 451.464365 634.005089 
L 452.381296 644.201424 
L 453.848385 659.069031 
L 454.215157 660.935901 
L 454.581929 661.88108 
L 455.132087 662.779695 
L 455.49886 663.872449 
L 456.232404 666.682722 
L 470.536521 666.665831 
L 479.52244 666.68715 
L 480.255985 662.673388 
L 480.806143 660.991675 
L 481.356301 659.665363 
L 481.723074 657.983129 
L 482.089846 655.177173 
L 482.82339 646.770805 
L 484.473865 625.045211 
L 485.024024 614.140682 
L 485.940954 590.135002 
L 487.591429 541.602706 
L 488.50836 506.156169 
L 491.992696 356.125992 
L 493.459785 296.776547 
L 495.293646 227.549507 
L 496.393962 197.579327 
L 497.861051 162.340954 
L 498.41121 153.601177 
L 499.32814 143.394145 
L 500.795229 128.515451 
L 501.162001 126.651013 
L 501.528774 125.706927 
L 502.078932 124.804217 
L 502.445704 123.706004 
L 503.179249 120.890059 
L 515.466118 120.892042 
L 526.836057 120.87632 
L 534.171501 120.895884 
L 539.122926 120.883367 
L 542.790649 120.895255 
L 549.942707 120.864418 
L 550.676251 124.873965 
L 551.22641 126.549223 
L 551.776568 127.874723 
L 552.14334 129.560003 
L 552.510112 132.369517 
L 553.243657 140.775021 
L 554.894132 162.483594 
L 555.44429 173.391404 
L 556.361221 197.391222 
L 558.011696 245.908264 
L 558.928626 281.35667 
L 562.412962 431.375234 
L 563.880051 490.726408 
L 565.713912 559.96222 
L 566.814229 589.941336 
L 568.281318 625.192168 
L 568.831476 633.932424 
L 569.748407 644.147205 
L 571.215496 659.034588 
L 571.582268 660.898671 
L 571.94904 661.842977 
L 572.499199 662.747783 
L 572.865971 663.847912 
L 573.416129 666.665969 
L 574.149674 662.653525 
L 574.699832 660.97423 
L 575.24999 659.644988 
L 575.616762 657.957632 
L 575.983535 655.145857 
L 576.717079 646.732617 
L 578.367554 624.998646 
L 578.917712 614.08375 
L 579.834643 590.069511 
L 581.485118 541.527999 
L 582.402049 506.06679 
L 585.886385 356.037547 
L 587.353474 296.698673 
L 589.187335 227.484241 
L 590.287651 197.523336 
L 591.75474 162.296047 
L 592.304899 153.558975 
L 593.221829 143.360197 
L 594.688918 128.489898 
L 595.05569 126.623212 
L 595.422462 125.678015 
L 595.972621 124.778728 
L 596.339393 123.685314 
L 596.889551 120.874023 
L 597.623096 124.893252 
L 598.173254 126.582447 
L 598.723412 127.914904 
L 599.090185 129.600139 
L 599.456957 132.409391 
L 600.190501 140.828348 
L 601.840976 162.596162 
L 602.391135 173.511487 
L 603.308065 197.540819 
L 604.95854 246.11391 
L 605.875471 281.578497 
L 609.359807 431.631186 
L 610.826896 490.96503 
L 612.660757 560.16179 
L 613.761074 590.104902 
L 615.228162 625.307967 
L 615.778321 634.043873 
L 616.695251 644.227423 
L 618.16234 659.080975 
L 618.529112 660.948921 
L 618.895885 661.894111 
L 619.446043 662.789138 
L 619.812815 663.87823 
L 620.54636 666.68513 
L 633.75016 666.65421 
L 659.607601 666.669403 
L 663.825482 666.680292 
L 667.309818 666.689597 
L 668.043362 662.681339 
L 668.593521 661.007721 
L 669.143679 659.682085 
L 669.510451 657.995661 
L 669.877224 655.18482 
L 670.610768 646.778496 
L 672.261243 625.070832 
L 672.811401 614.16121 
L 673.728332 590.160618 
L 675.378807 541.64322 
L 676.295737 506.193174 
L 679.780074 356.174294 
L 681.247162 296.823649 
L 683.081024 227.588561 
L 684.18134 197.610156 
L 685.648429 162.36022 
L 686.198587 153.620067 
L 687.115518 143.405961 
L 688.582607 128.519261 
L 688.949379 126.654989 
L 689.316151 125.710594 
L 689.86631 124.806065 
L 690.233082 123.706312 
L 690.966626 120.889042 
L 705.820901 120.889775 
L 737.730085 120.864616 
L 738.463629 124.874039 
L 739.013788 126.549129 
L 739.563946 127.874632 
L 739.930718 129.56002 
L 740.29749 132.369658 
L 741.031035 140.775216 
L 742.68151 162.483592 
L 743.231668 173.39156 
L 744.148599 197.39139 
L 745.799074 245.908343 
L 746.716004 281.356882 
L 750.20034 431.375375 
L 751.667429 490.726519 
L 753.50129 559.962338 
L 754.601607 589.941465 
L 756.068696 625.192319 
L 756.618854 633.932572 
L 757.535785 644.147359 
L 759.002874 659.034754 
L 759.369646 660.898848 
L 759.736418 661.843162 
L 760.286576 662.747963 
L 760.653349 663.848078 
L 761.203507 666.666117 
L 761.937051 662.653648 
L 762.48721 660.97431 
L 763.037368 659.645048 
L 763.40414 657.957695 
L 763.770913 655.145924 
L 764.504457 646.732643 
L 766.154932 624.998468 
L 766.70509 614.08356 
L 767.622021 590.069222 
L 769.272496 541.527506 
L 770.189426 506.066268 
L 773.673763 356.036859 
L 775.140851 296.69801 
L 776.974713 227.483683 
L 778.075029 197.522887 
L 779.542118 162.295747 
L 780.092276 153.558682 
L 781.009207 143.359999 
L 782.476296 128.489804 
L 782.843068 126.623111 
L 783.20984 125.677914 
L 783.759999 124.778654 
L 784.126771 123.685267 
L 784.860315 120.874422 
L 800.998293 120.901466 
L 808.150351 120.869579 
L 808.883896 124.883346 
L 809.434054 126.565073 
L 809.984213 127.8914 
L 810.350985 129.573642 
L 810.717757 132.379606 
L 811.451301 140.786009 
L 813.101776 162.511735 
L 813.651935 173.416287 
L 814.568865 197.422042 
L 816.21934 245.954483 
L 817.136271 281.40105 
L 820.620607 431.431333 
L 822.087696 490.780747 
L 823.921557 560.007688 
L 825.021874 589.977771 
L 826.488963 625.21601 
L 827.039121 633.95578 
L 827.956051 644.162726 
L 829.42314 659.041326 
L 829.789913 660.905772 
L 830.156685 661.849859 
L 830.706843 662.752544 
L 831.073615 663.85073 
L 831.80716 666.666649 
L 844.094029 666.664599 
L 855.097196 666.681901 
L 855.83074 662.668888 
L 856.380899 660.987892 
L 856.931057 659.660089 
L 857.297829 657.975734 
L 857.664601 655.167393 
L 858.398146 646.757171 
L 860.048621 625.022689 
L 860.598779 614.114155 
L 861.51571 590.1019 
L 863.166185 541.558588 
L 864.083115 506.107845 
L 867.567451 356.0696 
L 869.03454 296.723069 
L 870.868401 227.503877 
L 871.968718 197.541489 
L 873.435807 162.313622 
L 873.985965 153.574463 
L 874.902896 143.374282 
L 876.369985 128.503016 
L 876.736757 126.637746 
L 877.103529 125.693492 
L 877.653688 124.792905 
L 878.02046 123.697035 
L 878.570618 120.88295 
L 879.304163 124.898568 
L 879.854321 126.581903 
L 880.404479 127.91169 
L 880.771251 129.597489 
L 881.138024 132.407545 
L 881.871568 140.821299 
L 883.522043 162.562624 
L 884.072201 173.47674 
L 884.989132 197.493435 
L 886.639607 246.040546 
L 887.556538 281.502216 
L 891.040874 431.535793 
L 892.507963 490.874101 
L 894.341824 560.086045 
L 895.44214 590.044256 
L 896.909229 625.267848 
L 897.459388 634.004802 
L 898.376318 644.201231 
L 899.843407 659.068941 
L 900.210179 660.935803 
L 900.576951 661.880983 
L 901.12711 662.779624 
L 901.493882 663.872404 
L 902.227426 666.682702 
L 916.531543 666.665831 
L 925.517463 666.687144 
L 926.251007 662.673383 
L 926.801165 660.991669 
L 927.351324 659.665356 
L 927.718096 657.983121 
L 928.084868 655.177163 
L 928.818413 646.770792 
L 930.468888 625.045189 
L 931.019046 614.140658 
L 931.935976 590.134972 
L 933.586451 541.602666 
L 934.503382 506.156125 
L 937.987718 356.125941 
L 939.454807 296.776498 
L 941.288668 227.549466 
L 942.388985 197.579293 
L 943.856074 162.340929 
L 944.406232 153.601153 
L 945.323163 143.394127 
L 946.790251 128.51544 
L 947.157024 126.651002 
L 947.523796 125.706915 
L 948.073954 124.804207 
L 948.440726 123.705996 
L 949.174271 120.890053 
L 961.46114 120.892042 
L 972.831079 120.876319 
L 980.166524 120.895884 
L 985.117949 120.883367 
L 988.785671 120.895255 
L 997.221432 120.890078 
L 1006.574124 120.887896 
L 1014.092954 120.873149 
L 1019.411151 120.869109 
L 1020.144696 124.877457 
L 1020.694854 126.551677 
L 1021.245013 127.878236 
L 1021.611785 129.5653 
L 1021.978557 132.376846 
L 1022.712101 140.785494 
L 1024.362576 162.501383 
L 1024.912735 173.412776 
L 1025.829665 197.418335 
L 1027.48014 245.945141 
L 1028.397071 281.397498 
L 1031.881407 431.423943 
L 1033.348496 490.772866 
L 1035.182357 560.002128 
L 1036.282674 589.974531 
L 1037.749763 625.216272 
L 1038.299921 633.955989 
L 1039.216851 644.164764 
L 1040.68394 659.04563 
L 1041.050713 660.910437 
L 1041.417485 661.85488 
L 1041.967643 662.757801 
L 1042.334415 663.855858 
L 1042.884574 666.671908 
L 1043.618118 662.657616 
L 1044.168276 660.975778 
L 1044.718435 659.645895 
L 1045.085207 657.959249 
L 1045.451979 655.148286 
L 1046.185524 646.734011 
L 1047.835999 624.992923 
L 1048.386157 614.078126 
L 1049.303088 590.060891 
L 1050.953563 541.513009 
L 1051.870493 506.051059 
L 1055.354829 356.016769 
L 1056.821918 296.678663 
L 1058.655779 227.467383 
L 1059.756096 197.50979 
L 1061.223185 162.287032 
L 1061.773343 153.550158 
L 1062.690274 143.354259 
L 1064.157363 128.487128 
L 1064.524135 126.620211 
L 1064.890907 125.675023 
L 1065.441065 124.776543 
L 1065.807838 123.683939 
L 1066.357996 120.873397 
L 1067.09154 124.893181 
L 1067.641699 126.583092 
L 1068.191857 127.915611 
L 1068.558629 129.600531 
L 1068.925401 132.409438 
L 1069.658946 140.828408 
L 1071.309421 162.597329 
L 1071.859579 173.512461 
L 1072.77651 197.542097 
L 1074.426985 246.115941 
L 1075.343915 281.580532 
L 1078.828251 431.63369 
L 1080.29534 490.967407 
L 1082.129201 560.163765 
L 1083.229518 590.106475 
L 1084.696607 625.308993 
L 1085.246765 634.044882 
L 1086.163696 644.228094 
L 1087.630785 659.081272 
L 1087.997557 660.949244 
L 1088.364329 661.894431 
L 1088.914488 662.789368 
L 1089.28126 663.878372 
L 1089.831418 666.685576 
L 1090.564963 662.663321 
L 1091.115121 660.970151 
L 1091.665279 659.637321 
L 1092.032051 657.953813 
L 1092.398824 655.146467 
L 1093.132368 646.727356 
L 1094.782843 624.953003 
L 1095.333001 614.038717 
L 1096.249932 590.007488 
L 1097.900407 541.429792 
L 1098.817338 505.965157 
L 1102.301674 355.909625 
L 1103.768763 296.576612 
L 1105.602624 227.382412 
L 1106.70294 197.441834 
L 1108.170029 162.242216 
L 1108.720188 153.506423 
L 1109.637118 143.325 
L 1111.104207 128.473796 
L 1111.470979 126.605689 
L 1111.837751 125.660511 
L 1112.38791 124.766054 
L 1112.754682 123.677524 
L 1113.30484 120.87075 
L 1114.038385 124.89329 
L 1114.588543 126.586823 
L 1115.138701 127.919655 
L 1115.505474 129.602975 
L 1115.872246 132.410118 
L 1116.60579 140.82917 
L 1118.256265 162.603874 
L 1118.806424 173.51803 
L 1119.723354 197.549293 
L 1121.373829 246.127138 
L 1122.29076 281.591747 
L 1125.775096 431.647354 
L 1127.242185 490.980351 
L 1129.076046 560.174501 
L 1130.176363 590.115022 
L 1131.643451 625.314561 
L 1132.19361 634.050358 
L 1133.11054 644.231733 
L 1134.577629 659.082884 
L 1134.944401 660.950993 
L 1135.311174 661.896168 
L 1135.861332 662.790614 
L 1136.228104 663.879136 
L 1136.961649 666.685528 
L 1149.798677 666.654571 
L 1174.555802 666.686845 
L 1178.590296 666.680856 
L 1182.62479 666.667029 
L 1183.725107 666.689579 
L 1184.458652 664.680684 
L 1185.00881 663.837743 
L 1185.558968 663.174942 
L 1185.92574 662.335571 
L 1186.292513 660.934691 
L 1187.026057 656.733245 
L 1188.676532 645.871305 
L 1189.22669 640.424061 
L 1190.143621 628.423992 
L 1191.794096 604.160903 
L 1192.711027 586.446199 
L 1195.461818 528.316699 
L 1195.461818 528.316699 
" style="fill:none;stroke:#0000ff;stroke-linecap:square;stroke-width:1.5;"/>
   </g>
   <g id="patch_3">
    <path d="M 172.8 693.9864 
L 172.8 93.5712 
" style="fill:none;stroke:#000000;stroke-linecap:square;stroke-linejoin:miter;stroke-width:0.8;"/>
   </g>
   <g id="patch_4">
    <path d="M 1244.16 693.9864 
L 1244.16 93.5712 
" style="fill:none;stroke:#000000;stroke-linecap:square;stroke-linejoin:miter;stroke-width:0.8;"/>
   </g>
   <g id="patch_5">
    <path d="M 172.8 693.9864 
L 1244.16 693.9864 
" style="fill:none;stroke:#000000;stroke-linecap:square;stroke-linejoin:miter;stroke-width:0.8;"/>
   </g>
   <g id="patch_6">
    <path d="M 172.8 93.5712 
L 1244.16 93.5712 
" style="fill:none;stroke:#000000;stroke-linecap:square;stroke-linejoin:miter;stroke-width:0.8;"/>
   </g>
  </g>
 </g>
 <defs>
  <clipPath id="pcd500b4e92">
   <rect height="600.4152" width="1071.36" x="172.8" y="93.5712"/>
  </clipPath>
 </defs>
</svg>
