<?xml version="1.0" encoding="utf-8" standalone="no"?>
<!DOCTYPE svg PUBLIC "-//W3C//DTD SVG 1.1//EN"
  "http://www.w3.org/Graphics/SVG/1.1/DTD/svg11.dtd">
<!-- Created with matplotlib (https://matplotlib.org/) -->
<svg height="779.76pt" version="1.1" viewBox="0 0 1382.4 779.76" width="1382.4pt" xmlns="http://www.w3.org/2000/svg" xmlns:xlink="http://www.w3.org/1999/xlink">
 <defs>
  <style type="text/css">
*{stroke-linecap:butt;stroke-linejoin:round;}
  </style>
 </defs>
 <g id="figure_1">
  <g id="patch_1">
   <path d="M 0 779.76 
L 1382.4 779.76 
L 1382.4 0 
L 0 0 
z
" style="fill:#ffffff;"/>
  </g>
  <g id="axes_1">
   <g id="patch_2">
    <path d="M 172.8 693.9864 
L 1244.16 693.9864 
L 1244.16 93.5712 
L 172.8 93.5712 
z
" style="fill:#ffffff;"/>
   </g>
   <g id="matplotlib.axis_1">
    <g id="xtick_1">
     <g id="line2d_1">
      <defs>
       <path d="M 0 0 
L 0 3.5 
" id="m813380b600" style="stroke:#000000;stroke-width:0.8;"/>
      </defs>
      <g>
       <use style="stroke:#000000;stroke-width:0.8;" x="221.498182" xlink:href="#m813380b600" y="693.9864"/>
      </g>
     </g>
     <g id="text_1">
      <!-- 0 -->
      <defs>
       <path d="M 31.78125 66.40625 
Q 24.171875 66.40625 20.328125 58.90625 
Q 16.5 51.421875 16.5 36.375 
Q 16.5 21.390625 20.328125 13.890625 
Q 24.171875 6.390625 31.78125 6.390625 
Q 39.453125 6.390625 43.28125 13.890625 
Q 47.125 21.390625 47.125 36.375 
Q 47.125 51.421875 43.28125 58.90625 
Q 39.453125 66.40625 31.78125 66.40625 
z
M 31.78125 74.21875 
Q 44.046875 74.21875 50.515625 64.515625 
Q 56.984375 54.828125 56.984375 36.375 
Q 56.984375 17.96875 50.515625 8.265625 
Q 44.046875 -1.421875 31.78125 -1.421875 
Q 19.53125 -1.421875 13.0625 8.265625 
Q 6.59375 17.96875 6.59375 36.375 
Q 6.59375 54.828125 13.0625 64.515625 
Q 19.53125 74.21875 31.78125 74.21875 
z
" id="DejaVuSans-48"/>
      </defs>
      <g transform="translate(218.316932 708.584838)scale(0.1 -0.1)">
       <use xlink:href="#DejaVuSans-48"/>
      </g>
     </g>
    </g>
    <g id="xtick_2">
     <g id="line2d_2">
      <g>
       <use style="stroke:#000000;stroke-width:0.8;" x="404.884293" xlink:href="#m813380b600" y="693.9864"/>
      </g>
     </g>
     <g id="text_2">
      <!-- 1000 -->
      <defs>
       <path d="M 12.40625 8.296875 
L 28.515625 8.296875 
L 28.515625 63.921875 
L 10.984375 60.40625 
L 10.984375 69.390625 
L 28.421875 72.90625 
L 38.28125 72.90625 
L 38.28125 8.296875 
L 54.390625 8.296875 
L 54.390625 0 
L 12.40625 0 
z
" id="DejaVuSans-49"/>
      </defs>
      <g transform="translate(392.159293 708.584838)scale(0.1 -0.1)">
       <use xlink:href="#DejaVuSans-49"/>
       <use x="63.623047" xlink:href="#DejaVuSans-48"/>
       <use x="127.246094" xlink:href="#DejaVuSans-48"/>
       <use x="190.869141" xlink:href="#DejaVuSans-48"/>
      </g>
     </g>
    </g>
    <g id="xtick_3">
     <g id="line2d_3">
      <g>
       <use style="stroke:#000000;stroke-width:0.8;" x="588.270404" xlink:href="#m813380b600" y="693.9864"/>
      </g>
     </g>
     <g id="text_3">
      <!-- 2000 -->
      <defs>
       <path d="M 19.1875 8.296875 
L 53.609375 8.296875 
L 53.609375 0 
L 7.328125 0 
L 7.328125 8.296875 
Q 12.9375 14.109375 22.625 23.890625 
Q 32.328125 33.6875 34.8125 36.53125 
Q 39.546875 41.84375 41.421875 45.53125 
Q 43.3125 49.21875 43.3125 52.78125 
Q 43.3125 58.59375 39.234375 62.25 
Q 35.15625 65.921875 28.609375 65.921875 
Q 23.96875 65.921875 18.8125 64.3125 
Q 13.671875 62.703125 7.8125 59.421875 
L 7.8125 69.390625 
Q 13.765625 71.78125 18.9375 73 
Q 24.125 74.21875 28.421875 74.21875 
Q 39.75 74.21875 46.484375 68.546875 
Q 53.21875 62.890625 53.21875 53.421875 
Q 53.21875 48.921875 51.53125 44.890625 
Q 49.859375 40.875 45.40625 35.40625 
Q 44.1875 33.984375 37.640625 27.21875 
Q 31.109375 20.453125 19.1875 8.296875 
z
" id="DejaVuSans-50"/>
      </defs>
      <g transform="translate(575.545404 708.584838)scale(0.1 -0.1)">
       <use xlink:href="#DejaVuSans-50"/>
       <use x="63.623047" xlink:href="#DejaVuSans-48"/>
       <use x="127.246094" xlink:href="#DejaVuSans-48"/>
       <use x="190.869141" xlink:href="#DejaVuSans-48"/>
      </g>
     </g>
    </g>
    <g id="xtick_4">
     <g id="line2d_4">
      <g>
       <use style="stroke:#000000;stroke-width:0.8;" x="771.656515" xlink:href="#m813380b600" y="693.9864"/>
      </g>
     </g>
     <g id="text_4">
      <!-- 3000 -->
      <defs>
       <path d="M 40.578125 39.3125 
Q 47.65625 37.796875 51.625 33 
Q 55.609375 28.21875 55.609375 21.1875 
Q 55.609375 10.40625 48.1875 4.484375 
Q 40.765625 -1.421875 27.09375 -1.421875 
Q 22.515625 -1.421875 17.65625 -0.515625 
Q 12.796875 0.390625 7.625 2.203125 
L 7.625 11.71875 
Q 11.71875 9.328125 16.59375 8.109375 
Q 21.484375 6.890625 26.8125 6.890625 
Q 36.078125 6.890625 40.9375 10.546875 
Q 45.796875 14.203125 45.796875 21.1875 
Q 45.796875 27.640625 41.28125 31.265625 
Q 36.765625 34.90625 28.71875 34.90625 
L 20.21875 34.90625 
L 20.21875 43.015625 
L 29.109375 43.015625 
Q 36.375 43.015625 40.234375 45.921875 
Q 44.09375 48.828125 44.09375 54.296875 
Q 44.09375 59.90625 40.109375 62.90625 
Q 36.140625 65.921875 28.71875 65.921875 
Q 24.65625 65.921875 20.015625 65.03125 
Q 15.375 64.15625 9.8125 62.3125 
L 9.8125 71.09375 
Q 15.4375 72.65625 20.34375 73.4375 
Q 25.25 74.21875 29.59375 74.21875 
Q 40.828125 74.21875 47.359375 69.109375 
Q 53.90625 64.015625 53.90625 55.328125 
Q 53.90625 49.265625 50.4375 45.09375 
Q 46.96875 40.921875 40.578125 39.3125 
z
" id="DejaVuSans-51"/>
      </defs>
      <g transform="translate(758.931515 708.584838)scale(0.1 -0.1)">
       <use xlink:href="#DejaVuSans-51"/>
       <use x="63.623047" xlink:href="#DejaVuSans-48"/>
       <use x="127.246094" xlink:href="#DejaVuSans-48"/>
       <use x="190.869141" xlink:href="#DejaVuSans-48"/>
      </g>
     </g>
    </g>
    <g id="xtick_5">
     <g id="line2d_5">
      <g>
       <use style="stroke:#000000;stroke-width:0.8;" x="955.042626" xlink:href="#m813380b600" y="693.9864"/>
      </g>
     </g>
     <g id="text_5">
      <!-- 4000 -->
      <defs>
       <path d="M 37.796875 64.3125 
L 12.890625 25.390625 
L 37.796875 25.390625 
z
M 35.203125 72.90625 
L 47.609375 72.90625 
L 47.609375 25.390625 
L 58.015625 25.390625 
L 58.015625 17.1875 
L 47.609375 17.1875 
L 47.609375 0 
L 37.796875 0 
L 37.796875 17.1875 
L 4.890625 17.1875 
L 4.890625 26.703125 
z
" id="DejaVuSans-52"/>
      </defs>
      <g transform="translate(942.317626 708.584838)scale(0.1 -0.1)">
       <use xlink:href="#DejaVuSans-52"/>
       <use x="63.623047" xlink:href="#DejaVuSans-48"/>
       <use x="127.246094" xlink:href="#DejaVuSans-48"/>
       <use x="190.869141" xlink:href="#DejaVuSans-48"/>
      </g>
     </g>
    </g>
    <g id="xtick_6">
     <g id="line2d_6">
      <g>
       <use style="stroke:#000000;stroke-width:0.8;" x="1138.428738" xlink:href="#m813380b600" y="693.9864"/>
      </g>
     </g>
     <g id="text_6">
      <!-- 5000 -->
      <defs>
       <path d="M 10.796875 72.90625 
L 49.515625 72.90625 
L 49.515625 64.59375 
L 19.828125 64.59375 
L 19.828125 46.734375 
Q 21.96875 47.46875 24.109375 47.828125 
Q 26.265625 48.1875 28.421875 48.1875 
Q 40.625 48.1875 47.75 41.5 
Q 54.890625 34.8125 54.890625 23.390625 
Q 54.890625 11.625 47.5625 5.09375 
Q 40.234375 -1.421875 26.90625 -1.421875 
Q 22.3125 -1.421875 17.546875 -0.640625 
Q 12.796875 0.140625 7.71875 1.703125 
L 7.71875 11.625 
Q 12.109375 9.234375 16.796875 8.0625 
Q 21.484375 6.890625 26.703125 6.890625 
Q 35.15625 6.890625 40.078125 11.328125 
Q 45.015625 15.765625 45.015625 23.390625 
Q 45.015625 31 40.078125 35.4375 
Q 35.15625 39.890625 26.703125 39.890625 
Q 22.75 39.890625 18.8125 39.015625 
Q 14.890625 38.140625 10.796875 36.28125 
z
" id="DejaVuSans-53"/>
      </defs>
      <g transform="translate(1125.703738 708.584838)scale(0.1 -0.1)">
       <use xlink:href="#DejaVuSans-53"/>
       <use x="63.623047" xlink:href="#DejaVuSans-48"/>
       <use x="127.246094" xlink:href="#DejaVuSans-48"/>
       <use x="190.869141" xlink:href="#DejaVuSans-48"/>
      </g>
     </g>
    </g>
   </g>
   <g id="matplotlib.axis_2">
    <g id="ytick_1">
     <g id="line2d_7">
      <defs>
       <path d="M 0 0 
L -3.5 0 
" id="m433e2f4fd6" style="stroke:#000000;stroke-width:0.8;"/>
      </defs>
      <g>
       <use style="stroke:#000000;stroke-width:0.8;" x="172.8" xlink:href="#m433e2f4fd6" y="612.097059"/>
      </g>
     </g>
     <g id="text_7">
      <!-- −0.4 -->
      <defs>
       <path d="M 10.59375 35.5 
L 73.1875 35.5 
L 73.1875 27.203125 
L 10.59375 27.203125 
z
" id="DejaVuSans-8722"/>
       <path d="M 10.6875 12.40625 
L 21 12.40625 
L 21 0 
L 10.6875 0 
z
" id="DejaVuSans-46"/>
      </defs>
      <g transform="translate(141.517187 615.896278)scale(0.1 -0.1)">
       <use xlink:href="#DejaVuSans-8722"/>
       <use x="83.789062" xlink:href="#DejaVuSans-48"/>
       <use x="147.412109" xlink:href="#DejaVuSans-46"/>
       <use x="179.199219" xlink:href="#DejaVuSans-52"/>
      </g>
     </g>
    </g>
    <g id="ytick_2">
     <g id="line2d_8">
      <g>
       <use style="stroke:#000000;stroke-width:0.8;" x="172.8" xlink:href="#m433e2f4fd6" y="502.937539"/>
      </g>
     </g>
     <g id="text_8">
      <!-- −0.2 -->
      <g transform="translate(141.517187 506.736757)scale(0.1 -0.1)">
       <use xlink:href="#DejaVuSans-8722"/>
       <use x="83.789062" xlink:href="#DejaVuSans-48"/>
       <use x="147.412109" xlink:href="#DejaVuSans-46"/>
       <use x="179.199219" xlink:href="#DejaVuSans-50"/>
      </g>
     </g>
    </g>
    <g id="ytick_3">
     <g id="line2d_9">
      <g>
       <use style="stroke:#000000;stroke-width:0.8;" x="172.8" xlink:href="#m433e2f4fd6" y="393.778019"/>
      </g>
     </g>
     <g id="text_9">
      <!-- 0.0 -->
      <g transform="translate(149.896875 397.577237)scale(0.1 -0.1)">
       <use xlink:href="#DejaVuSans-48"/>
       <use x="63.623047" xlink:href="#DejaVuSans-46"/>
       <use x="95.410156" xlink:href="#DejaVuSans-48"/>
      </g>
     </g>
    </g>
    <g id="ytick_4">
     <g id="line2d_10">
      <g>
       <use style="stroke:#000000;stroke-width:0.8;" x="172.8" xlink:href="#m433e2f4fd6" y="284.618499"/>
      </g>
     </g>
     <g id="text_10">
      <!-- 0.2 -->
      <g transform="translate(149.896875 288.417717)scale(0.1 -0.1)">
       <use xlink:href="#DejaVuSans-48"/>
       <use x="63.623047" xlink:href="#DejaVuSans-46"/>
       <use x="95.410156" xlink:href="#DejaVuSans-50"/>
      </g>
     </g>
    </g>
    <g id="ytick_5">
     <g id="line2d_11">
      <g>
       <use style="stroke:#000000;stroke-width:0.8;" x="172.8" xlink:href="#m433e2f4fd6" y="175.458978"/>
      </g>
     </g>
     <g id="text_11">
      <!-- 0.4 -->
      <g transform="translate(149.896875 179.258197)scale(0.1 -0.1)">
       <use xlink:href="#DejaVuSans-48"/>
       <use x="63.623047" xlink:href="#DejaVuSans-46"/>
       <use x="95.410156" xlink:href="#DejaVuSans-52"/>
      </g>
     </g>
    </g>
   </g>
   <g id="line2d_12">
    <path clip-path="url(#pa69fb73c12)" d="M 221.498182 394.328087 
L 222.04834 395.77828 
L 222.598498 396.610295 
L 223.148657 397.273491 
L 223.515429 398.119951 
L 223.882201 399.529112 
L 224.615746 403.734403 
L 226.266221 414.585192 
L 226.816379 420.044514 
L 227.73331 432.046587 
L 229.383785 456.305838 
L 230.300715 474.032481 
L 233.785051 549.042381 
L 235.25214 578.717183 
L 237.086001 613.334099 
L 238.186318 628.319583 
L 239.653407 645.940102 
L 240.203565 650.313891 
L 241.120496 655.416679 
L 242.587585 662.856071 
L 242.954357 663.790472 
L 243.321129 664.263675 
L 244.054673 664.946367 
L 244.421446 665.661525 
L 244.788218 666.666794 
L 288.434112 666.682111 
L 294.485854 666.683631 
L 307.322882 666.674956 
L 314.108168 666.669064 
L 315.208485 666.686072 
L 315.942029 662.677126 
L 316.492187 661.002 
L 317.042346 659.675196 
L 317.409118 657.988418 
L 317.77589 655.177223 
L 318.509435 646.76821 
L 320.15991 625.049399 
L 320.710068 614.138276 
L 321.626999 590.131585 
L 323.277474 541.602182 
L 324.194404 506.149986 
L 327.67874 356.122062 
L 329.145829 296.773781 
L 330.97969 227.546441 
L 332.080007 197.575815 
L 333.547096 162.336503 
L 334.097254 153.596923 
L 335.014185 143.389623 
L 336.481274 128.51041 
L 336.848046 126.64552 
L 337.214818 125.701103 
L 337.764976 124.798584 
L 338.131749 123.700917 
L 338.681907 120.885231 
L 339.415451 124.899761 
L 339.96561 126.581898 
L 340.515768 127.911786 
L 340.88254 129.598279 
L 341.249312 132.409071 
L 341.982857 140.823274 
L 343.633332 162.564568 
L 344.18349 173.479215 
L 345.100421 197.496378 
L 346.750896 246.044172 
L 347.667826 281.505946 
L 351.152162 431.539634 
L 352.619251 490.877463 
L 354.453112 560.088392 
L 355.553429 590.045804 
L 357.020518 625.26834 
L 357.570676 634.005177 
L 358.487607 644.200991 
L 359.954696 659.068011 
L 360.321468 660.934921 
L 360.68824 661.880104 
L 361.238399 662.77857 
L 361.605171 663.871162 
L 362.155329 666.681687 
L 362.888874 662.661921 
L 363.439032 660.972019 
L 363.98919 659.639511 
L 364.355962 657.954601 
L 364.722735 655.14571 
L 365.456279 646.726788 
L 367.106754 624.958003 
L 367.656912 614.042925 
L 368.573843 590.013419 
L 370.224318 541.439838 
L 371.141249 505.975415 
L 374.625585 355.922977 
L 376.092674 296.589525 
L 377.926535 227.393462 
L 379.026851 197.450866 
L 380.49394 162.248478 
L 381.044099 153.512627 
L 381.961029 143.329443 
L 383.428118 128.476311 
L 383.79489 126.60835 
L 384.161662 125.663167 
L 384.711821 124.768228 
L 385.078593 123.679224 
L 385.628751 120.872027 
L 386.362296 124.894259 
L 386.912454 126.587416 
L 387.462612 127.920239 
L 387.829385 129.603741 
L 388.196157 132.411077 
L 388.929701 140.830149 
L 390.580176 162.604391 
L 391.130335 173.518628 
L 392.047265 197.549742 
L 393.69774 246.127206 
L 394.614671 281.591677 
L 398.099007 431.646511 
L 399.566096 490.979251 
L 401.399957 560.173136 
L 402.500274 590.11358 
L 403.967362 625.31304 
L 404.517521 634.048794 
L 405.434451 644.230173 
L 406.90154 659.081313 
L 407.268312 660.949411 
L 407.635085 661.894584 
L 408.185243 662.789038 
L 408.552015 663.877564 
L 409.102174 666.684326 
L 409.835718 662.661805 
L 410.385876 660.968281 
L 410.936035 659.635455 
L 411.302807 657.952143 
L 411.669579 655.145012 
L 412.403124 646.725999 
L 414.053599 624.951397 
L 414.603757 614.037291 
L 415.520687 590.006139 
L 417.171162 541.428519 
L 418.088093 505.964074 
L 421.572429 355.909161 
L 423.039518 296.576438 
L 424.873379 227.382608 
L 425.973696 197.442225 
L 427.440785 162.242848 
L 427.990943 153.507092 
L 428.907874 143.325764 
L 430.374962 128.474681 
L 430.741735 126.606581 
L 431.108507 125.66141 
L 431.658665 124.766968 
L 432.025437 123.678451 
L 432.758982 120.872072 
L 445.59601 120.903028 
L 470.353135 120.870755 
L 474.387629 120.876744 
L 478.422124 120.890571 
L 485.20741 120.871416 
L 497.677665 120.87433 
L 504.646337 120.888656 
L 518.767068 120.885417 
L 525.368968 120.888683 
L 532.704412 120.869746 
L 540.039857 120.88857 
L 547.375301 120.870043 
L 554.894132 120.885269 
L 559.845557 120.885236 
L 566.630843 120.885229 
L 571.582268 120.885244 
L 578.367554 120.885266 
L 583.318979 120.885288 
L 589.920879 120.888324 
L 597.43971 120.873126 
L 602.391135 120.873128 
L 608.993035 120.87011 
L 616.511865 120.885297 
L 621.46329 120.885293 
L 628.06519 120.888306 
L 635.584021 120.873147 
L 640.535446 120.873146 
L 647.137346 120.870128 
L 654.656176 120.885294 
L 659.607601 120.885295 
L 666.209501 120.888313 
L 667.309818 120.868491 
L 668.043362 124.877596 
L 668.593521 126.552736 
L 669.143679 127.87914 
L 669.510451 129.565474 
L 669.877224 132.376171 
L 670.610768 140.784119 
L 672.261243 162.499798 
L 672.811401 173.40993 
L 673.728332 197.414532 
L 675.378807 245.940168 
L 676.295737 281.391211 
L 679.780074 431.416204 
L 681.247162 490.765308 
L 683.081024 559.995139 
L 684.18134 589.968291 
L 685.648429 625.211033 
L 686.198587 633.950807 
L 687.115518 644.160342 
L 688.582607 659.041991 
L 688.949379 660.906637 
L 689.316151 661.851019 
L 689.86631 662.754221 
L 690.233082 663.852623 
L 690.966626 666.668612 
L 704.720585 666.665993 
L 737.546699 666.688231 
L 737.730085 666.690327 
L 738.463629 662.680989 
L 739.013788 661.005988 
L 739.563946 659.680478 
L 739.930718 657.995034 
L 740.29749 655.185335 
L 741.031035 646.77976 
L 742.68151 625.071487 
L 743.231668 614.163464 
L 744.148599 590.163678 
L 745.799074 541.646881 
L 746.716004 506.198407 
L 750.20034 356.18055 
L 751.667429 296.829715 
L 753.50129 227.594283 
L 754.601607 197.615362 
L 756.068696 162.364759 
L 756.618854 153.624555 
L 757.535785 143.409878 
L 759.002874 128.522617 
L 759.369646 126.658519 
L 759.736418 125.714204 
L 760.286576 124.80943 
L 760.653349 123.709349 
L 761.203507 120.891352 
L 761.937051 124.903833 
L 762.48721 126.583209 
L 763.037368 127.912481 
L 763.40414 129.599817 
L 763.770913 132.411564 
L 764.504457 140.824835 
L 766.154932 162.559072 
L 766.70509 173.473934 
L 767.622021 197.488235 
L 769.272496 246.029882 
L 770.189426 281.490976 
L 773.673763 431.519817 
L 775.140851 490.858373 
L 776.974713 560.072303 
L 778.075029 590.032879 
L 779.542118 625.259745 
L 780.092276 633.996764 
L 781.009207 644.195329 
L 782.476296 659.065377 
L 782.843068 660.932067 
L 783.20984 661.87726 
L 783.759999 662.776496 
L 784.126771 663.869857 
L 784.860315 666.68067 
L 800.998293 666.653601 
L 808.150351 666.685503 
L 808.883896 662.671754 
L 809.434054 660.990035 
L 809.984213 659.663715 
L 810.350985 657.981482 
L 810.717757 655.175532 
L 811.451301 646.76917 
L 813.101776 625.043553 
L 813.651935 614.139054 
L 814.568865 590.133415 
L 816.21934 541.601207 
L 817.136271 506.154807 
L 820.620607 356.125224 
L 822.087696 296.776083 
L 823.921557 227.549455 
L 825.021874 197.579505 
L 826.488963 162.34142 
L 827.039121 153.60169 
L 827.956051 143.394785 
L 829.42314 128.516248 
L 829.789913 126.651811 
L 830.156685 125.707729 
L 830.706843 124.805047 
L 831.073615 123.706864 
L 831.80716 120.890956 
L 844.094029 120.893001 
L 855.097196 120.8757 
L 855.83074 124.888694 
L 856.380899 126.569683 
L 856.931057 127.89748 
L 857.297829 129.581827 
L 857.664601 132.390155 
L 858.398146 140.800339 
L 860.048621 162.534722 
L 860.598779 173.443206 
L 861.51571 197.455351 
L 863.166185 245.99844 
L 864.083115 281.44902 
L 867.567451 431.486572 
L 869.03454 490.832828 
L 870.868401 560.051699 
L 871.968718 590.013948 
L 873.435807 625.24165 
L 873.985965 633.980769 
L 874.902896 644.180902 
L 876.369985 659.052098 
L 876.736757 660.91736 
L 877.103529 661.861608 
L 877.653688 662.762191 
L 878.02046 663.858056 
L 878.570618 666.672127 
L 879.304163 662.656528 
L 879.854321 660.9732 
L 880.404479 659.643419 
L 880.771251 657.957628 
L 881.138024 655.147586 
L 881.871568 646.73387 
L 883.522043 624.992645 
L 884.072201 614.078579 
L 884.989132 590.061995 
L 886.639607 541.515107 
L 887.556538 506.053601 
L 891.040874 356.020716 
L 892.507963 296.682683 
L 894.341824 227.47106 
L 895.44214 197.512988 
L 896.909229 162.289559 
L 897.459388 153.552645 
L 898.376318 143.356264 
L 899.843407 128.488623 
L 900.210179 126.62177 
L 900.576951 125.676594 
L 901.12711 124.777958 
L 901.493882 123.685182 
L 902.227426 120.874898 
L 916.531543 120.891768 
L 925.517463 120.870456 
L 926.251007 124.884199 
L 926.801165 126.565904 
L 927.351324 127.892212 
L 927.718096 129.574439 
L 928.084868 132.380383 
L 928.818413 140.786715 
L 930.468888 162.512218 
L 931.019046 173.416699 
L 931.935976 197.422274 
L 933.586451 245.954356 
L 934.503382 281.400732 
L 937.987718 431.430223 
L 939.454807 490.779392 
L 941.288668 560.006104 
L 942.388985 589.976139 
L 943.856074 625.214339 
L 944.406232 633.954075 
L 945.323163 644.161054 
L 946.790251 659.039672 
L 947.157024 660.904102 
L 947.523796 661.848184 
L 948.073954 662.750888 
L 948.440726 663.849094 
L 949.174271 666.665024 
L 961.46114 666.663035 
L 972.831079 666.678758 
L 980.166524 666.659193 
L 985.117949 666.67171 
L 988.785671 666.659822 
L 997.221432 666.664998 
L 1006.574124 666.667181 
L 1014.092954 666.681928 
L 1019.411151 666.685968 
L 1020.144696 662.677638 
L 1020.694854 661.003426 
L 1021.245013 659.676873 
L 1021.611785 657.989817 
L 1021.978557 655.178284 
L 1022.712101 646.769675 
L 1024.362576 625.053886 
L 1024.912735 614.142544 
L 1025.829665 590.137096 
L 1027.48014 541.610514 
L 1028.397071 506.158321 
L 1031.881407 356.132569 
L 1033.348496 296.783921 
L 1035.182357 227.554979 
L 1036.282674 197.582714 
L 1037.749763 162.341137 
L 1038.299921 153.601459 
L 1039.216851 143.392732 
L 1040.68394 128.511934 
L 1041.050713 126.647136 
L 1041.417485 125.702698 
L 1041.967643 124.799781 
L 1042.334415 123.701729 
L 1042.884574 120.885692 
L 1043.618118 124.899966 
L 1044.168276 126.581795 
L 1044.718435 127.911673 
L 1045.085207 129.598311 
L 1045.451979 132.409261 
L 1046.185524 140.823496 
L 1047.835999 162.564484 
L 1048.386157 173.479231 
L 1049.303088 197.496355 
L 1050.953563 246.044012 
L 1051.870493 281.505798 
L 1055.354829 431.539395 
L 1056.821918 490.877227 
L 1058.655779 560.088186 
L 1059.756096 590.045641 
L 1061.223185 625.268236 
L 1061.773343 634.00507 
L 1062.690274 644.200921 
L 1064.157363 659.067984 
L 1064.524135 660.934892 
L 1064.890907 661.880076 
L 1065.441065 662.778552 
L 1065.807838 663.87115 
L 1066.357996 666.68168 
L 1067.09154 662.661914 
L 1067.641699 660.972011 
L 1068.191857 659.639498 
L 1068.558629 657.954586 
L 1068.925401 655.145692 
L 1069.658946 646.726761 
L 1071.309421 624.957941 
L 1071.859579 614.042859 
L 1072.77651 590.013334 
L 1074.426985 541.439715 
L 1075.343915 505.975288 
L 1078.828251 355.922824 
L 1080.29534 296.589381 
L 1082.129201 227.393342 
L 1083.229518 197.450771 
L 1084.696607 162.248416 
L 1085.246765 153.512567 
L 1086.163696 143.329403 
L 1087.630785 128.476293 
L 1087.997557 126.60833 
L 1088.364329 125.663147 
L 1088.914488 124.768214 
L 1089.28126 123.679215 
L 1089.831418 120.872024 
L 1090.564963 124.89426 
L 1091.115121 126.587422 
L 1091.665279 127.920247 
L 1092.032051 129.603746 
L 1092.398824 132.41108 
L 1093.132368 140.830152 
L 1094.782843 162.604404 
L 1095.333001 173.51864 
L 1096.249932 197.549757 
L 1097.900407 246.127229 
L 1098.817338 281.5917 
L 1102.301674 431.646538 
L 1103.768763 490.979277 
L 1105.602624 560.173157 
L 1106.70294 590.113597 
L 1108.170029 625.313052 
L 1108.720188 634.048805 
L 1109.637118 644.23018 
L 1111.104207 659.081316 
L 1111.470979 660.949415 
L 1111.837751 661.894588 
L 1112.38791 662.78904 
L 1112.754682 663.877566 
L 1113.30484 666.684327 
L 1114.038385 662.661805 
L 1114.588543 660.96828 
L 1115.138701 659.635454 
L 1115.505474 657.952142 
L 1115.872246 655.145012 
L 1116.60579 646.725999 
L 1118.256265 624.951396 
L 1118.806424 614.03729 
L 1119.723354 590.006139 
L 1121.373829 541.428518 
L 1122.29076 505.964073 
L 1125.775096 355.90916 
L 1127.242185 296.576437 
L 1129.076046 227.382607 
L 1130.176363 197.442224 
L 1131.643451 162.242848 
L 1132.19361 153.507091 
L 1133.11054 143.325763 
L 1134.577629 128.474681 
L 1134.944401 126.606581 
L 1135.311174 125.661409 
L 1135.861332 124.766968 
L 1136.228104 123.678451 
L 1136.961649 120.872072 
L 1149.798677 120.903028 
L 1174.555802 120.870755 
L 1178.590296 120.876744 
L 1182.62479 120.890571 
L 1183.725107 120.868021 
L 1184.458652 122.876906 
L 1185.00881 123.719844 
L 1185.558968 124.382642 
L 1185.92574 125.222009 
L 1186.292513 126.622882 
L 1187.026057 130.824309 
L 1188.676532 141.686199 
L 1189.22669 147.133417 
L 1190.143621 159.133431 
L 1191.794096 183.396408 
L 1192.711027 201.11103 
L 1195.461818 259.240261 
L 1195.461818 259.240261 
" style="fill:none;stroke:#0000ff;stroke-linecap:square;stroke-width:1.5;"/>
   </g>
   <g id="patch_3">
    <path d="M 172.8 693.9864 
L 172.8 93.5712 
" style="fill:none;stroke:#000000;stroke-linecap:square;stroke-linejoin:miter;stroke-width:0.8;"/>
   </g>
   <g id="patch_4">
    <path d="M 1244.16 693.9864 
L 1244.16 93.5712 
" style="fill:none;stroke:#000000;stroke-linecap:square;stroke-linejoin:miter;stroke-width:0.8;"/>
   </g>
   <g id="patch_5">
    <path d="M 172.8 693.9864 
L 1244.16 693.9864 
" style="fill:none;stroke:#000000;stroke-linecap:square;stroke-linejoin:miter;stroke-width:0.8;"/>
   </g>
   <g id="patch_6">
    <path d="M 172.8 93.5712 
L 1244.16 93.5712 
" style="fill:none;stroke:#000000;stroke-linecap:square;stroke-linejoin:miter;stroke-width:0.8;"/>
   </g>
  </g>
 </g>
 <defs>
  <clipPath id="pa69fb73c12">
   <rect height="600.4152" width="1071.36" x="172.8" y="93.5712"/>
  </clipPath>
 </defs>
</svg>
