<?xml version="1.0" encoding="utf-8" standalone="no"?>
<!DOCTYPE svg PUBLIC "-//W3C//DTD SVG 1.1//EN"
  "http://www.w3.org/Graphics/SVG/1.1/DTD/svg11.dtd">
<!-- Created with matplotlib (https://matplotlib.org/) -->
<svg height="779.76pt" version="1.1" viewBox="0 0 1382.4 779.76" width="1382.4pt" xmlns="http://www.w3.org/2000/svg" xmlns:xlink="http://www.w3.org/1999/xlink">
 <defs>
  <style type="text/css">
*{stroke-linecap:butt;stroke-linejoin:round;}
  </style>
 </defs>
 <g id="figure_1">
  <g id="patch_1">
   <path d="M 0 779.76 
L 1382.4 779.76 
L 1382.4 0 
L 0 0 
z
" style="fill:#ffffff;"/>
  </g>
  <g id="axes_1">
   <g id="patch_2">
    <path d="M 172.8 693.9864 
L 1244.16 693.9864 
L 1244.16 93.5712 
L 172.8 93.5712 
z
" style="fill:#ffffff;"/>
   </g>
   <g id="matplotlib.axis_1">
    <g id="xtick_1">
     <g id="line2d_1">
      <defs>
       <path d="M 0 0 
L 0 3.5 
" id="mf41e169d87" style="stroke:#000000;stroke-width:0.8;"/>
      </defs>
      <g>
       <use style="stroke:#000000;stroke-width:0.8;" x="363.292086" xlink:href="#mf41e169d87" y="693.9864"/>
      </g>
     </g>
     <g id="text_1">
      <!-- 3000 -->
      <defs>
       <path d="M 40.578125 39.3125 
Q 47.65625 37.796875 51.625 33 
Q 55.609375 28.21875 55.609375 21.1875 
Q 55.609375 10.40625 48.1875 4.484375 
Q 40.765625 -1.421875 27.09375 -1.421875 
Q 22.515625 -1.421875 17.65625 -0.515625 
Q 12.796875 0.390625 7.625 2.203125 
L 7.625 11.71875 
Q 11.71875 9.328125 16.59375 8.109375 
Q 21.484375 6.890625 26.8125 6.890625 
Q 36.078125 6.890625 40.9375 10.546875 
Q 45.796875 14.203125 45.796875 21.1875 
Q 45.796875 27.640625 41.28125 31.265625 
Q 36.765625 34.90625 28.71875 34.90625 
L 20.21875 34.90625 
L 20.21875 43.015625 
L 29.109375 43.015625 
Q 36.375 43.015625 40.234375 45.921875 
Q 44.09375 48.828125 44.09375 54.296875 
Q 44.09375 59.90625 40.109375 62.90625 
Q 36.140625 65.921875 28.71875 65.921875 
Q 24.65625 65.921875 20.015625 65.03125 
Q 15.375 64.15625 9.8125 62.3125 
L 9.8125 71.09375 
Q 15.4375 72.65625 20.34375 73.4375 
Q 25.25 74.21875 29.59375 74.21875 
Q 40.828125 74.21875 47.359375 69.109375 
Q 53.90625 64.015625 53.90625 55.328125 
Q 53.90625 49.265625 50.4375 45.09375 
Q 46.96875 40.921875 40.578125 39.3125 
z
" id="DejaVuSans-51"/>
       <path d="M 31.78125 66.40625 
Q 24.171875 66.40625 20.328125 58.90625 
Q 16.5 51.421875 16.5 36.375 
Q 16.5 21.390625 20.328125 13.890625 
Q 24.171875 6.390625 31.78125 6.390625 
Q 39.453125 6.390625 43.28125 13.890625 
Q 47.125 21.390625 47.125 36.375 
Q 47.125 51.421875 43.28125 58.90625 
Q 39.453125 66.40625 31.78125 66.40625 
z
M 31.78125 74.21875 
Q 44.046875 74.21875 50.515625 64.515625 
Q 56.984375 54.828125 56.984375 36.375 
Q 56.984375 17.96875 50.515625 8.265625 
Q 44.046875 -1.421875 31.78125 -1.421875 
Q 19.53125 -1.421875 13.0625 8.265625 
Q 6.59375 17.96875 6.59375 36.375 
Q 6.59375 54.828125 13.0625 64.515625 
Q 19.53125 74.21875 31.78125 74.21875 
z
" id="DejaVuSans-48"/>
      </defs>
      <g transform="translate(350.567086 708.584838)scale(0.1 -0.1)">
       <use xlink:href="#DejaVuSans-51"/>
       <use x="63.623047" xlink:href="#DejaVuSans-48"/>
       <use x="127.246094" xlink:href="#DejaVuSans-48"/>
       <use x="190.869141" xlink:href="#DejaVuSans-48"/>
      </g>
     </g>
    </g>
    <g id="xtick_2">
     <g id="line2d_2">
      <g>
       <use style="stroke:#000000;stroke-width:0.8;" x="556.388937" xlink:href="#mf41e169d87" y="693.9864"/>
      </g>
     </g>
     <g id="text_2">
      <!-- 3050 -->
      <defs>
       <path d="M 10.796875 72.90625 
L 49.515625 72.90625 
L 49.515625 64.59375 
L 19.828125 64.59375 
L 19.828125 46.734375 
Q 21.96875 47.46875 24.109375 47.828125 
Q 26.265625 48.1875 28.421875 48.1875 
Q 40.625 48.1875 47.75 41.5 
Q 54.890625 34.8125 54.890625 23.390625 
Q 54.890625 11.625 47.5625 5.09375 
Q 40.234375 -1.421875 26.90625 -1.421875 
Q 22.3125 -1.421875 17.546875 -0.640625 
Q 12.796875 0.140625 7.71875 1.703125 
L 7.71875 11.625 
Q 12.109375 9.234375 16.796875 8.0625 
Q 21.484375 6.890625 26.703125 6.890625 
Q 35.15625 6.890625 40.078125 11.328125 
Q 45.015625 15.765625 45.015625 23.390625 
Q 45.015625 31 40.078125 35.4375 
Q 35.15625 39.890625 26.703125 39.890625 
Q 22.75 39.890625 18.8125 39.015625 
Q 14.890625 38.140625 10.796875 36.28125 
z
" id="DejaVuSans-53"/>
      </defs>
      <g transform="translate(543.663937 708.584838)scale(0.1 -0.1)">
       <use xlink:href="#DejaVuSans-51"/>
       <use x="63.623047" xlink:href="#DejaVuSans-48"/>
       <use x="127.246094" xlink:href="#DejaVuSans-53"/>
       <use x="190.869141" xlink:href="#DejaVuSans-48"/>
      </g>
     </g>
    </g>
    <g id="xtick_3">
     <g id="line2d_3">
      <g>
       <use style="stroke:#000000;stroke-width:0.8;" x="749.485787" xlink:href="#mf41e169d87" y="693.9864"/>
      </g>
     </g>
     <g id="text_3">
      <!-- 3100 -->
      <defs>
       <path d="M 12.40625 8.296875 
L 28.515625 8.296875 
L 28.515625 63.921875 
L 10.984375 60.40625 
L 10.984375 69.390625 
L 28.421875 72.90625 
L 38.28125 72.90625 
L 38.28125 8.296875 
L 54.390625 8.296875 
L 54.390625 0 
L 12.40625 0 
z
" id="DejaVuSans-49"/>
      </defs>
      <g transform="translate(736.760787 708.584838)scale(0.1 -0.1)">
       <use xlink:href="#DejaVuSans-51"/>
       <use x="63.623047" xlink:href="#DejaVuSans-49"/>
       <use x="127.246094" xlink:href="#DejaVuSans-48"/>
       <use x="190.869141" xlink:href="#DejaVuSans-48"/>
      </g>
     </g>
    </g>
    <g id="xtick_4">
     <g id="line2d_4">
      <g>
       <use style="stroke:#000000;stroke-width:0.8;" x="942.582638" xlink:href="#mf41e169d87" y="693.9864"/>
      </g>
     </g>
     <g id="text_4">
      <!-- 3150 -->
      <g transform="translate(929.857638 708.584838)scale(0.1 -0.1)">
       <use xlink:href="#DejaVuSans-51"/>
       <use x="63.623047" xlink:href="#DejaVuSans-49"/>
       <use x="127.246094" xlink:href="#DejaVuSans-53"/>
       <use x="190.869141" xlink:href="#DejaVuSans-48"/>
      </g>
     </g>
    </g>
    <g id="xtick_5">
     <g id="line2d_5">
      <g>
       <use style="stroke:#000000;stroke-width:0.8;" x="1135.679489" xlink:href="#mf41e169d87" y="693.9864"/>
      </g>
     </g>
     <g id="text_5">
      <!-- 3200 -->
      <defs>
       <path d="M 19.1875 8.296875 
L 53.609375 8.296875 
L 53.609375 0 
L 7.328125 0 
L 7.328125 8.296875 
Q 12.9375 14.109375 22.625 23.890625 
Q 32.328125 33.6875 34.8125 36.53125 
Q 39.546875 41.84375 41.421875 45.53125 
Q 43.3125 49.21875 43.3125 52.78125 
Q 43.3125 58.59375 39.234375 62.25 
Q 35.15625 65.921875 28.609375 65.921875 
Q 23.96875 65.921875 18.8125 64.3125 
Q 13.671875 62.703125 7.8125 59.421875 
L 7.8125 69.390625 
Q 13.765625 71.78125 18.9375 73 
Q 24.125 74.21875 28.421875 74.21875 
Q 39.75 74.21875 46.484375 68.546875 
Q 53.21875 62.890625 53.21875 53.421875 
Q 53.21875 48.921875 51.53125 44.890625 
Q 49.859375 40.875 45.40625 35.40625 
Q 44.1875 33.984375 37.640625 27.21875 
Q 31.109375 20.453125 19.1875 8.296875 
z
" id="DejaVuSans-50"/>
      </defs>
      <g transform="translate(1122.954489 708.584838)scale(0.1 -0.1)">
       <use xlink:href="#DejaVuSans-51"/>
       <use x="63.623047" xlink:href="#DejaVuSans-50"/>
       <use x="127.246094" xlink:href="#DejaVuSans-48"/>
       <use x="190.869141" xlink:href="#DejaVuSans-48"/>
      </g>
     </g>
    </g>
   </g>
   <g id="matplotlib.axis_2">
    <g id="ytick_1">
     <g id="line2d_6">
      <defs>
       <path d="M 0 0 
L -3.5 0 
" id="m828488ccbf" style="stroke:#000000;stroke-width:0.8;"/>
      </defs>
      <g>
       <use style="stroke:#000000;stroke-width:0.8;" x="172.8" xlink:href="#m828488ccbf" y="693.958812"/>
      </g>
     </g>
     <g id="text_6">
      <!-- −1.00 -->
      <defs>
       <path d="M 10.59375 35.5 
L 73.1875 35.5 
L 73.1875 27.203125 
L 10.59375 27.203125 
z
" id="DejaVuSans-8722"/>
       <path d="M 10.6875 12.40625 
L 21 12.40625 
L 21 0 
L 10.6875 0 
z
" id="DejaVuSans-46"/>
      </defs>
      <g transform="translate(135.154687 697.75803)scale(0.1 -0.1)">
       <use xlink:href="#DejaVuSans-8722"/>
       <use x="83.789062" xlink:href="#DejaVuSans-49"/>
       <use x="147.412109" xlink:href="#DejaVuSans-46"/>
       <use x="179.199219" xlink:href="#DejaVuSans-48"/>
       <use x="242.822266" xlink:href="#DejaVuSans-48"/>
      </g>
     </g>
    </g>
    <g id="ytick_2">
     <g id="line2d_7">
      <g>
       <use style="stroke:#000000;stroke-width:0.8;" x="172.8" xlink:href="#m828488ccbf" y="619.263335"/>
      </g>
     </g>
     <g id="text_7">
      <!-- −0.75 -->
      <defs>
       <path d="M 8.203125 72.90625 
L 55.078125 72.90625 
L 55.078125 68.703125 
L 28.609375 0 
L 18.3125 0 
L 43.21875 64.59375 
L 8.203125 64.59375 
z
" id="DejaVuSans-55"/>
      </defs>
      <g transform="translate(135.154687 623.062554)scale(0.1 -0.1)">
       <use xlink:href="#DejaVuSans-8722"/>
       <use x="83.789062" xlink:href="#DejaVuSans-48"/>
       <use x="147.412109" xlink:href="#DejaVuSans-46"/>
       <use x="179.199219" xlink:href="#DejaVuSans-55"/>
       <use x="242.822266" xlink:href="#DejaVuSans-53"/>
      </g>
     </g>
    </g>
    <g id="ytick_3">
     <g id="line2d_8">
      <g>
       <use style="stroke:#000000;stroke-width:0.8;" x="172.8" xlink:href="#m828488ccbf" y="544.567858"/>
      </g>
     </g>
     <g id="text_8">
      <!-- −0.50 -->
      <g transform="translate(135.154687 548.367077)scale(0.1 -0.1)">
       <use xlink:href="#DejaVuSans-8722"/>
       <use x="83.789062" xlink:href="#DejaVuSans-48"/>
       <use x="147.412109" xlink:href="#DejaVuSans-46"/>
       <use x="179.199219" xlink:href="#DejaVuSans-53"/>
       <use x="242.822266" xlink:href="#DejaVuSans-48"/>
      </g>
     </g>
    </g>
    <g id="ytick_4">
     <g id="line2d_9">
      <g>
       <use style="stroke:#000000;stroke-width:0.8;" x="172.8" xlink:href="#m828488ccbf" y="469.872382"/>
      </g>
     </g>
     <g id="text_9">
      <!-- −0.25 -->
      <g transform="translate(135.154687 473.671601)scale(0.1 -0.1)">
       <use xlink:href="#DejaVuSans-8722"/>
       <use x="83.789062" xlink:href="#DejaVuSans-48"/>
       <use x="147.412109" xlink:href="#DejaVuSans-46"/>
       <use x="179.199219" xlink:href="#DejaVuSans-50"/>
       <use x="242.822266" xlink:href="#DejaVuSans-53"/>
      </g>
     </g>
    </g>
    <g id="ytick_5">
     <g id="line2d_10">
      <g>
       <use style="stroke:#000000;stroke-width:0.8;" x="172.8" xlink:href="#m828488ccbf" y="395.176905"/>
      </g>
     </g>
     <g id="text_10">
      <!-- 0.00 -->
      <g transform="translate(143.534375 398.976124)scale(0.1 -0.1)">
       <use xlink:href="#DejaVuSans-48"/>
       <use x="63.623047" xlink:href="#DejaVuSans-46"/>
       <use x="95.410156" xlink:href="#DejaVuSans-48"/>
       <use x="159.033203" xlink:href="#DejaVuSans-48"/>
      </g>
     </g>
    </g>
    <g id="ytick_6">
     <g id="line2d_11">
      <g>
       <use style="stroke:#000000;stroke-width:0.8;" x="172.8" xlink:href="#m828488ccbf" y="320.481429"/>
      </g>
     </g>
     <g id="text_11">
      <!-- 0.25 -->
      <g transform="translate(143.534375 324.280647)scale(0.1 -0.1)">
       <use xlink:href="#DejaVuSans-48"/>
       <use x="63.623047" xlink:href="#DejaVuSans-46"/>
       <use x="95.410156" xlink:href="#DejaVuSans-50"/>
       <use x="159.033203" xlink:href="#DejaVuSans-53"/>
      </g>
     </g>
    </g>
    <g id="ytick_7">
     <g id="line2d_12">
      <g>
       <use style="stroke:#000000;stroke-width:0.8;" x="172.8" xlink:href="#m828488ccbf" y="245.785952"/>
      </g>
     </g>
     <g id="text_12">
      <!-- 0.50 -->
      <g transform="translate(143.534375 249.585171)scale(0.1 -0.1)">
       <use xlink:href="#DejaVuSans-48"/>
       <use x="63.623047" xlink:href="#DejaVuSans-46"/>
       <use x="95.410156" xlink:href="#DejaVuSans-53"/>
       <use x="159.033203" xlink:href="#DejaVuSans-48"/>
      </g>
     </g>
    </g>
    <g id="ytick_8">
     <g id="line2d_13">
      <g>
       <use style="stroke:#000000;stroke-width:0.8;" x="172.8" xlink:href="#m828488ccbf" y="171.090475"/>
      </g>
     </g>
     <g id="text_13">
      <!-- 0.75 -->
      <g transform="translate(143.534375 174.889694)scale(0.1 -0.1)">
       <use xlink:href="#DejaVuSans-48"/>
       <use x="63.623047" xlink:href="#DejaVuSans-46"/>
       <use x="95.410156" xlink:href="#DejaVuSans-55"/>
       <use x="159.033203" xlink:href="#DejaVuSans-53"/>
      </g>
     </g>
    </g>
    <g id="ytick_9">
     <g id="line2d_14">
      <g>
       <use style="stroke:#000000;stroke-width:0.8;" x="172.8" xlink:href="#m828488ccbf" y="96.394999"/>
      </g>
     </g>
     <g id="text_14">
      <!-- 1.00 -->
      <g transform="translate(143.534375 100.194218)scale(0.1 -0.1)">
       <use xlink:href="#DejaVuSans-49"/>
       <use x="63.623047" xlink:href="#DejaVuSans-46"/>
       <use x="95.410156" xlink:href="#DejaVuSans-48"/>
       <use x="159.033203" xlink:href="#DejaVuSans-48"/>
      </g>
     </g>
    </g>
   </g>
   <g id="line2d_15">
    <path clip-path="url(#pa7d14ef879)" d="M 170.195235 279.467079 
L 174.057172 335.430336 
L 181.781046 452.017438 
L 185.642983 508.15607 
L 189.50492 559.95069 
L 193.366857 605.410187 
L 197.228794 642.788352 
L 201.090731 670.650427 
L 204.952668 687.927232 
L 208.814605 693.955181 
L 212.676542 688.501073 
L 216.538479 671.77099 
L 220.400417 644.403029 
L 224.262354 607.443976 
L 228.124291 562.310466 
L 231.986228 510.735716 
L 235.848165 454.703532 
L 243.572039 337.98956 
L 247.433976 281.807768 
L 251.295913 229.993106 
L 255.15785 184.54297 
L 259.019787 147.208474 
L 262.881724 119.427356 
L 266.743661 102.269323 
L 270.605598 96.39561 
L 274.467535 102.03398 
L 278.329472 118.969906 
L 282.191409 146.554265 
L 286.053346 183.727422 
L 289.915283 229.05908 
L 293.77722 280.802661 
L 297.639157 336.962377 
L 305.363031 453.77145 
L 309.224968 509.910216 
L 313.086905 561.61974 
L 316.948842 606.905303 
L 320.810779 644.02151 
L 324.672716 671.539256 
L 328.534653 688.400222 
L 332.39659 693.95703 
L 336.258527 687.997732 
L 340.120464 670.753795 
L 343.982401 642.891245 
L 347.844338 605.485195 
L 351.706275 559.978551 
L 355.568212 508.126393 
L 359.430149 451.928106 
L 367.154023 335.241047 
L 371.01596 279.246503 
L 374.877897 227.720569 
L 378.739834 182.643817 
L 382.601771 145.74717 
L 386.463708 118.445746 
L 390.325645 101.784919 
L 394.187582 96.400567 
L 398.049519 102.494981 
L 401.911456 119.829396 
L 405.773393 147.733486 
L 409.63533 185.131519 
L 413.497267 230.584175 
L 417.359204 282.344333 
L 421.221141 338.424555 
L 428.945015 454.85861 
L 432.806952 510.75089 
L 436.668889 562.210324 
L 440.530826 607.267113 
L 444.392763 644.196788 
L 448.2547 671.586083 
L 452.116637 688.387129 
L 455.978574 693.957811 
L 459.840511 688.086595 
L 463.702448 671.000698 
L 467.564385 643.357159 
L 471.426322 606.217141 
L 475.288259 561.004592 
L 479.150196 509.451068 
L 483.012133 453.529106 
L 490.736007 337.21681 
L 494.597944 281.271784 
L 498.459881 229.680725 
L 502.321818 184.417637 
L 506.183755 147.216269 
L 510.045693 119.50344 
L 513.90763 102.343634 
L 517.769567 96.397231 
L 521.631504 101.894308 
L 525.493441 118.625291 
L 529.355378 145.949013 
L 533.217315 182.817822 
L 537.079252 227.818556 
L 540.941189 279.227466 
L 544.803126 335.07664 
L 552.527 451.460313 
L 556.388937 507.541478 
L 560.250874 559.324685 
L 564.112811 604.824134 
L 567.974748 642.292307 
L 571.836685 670.287645 
L 575.698622 687.731016 
L 579.560559 693.948497 
L 583.422496 688.698401 
L 587.284433 672.181158 
L 591.14637 645.031516 
L 595.008307 608.293422 
L 598.870244 563.378843 
L 602.732181 512.012541 
L 606.594118 456.16529 
L 614.317992 339.681983 
L 618.179929 283.511052 
L 622.041866 231.620267 
L 625.903803 186.002201 
L 629.76574 148.410811 
L 633.627677 120.29342 
L 637.489614 102.733957 
L 641.351551 96.410004 
L 645.213488 101.565709 
L 649.075425 118.003031 
L 652.937362 145.090468 
L 656.799299 181.787322 
L 660.661236 226.683667 
L 664.523173 278.054512 
L 668.38511 333.92606 
L 676.108984 450.493614 
L 679.970921 506.710464 
L 683.832858 558.641803 
L 687.694795 604.291954 
L 691.556732 641.906537 
L 695.418669 670.039899 
L 699.280606 687.610683 
L 703.142543 693.943406 
L 707.00448 688.794431 
L 710.866417 672.36135 
L 714.728354 645.275414 
L 718.590291 608.577296 
L 722.452228 563.677126 
L 726.314165 512.300326 
L 730.176102 456.42133 
L 737.899976 339.837716 
L 741.761913 283.614137 
L 745.62385 231.678208 
L 749.485787 186.026474 
L 753.347724 148.414026 
L 757.209661 120.287017 
L 761.071598 102.72704 
L 764.933535 96.409518 
L 768.795472 101.577705 
L 772.657409 118.033311 
L 776.519346 145.144084 
L 780.381283 181.868088 
L 784.24322 226.793727 
L 788.105157 278.193983 
L 791.967094 334.092788 
L 799.690969 450.69892 
L 803.552906 506.922612 
L 807.414843 558.849992 
L 811.27678 604.484077 
L 815.138717 642.069786 
L 819.000654 670.161452 
L 822.862591 687.678448 
L 826.724528 693.946778 
L 830.586465 688.725019 
L 834.448402 672.213648 
L 838.310339 645.047349 
L 842.172276 608.270643 
L 846.034213 563.297734 
L 849.89615 511.858143 
L 853.758087 455.930204 
L 861.481961 339.303559 
L 865.343898 283.090796 
L 869.205835 231.189013 
L 873.067772 185.594784 
L 876.929709 148.062122 
L 880.791646 120.034989 
L 884.653583 102.591728 
L 888.51552 96.403562 
L 892.377457 101.708752 
L 896.239394 118.303415 
L 900.101331 145.549348 
L 903.963268 182.398569 
L 907.825205 227.433616 
L 911.687142 278.922075 
L 915.549079 334.883213 
L 923.272953 451.522818 
L 927.13489 507.713944 
L 930.996827 559.575711 
L 934.858764 605.112804 
L 938.720701 642.573209 
L 942.582638 670.515636 
L 946.444575 687.864981 
L 950.306512 693.953697 
L 954.168449 688.547482 
L 958.030386 671.854295 
L 961.892323 644.516354 
L 965.75426 607.585423 
L 969.616197 562.482348 
L 973.478134 510.942389 
L 977.340071 454.948465 
L 985.063945 338.304372 
L 988.925882 282.141961 
L 992.787819 230.328438 
L 996.649756 184.857288 
L 1000.511693 147.477965 
L 1004.37363 119.62858 
L 1008.235567 102.380562 
L 1012.097504 96.397437 
L 1015.959441 101.909312 
L 1019.821378 118.704037 
L 1023.683315 146.135378 
L 1027.545252 183.147904 
L 1031.407189 228.317593 
L 1035.269126 279.906628 
L 1039.131063 335.930248 
L 1046.854937 452.572166 
L 1050.716874 508.703029 
L 1054.578811 560.466251 
L 1058.440748 605.870445 
L 1062.302685 643.1689 
L 1066.164622 670.926787 
L 1070.026559 688.076359 
L 1073.888496 693.958016 
L 1077.750433 688.345664 
L 1081.61237 671.455386 
L 1085.474307 643.9371 
L 1089.336245 606.849539 
L 1093.198182 561.619504 
L 1097.060119 509.986972 
L 1100.922056 453.938169 
L 1108.64593 337.30296 
L 1112.507867 281.203169 
L 1116.369804 229.487751 
L 1120.231741 184.145968 
L 1124.093678 146.921864 
L 1127.955615 119.247169 
L 1131.817552 102.18623 
L 1135.679489 96.395088 
L 1139.541426 102.096243 
L 1143.403363 119.071186 
L 1147.2653 146.669565 
L 1151.127237 183.833209 
L 1154.989174 229.135537 
L 1158.851111 280.835278 
L 1162.713048 336.942797 
L 1170.436922 453.647591 
L 1174.298859 509.745999 
L 1178.160796 561.429864 
L 1182.022733 606.708657 
L 1185.88467 643.840102 
L 1189.746607 671.396682 
L 1193.608544 688.319569 
L 1197.470481 693.958261 
L 1201.332418 688.094853 
L 1205.194355 670.952286 
L 1209.056292 643.186335 
L 1212.918229 605.861492 
L 1216.780166 560.411317 
L 1220.642103 508.584382 
L 1224.50404 452.377542 
L 1232.227914 335.583751 
L 1236.089851 279.506157 
L 1239.951788 227.891324 
L 1243.813725 182.731142 
L 1247.675662 145.767209 
L 1247.675662 145.767209 
" style="fill:none;stroke:#0000ff;stroke-linecap:square;stroke-width:1.5;"/>
   </g>
   <g id="line2d_16">
    <path clip-path="url(#pa7d14ef879)" d="M 170.195235 692.639247 
L 174.057172 692.335725 
L 177.919109 680.385352 
L 181.781046 657.256511 
L 185.642983 623.855715 
L 189.50492 581.492075 
L 193.366857 531.825994 
L 197.228794 476.804084 
L 208.814605 301.706218 
L 212.676542 247.631633 
L 216.538479 199.339943 
L 220.400417 158.723891 
L 224.262354 127.375386 
L 228.124291 106.5231 
L 231.986228 96.98432 
L 235.848165 99.132908 
L 239.710102 112.884653 
L 243.572039 137.700568 
L 247.433976 172.608018 
L 251.295913 216.238839 
L 255.15785 266.882963 
L 259.019787 322.555444 
L 270.605598 497.454836 
L 274.467535 550.755188 
L 278.329472 597.9578 
L 282.191409 637.212613 
L 286.053346 666.981071 
L 289.915283 686.096429 
L 293.77722 693.809479 
L 297.639157 689.817916 
L 301.501094 674.278186 
L 305.363031 647.799351 
L 309.224968 611.419226 
L 313.086905 566.563693 
L 316.948842 514.990822 
L 320.810779 458.721961 
L 328.534653 341.015498 
L 332.39659 284.191287 
L 336.258527 231.717049 
L 340.120464 185.649461 
L 343.982401 147.794097 
L 347.844338 119.634662 
L 351.706275 102.274838 
L 355.568212 96.395025 
L 359.430149 102.225677 
L 363.292086 119.538268 
L 367.154023 147.654247 
L 371.01596 185.471636 
L 374.877897 231.50822 
L 378.739834 283.959638 
L 382.601771 340.770109 
L 390.325645 458.478105 
L 394.187582 514.762181 
L 398.049519 566.359228 
L 401.911456 611.24695 
L 405.773393 647.666017 
L 409.63533 674.189018 
L 413.497267 689.776412 
L 417.359204 693.817264 
L 421.221141 686.153197 
L 425.083078 667.084598 
L 428.945015 637.358842 
L 432.806952 598.140999 
L 436.668889 550.968177 
L 440.530826 497.689267 
L 444.392763 440.392484 
L 452.116637 322.797528 
L 455.978574 267.108375 
L 459.840511 216.438742 
L 463.702448 172.774579 
L 467.564385 137.827258 
L 471.426322 112.966506 
L 475.288259 99.166717 
L 479.150196 96.968759 
L 483.012133 106.458779 
L 486.87407 127.264826 
L 490.736007 158.571425 
L 494.597944 199.151547 
L 498.459881 247.414692 
L 502.321818 301.469233 
L 510.045693 418.334093 
L 513.90763 476.564006 
L 517.769567 531.604032 
L 521.631504 581.296928 
L 525.493441 623.695032 
L 529.355378 657.13659 
L 533.217315 680.310892 
L 537.079252 692.309646 
L 540.941189 692.66257 
L 544.803126 681.355833 
L 548.665063 658.832592 
L 552.527 625.975622 
L 556.388937 584.072721 
L 560.250874 534.766232 
L 564.112811 479.988675 
L 575.698622 304.861301 
L 579.560559 250.523978 
L 583.422496 201.856187 
L 587.284433 160.765413 
L 591.14637 128.86217 
L 595.008307 107.396874 
L 598.870244 97.210836 
L 602.732181 98.703288 
L 606.594118 111.815736 
L 610.456055 136.034249 
L 614.317992 170.409607 
L 618.179929 213.5945 
L 622.041866 263.896339 
L 625.903803 319.343592 
L 637.489614 494.333102 
L 641.351551 547.91483 
L 645.213488 595.510144 
L 649.075425 635.253591 
L 652.937362 665.587466 
L 656.799299 685.322862 
L 660.661236 693.68627 
L 664.523173 690.349893 
L 668.38511 675.444498 
L 672.247047 649.554287 
L 676.108984 613.694002 
L 679.970921 569.269152 
L 683.832858 518.020925 
L 687.694795 461.957947 
L 699.280606 287.276633 
L 703.142543 234.502654 
L 707.00448 188.026146 
L 710.866417 149.668711 
L 714.728354 120.93373 
L 718.590291 102.947445 
L 722.452228 96.414809 
L 726.314165 101.591862 
L 730.176102 118.275696 
L 734.038039 145.812404 
L 737.899976 183.12271 
L 741.761913 228.744275 
L 745.62385 280.889005 
L 749.485787 337.513138 
L 757.209661 455.23372 
L 761.071598 511.716226 
L 764.933535 563.631086 
L 768.795472 608.943549 
L 772.657409 645.877636 
L 776.519346 672.985751 
L 780.381283 689.205419 
L 784.24322 693.900925 
L 788.105157 686.888234 
L 791.967094 668.442201 
L 795.829031 639.2858 
L 799.690969 600.561789 
L 803.552906 553.787917 
L 807.414843 500.79744 
L 811.27678 443.66727 
L 819.000654 326.018981 
L 822.862591 270.111974 
L 826.724528 219.106765 
L 830.586465 175.002454 
L 834.448402 139.527666 
L 838.310339 114.072802 
L 842.172276 99.635539 
L 846.034213 96.781733 
L 849.89615 105.623236 
L 853.758087 125.813513 
L 857.620024 156.561227 
L 861.481961 196.66125 
L 865.343898 244.541901 
L 869.205835 298.326544 
L 876.929709 415.026883 
L 880.791646 473.368622 
L 884.653583 528.645712 
L 888.51552 578.691622 
L 892.377457 621.544852 
L 896.239394 655.52581 
L 900.101331 679.302646 
L 903.963268 691.94345 
L 907.825205 692.952777 
L 911.687142 682.291069 
L 915.549079 660.3762 
L 919.411016 628.067103 
L 923.272953 586.630101 
L 927.13489 537.689278 
L 930.996827 483.16282 
L 942.582638 308.027507 
L 946.444575 253.434139 
L 950.306512 204.396241 
L 954.168449 162.835805 
L 958.030386 130.381753 
L 961.892323 108.30609 
L 965.75426 97.474049 
L 969.616197 98.310182 
L 973.478134 110.781718 
L 977.340071 134.399846 
L 981.202008 168.238878 
L 985.063945 210.972525 
L 988.925882 260.925883 
L 992.787819 316.14108 
L 1004.37363 491.199156 
L 1008.235567 545.055662 
L 1012.097504 593.037815 
L 1015.959441 633.265002 
L 1019.821378 664.160558 
L 1023.683315 684.513561 
L 1027.545252 693.526296 
L 1031.407189 690.845516 
L 1035.269126 676.576292 
L 1039.131063 651.277893 
L 1042.993 615.941865 
L 1046.854937 571.953169 
L 1050.716874 521.035899 
L 1054.578811 465.185709 
L 1066.164622 290.375268 
L 1070.026559 237.308048 
L 1073.888496 190.428344 
L 1077.750433 151.573561 
L 1081.61237 122.266574 
L 1085.474307 103.656043 
L 1089.336245 96.471388 
L 1093.198182 100.994205 
L 1097.060119 117.047227 
L 1100.922056 144.001272 
L 1104.783993 180.799901 
L 1108.64593 226.000828 
L 1112.507867 277.832448 
L 1116.369804 334.263269 
L 1124.093678 451.981938 
L 1127.955615 508.655918 
L 1131.817552 560.882198 
L 1135.679489 606.61382 
L 1139.541426 644.058378 
L 1143.403363 671.748269 
L 1147.2653 688.598214 
L 1151.127237 693.947796 
L 1154.989174 687.587344 
L 1158.851111 669.766148 
L 1162.713048 641.182695 
L 1166.574985 602.957284 
L 1170.436922 556.588123 
L 1174.298859 503.892606 
L 1178.160796 446.936083 
L 1185.88467 329.248952 
L 1189.746607 273.130976 
L 1193.608544 221.796472 
L 1197.470481 177.257445 
L 1201.332418 141.25956 
L 1205.194355 115.213718 
L 1209.056292 100.140761 
L 1212.918229 96.631459 
L 1216.780166 104.823355 
L 1220.642103 124.395376 
L 1224.50404 154.580416 
L 1228.365977 194.195402 
L 1232.227914 241.687662 
L 1236.089851 295.195783 
L 1239.951788 352.622568 
L 1247.675662 470.163607 
L 1247.675662 470.163607 
" style="fill:none;stroke:#ff0000;stroke-linecap:square;stroke-width:1.5;"/>
   </g>
   <g id="patch_3">
    <path d="M 172.8 693.9864 
L 172.8 93.5712 
" style="fill:none;stroke:#000000;stroke-linecap:square;stroke-linejoin:miter;stroke-width:0.8;"/>
   </g>
   <g id="patch_4">
    <path d="M 1244.16 693.9864 
L 1244.16 93.5712 
" style="fill:none;stroke:#000000;stroke-linecap:square;stroke-linejoin:miter;stroke-width:0.8;"/>
   </g>
   <g id="patch_5">
    <path d="M 172.8 693.9864 
L 1244.16 693.9864 
" style="fill:none;stroke:#000000;stroke-linecap:square;stroke-linejoin:miter;stroke-width:0.8;"/>
   </g>
   <g id="patch_6">
    <path d="M 172.8 93.5712 
L 1244.16 93.5712 
" style="fill:none;stroke:#000000;stroke-linecap:square;stroke-linejoin:miter;stroke-width:0.8;"/>
   </g>
  </g>
 </g>
 <defs>
  <clipPath id="pa7d14ef879">
   <rect height="600.4152" width="1071.36" x="172.8" y="93.5712"/>
  </clipPath>
 </defs>
</svg>
