<?xml version="1.0" encoding="utf-8" standalone="no"?>
<!DOCTYPE svg PUBLIC "-//W3C//DTD SVG 1.1//EN"
  "http://www.w3.org/Graphics/SVG/1.1/DTD/svg11.dtd">
<!-- Created with matplotlib (https://matplotlib.org/) -->
<svg height="779.76pt" version="1.1" viewBox="0 0 1382.4 779.76" width="1382.4pt" xmlns="http://www.w3.org/2000/svg" xmlns:xlink="http://www.w3.org/1999/xlink">
 <defs>
  <style type="text/css">
*{stroke-linecap:butt;stroke-linejoin:round;}
  </style>
 </defs>
 <g id="figure_1">
  <g id="patch_1">
   <path d="M 0 779.76 
L 1382.4 779.76 
L 1382.4 0 
L 0 0 
z
" style="fill:#ffffff;"/>
  </g>
  <g id="axes_1">
   <g id="patch_2">
    <path d="M 172.8 693.9864 
L 1244.16 693.9864 
L 1244.16 93.5712 
L 172.8 93.5712 
z
" style="fill:#ffffff;"/>
   </g>
   <g id="matplotlib.axis_1">
    <g id="xtick_1">
     <g id="line2d_1">
      <defs>
       <path d="M 0 0 
L 0 3.5 
" id="m70f0b6a700" style="stroke:#000000;stroke-width:0.8;"/>
      </defs>
      <g>
       <use style="stroke:#000000;stroke-width:0.8;" x="221.498182" xlink:href="#m70f0b6a700" y="693.9864"/>
      </g>
     </g>
     <g id="text_1">
      <!-- 0 -->
      <defs>
       <path d="M 31.78125 66.40625 
Q 24.171875 66.40625 20.328125 58.90625 
Q 16.5 51.421875 16.5 36.375 
Q 16.5 21.390625 20.328125 13.890625 
Q 24.171875 6.390625 31.78125 6.390625 
Q 39.453125 6.390625 43.28125 13.890625 
Q 47.125 21.390625 47.125 36.375 
Q 47.125 51.421875 43.28125 58.90625 
Q 39.453125 66.40625 31.78125 66.40625 
z
M 31.78125 74.21875 
Q 44.046875 74.21875 50.515625 64.515625 
Q 56.984375 54.828125 56.984375 36.375 
Q 56.984375 17.96875 50.515625 8.265625 
Q 44.046875 -1.421875 31.78125 -1.421875 
Q 19.53125 -1.421875 13.0625 8.265625 
Q 6.59375 17.96875 6.59375 36.375 
Q 6.59375 54.828125 13.0625 64.515625 
Q 19.53125 74.21875 31.78125 74.21875 
z
" id="DejaVuSans-48"/>
      </defs>
      <g transform="translate(218.316932 708.584838)scale(0.1 -0.1)">
       <use xlink:href="#DejaVuSans-48"/>
      </g>
     </g>
    </g>
    <g id="xtick_2">
     <g id="line2d_2">
      <g>
       <use style="stroke:#000000;stroke-width:0.8;" x="404.84977" xlink:href="#m70f0b6a700" y="693.9864"/>
      </g>
     </g>
     <g id="text_2">
      <!-- 1000 -->
      <defs>
       <path d="M 12.40625 8.296875 
L 28.515625 8.296875 
L 28.515625 63.921875 
L 10.984375 60.40625 
L 10.984375 69.390625 
L 28.421875 72.90625 
L 38.28125 72.90625 
L 38.28125 8.296875 
L 54.390625 8.296875 
L 54.390625 0 
L 12.40625 0 
z
" id="DejaVuSans-49"/>
      </defs>
      <g transform="translate(392.12477 708.584838)scale(0.1 -0.1)">
       <use xlink:href="#DejaVuSans-49"/>
       <use x="63.623047" xlink:href="#DejaVuSans-48"/>
       <use x="127.246094" xlink:href="#DejaVuSans-48"/>
       <use x="190.869141" xlink:href="#DejaVuSans-48"/>
      </g>
     </g>
    </g>
    <g id="xtick_3">
     <g id="line2d_3">
      <g>
       <use style="stroke:#000000;stroke-width:0.8;" x="588.201358" xlink:href="#m70f0b6a700" y="693.9864"/>
      </g>
     </g>
     <g id="text_3">
      <!-- 2000 -->
      <defs>
       <path d="M 19.1875 8.296875 
L 53.609375 8.296875 
L 53.609375 0 
L 7.328125 0 
L 7.328125 8.296875 
Q 12.9375 14.109375 22.625 23.890625 
Q 32.328125 33.6875 34.8125 36.53125 
Q 39.546875 41.84375 41.421875 45.53125 
Q 43.3125 49.21875 43.3125 52.78125 
Q 43.3125 58.59375 39.234375 62.25 
Q 35.15625 65.921875 28.609375 65.921875 
Q 23.96875 65.921875 18.8125 64.3125 
Q 13.671875 62.703125 7.8125 59.421875 
L 7.8125 69.390625 
Q 13.765625 71.78125 18.9375 73 
Q 24.125 74.21875 28.421875 74.21875 
Q 39.75 74.21875 46.484375 68.546875 
Q 53.21875 62.890625 53.21875 53.421875 
Q 53.21875 48.921875 51.53125 44.890625 
Q 49.859375 40.875 45.40625 35.40625 
Q 44.1875 33.984375 37.640625 27.21875 
Q 31.109375 20.453125 19.1875 8.296875 
z
" id="DejaVuSans-50"/>
      </defs>
      <g transform="translate(575.476358 708.584838)scale(0.1 -0.1)">
       <use xlink:href="#DejaVuSans-50"/>
       <use x="63.623047" xlink:href="#DejaVuSans-48"/>
       <use x="127.246094" xlink:href="#DejaVuSans-48"/>
       <use x="190.869141" xlink:href="#DejaVuSans-48"/>
      </g>
     </g>
    </g>
    <g id="xtick_4">
     <g id="line2d_4">
      <g>
       <use style="stroke:#000000;stroke-width:0.8;" x="771.552946" xlink:href="#m70f0b6a700" y="693.9864"/>
      </g>
     </g>
     <g id="text_4">
      <!-- 3000 -->
      <defs>
       <path d="M 40.578125 39.3125 
Q 47.65625 37.796875 51.625 33 
Q 55.609375 28.21875 55.609375 21.1875 
Q 55.609375 10.40625 48.1875 4.484375 
Q 40.765625 -1.421875 27.09375 -1.421875 
Q 22.515625 -1.421875 17.65625 -0.515625 
Q 12.796875 0.390625 7.625 2.203125 
L 7.625 11.71875 
Q 11.71875 9.328125 16.59375 8.109375 
Q 21.484375 6.890625 26.8125 6.890625 
Q 36.078125 6.890625 40.9375 10.546875 
Q 45.796875 14.203125 45.796875 21.1875 
Q 45.796875 27.640625 41.28125 31.265625 
Q 36.765625 34.90625 28.71875 34.90625 
L 20.21875 34.90625 
L 20.21875 43.015625 
L 29.109375 43.015625 
Q 36.375 43.015625 40.234375 45.921875 
Q 44.09375 48.828125 44.09375 54.296875 
Q 44.09375 59.90625 40.109375 62.90625 
Q 36.140625 65.921875 28.71875 65.921875 
Q 24.65625 65.921875 20.015625 65.03125 
Q 15.375 64.15625 9.8125 62.3125 
L 9.8125 71.09375 
Q 15.4375 72.65625 20.34375 73.4375 
Q 25.25 74.21875 29.59375 74.21875 
Q 40.828125 74.21875 47.359375 69.109375 
Q 53.90625 64.015625 53.90625 55.328125 
Q 53.90625 49.265625 50.4375 45.09375 
Q 46.96875 40.921875 40.578125 39.3125 
z
" id="DejaVuSans-51"/>
      </defs>
      <g transform="translate(758.827946 708.584838)scale(0.1 -0.1)">
       <use xlink:href="#DejaVuSans-51"/>
       <use x="63.623047" xlink:href="#DejaVuSans-48"/>
       <use x="127.246094" xlink:href="#DejaVuSans-48"/>
       <use x="190.869141" xlink:href="#DejaVuSans-48"/>
      </g>
     </g>
    </g>
    <g id="xtick_5">
     <g id="line2d_5">
      <g>
       <use style="stroke:#000000;stroke-width:0.8;" x="954.904535" xlink:href="#m70f0b6a700" y="693.9864"/>
      </g>
     </g>
     <g id="text_5">
      <!-- 4000 -->
      <defs>
       <path d="M 37.796875 64.3125 
L 12.890625 25.390625 
L 37.796875 25.390625 
z
M 35.203125 72.90625 
L 47.609375 72.90625 
L 47.609375 25.390625 
L 58.015625 25.390625 
L 58.015625 17.1875 
L 47.609375 17.1875 
L 47.609375 0 
L 37.796875 0 
L 37.796875 17.1875 
L 4.890625 17.1875 
L 4.890625 26.703125 
z
" id="DejaVuSans-52"/>
      </defs>
      <g transform="translate(942.179535 708.584838)scale(0.1 -0.1)">
       <use xlink:href="#DejaVuSans-52"/>
       <use x="63.623047" xlink:href="#DejaVuSans-48"/>
       <use x="127.246094" xlink:href="#DejaVuSans-48"/>
       <use x="190.869141" xlink:href="#DejaVuSans-48"/>
      </g>
     </g>
    </g>
    <g id="xtick_6">
     <g id="line2d_6">
      <g>
       <use style="stroke:#000000;stroke-width:0.8;" x="1138.256123" xlink:href="#m70f0b6a700" y="693.9864"/>
      </g>
     </g>
     <g id="text_6">
      <!-- 5000 -->
      <defs>
       <path d="M 10.796875 72.90625 
L 49.515625 72.90625 
L 49.515625 64.59375 
L 19.828125 64.59375 
L 19.828125 46.734375 
Q 21.96875 47.46875 24.109375 47.828125 
Q 26.265625 48.1875 28.421875 48.1875 
Q 40.625 48.1875 47.75 41.5 
Q 54.890625 34.8125 54.890625 23.390625 
Q 54.890625 11.625 47.5625 5.09375 
Q 40.234375 -1.421875 26.90625 -1.421875 
Q 22.3125 -1.421875 17.546875 -0.640625 
Q 12.796875 0.140625 7.71875 1.703125 
L 7.71875 11.625 
Q 12.109375 9.234375 16.796875 8.0625 
Q 21.484375 6.890625 26.703125 6.890625 
Q 35.15625 6.890625 40.078125 11.328125 
Q 45.015625 15.765625 45.015625 23.390625 
Q 45.015625 31 40.078125 35.4375 
Q 35.15625 39.890625 26.703125 39.890625 
Q 22.75 39.890625 18.8125 39.015625 
Q 14.890625 38.140625 10.796875 36.28125 
z
" id="DejaVuSans-53"/>
      </defs>
      <g transform="translate(1125.531123 708.584838)scale(0.1 -0.1)">
       <use xlink:href="#DejaVuSans-53"/>
       <use x="63.623047" xlink:href="#DejaVuSans-48"/>
       <use x="127.246094" xlink:href="#DejaVuSans-48"/>
       <use x="190.869141" xlink:href="#DejaVuSans-48"/>
      </g>
     </g>
    </g>
   </g>
   <g id="matplotlib.axis_2">
    <g id="ytick_1">
     <g id="line2d_7">
      <defs>
       <path d="M 0 0 
L -3.5 0 
" id="m0467d54d0c" style="stroke:#000000;stroke-width:0.8;"/>
      </defs>
      <g>
       <use style="stroke:#000000;stroke-width:0.8;" x="172.8" xlink:href="#m0467d54d0c" y="649.567495"/>
      </g>
     </g>
     <g id="text_7">
      <!-- −0.0100 -->
      <defs>
       <path d="M 10.59375 35.5 
L 73.1875 35.5 
L 73.1875 27.203125 
L 10.59375 27.203125 
z
" id="DejaVuSans-8722"/>
       <path d="M 10.6875 12.40625 
L 21 12.40625 
L 21 0 
L 10.6875 0 
z
" id="DejaVuSans-46"/>
      </defs>
      <g transform="translate(122.429687 653.366714)scale(0.1 -0.1)">
       <use xlink:href="#DejaVuSans-8722"/>
       <use x="83.789062" xlink:href="#DejaVuSans-48"/>
       <use x="147.412109" xlink:href="#DejaVuSans-46"/>
       <use x="179.199219" xlink:href="#DejaVuSans-48"/>
       <use x="242.822266" xlink:href="#DejaVuSans-49"/>
       <use x="306.445312" xlink:href="#DejaVuSans-48"/>
       <use x="370.068359" xlink:href="#DejaVuSans-48"/>
      </g>
     </g>
    </g>
    <g id="ytick_2">
     <g id="line2d_8">
      <g>
       <use style="stroke:#000000;stroke-width:0.8;" x="172.8" xlink:href="#m0467d54d0c" y="581.912011"/>
      </g>
     </g>
     <g id="text_8">
      <!-- −0.0075 -->
      <defs>
       <path d="M 8.203125 72.90625 
L 55.078125 72.90625 
L 55.078125 68.703125 
L 28.609375 0 
L 18.3125 0 
L 43.21875 64.59375 
L 8.203125 64.59375 
z
" id="DejaVuSans-55"/>
      </defs>
      <g transform="translate(122.429687 585.711229)scale(0.1 -0.1)">
       <use xlink:href="#DejaVuSans-8722"/>
       <use x="83.789062" xlink:href="#DejaVuSans-48"/>
       <use x="147.412109" xlink:href="#DejaVuSans-46"/>
       <use x="179.199219" xlink:href="#DejaVuSans-48"/>
       <use x="242.822266" xlink:href="#DejaVuSans-48"/>
       <use x="306.445312" xlink:href="#DejaVuSans-55"/>
       <use x="370.068359" xlink:href="#DejaVuSans-53"/>
      </g>
     </g>
    </g>
    <g id="ytick_3">
     <g id="line2d_9">
      <g>
       <use style="stroke:#000000;stroke-width:0.8;" x="172.8" xlink:href="#m0467d54d0c" y="514.256526"/>
      </g>
     </g>
     <g id="text_9">
      <!-- −0.0050 -->
      <g transform="translate(122.429687 518.055745)scale(0.1 -0.1)">
       <use xlink:href="#DejaVuSans-8722"/>
       <use x="83.789062" xlink:href="#DejaVuSans-48"/>
       <use x="147.412109" xlink:href="#DejaVuSans-46"/>
       <use x="179.199219" xlink:href="#DejaVuSans-48"/>
       <use x="242.822266" xlink:href="#DejaVuSans-48"/>
       <use x="306.445312" xlink:href="#DejaVuSans-53"/>
       <use x="370.068359" xlink:href="#DejaVuSans-48"/>
      </g>
     </g>
    </g>
    <g id="ytick_4">
     <g id="line2d_10">
      <g>
       <use style="stroke:#000000;stroke-width:0.8;" x="172.8" xlink:href="#m0467d54d0c" y="446.601042"/>
      </g>
     </g>
     <g id="text_10">
      <!-- −0.0025 -->
      <g transform="translate(122.429687 450.400261)scale(0.1 -0.1)">
       <use xlink:href="#DejaVuSans-8722"/>
       <use x="83.789062" xlink:href="#DejaVuSans-48"/>
       <use x="147.412109" xlink:href="#DejaVuSans-46"/>
       <use x="179.199219" xlink:href="#DejaVuSans-48"/>
       <use x="242.822266" xlink:href="#DejaVuSans-48"/>
       <use x="306.445312" xlink:href="#DejaVuSans-50"/>
       <use x="370.068359" xlink:href="#DejaVuSans-53"/>
      </g>
     </g>
    </g>
    <g id="ytick_5">
     <g id="line2d_11">
      <g>
       <use style="stroke:#000000;stroke-width:0.8;" x="172.8" xlink:href="#m0467d54d0c" y="378.945558"/>
      </g>
     </g>
     <g id="text_11">
      <!-- 0.0000 -->
      <g transform="translate(130.809375 382.744777)scale(0.1 -0.1)">
       <use xlink:href="#DejaVuSans-48"/>
       <use x="63.623047" xlink:href="#DejaVuSans-46"/>
       <use x="95.410156" xlink:href="#DejaVuSans-48"/>
       <use x="159.033203" xlink:href="#DejaVuSans-48"/>
       <use x="222.65625" xlink:href="#DejaVuSans-48"/>
       <use x="286.279297" xlink:href="#DejaVuSans-48"/>
      </g>
     </g>
    </g>
    <g id="ytick_6">
     <g id="line2d_12">
      <g>
       <use style="stroke:#000000;stroke-width:0.8;" x="172.8" xlink:href="#m0467d54d0c" y="311.290073"/>
      </g>
     </g>
     <g id="text_12">
      <!-- 0.0025 -->
      <g transform="translate(130.809375 315.089292)scale(0.1 -0.1)">
       <use xlink:href="#DejaVuSans-48"/>
       <use x="63.623047" xlink:href="#DejaVuSans-46"/>
       <use x="95.410156" xlink:href="#DejaVuSans-48"/>
       <use x="159.033203" xlink:href="#DejaVuSans-48"/>
       <use x="222.65625" xlink:href="#DejaVuSans-50"/>
       <use x="286.279297" xlink:href="#DejaVuSans-53"/>
      </g>
     </g>
    </g>
    <g id="ytick_7">
     <g id="line2d_13">
      <g>
       <use style="stroke:#000000;stroke-width:0.8;" x="172.8" xlink:href="#m0467d54d0c" y="243.634589"/>
      </g>
     </g>
     <g id="text_13">
      <!-- 0.0050 -->
      <g transform="translate(130.809375 247.433808)scale(0.1 -0.1)">
       <use xlink:href="#DejaVuSans-48"/>
       <use x="63.623047" xlink:href="#DejaVuSans-46"/>
       <use x="95.410156" xlink:href="#DejaVuSans-48"/>
       <use x="159.033203" xlink:href="#DejaVuSans-48"/>
       <use x="222.65625" xlink:href="#DejaVuSans-53"/>
       <use x="286.279297" xlink:href="#DejaVuSans-48"/>
      </g>
     </g>
    </g>
    <g id="ytick_8">
     <g id="line2d_14">
      <g>
       <use style="stroke:#000000;stroke-width:0.8;" x="172.8" xlink:href="#m0467d54d0c" y="175.979105"/>
      </g>
     </g>
     <g id="text_14">
      <!-- 0.0075 -->
      <g transform="translate(130.809375 179.778324)scale(0.1 -0.1)">
       <use xlink:href="#DejaVuSans-48"/>
       <use x="63.623047" xlink:href="#DejaVuSans-46"/>
       <use x="95.410156" xlink:href="#DejaVuSans-48"/>
       <use x="159.033203" xlink:href="#DejaVuSans-48"/>
       <use x="222.65625" xlink:href="#DejaVuSans-55"/>
       <use x="286.279297" xlink:href="#DejaVuSans-53"/>
      </g>
     </g>
    </g>
    <g id="ytick_9">
     <g id="line2d_15">
      <g>
       <use style="stroke:#000000;stroke-width:0.8;" x="172.8" xlink:href="#m0467d54d0c" y="108.323621"/>
      </g>
     </g>
     <g id="text_15">
      <!-- 0.0100 -->
      <g transform="translate(130.809375 112.122839)scale(0.1 -0.1)">
       <use xlink:href="#DejaVuSans-48"/>
       <use x="63.623047" xlink:href="#DejaVuSans-46"/>
       <use x="95.410156" xlink:href="#DejaVuSans-48"/>
       <use x="159.033203" xlink:href="#DejaVuSans-49"/>
       <use x="222.65625" xlink:href="#DejaVuSans-48"/>
       <use x="286.279297" xlink:href="#DejaVuSans-48"/>
      </g>
     </g>
    </g>
   </g>
   <g id="line2d_16">
    <path clip-path="url(#p4bcf3dabf9)" d="M 221.498182 378.945558 
L 222.231588 379.047398 
L 223.331698 379.451251 
L 224.248456 379.627523 
L 224.615159 380.016981 
L 224.981862 380.921664 
L 225.531917 383.218716 
L 226.448675 387.073126 
L 226.998729 389.176613 
L 227.365433 391.519796 
L 227.732136 395.43588 
L 228.282191 404.430416 
L 229.198949 420.180705 
L 230.299058 435.188508 
L 230.849113 449.880028 
L 231.949222 485.163905 
L 232.315926 491.187292 
L 233.232683 500.696098 
L 233.599387 509.287859 
L 234.699496 542.565992 
L 234.882848 544.380754 
L 235.066199 544.372832 
L 235.249551 542.71186 
L 235.799606 532.403774 
L 236.166309 527.060603 
L 236.34966 526.286488 
L 236.533012 526.952098 
L 236.899715 531.513242 
L 237.266418 536.452221 
L 237.44977 537.278469 
L 237.633122 536.210659 
L 237.816473 532.926462 
L 238.183176 519.907423 
L 239.283286 471.531399 
L 239.649989 467.349969 
L 239.833341 467.330717 
L 240.016692 467.735815 
L 240.200044 467.708092 
L 240.383395 466.441419 
L 240.566747 463.311661 
L 240.93345 450.439916 
L 242.216911 388.044798 
L 242.400263 385.901047 
L 242.583614 385.927512 
L 242.950318 389.764178 
L 243.317021 392.753949 
L 243.500372 391.948761 
L 243.683724 389.027437 
L 244.050427 377.173485 
L 244.783834 347.526901 
L 244.967185 343.73932 
L 246.984053 330.654728 
L 249.550975 314.241556 
L 250.834436 307.028677 
L 252.301249 300.244543 
L 253.218007 296.77586 
L 253.951413 294.858048 
L 255.051522 292.781057 
L 255.784929 291.758787 
L 256.151632 291.540672 
L 256.518335 291.574787 
L 257.06839 291.986036 
L 258.901906 293.935776 
L 259.451961 295.298837 
L 262.202234 304.113921 
L 264.402453 313.861398 
L 265.13586 317.253659 
L 266.969376 327.047377 
L 267.886134 331.205101 
L 268.61954 335.798967 
L 268.802892 331.891178 
L 269.169595 312.01045 
L 269.71965 276.121322 
L 270.086353 266.262078 
L 270.269704 267.584107 
L 270.636407 279.418015 
L 271.003111 293.135615 
L 271.186462 296.357446 
L 271.369814 295.390097 
L 271.553165 289.646165 
L 271.919869 264.964184 
L 272.836627 187.955491 
L 273.019978 181.186876 
L 273.20333 178.607477 
L 273.386681 179.577605 
L 274.120088 192.598768 
L 274.303439 191.446317 
L 274.486791 187.070558 
L 274.853494 170.102485 
L 275.5869 133.781893 
L 275.770252 130.990865 
L 275.953604 131.98091 
L 276.136955 136.608153 
L 276.503658 154.144655 
L 277.420416 203.463421 
L 278.337174 238.767328 
L 278.887229 274.364212 
L 280.354042 401.934296 
L 282.004206 543.169118 
L 282.554261 567.84519 
L 283.287667 595.568956 
L 284.021073 640.794128 
L 284.387777 660.07567 
L 284.571128 665.301676 
L 284.75448 666.6948 
L 284.937831 664.144148 
L 285.304535 649.233262 
L 286.037941 612.539567 
L 286.221292 608.918521 
L 286.404644 608.64249 
L 286.587996 611.297913 
L 287.13805 625.215725 
L 287.321402 626.826544 
L 287.504754 624.739596 
L 287.688105 618.324647 
L 288.054808 593.2188 
L 288.971566 517.633277 
L 289.154918 512.031339 
L 289.338269 511.182323 
L 289.521621 514.47303 
L 290.255027 539.405155 
L 290.438379 540.307373 
L 290.621731 536.932425 
L 290.988434 518.206806 
L 291.72184 469.432301 
L 291.905192 464.51805 
L 292.088543 464.103984 
L 292.271895 458.449002 
L 292.638598 435.115598 
L 293.188653 394.331976 
L 293.555356 381.182169 
L 293.738708 380.735963 
L 293.922059 383.652005 
L 294.472114 397.719687 
L 294.655465 398.419196 
L 294.838817 394.826465 
L 295.20552 373.282839 
L 296.488981 257.280686 
L 296.672333 252.188308 
L 296.855685 250.592679 
L 297.039036 251.323356 
L 297.405739 253.81089 
L 297.589091 252.729344 
L 297.772442 248.774784 
L 298.139146 231.53688 
L 299.055904 173.529529 
L 299.239255 168.621997 
L 299.422607 167.559862 
L 299.605958 170.177968 
L 299.972662 183.758505 
L 300.889419 223.517948 
L 301.806177 250.941987 
L 302.356232 282.707079 
L 303.823045 400.288771 
L 305.473209 530.274955 
L 306.023264 550.844684 
L 306.573319 565.71736 
L 306.940022 580.763472 
L 307.85678 627.541562 
L 308.040131 631.24517 
L 308.223483 631.123922 
L 308.406835 627.057221 
L 308.773538 609.06961 
L 309.506944 565.961906 
L 309.690296 560.730977 
L 309.873647 558.878923 
L 310.056999 560.013372 
L 310.607054 569.8539 
L 310.790405 570.284885 
L 310.973757 567.095973 
L 311.34046 547.907927 
L 312.623921 445.347424 
L 312.807273 443.578787 
L 312.990624 446.033525 
L 313.724031 468.709752 
L 313.907382 469.292331 
L 314.090734 465.650286 
L 314.457437 446.421488 
L 315.190843 396.177679 
L 315.374195 390.794673 
L 315.557547 390.818558 
L 315.740898 385.608094 
L 316.107601 363.086892 
L 316.657656 323.205598 
L 317.024359 310.607161 
L 317.207711 310.511396 
L 317.391062 313.870595 
L 317.941117 330.012561 
L 318.124469 331.655391 
L 318.30782 329.104669 
L 318.491172 321.785694 
L 318.857875 294.021451 
L 319.774633 209.941551 
L 320.141336 198.037641 
L 320.324688 197.790054 
L 320.691391 203.13348 
L 320.874743 205.724063 
L 321.058094 206.4208 
L 321.241446 204.313957 
L 321.608149 190.862041 
L 322.524907 141.849707 
L 322.708258 138.624418 
L 322.89161 139.231052 
L 323.074962 143.520183 
L 323.441665 160.493528 
L 324.358423 208.824941 
L 325.275181 243.32391 
L 325.825235 278.232984 
L 327.658751 431.915669 
L 328.758861 521.033594 
L 329.308916 545.792617 
L 330.409025 577.902573 
L 331.325783 621.589164 
L 331.509135 624.720404 
L 331.692486 624.037145 
L 331.875838 619.411208 
L 332.242541 600.284907 
L 332.975947 554.779967 
L 333.342651 546.556732 
L 333.526002 547.182401 
L 334.076057 555.858162 
L 334.259409 556.023771 
L 334.44276 552.618278 
L 334.809463 533.088812 
L 336.092924 429.374251 
L 336.276276 427.473521 
L 336.459628 429.834174 
L 337.193034 452.59487 
L 337.376386 453.289728 
L 337.559737 449.772624 
L 337.92644 430.775531 
L 338.659847 380.69334 
L 338.843198 375.288779 
L 339.209901 375.263145 
L 339.576605 374.939554 
L 339.943308 374.255125 
L 340.493363 372.633415 
L 341.776824 367.76741 
L 342.51023 364.380272 
L 343.426988 358.842969 
L 347.460723 332.992385 
L 348.927536 325.361715 
L 350.027645 320.647385 
L 350.944403 317.834658 
L 352.044513 315.33968 
L 352.777919 314.181881 
L 353.327974 313.793995 
L 353.878028 313.783358 
L 355.528193 314.193195 
L 355.894896 314.556539 
L 356.444951 315.530885 
L 357.728412 318.117802 
L 358.461818 319.299063 
L 359.011873 320.684112 
L 361.02874 326.830263 
L 361.578795 328.293224 
L 362.312202 331.129926 
L 362.495553 332.140309 
L 362.678905 327.953929 
L 363.045608 307.545502 
L 363.595663 270.937932 
L 363.962366 260.64917 
L 364.145717 261.773405 
L 364.512421 273.252772 
L 364.879124 286.680891 
L 365.062475 289.785207 
L 365.245827 288.718924 
L 365.429179 282.894169 
L 365.795882 258.100595 
L 366.71264 181.060444 
L 366.895991 174.329391 
L 367.079343 171.80566 
L 367.262694 172.851484 
L 367.996101 186.393888 
L 368.179452 185.422769 
L 368.362804 181.244037 
L 368.729507 164.703683 
L 369.279562 135.307753 
L 369.646265 126.74559 
L 369.829617 127.975547 
L 370.012968 132.847473 
L 370.379671 150.890187 
L 371.296429 201.518106 
L 372.213187 237.913876 
L 372.763242 273.969942 
L 374.413406 418.142298 
L 375.880219 542.285977 
L 376.430274 566.337277 
L 377.16368 592.990592 
L 377.897087 637.034276 
L 378.26379 655.750439 
L 378.447141 660.702608 
L 378.630493 661.825196 
L 378.813844 659.004455 
L 379.180548 643.543952 
L 379.913954 605.697387 
L 380.097306 601.791071 
L 380.280657 601.240712 
L 380.464009 603.638087 
L 381.014064 616.91421 
L 381.197415 618.357063 
L 381.380767 616.120808 
L 381.564118 609.570312 
L 381.930821 584.213307 
L 382.847579 507.980649 
L 383.030931 502.254507 
L 383.214283 501.29316 
L 383.397634 504.488239 
L 384.131041 529.24555 
L 384.314392 530.147434 
L 384.497744 526.779686 
L 384.864447 508.066451 
L 385.597853 459.20341 
L 385.781205 454.243468 
L 386.147908 453.954852 
L 386.514611 453.322179 
L 387.064666 451.658666 
L 387.798072 448.398689 
L 388.71483 443.360631 
L 389.631588 437.053532 
L 390.915049 426.063572 
L 392.931917 406.699915 
L 396.048894 376.782047 
L 398.065761 360.532087 
L 399.165871 353.304373 
L 400.632683 345.189761 
L 401.732793 340.279952 
L 402.832903 336.306367 
L 403.74966 333.807609 
L 405.216473 330.607608 
L 405.766528 329.736697 
L 406.316583 329.25898 
L 408.516802 328.145275 
L 408.883505 328.270248 
L 409.250208 328.593209 
L 409.43356 329.096686 
L 409.616911 324.419511 
L 409.983614 303.085407 
L 410.533669 265.230685 
L 410.900372 254.1962 
L 411.083724 254.972587 
L 411.450427 265.811825 
L 411.81713 278.687427 
L 412.000482 281.553549 
L 412.183834 280.276293 
L 412.367185 274.268137 
L 412.733888 249.187848 
L 413.650646 171.847661 
L 413.833998 165.128 
L 414.017349 162.643258 
L 414.200701 163.758027 
L 414.934107 177.900575 
L 415.117459 177.156621 
L 415.300811 173.229918 
L 415.667514 157.250182 
L 416.217568 128.777594 
L 416.40092 123.090954 
L 416.584272 120.8628 
L 416.767623 122.426369 
L 417.134326 135.928154 
L 418.417788 206.284557 
L 419.151194 236.80602 
L 419.701249 273.502758 
L 421.351413 418.147408 
L 422.818226 540.72012 
L 423.36828 563.747712 
L 424.101687 588.662657 
L 424.651742 619.561194 
L 425.201796 648.594321 
L 425.385148 653.102723 
L 425.568499 653.786824 
L 425.751851 650.528338 
L 426.118554 634.177354 
L 426.851961 594.463529 
L 427.035312 590.094687 
L 427.218664 589.099031 
L 427.402015 591.076866 
L 427.95207 603.304882 
L 428.135422 604.471624 
L 428.318773 601.989137 
L 428.502125 595.214518 
L 428.868828 569.44153 
L 429.785586 492.1389 
L 429.968938 486.20702 
L 430.152289 485.058945 
L 430.335641 488.094109 
L 431.069047 512.546791 
L 431.252399 513.44291 
L 431.43575 510.081853 
L 431.802453 491.37967 
L 432.53586 442.358344 
L 432.719211 437.321056 
L 432.902563 437.197085 
L 433.085915 431.825249 
L 433.452618 408.994685 
L 434.002673 368.760062 
L 434.369376 355.915774 
L 434.552727 355.643567 
L 434.736079 358.765804 
L 435.286134 373.719738 
L 435.469485 374.803511 
L 435.652837 371.627514 
L 436.01954 350.968017 
L 437.303001 237.923693 
L 437.486353 233.277152 
L 437.669704 232.159662 
L 437.853056 233.406845 
L 438.219759 237.046563 
L 438.403111 236.592298 
L 438.586462 233.287952 
L 438.953165 217.37668 
L 439.869923 162.492354 
L 440.053275 158.166107 
L 440.236627 157.680468 
L 440.419978 160.875949 
L 440.786681 175.629493 
L 441.703439 218.355712 
L 442.620197 248.234628 
L 443.170252 281.098636 
L 444.637065 400.590267 
L 446.287229 530.7692 
L 446.837284 551.033853 
L 447.387338 565.443162 
L 447.754042 580.117346 
L 448.6708 625.952292 
L 448.854151 629.481667 
L 449.037503 629.189466 
L 449.220854 624.95268 
L 449.587558 606.618429 
L 450.320964 562.779598 
L 450.504315 557.370397 
L 450.687667 555.350258 
L 450.871019 556.331305 
L 451.421073 565.827502 
L 451.604425 566.182891 
L 451.787777 562.933836 
L 452.15448 543.654309 
L 453.437941 440.784106 
L 453.621292 438.981404 
L 453.804644 441.413939 
L 454.53805 464.143811 
L 454.721402 464.767549 
L 454.904754 461.170265 
L 455.271457 442.024412 
L 456.004863 391.850485 
L 456.188215 386.465422 
L 456.554918 386.162387 
L 456.921621 385.594815 
L 457.471676 384.153744 
L 458.205082 381.382589 
L 459.488543 375.594319 
L 460.405301 370.199022 
L 463.522278 348.586788 
L 464.989091 338.741611 
L 466.639255 329.444015 
L 467.556013 325.258535 
L 468.472771 322.005924 
L 469.572881 318.97119 
L 470.306287 317.544634 
L 470.856342 316.941344 
L 471.589748 316.571457 
L 472.689858 316.201106 
L 473.056561 316.260758 
L 473.423264 316.536761 
L 473.973319 317.317561 
L 474.890077 318.715614 
L 475.990186 320.09722 
L 476.540241 321.419344 
L 478.007054 325.484458 
L 478.923812 327.483077 
L 479.473866 329.328868 
L 479.84057 331.011809 
L 480.023921 326.776146 
L 480.390624 306.274753 
L 480.940679 269.540489 
L 481.307382 259.176376 
L 481.490734 260.266505 
L 481.857437 271.687 
L 482.22414 285.071313 
L 482.407492 288.159901 
L 482.590843 287.081944 
L 482.774195 281.249311 
L 483.140898 256.449842 
L 484.057656 179.439817 
L 484.241008 172.723084 
L 484.424359 170.217423 
L 484.607711 171.285575 
L 485.341117 184.964377 
L 485.524469 184.038159 
L 485.70782 179.907469 
L 486.074524 163.469419 
L 486.624578 134.232998 
L 486.991281 125.778349 
L 487.174633 127.062813 
L 487.357985 131.990134 
L 487.724688 150.147044 
L 488.641446 201.069087 
L 489.741555 248.068771 
L 490.29161 288.916493 
L 493.408587 551.709356 
L 493.958642 571.912752 
L 494.508697 592.501935 
L 495.242103 636.312374 
L 495.608806 654.916983 
L 495.792158 659.815167 
L 495.975509 660.884445 
L 496.158861 658.010496 
L 496.525564 642.441722 
L 497.25897 604.367992 
L 497.442322 600.405507 
L 497.625674 599.801186 
L 497.809025 602.147879 
L 498.35908 615.29859 
L 498.542432 616.708862 
L 498.725783 614.443767 
L 498.909135 607.867188 
L 499.275838 582.462001 
L 500.192596 506.104973 
L 500.375947 500.354972 
L 500.559299 499.372117 
L 500.742651 502.548999 
L 501.476057 527.274623 
L 501.659409 528.17714 
L 501.84276 524.811493 
L 502.209463 506.101982 
L 502.94287 457.223652 
L 503.126221 452.255162 
L 503.492924 451.986929 
L 503.859628 451.373544 
L 504.409682 449.735083 
L 505.143089 446.506331 
L 506.243198 440.393595 
L 507.159956 433.834919 
L 508.626769 421.023331 
L 510.826988 399.756681 
L 513.39391 375.55261 
L 515.410778 359.531046 
L 516.510887 352.423946 
L 517.9777 344.479248 
L 519.077809 339.694755 
L 520.177919 335.832444 
L 521.094677 333.437768 
L 522.56149 330.377478 
L 523.111544 329.555888 
L 523.661599 329.13153 
L 525.311763 328.346258 
L 525.861818 328.1951 
L 526.228521 328.347611 
L 526.778576 328.920191 
L 527.511982 329.741293 
L 528.978795 330.958217 
L 529.52885 332.10428 
L 530.628959 334.536711 
L 531.912421 336.73784 
L 532.645827 338.987996 
L 533.562585 341.651012 
L 534.846046 344.52761 
L 535.762804 347.834918 
L 536.49621 350.148101 
L 537.963023 353.910142 
L 539.429836 359.066542 
L 540.896648 362.737316 
L 542.363461 367.631281 
L 543.830274 370.916805 
L 545.297087 375.265644 
L 546.763899 377.963087 
L 548.04736 381.28803 
L 548.597415 382.036463 
L 549.330821 382.908455 
L 549.880876 383.975842 
L 550.247579 384.744676 
L 550.430931 379.896746 
L 550.797634 358.24355 
L 551.347689 320.058186 
L 551.714392 308.794848 
L 551.897744 309.391569 
L 552.264447 319.631218 
L 552.63115 331.506564 
L 552.814502 333.724228 
L 552.997853 331.717202 
L 553.181205 324.918026 
L 553.547908 298.157032 
L 554.464666 216.539491 
L 554.831369 205.458763 
L 555.014721 205.531225 
L 555.748127 214.624288 
L 555.931479 212.435798 
L 556.298182 198.652072 
L 557.21494 148.271418 
L 557.398291 144.702983 
L 557.581643 144.936227 
L 557.764995 148.817575 
L 558.131698 164.866242 
L 559.048456 210.509816 
L 559.965214 242.804006 
L 560.515268 276.998883 
L 561.982081 401.409662 
L 563.632245 540.112385 
L 564.1823 564.067305 
L 564.915706 590.822195 
L 565.649113 635.094241 
L 566.015816 653.910186 
L 566.199168 658.905167 
L 566.382519 660.067447 
L 566.565871 657.285121 
L 566.932574 641.904231 
L 567.66598 604.232533 
L 567.849332 600.363011 
L 568.032683 599.840345 
L 568.216035 602.253131 
L 568.76609 615.485084 
L 568.949441 616.884432 
L 569.132793 614.594142 
L 569.316145 607.982486 
L 569.682848 582.494765 
L 570.599606 505.955172 
L 570.782957 500.167005 
L 570.966309 499.139538 
L 571.14966 502.263 
L 571.883067 526.679067 
L 572.066418 527.489036 
L 572.24977 524.031103 
L 572.616473 505.150214 
L 573.34988 456.022927 
L 573.533231 451.010203 
L 573.716583 450.635669 
L 573.899934 445.024517 
L 574.266637 421.776347 
L 574.816692 381.092098 
L 575.183395 368.01324 
L 575.366747 367.6183 
L 575.550099 370.603247 
L 576.100153 385.016096 
L 576.283505 385.877883 
L 576.466857 382.466583 
L 576.83356 361.323608 
L 578.117021 246.798958 
L 578.300372 241.94162 
L 578.483724 240.598923 
L 578.667076 241.603371 
L 579.033779 244.70328 
L 579.21713 243.956355 
L 579.400482 240.349822 
L 579.767185 223.826294 
L 580.683943 167.523572 
L 580.867295 162.935796 
L 581.050646 162.191016 
L 581.233998 165.127002 
L 581.600701 179.353019 
L 582.517459 220.7423 
L 583.434217 249.508863 
L 583.984272 281.868716 
L 585.451084 400.442721 
L 587.101249 530.415548 
L 587.651303 550.765654 
L 588.201358 565.32347 
L 588.568061 580.122277 
L 589.484819 626.277519 
L 589.668171 629.865647 
L 589.851522 629.630931 
L 590.034874 625.451272 
L 590.401577 607.233644 
L 591.134984 563.642012 
L 591.318335 558.29275 
L 591.501687 556.328588 
L 591.685038 557.359933 
L 592.235093 566.962543 
L 592.418445 567.338491 
L 592.601796 564.104185 
L 592.968499 544.843504 
L 594.251961 442.037379 
L 594.435312 440.240327 
L 594.618664 442.674273 
L 595.35207 465.359822 
L 595.535422 465.9631 
L 595.718773 462.344356 
L 596.085476 443.158719 
L 596.818883 392.941454 
L 597.002234 387.552809 
L 597.185586 387.636393 
L 597.368938 382.483008 
L 597.735641 360.06157 
L 598.285696 320.287859 
L 598.652399 307.745385 
L 598.83575 307.678788 
L 599.019102 311.070549 
L 599.569157 327.3407 
L 599.752508 329.036149 
L 599.93586 326.541242 
L 600.119211 319.279676 
L 600.485915 291.62889 
L 601.402673 207.796937 
L 601.769376 195.990599 
L 601.952727 195.796277 
L 602.31943 201.258837 
L 602.502782 203.915265 
L 602.686134 204.681203 
L 602.869485 202.645841 
L 603.236188 189.338837 
L 604.152946 140.662347 
L 604.336298 137.498917 
L 604.51965 138.166808 
L 604.703001 142.517246 
L 605.069704 159.615142 
L 605.986462 208.262228 
L 606.90322 243.024073 
L 607.453275 278.052197 
L 609.286791 431.979707 
L 610.3869 521.121268 
L 610.936955 545.865461 
L 612.037065 577.902855 
L 612.953823 621.514181 
L 613.137174 624.63163 
L 613.320526 623.934889 
L 613.503877 619.295564 
L 613.870581 600.141952 
L 614.603987 554.579133 
L 614.97069 546.328738 
L 615.154042 546.94262 
L 615.704096 555.593474 
L 615.887448 555.754295 
L 616.0708 552.345389 
L 616.437503 532.811624 
L 617.720964 429.082495 
L 617.904315 427.180483 
L 618.087667 429.540842 
L 618.821073 452.312072 
L 619.004425 453.011769 
L 619.187777 449.499743 
L 619.55448 430.512076 
L 620.287886 380.440219 
L 620.471238 375.036528 
L 620.837941 375.024988 
L 621.204644 374.713391 
L 621.571347 374.038346 
L 622.121402 372.427092 
L 623.404863 367.585532 
L 624.138269 364.212035 
L 625.055027 358.685549 
L 629.088762 332.884061 
L 630.555575 325.273102 
L 631.655685 320.572681 
L 632.572442 317.773104 
L 633.672552 315.292568 
L 634.405958 314.143599 
L 634.956013 313.762875 
L 635.506068 313.759611 
L 637.156232 314.187453 
L 637.522935 314.554566 
L 638.07299 315.534896 
L 639.356451 318.134115 
L 640.089858 319.320814 
L 640.639912 320.710106 
L 642.65678 326.86983 
L 643.206835 328.335537 
L 643.940241 331.176058 
L 645.04035 335.571601 
L 646.507163 340.322492 
L 648.157327 347.335415 
L 649.257437 350.907964 
L 651.274304 359.162 
L 652.191062 362.009359 
L 654.024578 369.132652 
L 655.124688 372.046748 
L 656.958204 378.168349 
L 658.058313 380.46539 
L 659.708478 385.074242 
L 661.358642 387.789846 
L 662.2754 389.879419 
L 662.825455 390.550468 
L 663.925564 391.455248 
L 665.575728 393.711132 
L 666.125783 393.802627 
L 666.675838 393.914638 
L 667.225893 394.343726 
L 667.592596 394.627467 
L 667.775947 389.52432 
L 668.142651 367.389872 
L 668.692705 328.574818 
L 669.059409 316.927925 
L 669.24276 317.330848 
L 669.609463 327.159313 
L 669.976166 338.58204 
L 670.159518 340.560646 
L 670.34287 338.310475 
L 670.526221 331.268294 
L 670.892924 304.037757 
L 671.809682 221.420102 
L 672.176386 209.982638 
L 672.359737 209.875319 
L 673.093143 218.217252 
L 673.276495 215.838975 
L 673.643198 201.690703 
L 674.559956 150.560513 
L 674.743308 146.868481 
L 674.926659 146.983235 
L 675.110011 150.749306 
L 675.476714 166.571372 
L 676.393472 211.666385 
L 677.31023 243.515366 
L 677.860285 277.493539 
L 679.327097 401.308588 
L 680.977262 539.286312 
L 681.527317 562.968432 
L 682.260723 589.313496 
L 682.994129 633.158256 
L 683.360832 651.767673 
L 683.544184 656.661435 
L 683.727536 657.723156 
L 683.910887 654.840179 
L 684.27759 639.254787 
L 685.010997 601.155826 
L 685.194348 597.179176 
L 685.3777 596.551825 
L 685.561051 598.863838 
L 686.111106 611.827368 
L 686.294458 613.149556 
L 686.477809 610.787362 
L 686.661161 604.107819 
L 687.027864 578.490566 
L 687.944622 501.623694 
L 688.127974 495.772031 
L 688.311325 494.684967 
L 688.494677 497.754379 
L 689.228083 522.026184 
L 689.411435 522.816164 
L 689.594786 519.341662 
L 689.96149 500.429589 
L 690.694896 451.209608 
L 690.878248 446.167065 
L 691.244951 445.685792 
L 691.611654 444.903044 
L 692.161709 443.10055 
L 692.895115 439.750485 
L 693.995225 433.498305 
L 694.911982 426.936249 
L 696.378795 414.299153 
L 698.945717 390.011517 
L 701.145936 370.091226 
L 702.979452 356.068066 
L 704.079562 349.121596 
L 705.363023 342.425976 
L 706.463133 337.740126 
L 707.563242 333.994142 
L 708.296648 332.062207 
L 709.213406 330.311495 
L 710.496867 328.205757 
L 711.046922 327.724954 
L 711.596977 327.63298 
L 712.513735 327.608489 
L 713.430493 327.409557 
L 713.797196 327.570311 
L 714.347251 328.217238 
L 715.44736 329.752664 
L 716.54747 330.841731 
L 717.097525 331.980988 
L 718.380986 335.167672 
L 719.664447 337.615508 
L 720.397853 340.012497 
L 721.314611 342.831667 
L 722.598072 345.869838 
L 723.51483 349.289517 
L 724.248237 351.672148 
L 725.715049 355.527035 
L 727.181862 360.745078 
L 728.648675 364.429088 
L 730.115487 369.303369 
L 731.5823 372.538285 
L 733.049113 376.804805 
L 734.515926 379.405159 
L 735.799387 382.619971 
L 736.349441 383.323364 
L 737.082848 384.133636 
L 737.632903 385.147677 
L 737.999606 385.873625 
L 738.182957 381.002169 
L 738.54966 359.304606 
L 739.099715 321.061548 
L 739.466418 309.76294 
L 739.64977 310.341558 
L 740.016473 320.541836 
L 740.383176 332.372338 
L 740.566528 334.565784 
L 740.74988 332.533816 
L 740.933231 325.709439 
L 741.299934 298.899076 
L 742.216692 217.173307 
L 742.583395 206.052425 
L 742.766747 206.104222 
L 743.500153 215.107858 
L 743.683505 212.896025 
L 744.050208 199.066587 
L 744.966966 148.587457 
L 745.150318 145.002051 
L 745.333669 145.218825 
L 745.517021 149.083977 
L 745.883724 165.100429 
L 746.800482 210.664746 
L 747.71724 242.89417 
L 748.267295 277.058606 
L 749.734107 401.397721 
L 751.384272 540.036005 
L 751.934326 563.970695 
L 752.667733 590.697179 
L 753.401139 634.940599 
L 753.767842 653.742624 
L 753.951194 658.730734 
L 754.134545 659.886164 
L 754.317897 657.096973 
L 754.6846 641.702145 
L 755.418007 604.001398 
L 755.601358 600.124536 
L 755.78471 599.59463 
L 755.968061 602.000356 
L 756.518116 615.212817 
L 756.701468 616.606314 
L 756.884819 614.310463 
L 757.068171 607.693475 
L 757.434874 582.195467 
L 758.351632 505.630069 
L 758.534984 499.836876 
L 758.718335 498.804627 
L 758.901687 501.923659 
L 759.635093 526.326692 
L 759.818445 527.134496 
L 760.001796 523.674655 
L 760.368499 504.790191 
L 761.101906 455.654166 
L 761.285257 450.638889 
L 761.468609 450.265876 
L 761.651961 444.656331 
L 762.018664 421.411189 
L 762.568719 380.730395 
L 762.935422 367.653825 
L 763.118773 367.26044 
L 763.302125 370.24742 
L 763.85218 384.670152 
L 764.035531 385.536519 
L 764.218883 382.130313 
L 764.585586 360.998513 
L 765.869047 246.514456 
L 766.052399 241.663524 
L 766.23575 240.327716 
L 766.419102 241.339618 
L 766.785805 244.456193 
L 766.969157 243.718371 
L 767.152508 240.121301 
L 767.519211 223.617182 
L 768.435969 167.360687 
L 768.619321 162.781572 
L 768.802673 162.045388 
L 768.986024 164.989982 
L 769.352727 179.233479 
L 770.269485 220.666908 
L 771.186243 249.469862 
L 771.736298 281.845858 
L 773.203111 400.446946 
L 774.853275 530.419849 
L 775.40333 550.764198 
L 775.953384 565.31371 
L 776.320088 580.105978 
L 777.236846 626.244737 
L 777.420197 629.82981 
L 777.603549 629.592094 
L 777.7869 625.409449 
L 778.153604 607.185739 
L 778.88701 563.581308 
L 779.070361 558.228918 
L 779.253713 556.261792 
L 779.437065 557.290415 
L 779.987119 566.886763 
L 780.170471 567.26127 
L 780.353823 564.025781 
L 780.720526 544.763217 
L 782.003987 441.950726 
L 782.187338 440.15294 
L 782.37069 442.586355 
L 783.104096 465.272232 
L 783.287448 465.876078 
L 783.4708 462.25797 
L 783.837503 443.073512 
L 784.570909 392.85701 
L 784.754261 387.46823 
L 785.120964 387.10758 
L 785.487667 386.491051 
L 786.037722 384.996101 
L 786.771128 382.172379 
L 788.054589 376.280369 
L 788.971347 370.831144 
L 792.088324 349.068517 
L 793.555137 339.152402 
L 795.205301 329.768824 
L 796.305411 324.805425 
L 797.222169 321.659103 
L 798.322278 318.716026 
L 798.872333 317.678535 
L 799.422388 317.046355 
L 800.155794 316.638895 
L 801.255904 316.222935 
L 801.622607 316.268134 
L 801.98931 316.528894 
L 802.539365 317.286028 
L 803.456123 318.64944 
L 804.556232 319.998669 
L 805.106287 321.303867 
L 806.5731 325.329247 
L 807.489858 327.309956 
L 808.039912 329.144702 
L 808.406616 330.822026 
L 808.589967 326.584555 
L 808.95667 306.079755 
L 809.506725 269.340585 
L 809.873428 258.973623 
L 810.05678 260.062649 
L 810.423483 271.481954 
L 810.790186 284.866763 
L 810.973538 287.95625 
L 811.156889 286.87958 
L 811.340241 281.04856 
L 811.706944 256.253007 
L 812.623702 179.254964 
L 812.807054 172.541134 
L 812.990405 170.038689 
L 813.173757 171.11044 
L 813.907163 184.807977 
L 814.090515 183.887391 
L 814.273866 179.762565 
L 814.64057 163.33657 
L 815.190624 134.118052 
L 815.557327 125.675015 
L 815.740679 126.965269 
L 815.924031 131.898424 
L 816.290734 150.067257 
L 817.207492 201.019686 
L 818.307601 248.048562 
L 818.857656 288.906298 
L 821.974633 551.701351 
L 822.524688 571.896008 
L 823.074743 592.474172 
L 823.808149 636.268602 
L 824.174852 654.865575 
L 824.358204 659.760075 
L 824.541555 660.825722 
L 824.724907 657.948151 
L 825.09161 642.372003 
L 825.825016 604.282787 
L 826.008368 600.316487 
L 826.19172 599.708517 
L 826.375071 602.051805 
L 826.925126 615.194272 
L 827.108478 616.602472 
L 827.291829 614.335576 
L 827.475181 607.757395 
L 827.841884 582.34929 
L 828.758642 505.984659 
L 828.941993 500.233206 
L 829.125345 499.249065 
L 829.308697 502.424891 
L 830.042103 527.14915 
L 830.225455 528.051909 
L 830.408806 524.686598 
L 830.775509 505.977698 
L 831.508916 457.098927 
L 831.692267 452.129983 
L 832.05897 451.863519 
L 832.425674 451.251751 
L 832.975728 449.615293 
L 833.709135 446.388889 
L 834.809244 440.280793 
L 835.726002 433.726097 
L 837.192815 420.920627 
L 839.393034 399.665776 
L 841.959956 375.4782 
L 843.976824 359.470955 
L 845.076933 352.371394 
L 846.543746 344.437275 
L 847.643855 339.660556 
L 848.743965 335.805119 
L 849.660723 333.416856 
L 851.127536 330.365135 
L 851.67759 329.54656 
L 852.227645 329.12546 
L 853.877809 328.348603 
L 854.427864 328.199799 
L 854.794567 328.353975 
L 855.161271 328.707148 
L 855.344622 329.222879 
L 855.527974 324.557548 
L 855.894677 303.245778 
L 856.444732 265.421238 
L 856.811435 254.404777 
L 856.994786 255.189508 
L 857.36149 266.043852 
L 857.728193 278.932043 
L 857.911544 281.803389 
L 858.094896 280.530614 
L 858.278248 274.526206 
L 858.644951 249.45136 
L 859.561709 172.114524 
L 859.74506 165.39374 
L 859.928412 162.907146 
L 860.111763 164.019262 
L 860.84517 178.142438 
L 861.028521 177.391582 
L 861.211873 173.457336 
L 861.578576 157.461112 
L 862.128631 128.961946 
L 862.311982 123.266193 
L 862.495334 121.0288 
L 862.678686 122.582969 
L 863.045389 136.065331 
L 864.32885 206.350428 
L 865.062256 236.838633 
L 865.612311 273.517383 
L 867.262475 418.146454 
L 868.729288 540.757958 
L 869.279343 563.811486 
L 870.012749 588.770712 
L 870.562804 619.705996 
L 871.112859 648.77457 
L 871.29621 653.294291 
L 871.479562 653.989572 
L 871.662913 650.742244 
L 872.029617 634.413956 
L 872.763023 594.747729 
L 872.946375 590.390672 
L 873.129726 589.406357 
L 873.313078 591.394867 
L 873.863133 603.64948 
L 874.046484 604.823198 
L 874.229836 602.346917 
L 874.413187 595.577933 
L 874.77989 569.815385 
L 875.696648 492.539632 
L 875.88 486.612921 
L 876.063352 485.469529 
L 876.246703 488.50869 
L 876.98011 512.968804 
L 877.163461 513.864984 
L 877.346813 510.503673 
L 877.713516 491.801047 
L 878.446922 442.783482 
L 878.630274 437.748109 
L 878.813625 437.619543 
L 878.996977 432.243222 
L 879.36368 409.404689 
L 879.913735 369.161363 
L 880.280438 356.312242 
L 880.46379 356.03729 
L 880.647141 359.156277 
L 881.197196 374.096268 
L 881.380548 375.173997 
L 881.563899 371.991447 
L 881.930602 351.318047 
L 883.214064 238.227246 
L 883.397415 233.573708 
L 883.580767 232.448718 
L 883.764118 233.687798 
L 884.130821 237.309443 
L 884.314173 236.845337 
L 884.497525 233.530791 
L 884.864228 217.598707 
L 885.780986 162.665386 
L 885.964337 158.330023 
L 886.147689 157.835343 
L 886.331041 161.021772 
L 886.697744 175.756926 
L 887.614502 218.436633 
L 888.53126 248.277053 
L 889.081314 281.12383 
L 890.548127 400.585511 
L 892.198291 530.761388 
L 892.748346 551.030807 
L 893.298401 565.44736 
L 893.665104 580.12736 
L 894.581862 625.977056 
L 894.765214 629.509154 
L 894.948565 629.219626 
L 895.131917 624.985499 
L 895.49862 606.656665 
L 896.232026 562.829259 
L 896.415378 557.422845 
L 896.598729 555.405333 
L 896.782081 556.388778 
L 897.332136 565.890354 
L 897.515487 566.246923 
L 897.698839 562.998805 
L 898.065542 543.720702 
L 899.349003 440.855317 
L 899.532355 439.053145 
L 899.715706 441.486025 
L 900.449113 464.215048 
L 900.632464 464.83814 
L 900.815816 461.240154 
L 901.182519 442.092999 
L 901.915926 391.91797 
L 902.099277 386.532937 
L 902.46598 386.227702 
L 902.832683 385.658223 
L 903.382738 384.214982 
L 904.116145 381.441587 
L 905.399606 375.64863 
L 906.316364 370.250588 
L 909.433341 348.629257 
L 910.900153 338.779349 
L 912.550318 329.475912 
L 913.467076 325.287159 
L 914.383834 322.030867 
L 915.483943 318.992202 
L 916.217349 317.563086 
L 916.767404 316.957678 
L 917.500811 316.584996 
L 918.60092 316.211167 
L 918.967623 316.269693 
L 919.334326 316.544499 
L 919.884381 317.323421 
L 920.801139 318.718651 
L 921.901249 320.097503 
L 922.451303 321.418156 
L 923.918116 325.47968 
L 924.834874 327.476574 
L 925.384929 329.321272 
L 925.751632 331.003574 
L 925.934984 326.767655 
L 926.301687 306.26578 
L 926.851742 269.530854 
L 927.218445 259.166348 
L 927.401796 260.256303 
L 927.768499 271.676507 
L 928.135203 285.060627 
L 928.318554 288.149157 
L 928.501906 287.071167 
L 928.685257 281.238523 
L 929.051961 256.43909 
L 929.968719 179.429396 
L 930.15207 172.712775 
L 930.335422 170.207248 
L 930.518773 171.275562 
L 931.25218 184.955291 
L 931.435531 184.02937 
L 931.618883 179.898996 
L 931.985586 163.46161 
L 932.535641 134.22621 
L 932.902344 125.772241 
L 933.085696 127.057049 
L 933.269047 131.984719 
L 933.63575 150.142345 
L 934.552508 201.066229 
L 935.652618 248.067684 
L 936.202673 288.915997 
L 939.31965 551.708338 
L 939.869704 571.910982 
L 940.419759 592.499241 
L 941.153165 636.308349 
L 941.519869 654.912322 
L 941.70322 659.810199 
L 941.886572 660.879173 
L 942.069923 658.004922 
L 942.436627 642.43553 
L 943.170033 604.360507 
L 943.353384 600.397702 
L 943.536736 599.793075 
L 943.720088 602.139479 
L 944.270142 615.289481 
L 944.453494 616.699571 
L 944.636846 614.434314 
L 944.820197 607.857589 
L 945.1869 582.452133 
L 946.103658 506.094411 
L 946.28701 500.344277 
L 946.470361 499.361303 
L 946.653713 502.538083 
L 947.387119 527.26354 
L 947.570471 528.166064 
L 947.753823 524.800432 
L 948.120526 506.090948 
L 948.853932 457.21254 
L 949.037284 452.244004 
L 949.403987 451.975892 
L 949.77069 451.362622 
L 950.320745 449.724309 
L 951.054151 446.495738 
L 952.154261 440.383372 
L 953.071019 433.825028 
L 954.537831 421.01397 
L 956.73805 399.74836 
L 959.304973 375.545759 
L 961.32184 359.525475 
L 962.42195 352.419051 
L 963.888762 344.475305 
L 964.988872 339.691514 
L 966.088981 335.829825 
L 967.005739 333.43573 
L 968.472552 330.376221 
L 969.022607 329.554906 
L 969.572662 329.130846 
L 971.222826 328.346346 
L 971.772881 328.195404 
L 972.139584 328.348069 
L 972.689639 328.920887 
L 973.423045 329.742275 
L 974.889858 330.959642 
L 975.439912 332.105876 
L 976.540022 334.538604 
L 977.823483 336.739981 
L 978.556889 338.990276 
L 979.473647 341.65343 
L 980.757108 344.530151 
L 981.673866 347.837532 
L 982.407273 350.150749 
L 983.874085 353.912805 
L 985.340898 359.069169 
L 986.807711 362.739859 
L 988.274524 367.63369 
L 989.741336 370.919058 
L 991.208149 375.267697 
L 992.674962 377.96494 
L 993.958423 381.289673 
L 994.508478 382.038026 
L 995.241884 382.90991 
L 995.791939 383.977206 
L 996.708697 385.921818 
L 997.258751 386.53855 
L 998.358861 387.378904 
L 999.092267 388.559421 
L 999.642322 389.344574 
L 1000.009025 389.618335 
L 1000.55908 389.730883 
L 1001.109135 389.873754 
L 1001.659189 390.345603 
L 1002.575947 391.268926 
L 1002.942651 391.368927 
L 1003.676057 391.190292 
L 1004.226112 391.189215 
L 1004.776166 391.493133 
L 1005.326221 391.819715 
L 1005.692924 391.863578 
L 1006.242979 391.619314 
L 1006.976386 391.208495 
L 1007.52644 391.214543 
L 1008.443198 391.367273 
L 1008.809901 391.203618 
L 1010.276714 390.162768 
L 1011.560175 389.942529 
L 1012.11023 389.427134 
L 1012.843636 388.685956 
L 1013.393691 388.431579 
L 1014.310449 388.175733 
L 1014.860504 387.684315 
L 1015.960613 386.517236 
L 1016.510668 386.29274 
L 1017.244074 386.015776 
L 1017.794129 385.497559 
L 1018.894239 384.300625 
L 1019.627645 384.009985 
L 1019.810997 378.768691 
L 1020.1777 356.373661 
L 1020.727755 317.191449 
L 1021.094458 305.330729 
L 1021.277809 305.64649 
L 1021.644513 315.36084 
L 1022.011216 326.768119 
L 1022.194567 328.777434 
L 1022.377919 326.581183 
L 1022.561271 319.612792 
L 1022.927974 292.573864 
L 1023.844732 210.589251 
L 1024.211435 199.49157 
L 1024.394786 199.587045 
L 1025.128193 209.002325 
L 1025.311544 206.94992 
L 1025.678248 193.491295 
L 1026.595005 144.107492 
L 1026.778357 140.757083 
L 1026.961709 141.214199 
L 1027.14506 145.325817 
L 1027.511763 161.855123 
L 1028.428521 208.754892 
L 1029.345279 242.100372 
L 1029.895334 276.727552 
L 1031.362147 401.446466 
L 1033.012311 538.856211 
L 1033.562366 562.030595 
L 1034.295772 587.467463 
L 1034.845827 618.888152 
L 1035.395882 648.415834 
L 1035.579233 653.074758 
L 1035.762585 653.904851 
L 1035.945936 650.790815 
L 1036.31264 634.735062 
L 1037.046046 595.648374 
L 1037.229398 591.428218 
L 1037.412749 590.567783 
L 1037.596101 592.662049 
L 1038.146156 605.095859 
L 1038.329507 606.283964 
L 1038.512859 603.804794 
L 1038.69621 597.020811 
L 1039.062913 571.212599 
L 1039.979671 493.849507 
L 1040.163023 487.902999 
L 1040.346375 486.731565 
L 1040.529726 489.73132 
L 1041.263133 513.905759 
L 1041.446484 514.708609 
L 1041.629836 511.253053 
L 1041.996539 492.375461 
L 1042.729945 443.119732 
L 1042.913297 438.046622 
L 1043.096648 437.805448 
L 1043.28 432.324719 
L 1043.646703 409.308553 
L 1044.196758 368.877981 
L 1044.563461 355.941035 
L 1044.746813 355.627406 
L 1044.930164 358.709078 
L 1045.480219 373.539919 
L 1045.663571 374.583541 
L 1045.846922 371.369707 
L 1046.213625 350.64646 
L 1047.497087 237.532646 
L 1047.680438 232.888488 
L 1047.86379 231.774436 
L 1048.047141 233.025887 
L 1048.413844 236.67686 
L 1048.597196 236.230015 
L 1048.780548 232.934602 
L 1049.147251 217.046101 
L 1050.064009 162.23947 
L 1050.24736 157.930245 
L 1050.430712 157.461712 
L 1050.614064 160.674346 
L 1050.980767 175.462347 
L 1051.897525 218.272864 
L 1052.814283 248.215266 
L 1053.364337 281.101105 
L 1055.014502 415.601889 
L 1056.481314 530.646277 
L 1057.031369 550.847691 
L 1057.581424 565.180616 
L 1057.948127 579.799177 
L 1058.864885 625.497549 
L 1059.048237 629.001266 
L 1059.231588 628.683729 
L 1059.41494 624.421673 
L 1059.781643 606.036143 
L 1060.515049 562.090447 
L 1060.698401 556.654828 
L 1060.881752 554.609214 
L 1061.065104 555.566181 
L 1061.615159 565.001524 
L 1061.79851 565.340621 
L 1061.981862 562.076928 
L 1062.348565 542.771401 
L 1063.632026 439.81351 
L 1063.815378 437.999685 
L 1063.998729 440.422587 
L 1064.732136 463.132863 
L 1064.915487 463.755768 
L 1065.098839 460.158411 
L 1065.465542 441.012416 
L 1066.198949 390.828112 
L 1066.3823 385.438273 
L 1066.565652 385.568038 
L 1066.749003 380.458583 
L 1067.115706 358.11358 
L 1067.665761 318.421944 
L 1068.032464 305.921468 
L 1068.215816 305.876274 
L 1068.399168 309.291536 
L 1068.949222 325.651698 
L 1069.132574 327.383395 
L 1069.315926 324.926615 
L 1069.499277 317.703946 
L 1069.86598 290.129085 
L 1070.782738 206.458145 
L 1071.149441 194.713675 
L 1071.332793 194.553012 
L 1071.699496 200.090749 
L 1071.882848 202.788671 
L 1072.066199 203.598154 
L 1072.249551 201.607692 
L 1072.616254 188.391401 
L 1073.533012 139.92345 
L 1073.716364 136.798247 
L 1073.899715 137.503974 
L 1074.083067 141.892277 
L 1074.44977 159.067134 
L 1075.366528 207.90951 
L 1076.283286 242.83446 
L 1076.833341 277.936923 
L 1078.666857 432.021911 
L 1079.766966 521.18414 
L 1080.317021 545.922818 
L 1081.41713 577.924338 
L 1082.333888 621.496851 
L 1082.51724 624.607229 
L 1082.700591 623.903592 
L 1082.883943 619.257425 
L 1083.250646 600.089839 
L 1083.984053 554.497279 
L 1084.350756 546.233045 
L 1084.534107 546.841025 
L 1085.084162 555.48007 
L 1085.267514 555.638927 
L 1085.450865 552.228821 
L 1085.817568 532.694047 
L 1087.10103 428.961464 
L 1087.284381 427.059373 
L 1087.467733 429.420185 
L 1088.201139 452.199424 
L 1088.384491 452.902256 
L 1088.567842 449.393466 
L 1088.934545 430.411805 
L 1089.667952 380.347212 
L 1089.851303 374.944391 
L 1090.034655 375.282648 
L 1090.218007 370.372137 
L 1090.58471 348.374268 
L 1091.134765 309.056306 
L 1091.501468 296.748563 
L 1091.684819 296.802718 
L 1091.868171 300.328032 
L 1092.418226 317.116214 
L 1092.601577 319.02221 
L 1092.784929 316.749685 
L 1092.96828 309.715902 
L 1093.334984 282.512452 
L 1094.251742 199.64295 
L 1094.618445 188.210571 
L 1094.801796 188.220009 
L 1095.535203 198.07603 
L 1095.718554 196.313311 
L 1096.085257 183.558128 
L 1097.002015 136.155385 
L 1097.185367 133.225976 
L 1097.368719 134.12554 
L 1097.55207 138.707819 
L 1097.918773 156.276808 
L 1098.835531 206.118611 
L 1099.752289 241.876938 
L 1100.302344 277.357772 
L 1102.319211 448.208429 
L 1103.235969 521.480056 
L 1103.786024 546.179422 
L 1104.886134 577.970071 
L 1105.802892 621.320514 
L 1105.986243 624.390292 
L 1106.169595 623.646998 
L 1106.352946 618.961468 
L 1106.71965 599.713558 
L 1107.453056 553.95051 
L 1107.819759 545.606508 
L 1108.003111 546.180084 
L 1108.553165 554.747822 
L 1108.736517 554.893615 
L 1108.919869 551.474617 
L 1109.286572 531.929709 
L 1110.570033 428.162724 
L 1110.753384 426.258075 
L 1110.936736 428.619289 
L 1111.670142 451.434999 
L 1111.853494 452.15345 
L 1112.036846 448.660935 
L 1112.403549 429.709488 
L 1113.136955 379.679448 
L 1113.320307 374.280078 
L 1113.503658 374.644013 
L 1113.68701 369.757642 
L 1114.053713 347.801332 
L 1114.603768 308.527524 
L 1114.970471 296.241441 
L 1115.153823 296.305977 
L 1115.337174 299.842149 
L 1115.887229 316.668448 
L 1116.070581 318.588792 
L 1116.253932 316.330893 
L 1116.437284 309.311565 
L 1116.803987 282.134925 
L 1117.720745 199.314891 
L 1118.087448 187.899203 
L 1118.2708 187.917542 
L 1119.004206 197.81529 
L 1119.187558 196.064014 
L 1119.554261 183.331457 
L 1120.471019 135.978013 
L 1120.65437 133.057341 
L 1120.837722 133.965527 
L 1121.021073 138.556432 
L 1121.387777 156.143007 
L 1122.304535 206.029821 
L 1123.221292 241.826516 
L 1123.771347 277.325607 
L 1125.788215 448.225472 
L 1126.704973 521.508568 
L 1127.255027 546.212609 
L 1128.355137 578.009636 
L 1129.271895 621.363721 
L 1129.455246 624.434242 
L 1129.638598 623.691704 
L 1129.82195 619.006938 
L 1130.188653 599.760549 
L 1130.922059 554.000498 
L 1131.288762 545.658117 
L 1131.472114 546.23259 
L 1132.022169 554.803451 
L 1132.20552 554.950412 
L 1132.388872 551.532618 
L 1132.755575 531.990156 
L 1134.039036 428.231397 
L 1134.222388 426.327892 
L 1134.405739 428.690242 
L 1135.139146 451.510219 
L 1135.322497 452.229622 
L 1135.505849 448.738007 
L 1135.872552 429.788229 
L 1136.605958 379.761273 
L 1136.78931 374.362644 
L 1137.156013 374.405173 
L 1137.522716 374.13921 
L 1137.889419 373.499469 
L 1138.439474 371.926825 
L 1139.722935 367.172951 
L 1140.456342 363.84652 
L 1141.3731 358.354451 
L 1145.406835 332.692999 
L 1146.873647 325.134342 
L 1147.973757 320.470427 
L 1148.890515 317.70458 
L 1149.990624 315.260732 
L 1150.724031 314.133853 
L 1151.274085 313.770698 
L 1151.82414 313.785257 
L 1153.474304 314.25518 
L 1153.841008 314.630783 
L 1154.391062 315.624421 
L 1155.674524 318.249846 
L 1156.591281 319.845247 
L 1157.141336 321.440499 
L 1158.608149 326.175765 
L 1159.524907 328.498821 
L 1160.258313 331.34492 
L 1161.358423 335.746461 
L 1162.825235 340.500677 
L 1164.4754 347.513214 
L 1165.575509 351.083005 
L 1167.592377 359.327227 
L 1168.509135 362.16885 
L 1170.342651 369.277057 
L 1171.44276 372.181741 
L 1173.276276 378.284437 
L 1174.376386 380.57071 
L 1176.02655 385.160949 
L 1177.676714 387.859587 
L 1178.593472 389.93869 
L 1179.143527 390.604246 
L 1180.243636 391.498675 
L 1181.893801 393.737841 
L 1182.443855 393.82481 
L 1182.99391 393.932327 
L 1183.543965 394.356538 
L 1183.910668 394.691553 
L 1184.09402 392.218347 
L 1184.460723 381.182617 
L 1185.010778 361.531856 
L 1185.377481 355.509999 
L 1185.560832 355.634653 
L 1185.927536 360.459982 
L 1186.294239 366.143772 
L 1186.47759 367.099674 
L 1186.660942 365.882621 
L 1186.844294 362.168493 
L 1187.210997 347.726714 
L 1188.127755 302.24706 
L 1188.494458 294.882189 
L 1188.677809 294.109628 
L 1188.861161 294.552649 
L 1189.227864 295.852738 
L 1189.411216 295.101388 
L 1189.594567 292.607056 
L 1189.961271 281.663645 
L 1191.06138 234.787891 
L 1191.244732 231.755091 
L 1191.428083 230.872164 
L 1191.611435 231.824547 
L 1192.528193 242.33316 
L 1192.711544 241.691384 
L 1193.078248 236.724038 
L 1193.628302 227.028065 
L 1193.811654 225.492233 
L 1193.995005 225.534977 
L 1194.178357 227.314998 
L 1194.54506 235.602848 
L 1195.461818 263.768542 
L 1195.461818 263.768542 
" style="fill:none;stroke:#0000ff;stroke-linecap:square;stroke-width:1.5;"/>
   </g>
   <g id="patch_3">
    <path d="M 172.8 693.9864 
L 172.8 93.5712 
" style="fill:none;stroke:#000000;stroke-linecap:square;stroke-linejoin:miter;stroke-width:0.8;"/>
   </g>
   <g id="patch_4">
    <path d="M 1244.16 693.9864 
L 1244.16 93.5712 
" style="fill:none;stroke:#000000;stroke-linecap:square;stroke-linejoin:miter;stroke-width:0.8;"/>
   </g>
   <g id="patch_5">
    <path d="M 172.8 693.9864 
L 1244.16 693.9864 
" style="fill:none;stroke:#000000;stroke-linecap:square;stroke-linejoin:miter;stroke-width:0.8;"/>
   </g>
   <g id="patch_6">
    <path d="M 172.8 93.5712 
L 1244.16 93.5712 
" style="fill:none;stroke:#000000;stroke-linecap:square;stroke-linejoin:miter;stroke-width:0.8;"/>
   </g>
  </g>
 </g>
 <defs>
  <clipPath id="p4bcf3dabf9">
   <rect height="600.4152" width="1071.36" x="172.8" y="93.5712"/>
  </clipPath>
 </defs>
</svg>
